<?xml version="1.0" encoding="UTF-8" standalone="no"?><svg xmlns="http://www.w3.org/2000/svg" xmlns:xlink="http://www.w3.org/1999/xlink" contentScriptType="application/ecmascript" contentStyleType="text/css" height="22.2px" preserveAspectRatio="none" style="width:54px;height:22px;" version="1.1" viewBox="0 0 54 22" width="54.4px" zoomAndPan="magnify"><defs><filter height="300%" id="f1opqdb58hjdi3" width="300%" x="-1" y="-1"><feGaussianBlur result="blurOut" stdDeviation="0.08"/><feColorMatrix in="blurOut" result="blurOut2" type="matrix" values="0 0 0 0 0 0 0 0 0 0 0 0 0 0 0 0 0 0 .4 0"/><feOffset dx="0.16" dy="0.16" in="blurOut2" result="blurOut3"/><feBlend in="SourceGraphic" in2="blurOut3" mode="normal"/></filter></defs><g><!--cluster FileService--><polygon fill="#FFFFFF" filter="url(#f1opqdb58hjdi3)" points="0.88,8.76,5.6,8.76,5.88,10.1069,53.52,10.1069,53.52,21.72,0.88,21.72,0.88,8.76" style="stroke: #000000; stroke-width: 0.06;"/><line style="stroke: #000000; stroke-width: 0.06;" x1="0.88" x2="5.88" y1="10.1069" y2="10.1069"/><text fill="#000000" font-family="sans-serif" font-size="0.88" font-weight="bold" lengthAdjust="spacingAndGlyphs" textLength="4.48" x="1.04" y="9.7535">FileService</text><!--cluster org.yaml.snakeyaml--><polygon fill="#FFFFFF" filter="url(#f1opqdb58hjdi3)" points="35.64,0.96,43.92,0.96,44.2,2.3069,53.24,2.3069,53.24,7.8,35.64,7.8,35.64,0.96" style="stroke: #000000; stroke-width: 0.06;"/><line style="stroke: #000000; stroke-width: 0.06;" x1="35.64" x2="44.2" y1="2.3069" y2="2.3069"/><text fill="#000000" font-family="sans-serif" font-size="0.88" font-weight="bold" lengthAdjust="spacingAndGlyphs" textLength="8.04" x="35.8" y="1.9535">org.yaml.snakeyaml</text><!--class FileService.YamlService--><rect fill="#FEFECE" filter="url(#f1opqdb58hjdi3)" height="6.5744" id="FileService.YamlService" style="stroke: #A80036; stroke-width: 0.06;" width="16.88" x="36" y="10.6"/><ellipse cx="41.83" cy="11.3534" fill="#ADD1B2" rx="0.52" ry="0.52" style="stroke: #A80036; stroke-width: 0.04;"/><path d="M41.9325,11.1247 Q41.9406,11.1141 41.9503,11.1084 Q41.96,11.1028 41.9706,11.1028 Q41.99,11.1028 42.0025,11.1159 Q42.015,11.1291 42.015,11.1609 L42.015,11.2359 Q42.015,11.2678 42.0025,11.2813 Q41.99,11.2947 41.9706,11.2947 Q41.9531,11.2947 41.9425,11.2847 Q41.9319,11.2747 41.9269,11.2478 Q41.9238,11.2297 41.9144,11.2197 Q41.8969,11.2003 41.8653,11.1888 Q41.8338,11.1772 41.8019,11.1772 Q41.7625,11.1772 41.7294,11.1944 Q41.6963,11.2116 41.6709,11.2503 Q41.6456,11.2891 41.6456,11.3422 L41.6456,11.3997 Q41.6456,11.4634 41.6919,11.5059 Q41.7381,11.5484 41.82,11.5484 Q41.8688,11.5484 41.9031,11.5347 Q41.9225,11.5272 41.945,11.5047 Q41.9588,11.4909 41.9666,11.4866 Q41.9744,11.4822 41.9844,11.4822 Q42.0019,11.4822 42.0153,11.4956 Q42.0288,11.5091 42.0288,11.5272 Q42.0288,11.5453 42.0106,11.5659 Q41.9844,11.5959 41.9431,11.6128 Q41.8875,11.6366 41.8206,11.6366 Q41.7425,11.6366 41.6794,11.6041 Q41.6288,11.5784 41.5931,11.5228 Q41.5575,11.4672 41.5575,11.4016 L41.5575,11.3416 Q41.5575,11.2728 41.5894,11.2134 Q41.6213,11.1541 41.6781,11.1216 Q41.735,11.0891 41.7988,11.0891 Q41.8369,11.0891 41.87,11.0981 Q41.9031,11.1072 41.9325,11.1247 Z "/><text fill="#000000" font-family="sans-serif" font-size="0.88" lengthAdjust="spacingAndGlyphs" textLength="4.84" x="42.77" y="11.7135">YamlService</text><line style="stroke: #A80036; stroke-width: 0.06;" x1="36.04" x2="52.84" y1="12.1069" y2="12.1069"/><line style="stroke: #A80036; stroke-width: 0.06;" x1="36.04" x2="52.84" y1="12.4269" y2="12.4269"/><ellipse cx="36.44" cy="13.2003" fill="#84BE84" rx="0.12" ry="0.12" style="stroke: #038048; stroke-width: 0.04;"/><text fill="#000000" font-family="sans-serif" font-size="0.88" lengthAdjust="spacingAndGlyphs" text-decoration="underline" textLength="15.76" x="36.88" y="13.5004">saveAs(path : String, data : Object) : void</text><ellipse cx="36.44" cy="14.3072" fill="#84BE84" rx="0.12" ry="0.12" style="stroke: #038048; stroke-width: 0.04;"/><text fill="#000000" font-family="sans-serif" font-size="0.88" lengthAdjust="spacingAndGlyphs" text-decoration="underline" textLength="10" x="36.88" y="14.6073">load(path : String) : Object</text><ellipse cx="36.44" cy="15.4141" fill="#84BE84" rx="0.12" ry="0.12" style="stroke: #038048; stroke-width: 0.04;"/><text fill="#000000" font-family="sans-serif" font-size="0.88" lengthAdjust="spacingAndGlyphs" text-decoration="underline" textLength="14.72" x="36.88" y="15.7141">save(path : String, data : Object) : void</text><ellipse cx="36.44" cy="16.5209" fill="#84BE84" rx="0.12" ry="0.12" style="stroke: #038048; stroke-width: 0.04;"/><text fill="#000000" font-family="sans-serif" font-size="0.88" lengthAdjust="spacingAndGlyphs" text-decoration="underline" textLength="15.2" x="36.88" y="16.821">delete(path : String, data : Object) : void</text><path d="M36.32,19.56 L36.32,21.0669 A0,0 0 0 0 36.32,21.0669 L52.56,21.0669 A0,0 0 0 0 52.56,21.0669 L52.56,19.96 L52.16,19.56 L44.6,19.56 L44.44,17.1745 L44.28,19.56 L36.32,19.56 A0,0 0 0 0 36.32,19.56 " fill="#FBFB77" filter="url(#f1opqdb58hjdi3)" style="stroke: #A80036; stroke-width: 0.04;"/><path d="M52.16,19.56 L52.16,19.96 L52.56,19.96 L52.16,19.56 " fill="#FBFB77" style="stroke: #A80036; stroke-width: 0.04;"/><text fill="#000000" font-family="sans-serif" font-size="0.88" lengthAdjust="spacingAndGlyphs" textLength="15.4" x="36.56" y="20.6735">for sensors, transformations, configs (?)</text><!--class FileService.CsvService--><rect fill="#FEFECE" filter="url(#f1opqdb58hjdi3)" height="4.3606" id="FileService.CsvService" style="stroke: #A80036; stroke-width: 0.06;" width="15.84" x="18.76" y="11.7"/><ellipse cx="24.27" cy="12.4534" fill="#ADD1B2" rx="0.52" ry="0.52" style="stroke: #A80036; stroke-width: 0.04;"/><path d="M24.3725,12.2247 Q24.3806,12.2141 24.3903,12.2084 Q24.4,12.2028 24.4106,12.2028 Q24.43,12.2028 24.4425,12.2159 Q24.455,12.2291 24.455,12.2609 L24.455,12.3359 Q24.455,12.3678 24.4425,12.3813 Q24.43,12.3947 24.4106,12.3947 Q24.3931,12.3947 24.3825,12.3847 Q24.3719,12.3747 24.3669,12.3478 Q24.3638,12.3297 24.3544,12.3197 Q24.3369,12.3003 24.3053,12.2888 Q24.2738,12.2772 24.2419,12.2772 Q24.2025,12.2772 24.1694,12.2944 Q24.1363,12.3116 24.1109,12.3503 Q24.0856,12.3891 24.0856,12.4422 L24.0856,12.4997 Q24.0856,12.5634 24.1319,12.6059 Q24.1781,12.6484 24.26,12.6484 Q24.3088,12.6484 24.3431,12.6347 Q24.3625,12.6272 24.385,12.6047 Q24.3988,12.5909 24.4066,12.5866 Q24.4144,12.5822 24.4244,12.5822 Q24.4419,12.5822 24.4553,12.5956 Q24.4688,12.6091 24.4688,12.6272 Q24.4688,12.6453 24.4506,12.6659 Q24.4244,12.6959 24.3831,12.7128 Q24.3275,12.7366 24.2606,12.7366 Q24.1825,12.7366 24.1194,12.7041 Q24.0688,12.6784 24.0331,12.6228 Q23.9975,12.5672 23.9975,12.5016 L23.9975,12.4416 Q23.9975,12.3728 24.0294,12.3134 Q24.0613,12.2541 24.1181,12.2216 Q24.175,12.1891 24.2388,12.1891 Q24.2769,12.1891 24.31,12.1981 Q24.3431,12.2072 24.3725,12.2247 Z "/><text fill="#000000" font-family="sans-serif" font-size="0.88" lengthAdjust="spacingAndGlyphs" textLength="4.44" x="25.21" y="12.8135">CsvService</text><line style="stroke: #A80036; stroke-width: 0.06;" x1="18.8" x2="34.56" y1="13.2069" y2="13.2069"/><line style="stroke: #A80036; stroke-width: 0.06;" x1="18.8" x2="34.56" y1="13.5269" y2="13.5269"/><ellipse cx="19.2" cy="14.3003" fill="#84BE84" rx="0.12" ry="0.12" style="stroke: #038048; stroke-width: 0.04;"/><text fill="#000000" font-family="sans-serif" font-size="0.88" lengthAdjust="spacingAndGlyphs" text-decoration="underline" textLength="10" x="19.64" y="14.6004">load(path : String) : Object</text><ellipse cx="19.2" cy="15.4072" fill="#84BE84" rx="0.12" ry="0.12" style="stroke: #038048; stroke-width: 0.04;"/><text fill="#000000" font-family="sans-serif" font-size="0.88" lengthAdjust="spacingAndGlyphs" text-decoration="underline" textLength="14.72" x="19.64" y="15.7073">save(path : String, data : Object) : void</text><path d="M20.1,19.56 L20.1,21.0669 A0,0 0 0 0 20.1,21.0669 L33.26,21.0669 A0,0 0 0 0 33.26,21.0669 L33.26,19.96 L32.86,19.56 L26.84,19.56 L26.68,16.0732 L26.52,19.56 L20.1,19.56 A0,0 0 0 0 20.1,19.56 " fill="#FBFB77" filter="url(#f1opqdb58hjdi3)" style="stroke: #A80036; stroke-width: 0.04;"/><path d="M32.86,19.56 L32.86,19.96 L33.26,19.96 L32.86,19.56 " fill="#FBFB77" style="stroke: #A80036; stroke-width: 0.04;"/><text fill="#000000" font-family="sans-serif" font-size="0.88" lengthAdjust="spacingAndGlyphs" textLength="12.32" x="20.34" y="20.6735">for measurement results (tables)</text><!--class FileService.PngService--><rect fill="#FEFECE" filter="url(#f1opqdb58hjdi3)" height="3.2538" id="FileService.PngService" style="stroke: #A80036; stroke-width: 0.06;" width="15.84" x="1.52" y="12.26"/><ellipse cx="7.03" cy="13.0134" fill="#ADD1B2" rx="0.52" ry="0.52" style="stroke: #A80036; stroke-width: 0.04;"/><path d="M7.1325,12.7847 Q7.1406,12.7741 7.1503,12.7684 Q7.16,12.7628 7.1706,12.7628 Q7.19,12.7628 7.2025,12.7759 Q7.215,12.7891 7.215,12.8209 L7.215,12.8959 Q7.215,12.9278 7.2025,12.9413 Q7.19,12.9547 7.1706,12.9547 Q7.1531,12.9547 7.1425,12.9447 Q7.1319,12.9347 7.1269,12.9078 Q7.1238,12.8897 7.1144,12.8797 Q7.0969,12.8603 7.0653,12.8488 Q7.0338,12.8372 7.0019,12.8372 Q6.9625,12.8372 6.9294,12.8544 Q6.8963,12.8716 6.8709,12.9103 Q6.8456,12.9491 6.8456,13.0022 L6.8456,13.0597 Q6.8456,13.1234 6.8919,13.1659 Q6.9381,13.2084 7.02,13.2084 Q7.0688,13.2084 7.1031,13.1947 Q7.1225,13.1872 7.145,13.1647 Q7.1588,13.1509 7.1666,13.1466 Q7.1744,13.1422 7.1844,13.1422 Q7.2019,13.1422 7.2153,13.1556 Q7.2288,13.1691 7.2288,13.1872 Q7.2288,13.2053 7.2106,13.2259 Q7.1844,13.2559 7.1431,13.2728 Q7.0875,13.2966 7.0206,13.2966 Q6.9425,13.2966 6.8794,13.2641 Q6.8288,13.2384 6.7931,13.1828 Q6.7575,13.1272 6.7575,13.0616 L6.7575,13.0016 Q6.7575,12.9328 6.7894,12.8734 Q6.8213,12.8141 6.8781,12.7816 Q6.935,12.7491 6.9988,12.7491 Q7.0369,12.7491 7.07,12.7581 Q7.1031,12.7672 7.1325,12.7847 Z "/><text fill="#000000" font-family="sans-serif" font-size="0.88" lengthAdjust="spacingAndGlyphs" textLength="4.44" x="7.97" y="13.3735">PngService</text><line style="stroke: #A80036; stroke-width: 0.06;" x1="1.56" x2="17.32" y1="13.7669" y2="13.7669"/><line style="stroke: #A80036; stroke-width: 0.06;" x1="1.56" x2="17.32" y1="14.0869" y2="14.0869"/><ellipse cx="1.96" cy="14.8603" fill="#84BE84" rx="0.12" ry="0.12" style="stroke: #038048; stroke-width: 0.04;"/><text fill="#000000" font-family="sans-serif" font-size="0.88" lengthAdjust="spacingAndGlyphs" text-decoration="underline" textLength="14.72" x="2.4" y="15.1604">save(path : String, data : Object) : void</text><path d="M4.2,19.56 L4.2,21.0669 A0,0 0 0 0 4.2,21.0669 L14.68,21.0669 A0,0 0 0 0 14.68,21.0669 L14.68,19.96 L14.28,19.56 L9.6,19.56 L9.44,15.5085 L9.28,19.56 L4.2,19.56 A0,0 0 0 0 4.2,19.56 " fill="#FBFB77" filter="url(#f1opqdb58hjdi3)" style="stroke: #A80036; stroke-width: 0.04;"/><path d="M14.28,19.56 L14.28,19.96 L14.68,19.96 L14.28,19.56 " fill="#FBFB77" style="stroke: #A80036; stroke-width: 0.04;"/><text fill="#000000" font-family="sans-serif" font-size="0.88" lengthAdjust="spacingAndGlyphs" textLength="9.64" x="4.44" y="20.6735">for representation graphs</text><!--class org.yaml.snakeyaml.Yaml--><rect fill="#FEFECE" filter="url(#f1opqdb58hjdi3)" height="4.3606" id="org.yaml.snakeyaml.Yaml" style="stroke: #A80036; stroke-width: 0.06;" width="16.28" x="36.3" y="2.8"/><ellipse cx="43.29" cy="3.5534" fill="#ADD1B2" rx="0.52" ry="0.52" style="stroke: #A80036; stroke-width: 0.04;"/><path d="M43.3925,3.3247 Q43.4006,3.3141 43.4103,3.3084 Q43.42,3.3028 43.4306,3.3028 Q43.45,3.3028 43.4625,3.3159 Q43.475,3.3291 43.475,3.3609 L43.475,3.4359 Q43.475,3.4678 43.4625,3.4813 Q43.45,3.4947 43.4306,3.4947 Q43.4131,3.4947 43.4025,3.4847 Q43.3919,3.4747 43.3869,3.4478 Q43.3838,3.4297 43.3744,3.4197 Q43.3569,3.4003 43.3253,3.3888 Q43.2938,3.3772 43.2619,3.3772 Q43.2225,3.3772 43.1894,3.3944 Q43.1563,3.4116 43.1309,3.4503 Q43.1056,3.4891 43.1056,3.5422 L43.1056,3.5997 Q43.1056,3.6634 43.1519,3.7059 Q43.1981,3.7484 43.28,3.7484 Q43.3288,3.7484 43.3631,3.7347 Q43.3825,3.7272 43.405,3.7047 Q43.4188,3.6909 43.4266,3.6866 Q43.4344,3.6822 43.4444,3.6822 Q43.4619,3.6822 43.4753,3.6956 Q43.4888,3.7091 43.4888,3.7272 Q43.4888,3.7453 43.4706,3.7659 Q43.4444,3.7959 43.4031,3.8128 Q43.3475,3.8366 43.2806,3.8366 Q43.2025,3.8366 43.1394,3.8041 Q43.0888,3.7784 43.0531,3.7228 Q43.0175,3.6672 43.0175,3.6016 L43.0175,3.5416 Q43.0175,3.4728 43.0494,3.4134 Q43.0813,3.3541 43.1381,3.3216 Q43.195,3.2891 43.2588,3.2891 Q43.2969,3.2891 43.33,3.2981 Q43.3631,3.3072 43.3925,3.3247 Z "/><text fill="#000000" font-family="sans-serif" font-size="0.88" lengthAdjust="spacingAndGlyphs" textLength="1.92" x="44.23" y="3.9135">Yaml</text><line style="stroke: #A80036; stroke-width: 0.06;" x1="36.34" x2="52.54" y1="4.3069" y2="4.3069"/><line style="stroke: #A80036; stroke-width: 0.06;" x1="36.34" x2="52.54" y1="4.6269" y2="4.6269"/><text fill="#000000" font-family="sans-serif" font-size="0.88" lengthAdjust="spacingAndGlyphs" textLength="12.56" x="36.54" y="5.7004">load(input : InputStream) : Object</text><text fill="#000000" font-family="sans-serif" font-size="0.88" lengthAdjust="spacingAndGlyphs" textLength="15.8" x="36.54" y="6.8073">dump(data : Object, output : Writer) : void</text><!--link org.yaml.snakeyaml.Yaml to FileService.YamlService--><path d="M44.44,7.3744 C44.44,8.3627 44.44,9.5284 44.44,10.5958 " fill="none" id="org.yaml.snakeyaml.Yaml-FileService.YamlService" style="stroke: #A80036; stroke-width: 0.04; stroke-dasharray: 7.0,7.0;"/><polygon fill="#A80036" points="44.44,7.1663,44.28,7.5263,44.44,7.3663,44.6,7.5263,44.44,7.1663" style="stroke: #A80036; stroke-width: 0.04;"/><!--
@startuml
scale 0.04
skinparam defaultFontSize 22


namespace FileService {

	class org.yaml.snakeyaml.Yaml {
		load(input : InputStream) : Object
		dump(data : Object, output : Writer) : void
	}
	
	class YamlService {
		+ {static} saveAs(path : String, data : Object) : void
		+ {static} load(path : String) : Object
		+ {static} save(path : String, data : Object) : void
		+ {static} delete(path : String, data : Object) : void
	}
	
	note bottom of YamlService : for sensors, transformations, configs (?)
	
	YamlService .up.> org.yaml.snakeyaml.Yaml
	
	class CsvService {
		+ {static} load(path : String) : Object
		+ {static} save(path : String, data : Object) : void
	}
	
	note bottom of CsvService : for measurement results (tables)
	
	class PngService {
		+ {static} save(path : String, data : Object) : void
	}
	
	note bottom of PngService : for representation graphs

}

@enduml

PlantUML version 1.2019.06(Fri May 24 19:10:25 CEST 2019)
(GPL source distribution)
Java Runtime: Java(TM) SE Runtime Environment
JVM: Java HotSpot(TM) 64-Bit Server VM
Java Version: 10.0.1+10
Operating System: Windows 10
OS Version: 10.0
Default Encoding: Cp1252
Language: de
Country: DE
--></g></svg>