<svg xmlns="http://www.w3.org/2000/svg" width="127.688" height="61.758" viewBox="0 0 127.688 61.758">
  <g id="Group_3" data-name="Group 3" transform="translate(-666.073 -203)">
    <path id="Path_2" data-name="Path 2" d="M15.64.96H69.105l3.018,14.519h71.144V62.618H15.64Z" transform="translate(650.463 202.11)" fill="#fff" stroke="#000" stroke-width="0.06"/>
    <line id="Line_1" data-name="Line 1" x2="56.484" transform="translate(666.103 217.589)" stroke="#000" stroke-width="0.06"/>
    <text id="Initialization" transform="translate(667.828 213)" font-size="9" font-family="SegoeUI-Bold, Segoe UI" font-weight="700"><tspan x="0" y="0">Initialization</tspan></text>
    <rect id="Initialization.Main" width="113.398" height="35.074" stroke-width="0.06" fill="#fefece" stroke="#a80036" transform="translate(673.217 222.904)"/>
    <circle id="Ellipse_1" data-name="Ellipse 1" cx="5.605" cy="5.605" r="5.605" transform="translate(712.131 225.42)" fill="#add1b2" stroke="#a80036" stroke-width="0.04"/>
    <path id="Path_6" data-name="Path 6" d="M24.2,3.673a.674.674,0,0,1,.192-.176.431.431,0,0,1,.219-.06.455.455,0,0,1,.344.141.7.7,0,0,1,.135.485v.808a.713.713,0,0,1-.135.489.45.45,0,0,1-.344.144.423.423,0,0,1-.3-.108.733.733,0,0,1-.168-.4A.572.572,0,0,0,24,4.7a1.292,1.292,0,0,0-.529-.333,1.965,1.965,0,0,0-.683-.125,1.669,1.669,0,0,0-.782.185,1.714,1.714,0,0,0-.631.6,1.773,1.773,0,0,0-.273.991v.62a1.489,1.489,0,0,0,.5,1.145,1.963,1.963,0,0,0,1.381.458,2.417,2.417,0,0,0,.9-.148,1.375,1.375,0,0,0,.452-.323,1.208,1.208,0,0,1,.233-.2.384.384,0,0,1,.192-.047.458.458,0,0,1,.333.144.466.466,0,0,1,.146.341.652.652,0,0,1-.2.417,1.9,1.9,0,0,1-.728.506,3.321,3.321,0,0,1-1.32.257,3.275,3.275,0,0,1-1.522-.35,2.408,2.408,0,0,1-.93-.876,2.376,2.376,0,0,1-.384-1.306V6.011A2.876,2.876,0,0,1,20.5,4.629a2.453,2.453,0,0,1,.956-.99,2.583,2.583,0,0,1,1.3-.35,2.916,2.916,0,0,1,.767.1A2.722,2.722,0,0,1,24.2,3.673Z" transform="translate(694.641 224.887)"/>
    <text id="Main" transform="translate(727.868 234.127)" font-size="9" font-family="SegoeUI, Segoe UI"><tspan x="0" y="0">Main</tspan></text>
    <line id="Line_5" data-name="Line 5" x2="112.536" transform="translate(673.648 239.147)" stroke="#a80036" stroke-width="0.06"/>
    <line id="Line_6" data-name="Line 6" x2="112.536" transform="translate(673.648 242.597)" stroke="#a80036" stroke-width="0.06"/>
    <circle id="Ellipse_2" data-name="Ellipse 2" cx="1.294" cy="1.294" r="1.294" transform="translate(676.667 249.64)" fill="#84be84" stroke="#038048" stroke-width="0.04"/>
    <text id="main_args:_String_:_void" data-name="main(args: String[]): void" transform="translate(682.703 253.389)" font-size="9" font-family="SegoeUI, Segoe UI"><tspan x="0" y="0">main(args: String[]): void</tspan></text>
  </g>
</svg>
