<svg xmlns="http://www.w3.org/2000/svg" width="1466.67" height="578.608" viewBox="0 0 1466.67 578.608">
  <g id="FileServiceClasses" transform="translate(-0.85 -0.954)">
    <path id="Path_245" data-name="Path 245" d="M.88,8.76h131.5l7.8,37.526h1327.3V369.84H.88Z" transform="translate(0 209.692)" fill="#fff" stroke="#000" stroke-width="0.06"/>
    <line id="Line_229" data-name="Line 229" x2="139.306" transform="translate(0.88 255.978)" stroke="#000" stroke-width="0.06"/>
    <text id="FileService" transform="translate(5.338 241.27)" font-size="21" font-family="SegoeUI-Bold, Segoe UI" font-weight="700"><tspan x="0" y="0">FileService</tspan></text>
    <path id="Path_246" data-name="Path 246" d="M35.64.96H266.33l7.8,37.526H526V191.53H35.64Z" transform="translate(933.693 0.175)" fill="#fff" stroke="#000" stroke-width="0.06"/>
    <line id="Line_230" data-name="Line 230" x2="238.491" transform="translate(969.333 38.661)" stroke="#000" stroke-width="0.06"/>
    <text id="org.yaml.snakeyaml" transform="translate(973.791 25.953)" font-size="23" font-family="SegoeUI-Bold, Segoe UI" font-weight="700"><tspan x="0" y="0">org.yaml.snakeyaml</tspan></text>
    <rect id="FileService.YamlService" width="470.296" height="183.17" stroke-width="0.06" fill="#fefece" stroke="#a80036" transform="translate(979.364 269.716)"/>
    <circle id="Ellipse_332" data-name="Ellipse 332" cx="14.488" cy="14.488" r="14.488" transform="translate(1127.306 276.219)" fill="#add1b2" stroke="#a80036" stroke-width="0.04"/>
    <path id="Path_247" data-name="Path 247" d="M52.006,12.081a1.743,1.743,0,0,1,.5-.454,1.115,1.115,0,0,1,.566-.156,1.175,1.175,0,0,1,.889.365A1.8,1.8,0,0,1,54.3,13.09v2.09a1.842,1.842,0,0,1-.348,1.265,1.162,1.162,0,0,1-.889.373,1.094,1.094,0,0,1-.783-.279,1.9,1.9,0,0,1-.435-1.028,1.478,1.478,0,0,0-.348-.783,3.338,3.338,0,0,0-1.368-.861,5.078,5.078,0,0,0-1.766-.323,4.314,4.314,0,0,0-2.02.479,4.429,4.429,0,0,0-1.63,1.557,4.582,4.582,0,0,0-.7,2.56v1.6A3.85,3.85,0,0,0,45.3,22.7a5.073,5.073,0,0,0,3.569,1.184,6.247,6.247,0,0,0,2.315-.382,3.554,3.554,0,0,0,1.167-.836,3.125,3.125,0,0,1,.6-.5.992.992,0,0,1,.5-.123,1.183,1.183,0,0,1,.861.373,1.206,1.206,0,0,1,.376.88,1.686,1.686,0,0,1-.507,1.078A4.921,4.921,0,0,1,52.3,25.68a8.584,8.584,0,0,1-3.413.663,8.463,8.463,0,0,1-3.934-.905,6.225,6.225,0,0,1-2.4-2.265,6.14,6.14,0,0,1-.992-3.377V18.124a7.433,7.433,0,0,1,.889-3.572,6.341,6.341,0,0,1,2.471-2.558,6.676,6.676,0,0,1,3.363-.905,7.536,7.536,0,0,1,1.984.251A7.035,7.035,0,0,1,52.006,12.081Z" transform="translate(1092.644 272.254)"/>
    <text id="YamlService" transform="translate(1167.984 300.878)" font-size="26" font-family="SegoeUI, Segoe UI"><tspan x="0" y="0">YamlService</tspan></text>
    <line id="Line_231" data-name="Line 231" x2="468.067" transform="translate(980.478 311.7)" stroke="#a80036" stroke-width="0.06"/>
    <line id="Line_232" data-name="Line 232" x2="468.067" transform="translate(980.478 320.616)" stroke="#a80036" stroke-width="0.06"/>
    <circle id="Ellipse_333" data-name="Ellipse 333" cx="3.343" cy="3.343" r="3.343" transform="translate(988.279 338.82)" fill="#84be84" stroke="#038048" stroke-width="0.04"/>
    <text id="saveAs_path_:_String_data_:_Object_:_void" data-name="saveAs(path : String, data : Object) : void" transform="translate(1003.881 349.663)" font-size="25" font-family="SegoeUI, Segoe UI" text-decoration="underline"><tspan x="0" y="0">saveAs(path : String, data : Object) : void</tspan></text>
    <circle id="Ellipse_334" data-name="Ellipse 334" cx="3.343" cy="3.343" r="3.343" transform="translate(988.279 369.66)" fill="#84be84" stroke="#038048" stroke-width="0.04"/>
    <text id="load_path_:_String_:_Object" data-name="load(path : String) : Object" transform="translate(1003.881 378.503)" font-size="23" font-family="SegoeUI, Segoe UI" text-decoration="underline"><tspan x="0" y="0">load(path : String) : Object</tspan></text>
    <circle id="Ellipse_335" data-name="Ellipse 335" cx="3.343" cy="3.343" r="3.343" transform="translate(988.279 400.499)" fill="#84be84" stroke="#038048" stroke-width="0.04"/>
    <text id="save_path_:_String_data_:_Object_:_void" data-name="save(path : String, data : Object) : void" transform="translate(1003.881 411.34)" font-size="25" font-family="SegoeUI, Segoe UI" text-decoration="underline"><tspan x="0" y="0">save(path : String, data : Object) : void</tspan></text>
    <circle id="Ellipse_336" data-name="Ellipse 336" cx="3.343" cy="3.343" r="3.343" transform="translate(988.279 431.336)" fill="#84be84" stroke="#038048" stroke-width="0.04"/>
    <text id="delete_path_:_String_data_:_Object_:_void" data-name="delete(path : String, data : Object) : void" transform="translate(1003.881 440.179)" font-size="23" font-family="SegoeUI, Segoe UI" text-decoration="underline"><tspan x="0" y="0">delete(path : String, data : Object) : void</tspan></text>
    <path id="Path_248" data-name="Path 248" d="M36.32,83.637v41.984H488.785V94.782L477.641,83.637H267.01l-4.458-66.463-4.458,66.463H36.32" transform="translate(951.959 435.715)" fill="#fbfb77" stroke="#a80036" stroke-width="0.04"/>
    <path id="Path_249" data-name="Path 249" d="M52.16,19.56V30.7H63.3L52.16,19.56" transform="translate(1377.44 499.792)" fill="#fbfb77" stroke="#a80036" stroke-width="0.04"/>
    <text id="for_sensors_transformations_configs_" data-name="for sensors, transformations, configs (?)" transform="translate(994.966 547.514)" font-size="23" font-family="SegoeUI, Segoe UI"><tspan x="0" y="0">for sensors, transformations, configs (?)</tspan></text>
    <rect id="FileService.CsvService" width="441.321" height="121.491" stroke-width="0.06" fill="#fefece" stroke="#a80036" transform="translate(499.037 300.363)"/>
    <circle id="Ellipse_337" data-name="Ellipse 337" cx="14.488" cy="14.488" r="14.488" transform="translate(638.064 306.866)" fill="#add1b2" stroke="#a80036" stroke-width="0.04"/>
    <path id="Path_250" data-name="Path 250" d="M34.445,13.181a1.741,1.741,0,0,1,.5-.454,1.115,1.115,0,0,1,.566-.156,1.175,1.175,0,0,1,.889.365,1.8,1.8,0,0,1,.348,1.254v2.09a1.843,1.843,0,0,1-.348,1.265,1.162,1.162,0,0,1-.889.373,1.094,1.094,0,0,1-.783-.279,1.9,1.9,0,0,1-.435-1.028,1.479,1.479,0,0,0-.348-.783,3.338,3.338,0,0,0-1.368-.861,5.078,5.078,0,0,0-1.766-.323,4.315,4.315,0,0,0-2.02.479,4.43,4.43,0,0,0-1.63,1.557,4.583,4.583,0,0,0-.7,2.56v1.6a3.85,3.85,0,0,0,1.29,2.959,5.073,5.073,0,0,0,3.569,1.184,6.247,6.247,0,0,0,2.315-.382,3.554,3.554,0,0,0,1.167-.836,3.124,3.124,0,0,1,.6-.5.992.992,0,0,1,.5-.123,1.183,1.183,0,0,1,.861.373,1.206,1.206,0,0,1,.376.88,1.686,1.686,0,0,1-.507,1.078,4.921,4.921,0,0,1-1.881,1.307,8.585,8.585,0,0,1-3.413.663,8.464,8.464,0,0,1-3.934-.905,6.225,6.225,0,0,1-2.4-2.265A6.141,6.141,0,0,1,24,20.9V19.224a7.433,7.433,0,0,1,.889-3.572,6.341,6.341,0,0,1,2.471-2.558,6.676,6.676,0,0,1,3.363-.905,7.537,7.537,0,0,1,1.984.251A7.035,7.035,0,0,1,34.445,13.181Z" transform="translate(620.963 301.801)"/>
    <text id="CsvService" transform="translate(678.742 328.526)" font-size="23" font-family="SegoeUI, Segoe UI"><tspan x="0" y="0">CsvService</tspan></text>
    <line id="Line_233" data-name="Line 233" x2="439.092" transform="translate(500.152 342.347)" stroke="#a80036" stroke-width="0.06"/>
    <line id="Line_234" data-name="Line 234" x2="439.092" transform="translate(500.152 351.263)" stroke="#a80036" stroke-width="0.06"/>
    <circle id="Ellipse_338" data-name="Ellipse 338" cx="3.343" cy="3.343" r="3.343" transform="translate(507.953 369.467)" fill="#84be84" stroke="#038048" stroke-width="0.04"/>
    <text id="load_path_:_String_:_Object-2" data-name="load(path : String) : Object" transform="translate(523.555 378.311)" font-size="23" font-family="SegoeUI, Segoe UI" text-decoration="underline"><tspan x="0" y="0">load(path : String) : Object</tspan></text>
    <circle id="Ellipse_339" data-name="Ellipse 339" cx="3.343" cy="3.343" r="3.343" transform="translate(507.953 400.307)" fill="#84be84" stroke="#038048" stroke-width="0.04"/>
    <text id="save_path_:_String_data_:_Object_:_void-2" data-name="save(path : String, data : Object) : void" transform="translate(523.555 411.15)" font-size="25" font-family="SegoeUI, Segoe UI" text-decoration="underline"><tspan x="0" y="0">save(path : String, data : Object) : void</tspan></text>
    <path id="Path_251" data-name="Path 251" d="M20.1,113.219V155.2H386.753v-30.84l-11.144-11.144H207.884l-4.458-97.146-4.458,97.146H20.1" transform="translate(516.271 406.132)" fill="#fbfb77" stroke="#a80036" stroke-width="0.04"/>
    <path id="Path_252" data-name="Path 252" d="M32.86,19.56V30.7H44L32.86,19.56" transform="translate(859.02 499.792)" fill="#fbfb77" stroke="#a80036" stroke-width="0.04"/>
    <text id="for_measurement_results_tables_" data-name="for measurement results (tables)" transform="translate(543.058 549.514)" font-size="25" font-family="SegoeUI, Segoe UI"><tspan x="0" y="0">for measurement results (tables)</tspan></text>
    <rect id="FileService.PngService" width="441.321" height="90.655" stroke-width="0.06" fill="#fefece" stroke="#a80036" transform="translate(18.711 315.966)"/>
    <circle id="Ellipse_340" data-name="Ellipse 340" cx="14.488" cy="14.488" r="14.488" transform="translate(157.738 322.468)" fill="#add1b2" stroke="#a80036" stroke-width="0.04"/>
    <path id="Path_253" data-name="Path 253" d="M17.205,13.741a1.742,1.742,0,0,1,.5-.454,1.115,1.115,0,0,1,.566-.156,1.175,1.175,0,0,1,.889.365A1.8,1.8,0,0,1,19.5,14.75v2.09a1.843,1.843,0,0,1-.348,1.265,1.162,1.162,0,0,1-.889.373,1.094,1.094,0,0,1-.783-.279,1.9,1.9,0,0,1-.435-1.028,1.479,1.479,0,0,0-.348-.783,3.338,3.338,0,0,0-1.368-.861,5.079,5.079,0,0,0-1.766-.323,4.315,4.315,0,0,0-2.02.479,4.43,4.43,0,0,0-1.63,1.557,4.582,4.582,0,0,0-.7,2.56v1.6a3.85,3.85,0,0,0,1.29,2.959,5.073,5.073,0,0,0,3.569,1.184,6.248,6.248,0,0,0,2.315-.382,3.555,3.555,0,0,0,1.167-.836,3.125,3.125,0,0,1,.6-.5.992.992,0,0,1,.5-.123,1.183,1.183,0,0,1,.861.373,1.206,1.206,0,0,1,.376.88,1.686,1.686,0,0,1-.507,1.078A4.921,4.921,0,0,1,17.5,27.34,8.584,8.584,0,0,1,14.088,28a8.464,8.464,0,0,1-3.934-.905,6.225,6.225,0,0,1-2.4-2.265,6.14,6.14,0,0,1-.992-3.377V19.784a7.433,7.433,0,0,1,.889-3.572,6.341,6.341,0,0,1,2.471-2.558,6.676,6.676,0,0,1,3.363-.905A7.537,7.537,0,0,1,15.464,13,7.036,7.036,0,0,1,17.205,13.741Z" transform="translate(157.876 316.843)"/>
    <text id="PngService" transform="translate(198.416 342.128)" font-size="21" font-family="SegoeUI, Segoe UI"><tspan x="0" y="0">PngService</tspan></text>
    <line id="Line_235" data-name="Line 235" x2="439.092" transform="translate(19.826 357.949)" stroke="#a80036" stroke-width="0.06"/>
    <line id="Line_236" data-name="Line 236" x2="439.092" transform="translate(19.826 366.865)" stroke="#a80036" stroke-width="0.06"/>
    <circle id="Ellipse_341" data-name="Ellipse 341" cx="3.343" cy="3.343" r="3.343" transform="translate(27.627 385.07)" fill="#84be84" stroke="#038048" stroke-width="0.04"/>
    <text id="save_path_:_String_data_:_Object_:_void-3" data-name="save(path : String, data : Object) : void" transform="translate(43.229 395.913)" font-size="25" font-family="SegoeUI, Segoe UI" text-decoration="underline"><tspan x="0" y="0">save(path : String, data : Object) : void</tspan></text>
    <path id="Path_254" data-name="Path 254" d="M4.2,128.388v41.984H296.185v-30.84L285.04,128.388H154.65L150.192,15.508l-4.458,112.879H4.2" transform="translate(89.179 390.964)" fill="#fbfb77" stroke="#a80036" stroke-width="0.04"/>
    <path id="Path_255" data-name="Path 255" d="M14.28,19.56V30.7H25.424L14.28,19.56" transform="translate(359.939 499.792)" fill="#fbfb77" stroke="#a80036" stroke-width="0.04"/>
    <text id="for_representation_graphs" data-name="for representation graphs" transform="translate(100.066 547.514)" font-size="23" font-family="SegoeUI, Segoe UI"><tspan x="0" y="0">for representation graphs</tspan></text>
    <rect id="org.yaml.snakeyaml.Yaml" width="453.579" height="121.491" stroke-width="0.06" fill="#fefece" stroke="#a80036" transform="translate(987.722 52.399)"/>
    <circle id="Ellipse_342" data-name="Ellipse 342" cx="14.488" cy="14.488" r="14.488" transform="translate(1167.984 58.902)" fill="#add1b2" stroke="#a80036" stroke-width="0.04"/>
    <path id="Path_256" data-name="Path 256" d="M53.465,4.281a1.741,1.741,0,0,1,.5-.454,1.115,1.115,0,0,1,.566-.156,1.175,1.175,0,0,1,.889.365,1.8,1.8,0,0,1,.348,1.254v2.09a1.843,1.843,0,0,1-.348,1.265,1.162,1.162,0,0,1-.889.373,1.094,1.094,0,0,1-.783-.279,1.894,1.894,0,0,1-.435-1.028,1.479,1.479,0,0,0-.348-.783,3.339,3.339,0,0,0-1.368-.861,5.078,5.078,0,0,0-1.766-.323,4.315,4.315,0,0,0-2.02.479,4.431,4.431,0,0,0-1.63,1.557,4.582,4.582,0,0,0-.7,2.56v1.6a3.849,3.849,0,0,0,1.29,2.959,5.073,5.073,0,0,0,3.569,1.184,6.247,6.247,0,0,0,2.315-.382,3.555,3.555,0,0,0,1.167-.836,3.122,3.122,0,0,1,.6-.5.991.991,0,0,1,.5-.123,1.183,1.183,0,0,1,.861.373,1.206,1.206,0,0,1,.376.88,1.686,1.686,0,0,1-.507,1.078,4.922,4.922,0,0,1-1.881,1.307,8.584,8.584,0,0,1-3.413.663,8.464,8.464,0,0,1-3.934-.905,6.225,6.225,0,0,1-2.4-2.265A6.141,6.141,0,0,1,43.017,12V10.324a7.432,7.432,0,0,1,.889-3.572,6.34,6.34,0,0,1,2.471-2.558,6.676,6.676,0,0,1,3.363-.905,7.536,7.536,0,0,1,1.984.251A7.037,7.037,0,0,1,53.465,4.281Z" transform="translate(1131.862 62.737)"/>
    <text id="Yaml" transform="translate(1208.661 83.561)" font-size="26" font-family="SegoeUI, Segoe UI"><tspan x="0" y="0">Yaml</tspan></text>
    <line id="Line_237" data-name="Line 237" x2="451.351" transform="translate(988.836 94.383)" stroke="#a80036" stroke-width="0.06"/>
    <line id="Line_238" data-name="Line 238" x2="451.351" transform="translate(988.836 103.299)" stroke="#a80036" stroke-width="0.06"/>
    <text id="load_input_:_InputStream_:_Object" data-name="load(input : InputStream) : Object" transform="translate(994.409 130.346)" font-size="23" font-family="SegoeUI, Segoe UI"><tspan x="0" y="0">load(input : InputStream) : Object</tspan></text>
    <text id="dump_data_:_Object_output_:_Writer_:_void" data-name="dump(data : Object, output : Writer) : void" transform="translate(994.409 161.186)" font-size="23" font-family="SegoeUI, Segoe UI"><tspan x="0" y="0">dump(data : Object, output : Writer) : void</tspan></text>
    <path id="org.yaml.snakeyaml.Yaml-FileService.YamlService" d="M44.44,7.374V97.126" transform="translate(1170.072 172.473)" fill="none" stroke="#a80036" stroke-width="0.04" stroke-dasharray="7 7"/>
    <path id="Path_257" data-name="Path 257" d="M48.738,7.166,44.28,17.2l4.458-4.458L53.2,17.2Z" transform="translate(1165.774 166.883)" fill="#a80036" stroke="#a80036" stroke-width="0.04"/>
  </g>
</svg>
