<svg xmlns="http://www.w3.org/2000/svg" width="1067.063" height="516.094" viewBox="0 0 1067.063 516.094">
  <g id="Main" transform="translate(-666.073 -203)">
    <path id="Path_2" data-name="Path 2" d="M15.64.96H462.628l25.233,121.381h594.782v394.1H15.64Z" transform="translate(650.463 202.626)" fill="#fff" stroke="#000" stroke-width="0.06"/>
    <line id="Line_1" data-name="Line 1" x2="472.221" transform="translate(666.103 324.966)" stroke="#000" stroke-width="0.06"/>
    <text id="Initialization" transform="translate(680.522 283)" font-size="74" font-family="SegoeUI-Bold, Segoe UI" font-weight="700"><tspan x="0" y="0">Initialization</tspan></text>
    <rect id="Initialization.Main" width="948.047" height="293.228" stroke-width="0.06" fill="#fefece" stroke="#a80036" transform="translate(725.581 369.404)"/>
    <circle id="Ellipse_1" data-name="Ellipse 1" cx="46.862" cy="46.862" r="46.862" transform="translate(1050.909 390.437)" fill="#add1b2" stroke="#a80036" stroke-width="0.04"/>
    <path id="Path_6" data-name="Path 6" d="M53.952,6.5a5.632,5.632,0,0,1,1.6-1.469,3.607,3.607,0,0,1,1.829-.5A3.8,3.8,0,0,1,60.26,5.7q1.127,1.19,1.126,4.055v6.759A5.961,5.961,0,0,1,60.26,20.61a3.758,3.758,0,0,1-2.875,1.208,3.54,3.54,0,0,1-2.532-.9,6.129,6.129,0,0,1-1.406-3.325,4.784,4.784,0,0,0-1.126-2.532A10.8,10.8,0,0,0,47.9,12.274a16.428,16.428,0,0,0-5.714-1.045,13.955,13.955,0,0,0-6.534,1.55,14.329,14.329,0,0,0-5.272,5.038A14.821,14.821,0,0,0,28.1,26.1V31.28A12.452,12.452,0,0,0,32.27,40.85q4.163,3.83,11.544,3.83A20.209,20.209,0,0,0,51.3,43.446a11.5,11.5,0,0,0,3.776-2.7,10.1,10.1,0,0,1,1.947-1.631,3.208,3.208,0,0,1,1.6-.4,3.825,3.825,0,0,1,2.785,1.208A3.9,3.9,0,0,1,62.63,42.77a5.454,5.454,0,0,1-1.64,3.488,15.915,15.915,0,0,1-6.083,4.227,27.767,27.767,0,0,1-11.039,2.145A27.377,27.377,0,0,1,31.143,49.7a20.134,20.134,0,0,1-7.777-7.327,19.862,19.862,0,0,1-3.208-10.922V26.044a24.042,24.042,0,0,1,2.875-11.553,20.51,20.51,0,0,1,7.993-8.273A21.594,21.594,0,0,1,41.9,3.289,24.377,24.377,0,0,1,48.32,4.1,22.756,22.756,0,0,1,53.952,6.5Z" transform="translate(1053.056 410.192)"/>
    <text id="Main-2" data-name="Main" transform="translate(1182.482 459.632)" font-size="74" font-family="SegoeUI, Segoe UI"><tspan x="0" y="0">Main</tspan></text>
    <line id="Line_5" data-name="Line 5" x2="940.837" transform="translate(729.186 505.203)" stroke="#a80036" stroke-width="0.06"/>
    <line id="Line_6" data-name="Line 6" x2="940.837" transform="translate(729.186 534.041)" stroke="#a80036" stroke-width="0.06"/>
    <circle id="Ellipse_2" data-name="Ellipse 2" cx="10.814" cy="10.814" r="10.814" transform="translate(754.419 592.925)" fill="#84be84" stroke="#038048" stroke-width="0.04"/>
    <text id="main_args:_String_:_void" data-name="main(args: String[]): void" transform="translate(804.885 620.665)" font-size="74" font-family="SegoeUI, Segoe UI"><tspan x="0" y="0">main(args: String[]): void</tspan></text>
  </g>
</svg>
