<?xml version="1.0" encoding="UTF-8" standalone="no"?><svg xmlns="http://www.w3.org/2000/svg" xmlns:xlink="http://www.w3.org/1999/xlink" contentScriptType="application/ecmascript" contentStyleType="text/css" height="742px" preserveAspectRatio="none" style="width:2682px;height:742px;" version="1.1" viewBox="0 0 2682 742" width="2682px" zoomAndPan="magnify"><defs><filter height="300%" id="f4lbj0a388cqi" width="300%" x="-1" y="-1"><feGaussianBlur result="blurOut" stdDeviation="2.0"/><feColorMatrix in="blurOut" result="blurOut2" type="matrix" values="0 0 0 0 0 0 0 0 0 0 0 0 0 0 0 0 0 0 .4 0"/><feOffset dx="4.0" dy="4.0" in="blurOut2" result="blurOut3"/><feBlend in="SourceGraphic" in2="blurOut3" mode="normal"/></filter></defs><g><!--cluster Backend--><polygon fill="#FFFFFF" filter="url(#f4lbj0a388cqi)" points="22,24,95,24,102,46.2969,2660,46.2969,2660,607,22,607,22,24" style="stroke: #000000; stroke-width: 1.5;"/><line style="stroke: #000000; stroke-width: 1.5;" x1="22" x2="102" y1="46.2969" y2="46.2969"/><text fill="#000000" font-family="sans-serif" font-size="14" font-weight="bold" lengthAdjust="spacingAndGlyphs" textLength="67" x="26" y="38.9951">Backend</text><!--cluster Cache--><polygon fill="#FFFFFF" filter="url(#f4lbj0a388cqi)" points="1560,631,1615,631,1622,653.2969,1730,653.2969,1730,730,1560,730,1560,631" style="stroke: #000000; stroke-width: 1.5;"/><line style="stroke: #000000; stroke-width: 1.5;" x1="1560" x2="1622" y1="653.2969" y2="653.2969"/><text fill="#000000" font-family="sans-serif" font-size="14" font-weight="bold" lengthAdjust="spacingAndGlyphs" textLength="49" x="1564" y="645.9951">Cache</text><!--class Backend.PickPointForAgentsBasedOnSsh--><rect fill="#FEFECE" filter="url(#f4lbj0a388cqi)" height="86.4141" id="Backend.PickPointForAgentsBasedOnSsh" style="stroke: #A80036; stroke-width: 1.5;" width="556" x="2088" y="473"/><ellipse cx="2261.75" cy="489" fill="#ADD1B2" rx="11" ry="11" style="stroke: #A80036; stroke-width: 1.0;"/><path d="M2264.7188,494.6406 Q2264.1406,494.9375 2263.5,495.0859 Q2262.8594,495.2344 2262.1563,495.2344 Q2259.6563,495.2344 2258.3359,493.5859 Q2257.0156,491.9375 2257.0156,488.8125 Q2257.0156,485.6875 2258.3359,484.0313 Q2259.6563,482.375 2262.1563,482.375 Q2262.8594,482.375 2263.5078,482.5313 Q2264.1563,482.6875 2264.7188,482.9844 L2264.7188,485.7031 Q2264.0938,485.125 2263.5,484.8516 Q2262.9063,484.5781 2262.2813,484.5781 Q2260.9375,484.5781 2260.25,485.6484 Q2259.5625,486.7188 2259.5625,488.8125 Q2259.5625,490.9063 2260.25,491.9766 Q2260.9375,493.0469 2262.2813,493.0469 Q2262.9063,493.0469 2263.5,492.7734 Q2264.0938,492.5 2264.7188,491.9219 L2264.7188,494.6406 Z "/><text fill="#000000" font-family="sans-serif" font-size="12" lengthAdjust="spacingAndGlyphs" textLength="200" x="2282.25" y="493.1543">PickPointForAgentsBasedOnSsh</text><line style="stroke: #A80036; stroke-width: 1.5;" x1="2089" x2="2643" y1="505" y2="505"/><line style="stroke: #A80036; stroke-width: 1.5;" x1="2089" x2="2643" y1="513" y2="513"/><ellipse cx="2099" cy="524.9023" fill="#84BE84" rx="3" ry="3" style="stroke: #038048; stroke-width: 1.0;"/><text fill="#000000" font-family="sans-serif" font-size="11" lengthAdjust="spacingAndGlyphs" text-decoration="underline" textLength="530" x="2108" y="527.2104">getPickPointForAgentsBasedOnSsh(initData: InitDataForSsh): PickPointForAgentsBasedOnSsh</text><ellipse cx="2099" cy="537.707" fill="#84BE84" rx="3" ry="3" style="stroke: #038048; stroke-width: 1.0;"/><text fill="#000000" font-family="sans-serif" font-size="11" lengthAdjust="spacingAndGlyphs" textLength="309" x="2108" y="540.0151">getIAccessToMeasurementRun(): IAccessToSensorInfo</text><ellipse cx="2099" cy="550.5117" fill="#84BE84" rx="3" ry="3" style="stroke: #038048; stroke-width: 1.0;"/><text fill="#000000" font-family="sans-serif" font-size="11" lengthAdjust="spacingAndGlyphs" textLength="272" x="2108" y="552.8198">getIAccessToSensorInfo(): IAccessToSensorInfo</text><!--class Backend.IAccessToSensorInfo--><rect fill="#FEFECE" filter="url(#f4lbj0a388cqi)" height="86.4141" id="Backend.IAccessToSensorInfo" style="stroke: #A80036; stroke-width: 1.5;" width="244" x="1863" y="65.5"/><ellipse cx="1916.75" cy="81.5" fill="#B4A7E5" rx="11" ry="11" style="stroke: #A80036; stroke-width: 1.0;"/><path d="M1912.6719,77.2656 L1912.6719,75.1094 L1920.0625,75.1094 L1920.0625,77.2656 L1917.5938,77.2656 L1917.5938,85.3438 L1920.0625,85.3438 L1920.0625,87.5 L1912.6719,87.5 L1912.6719,85.3438 L1915.1406,85.3438 L1915.1406,77.2656 L1912.6719,77.2656 Z "/><text fill="#000000" font-family="sans-serif" font-size="12" font-style="italic" lengthAdjust="spacingAndGlyphs" textLength="128" x="1937.25" y="85.6543">IAccessToSensorInfo</text><line style="stroke: #A80036; stroke-width: 1.5;" x1="1864" x2="2106" y1="97.5" y2="97.5"/><line style="stroke: #A80036; stroke-width: 1.5;" x1="1864" x2="2106" y1="105.5" y2="105.5"/><ellipse cx="1874" cy="117.4023" fill="#84BE84" rx="3" ry="3" style="stroke: #038048; stroke-width: 1.0;"/><text fill="#000000" font-family="sans-serif" font-size="11" lengthAdjust="spacingAndGlyphs" textLength="204" x="1883" y="119.7104">getIdsOfAvailableSensors(): String[]</text><ellipse cx="1874" cy="130.207" fill="#84BE84" rx="3" ry="3" style="stroke: #038048; stroke-width: 1.0;"/><text fill="#000000" font-family="sans-serif" font-size="11" lengthAdjust="spacingAndGlyphs" textLength="218" x="1883" y="132.5151">getYamlFile(sensorId: String): boolean</text><ellipse cx="1874" cy="143.0117" fill="#84BE84" rx="3" ry="3" style="stroke: #038048; stroke-width: 1.0;"/><text fill="#000000" font-family="sans-serif" font-size="11" lengthAdjust="spacingAndGlyphs" textLength="218" x="1883" y="145.3198">setYamlFile(sensorId: String): boolean</text><!--class Backend.IAccessToMeasurementRun--><rect fill="#FEFECE" filter="url(#f4lbj0a388cqi)" height="99.2188" id="Backend.IAccessToMeasurementRun" style="stroke: #A80036; stroke-width: 1.5;" width="423" x="1740.5" y="250"/><ellipse cx="1862.75" cy="266" fill="#B4A7E5" rx="11" ry="11" style="stroke: #A80036; stroke-width: 1.0;"/><path d="M1858.6719,261.7656 L1858.6719,259.6094 L1866.0625,259.6094 L1866.0625,261.7656 L1863.5938,261.7656 L1863.5938,269.8438 L1866.0625,269.8438 L1866.0625,272 L1858.6719,272 L1858.6719,269.8438 L1861.1406,269.8438 L1861.1406,261.7656 L1858.6719,261.7656 Z "/><text fill="#000000" font-family="sans-serif" font-size="12" font-style="italic" lengthAdjust="spacingAndGlyphs" textLength="170" x="1883.25" y="270.1543">IAccessToMeasurementRun</text><line style="stroke: #A80036; stroke-width: 1.5;" x1="1741.5" x2="2162.5" y1="282" y2="282"/><line style="stroke: #A80036; stroke-width: 1.5;" x1="1741.5" x2="2162.5" y1="290" y2="290"/><ellipse cx="1751.5" cy="301.9023" fill="#84BE84" rx="3" ry="3" style="stroke: #038048; stroke-width: 1.0;"/><text fill="#000000" font-family="sans-serif" font-size="11" lengthAdjust="spacingAndGlyphs" textLength="397" x="1760.5" y="304.2104">start(sensorIDs: string[], dataListeners: IMStreamListener[]): boolean</text><ellipse cx="1751.5" cy="314.707" fill="#84BE84" rx="3" ry="3" style="stroke: #038048; stroke-width: 1.0;"/><text fill="#000000" font-family="sans-serif" font-size="11" lengthAdjust="spacingAndGlyphs" textLength="96" x="1760.5" y="317.0151">pause(): boolean</text><ellipse cx="1751.5" cy="327.5117" fill="#84BE84" rx="3" ry="3" style="stroke: #038048; stroke-width: 1.0;"/><text fill="#000000" font-family="sans-serif" font-size="11" lengthAdjust="spacingAndGlyphs" textLength="109" x="1760.5" y="329.8198">continue(): boolean</text><ellipse cx="1751.5" cy="340.3164" fill="#84BE84" rx="3" ry="3" style="stroke: #038048; stroke-width: 1.0;"/><text fill="#000000" font-family="sans-serif" font-size="11" lengthAdjust="spacingAndGlyphs" textLength="86" x="1760.5" y="342.6245">stop(): boolean</text><!--class Backend.InitDataForSsh--><rect fill="#FEFECE" filter="url(#f4lbj0a388cqi)" height="124.8281" id="Backend.InitDataForSsh" style="stroke: #A80036; stroke-width: 1.5;" width="170" x="2281" y="237"/><ellipse cx="2316.7" cy="253" fill="#ADD1B2" rx="11" ry="11" style="stroke: #A80036; stroke-width: 1.0;"/><path d="M2319.6688,258.6406 Q2319.0906,258.9375 2318.45,259.0859 Q2317.8094,259.2344 2317.1063,259.2344 Q2314.6063,259.2344 2313.2859,257.5859 Q2311.9656,255.9375 2311.9656,252.8125 Q2311.9656,249.6875 2313.2859,248.0313 Q2314.6063,246.375 2317.1063,246.375 Q2317.8094,246.375 2318.4578,246.5313 Q2319.1063,246.6875 2319.6688,246.9844 L2319.6688,249.7031 Q2319.0438,249.125 2318.45,248.8516 Q2317.8563,248.5781 2317.2313,248.5781 Q2315.8875,248.5781 2315.2,249.6484 Q2314.5125,250.7188 2314.5125,252.8125 Q2314.5125,254.9063 2315.2,255.9766 Q2315.8875,257.0469 2317.2313,257.0469 Q2317.8563,257.0469 2318.45,256.7734 Q2319.0438,256.5 2319.6688,255.9219 L2319.6688,258.6406 Z "/><text fill="#000000" font-family="sans-serif" font-size="12" lengthAdjust="spacingAndGlyphs" textLength="92" x="2335.3" y="257.1543">InitDataForSsh</text><line style="stroke: #A80036; stroke-width: 1.5;" x1="2282" x2="2450" y1="269" y2="269"/><ellipse cx="2292" cy="280.9023" fill="none" rx="3" ry="3" style="stroke: #038048; stroke-width: 1.0;"/><text fill="#000000" font-family="sans-serif" font-size="11" lengthAdjust="spacingAndGlyphs" textLength="126" x="2301" y="283.2104">ipAddressOfPi: String,</text><ellipse cx="2292" cy="293.707" fill="none" rx="3" ry="3" style="stroke: #038048; stroke-width: 1.0;"/><text fill="#000000" font-family="sans-serif" font-size="11" lengthAdjust="spacingAndGlyphs" textLength="49" x="2301" y="296.0151">port: int,</text><ellipse cx="2292" cy="306.5117" fill="none" rx="3" ry="3" style="stroke: #038048; stroke-width: 1.0;"/><text fill="#000000" font-family="sans-serif" font-size="11" lengthAdjust="spacingAndGlyphs" textLength="104" x="2301" y="308.8198">username: String,</text><ellipse cx="2292" cy="319.3164" fill="none" rx="3" ry="3" style="stroke: #038048; stroke-width: 1.0;"/><text fill="#000000" font-family="sans-serif" font-size="11" lengthAdjust="spacingAndGlyphs" textLength="102" x="2301" y="321.6245">password: String,</text><ellipse cx="2292" cy="332.1211" fill="none" rx="3" ry="3" style="stroke: #038048; stroke-width: 1.0;"/><text fill="#000000" font-family="sans-serif" font-size="11" lengthAdjust="spacingAndGlyphs" textLength="144" x="2301" y="334.4292">pathToRemoteDir: String,</text><ellipse cx="2292" cy="344.9258" fill="none" rx="3" ry="3" style="stroke: #038048; stroke-width: 1.0;"/><text fill="#000000" font-family="sans-serif" font-size="11" lengthAdjust="spacingAndGlyphs" textLength="126" x="2301" y="347.2339">pathToLocalDir: String</text><line style="stroke: #A80036; stroke-width: 1.5;" x1="2282" x2="2450" y1="353.8281" y2="353.8281"/><!--class Backend.MeasurementRunAgentForSsh--><rect fill="#FEFECE" filter="url(#f4lbj0a388cqi)" height="124.8281" id="Backend.MeasurementRunAgentForSsh" style="stroke: #A80036; stroke-width: 1.5;" width="426" x="1219" y="237"/><ellipse cx="1332.75" cy="253" fill="#ADD1B2" rx="11" ry="11" style="stroke: #A80036; stroke-width: 1.0;"/><path d="M1335.7188,258.6406 Q1335.1406,258.9375 1334.5,259.0859 Q1333.8594,259.2344 1333.1563,259.2344 Q1330.6563,259.2344 1329.3359,257.5859 Q1328.0156,255.9375 1328.0156,252.8125 Q1328.0156,249.6875 1329.3359,248.0313 Q1330.6563,246.375 1333.1563,246.375 Q1333.8594,246.375 1334.5078,246.5313 Q1335.1563,246.6875 1335.7188,246.9844 L1335.7188,249.7031 Q1335.0938,249.125 1334.5,248.8516 Q1333.9063,248.5781 1333.2813,248.5781 Q1331.9375,248.5781 1331.25,249.6484 Q1330.5625,250.7188 1330.5625,252.8125 Q1330.5625,254.9063 1331.25,255.9766 Q1331.9375,257.0469 1333.2813,257.0469 Q1333.9063,257.0469 1334.5,256.7734 Q1335.0938,256.5 1335.7188,255.9219 L1335.7188,258.6406 Z "/><text fill="#000000" font-family="sans-serif" font-size="12" lengthAdjust="spacingAndGlyphs" textLength="190" x="1353.25" y="257.1543">MeasurementRunAgentForSsh</text><line style="stroke: #A80036; stroke-width: 1.5;" x1="1220" x2="1644" y1="269" y2="269"/><line style="stroke: #A80036; stroke-width: 1.5;" x1="1220" x2="1644" y1="277" y2="277"/><ellipse cx="1230" cy="288.9023" fill="#84BE84" rx="3" ry="3" style="stroke: #038048; stroke-width: 1.0;"/><text fill="#000000" font-family="sans-serif" font-size="11" lengthAdjust="spacingAndGlyphs" textLength="368" x="1239" y="291.2104">MeasurementRunAgentForSsh(foundation: CommunicationWithPi)</text><ellipse cx="1230" cy="301.707" fill="#84BE84" rx="3" ry="3" style="stroke: #038048; stroke-width: 1.0;"/><text fill="#000000" font-family="sans-serif" font-size="11" lengthAdjust="spacingAndGlyphs" textLength="400" x="1239" y="304.0151">start(sensorIDs: string[], dataListeners: IMStreamListener[}): boolean</text><ellipse cx="1230" cy="314.5117" fill="#84BE84" rx="3" ry="3" style="stroke: #038048; stroke-width: 1.0;"/><text fill="#000000" font-family="sans-serif" font-size="11" lengthAdjust="spacingAndGlyphs" textLength="96" x="1239" y="316.8198">pause(): boolean</text><ellipse cx="1230" cy="327.3164" fill="#84BE84" rx="3" ry="3" style="stroke: #038048; stroke-width: 1.0;"/><text fill="#000000" font-family="sans-serif" font-size="11" lengthAdjust="spacingAndGlyphs" textLength="109" x="1239" y="329.6245">continue(): boolean</text><ellipse cx="1230" cy="340.1211" fill="#84BE84" rx="3" ry="3" style="stroke: #038048; stroke-width: 1.0;"/><text fill="#000000" font-family="sans-serif" font-size="11" lengthAdjust="spacingAndGlyphs" textLength="86" x="1239" y="342.4292">stop(): boolean</text><ellipse cx="1230" cy="352.9258" fill="#84BE84" rx="3" ry="3" style="stroke: #038048; stroke-width: 1.0;"/><text fill="#000000" font-family="sans-serif" font-size="11" lengthAdjust="spacingAndGlyphs" textLength="343" x="1239" y="355.2339">receivePartOfResponse(response: String; finished: boolean)</text><!--class Backend.IMStreamListener--><rect fill="#FEFECE" filter="url(#f4lbj0a388cqi)" height="73.6094" id="Backend.IMStreamListener" style="stroke: #A80036; stroke-width: 1.5;" width="442" x="1424" y="479"/><ellipse cx="1586.25" cy="495" fill="#B4A7E5" rx="11" ry="11" style="stroke: #A80036; stroke-width: 1.0;"/><path d="M1582.1719,490.7656 L1582.1719,488.6094 L1589.5625,488.6094 L1589.5625,490.7656 L1587.0938,490.7656 L1587.0938,498.8438 L1589.5625,498.8438 L1589.5625,501 L1582.1719,501 L1582.1719,498.8438 L1584.6406,498.8438 L1584.6406,490.7656 L1582.1719,490.7656 Z "/><text fill="#000000" font-family="sans-serif" font-size="12" font-style="italic" lengthAdjust="spacingAndGlyphs" textLength="109" x="1606.75" y="499.1543">IMStreamListener</text><line style="stroke: #A80036; stroke-width: 1.5;" x1="1425" x2="1865" y1="511" y2="511"/><line style="stroke: #A80036; stroke-width: 1.5;" x1="1425" x2="1865" y1="519" y2="519"/><ellipse cx="1435" cy="530.9023" fill="#84BE84" rx="3" ry="3" style="stroke: #038048; stroke-width: 1.0;"/><text fill="#000000" font-family="sans-serif" font-size="11" lengthAdjust="spacingAndGlyphs" textLength="416" x="1444" y="533.2104">receiveMDataSet(channelId: String, timeStamp: long, value: double): void</text><ellipse cx="1435" cy="543.707" fill="#84BE84" rx="3" ry="3" style="stroke: #038048; stroke-width: 1.0;"/><text fill="#000000" font-family="sans-serif" font-size="11" lengthAdjust="spacingAndGlyphs" textLength="165" x="1444" y="546.0151">connectionTerminated(): void</text><!--class Backend.SensorInfoAgentForSsh--><rect fill="#FEFECE" filter="url(#f4lbj0a388cqi)" height="99.2188" id="Backend.SensorInfoAgentForSsh" style="stroke: #A80036; stroke-width: 1.5;" width="357" x="951.5" y="59"/><ellipse cx="1052.25" cy="75" fill="#ADD1B2" rx="11" ry="11" style="stroke: #A80036; stroke-width: 1.0;"/><path d="M1055.2188,80.6406 Q1054.6406,80.9375 1054,81.0859 Q1053.3594,81.2344 1052.6563,81.2344 Q1050.1563,81.2344 1048.8359,79.5859 Q1047.5156,77.9375 1047.5156,74.8125 Q1047.5156,71.6875 1048.8359,70.0313 Q1050.1563,68.375 1052.6563,68.375 Q1053.3594,68.375 1054.0078,68.5313 Q1054.6563,68.6875 1055.2188,68.9844 L1055.2188,71.7031 Q1054.5938,71.125 1054,70.8516 Q1053.4063,70.5781 1052.7813,70.5781 Q1051.4375,70.5781 1050.75,71.6484 Q1050.0625,72.7188 1050.0625,74.8125 Q1050.0625,76.9063 1050.75,77.9766 Q1051.4375,79.0469 1052.7813,79.0469 Q1053.4063,79.0469 1054,78.7734 Q1054.5938,78.5 1055.2188,77.9219 L1055.2188,80.6406 Z "/><text fill="#000000" font-family="sans-serif" font-size="12" lengthAdjust="spacingAndGlyphs" textLength="147" x="1072.75" y="79.1543">SensorInfoAgentForSsh</text><line style="stroke: #A80036; stroke-width: 1.5;" x1="952.5" x2="1307.5" y1="91" y2="91"/><line style="stroke: #A80036; stroke-width: 1.5;" x1="952.5" x2="1307.5" y1="99" y2="99"/><ellipse cx="962.5" cy="110.9023" fill="#84BE84" rx="3" ry="3" style="stroke: #038048; stroke-width: 1.0;"/><text fill="#000000" font-family="sans-serif" font-size="11" lengthAdjust="spacingAndGlyphs" textLength="331" x="971.5" y="113.2104">SensorInfoAgentForSsh(foundation: CommunicationWithPi)</text><ellipse cx="962.5" cy="123.707" fill="#84BE84" rx="3" ry="3" style="stroke: #038048; stroke-width: 1.0;"/><text fill="#000000" font-family="sans-serif" font-size="11" lengthAdjust="spacingAndGlyphs" textLength="204" x="971.5" y="126.0151">getIdsOfAvailableSensors(): String[]</text><ellipse cx="962.5" cy="136.5117" fill="#84BE84" rx="3" ry="3" style="stroke: #038048; stroke-width: 1.0;"/><text fill="#000000" font-family="sans-serif" font-size="11" lengthAdjust="spacingAndGlyphs" textLength="218" x="971.5" y="138.8198">getYamlFile(sensorId: String): boolean</text><ellipse cx="962.5" cy="149.3164" fill="#84BE84" rx="3" ry="3" style="stroke: #038048; stroke-width: 1.0;"/><text fill="#000000" font-family="sans-serif" font-size="11" lengthAdjust="spacingAndGlyphs" textLength="218" x="971.5" y="151.6245">setYamlFile(sensorId: String): boolean</text><!--class Backend.SshToPi--><rect fill="#FEFECE" filter="url(#f4lbj0a388cqi)" height="150.4375" id="Backend.SshToPi" style="stroke: #A80036; stroke-width: 1.5;" width="597" x="38.5" y="441"/><ellipse cx="308.25" cy="457" fill="#ADD1B2" rx="11" ry="11" style="stroke: #A80036; stroke-width: 1.0;"/><path d="M311.2188,462.6406 Q310.6406,462.9375 310,463.0859 Q309.3594,463.2344 308.6563,463.2344 Q306.1563,463.2344 304.8359,461.5859 Q303.5156,459.9375 303.5156,456.8125 Q303.5156,453.6875 304.8359,452.0313 Q306.1563,450.375 308.6563,450.375 Q309.3594,450.375 310.0078,450.5313 Q310.6563,450.6875 311.2188,450.9844 L311.2188,453.7031 Q310.5938,453.125 310,452.8516 Q309.4063,452.5781 308.7813,452.5781 Q307.4375,452.5781 306.75,453.6484 Q306.0625,454.7188 306.0625,456.8125 Q306.0625,458.9063 306.75,459.9766 Q307.4375,461.0469 308.7813,461.0469 Q309.4063,461.0469 310,460.7734 Q310.5938,460.5 311.2188,459.9219 L311.2188,462.6406 Z "/><text fill="#000000" font-family="sans-serif" font-size="12" lengthAdjust="spacingAndGlyphs" textLength="49" x="328.75" y="461.1543">SshToPi</text><line style="stroke: #A80036; stroke-width: 1.5;" x1="39.5" x2="634.5" y1="473" y2="473"/><rect fill="none" height="6" style="stroke: #C82930; stroke-width: 1.0;" width="6" x="46.5" y="481.9023"/><text fill="#000000" font-family="sans-serif" font-size="11" lengthAdjust="spacingAndGlyphs" textLength="100" x="58.5" y="487.2104">username: String</text><rect fill="none" height="6" style="stroke: #C82930; stroke-width: 1.0;" width="6" x="46.5" y="494.707"/><text fill="#000000" font-family="sans-serif" font-size="11" lengthAdjust="spacingAndGlyphs" textLength="98" x="58.5" y="500.0151">password: String</text><line style="stroke: #A80036; stroke-width: 1.5;" x1="39.5" x2="634.5" y1="506.6094" y2="506.6094"/><ellipse cx="49.5" cy="518.5117" fill="#84BE84" rx="3" ry="3" style="stroke: #038048; stroke-width: 1.0;"/><text fill="#000000" font-family="sans-serif" font-size="11" lengthAdjust="spacingAndGlyphs" textLength="292" x="58.5" y="520.8198">SshAndScpTo(username: String, password: String)</text><ellipse cx="49.5" cy="531.3164" fill="#84BE84" rx="3" ry="3" style="stroke: #038048; stroke-width: 1.0;"/><text fill="#000000" font-family="sans-serif" font-size="11" lengthAdjust="spacingAndGlyphs" textLength="456" x="58.5" y="533.6245">executeCompleteCommandWithTimeout(command: String, timeOut: int): String[]</text><ellipse cx="49.5" cy="544.1211" fill="#84BE84" rx="3" ry="3" style="stroke: #038048; stroke-width: 1.0;"/><text fill="#000000" font-family="sans-serif" font-size="11" lengthAdjust="spacingAndGlyphs" textLength="251" x="58.5" y="546.4292">copyFileFromPi(nameOfFile: String): boolean</text><ellipse cx="49.5" cy="556.9258" fill="#84BE84" rx="3" ry="3" style="stroke: #038048; stroke-width: 1.0;"/><text fill="#000000" font-family="sans-serif" font-size="11" lengthAdjust="spacingAndGlyphs" textLength="236" x="58.5" y="559.2339">copyFileToPi(nameOfFile: String): boolean</text><ellipse cx="49.5" cy="569.7305" fill="#84BE84" rx="3" ry="3" style="stroke: #038048; stroke-width: 1.0;"/><text fill="#000000" font-family="sans-serif" font-size="11" lengthAdjust="spacingAndGlyphs" textLength="571" x="58.5" y="572.0386">executeCommandContinuously(command: String, listeningAgent: ICommandResponseListener): void</text><ellipse cx="49.5" cy="582.5352" fill="#84BE84" rx="3" ry="3" style="stroke: #038048; stroke-width: 1.0;"/><text fill="#000000" font-family="sans-serif" font-size="11" lengthAdjust="spacingAndGlyphs" textLength="100" x="58.5" y="584.8433">disconnect(): void</text><!--class Backend.CommunicationWithPi--><rect fill="#FEFECE" filter="url(#f4lbj0a388cqi)" height="163.2422" id="Backend.CommunicationWithPi" style="stroke: #A80036; stroke-width: 1.5;" width="596" x="573" y="218"/><ellipse cx="799.75" cy="234" fill="#A9DCDF" rx="11" ry="11" style="stroke: #A80036; stroke-width: 1.0;"/><path d="M799.8594,229.3438 L798.7031,234.4219 L801.0313,234.4219 L799.8594,229.3438 Z M798.375,227.1094 L801.3594,227.1094 L804.7188,239.5 L802.2656,239.5 L801.5,236.4375 L798.2188,236.4375 L797.4688,239.5 L795.0313,239.5 L798.375,227.1094 Z "/><text fill="#000000" font-family="sans-serif" font-size="12" font-style="italic" lengthAdjust="spacingAndGlyphs" textLength="134" x="820.25" y="238.1543">CommunicationWithPi</text><line style="stroke: #A80036; stroke-width: 1.5;" x1="574" x2="1168" y1="250" y2="250"/><rect fill="none" height="6" style="stroke: #C82930; stroke-width: 1.0;" width="6" x="581" y="258.9023"/><text fill="#000000" font-family="sans-serif" font-size="11" lengthAdjust="spacingAndGlyphs" textLength="80" x="593" y="264.2104">busy: boolean</text><rect fill="none" height="6" style="stroke: #C82930; stroke-width: 1.0;" width="6" x="581" y="271.707"/><text fill="#000000" font-family="sans-serif" font-size="11" lengthAdjust="spacingAndGlyphs" textLength="140" x="593" y="277.0151">pathToRemoteDir: String</text><rect fill="none" height="6" style="stroke: #C82930; stroke-width: 1.0;" width="6" x="581" y="284.5117"/><text fill="#000000" font-family="sans-serif" font-size="11" lengthAdjust="spacingAndGlyphs" textLength="126" x="593" y="289.8198">pathToLocalDir: String</text><line style="stroke: #A80036; stroke-width: 1.5;" x1="574" x2="1168" y1="296.4141" y2="296.4141"/><ellipse cx="584" cy="308.3164" fill="#84BE84" rx="3" ry="3" style="stroke: #038048; stroke-width: 1.0;"/><text fill="#000000" font-family="sans-serif" font-size="11" lengthAdjust="spacingAndGlyphs" textLength="403" x="593" y="310.6245">CommunicationWithPi(pathToRemoteDir: String, pathToLocalDir: String)</text><ellipse cx="584" cy="321.1211" fill="#84BE84" rx="3" ry="3" style="stroke: #038048; stroke-width: 1.0;"/><text fill="#000000" font-family="sans-serif" font-size="11" font-style="italic" lengthAdjust="spacingAndGlyphs" textLength="457" x="593" y="323.4292">executeCompleteCommandWithTimeout(command: String, timeOut: int): String[]</text><ellipse cx="584" cy="333.9258" fill="#84BE84" rx="3" ry="3" style="stroke: #038048; stroke-width: 1.0;"/><text fill="#000000" font-family="sans-serif" font-size="11" font-style="italic" lengthAdjust="spacingAndGlyphs" textLength="251" x="593" y="336.2339">copyFileFromPi(nameOfFile: String): boolean</text><ellipse cx="584" cy="346.7305" fill="#84BE84" rx="3" ry="3" style="stroke: #038048; stroke-width: 1.0;"/><text fill="#000000" font-family="sans-serif" font-size="11" font-style="italic" lengthAdjust="spacingAndGlyphs" textLength="236" x="593" y="349.0386">copyFileToPi(nameOfFile: String): boolean</text><ellipse cx="584" cy="359.5352" fill="#84BE84" rx="3" ry="3" style="stroke: #038048; stroke-width: 1.0;"/><text fill="#000000" font-family="sans-serif" font-size="11" font-style="italic" lengthAdjust="spacingAndGlyphs" textLength="570" x="593" y="361.8433">executeCommandContinuously(command: String, listeningAgent: ICommandResponseListener): void</text><ellipse cx="584" cy="372.3398" fill="#84BE84" rx="3" ry="3" style="stroke: #038048; stroke-width: 1.0;"/><text fill="#000000" font-family="sans-serif" font-size="11" font-style="italic" lengthAdjust="spacingAndGlyphs" textLength="100" x="593" y="374.6479">disconnect(): void</text><!--class Backend.WebSocketToPi--><rect fill="#FEFECE" filter="url(#f4lbj0a388cqi)" height="48" id="Backend.WebSocketToPi" style="stroke: #A80036; stroke-width: 1.5;" width="128" x="530" y="84.5"/><ellipse cx="545" cy="100.5" fill="#ADD1B2" rx="11" ry="11" style="stroke: #A80036; stroke-width: 1.0;"/><path d="M547.9688,106.1406 Q547.3906,106.4375 546.75,106.5859 Q546.1094,106.7344 545.4063,106.7344 Q542.9063,106.7344 541.5859,105.0859 Q540.2656,103.4375 540.2656,100.3125 Q540.2656,97.1875 541.5859,95.5313 Q542.9063,93.875 545.4063,93.875 Q546.1094,93.875 546.7578,94.0313 Q547.4063,94.1875 547.9688,94.4844 L547.9688,97.2031 Q547.3438,96.625 546.75,96.3516 Q546.1563,96.0781 545.5313,96.0781 Q544.1875,96.0781 543.5,97.1484 Q542.8125,98.2188 542.8125,100.3125 Q542.8125,102.4063 543.5,103.4766 Q544.1875,104.5469 545.5313,104.5469 Q546.1563,104.5469 546.75,104.2734 Q547.3438,104 547.9688,103.4219 L547.9688,106.1406 Z "/><text fill="#000000" font-family="sans-serif" font-size="12" lengthAdjust="spacingAndGlyphs" textLength="96" x="559" y="104.6543">WebSocketToPi</text><line style="stroke: #A80036; stroke-width: 1.5;" x1="531" x2="657" y1="116.5" y2="116.5"/><line style="stroke: #A80036; stroke-width: 1.5;" x1="531" x2="657" y1="124.5" y2="124.5"/><!--class Backend.UsbToPi--><rect fill="#FEFECE" filter="url(#f4lbj0a388cqi)" height="48" id="Backend.UsbToPi" style="stroke: #A80036; stroke-width: 1.5;" width="82" x="456" y="275.5"/><ellipse cx="471" cy="291.5" fill="#ADD1B2" rx="11" ry="11" style="stroke: #A80036; stroke-width: 1.0;"/><path d="M473.9688,297.1406 Q473.3906,297.4375 472.75,297.5859 Q472.1094,297.7344 471.4063,297.7344 Q468.9063,297.7344 467.5859,296.0859 Q466.2656,294.4375 466.2656,291.3125 Q466.2656,288.1875 467.5859,286.5313 Q468.9063,284.875 471.4063,284.875 Q472.1094,284.875 472.7578,285.0313 Q473.4063,285.1875 473.9688,285.4844 L473.9688,288.2031 Q473.3438,287.625 472.75,287.3516 Q472.1563,287.0781 471.5313,287.0781 Q470.1875,287.0781 469.5,288.1484 Q468.8125,289.2188 468.8125,291.3125 Q468.8125,293.4063 469.5,294.4766 Q470.1875,295.5469 471.5313,295.5469 Q472.1563,295.5469 472.75,295.2734 Q473.3438,295 473.9688,294.4219 L473.9688,297.1406 Z "/><text fill="#000000" font-family="sans-serif" font-size="12" lengthAdjust="spacingAndGlyphs" textLength="50" x="485" y="295.6543">UsbToPi</text><line style="stroke: #A80036; stroke-width: 1.5;" x1="457" x2="537" y1="307.5" y2="307.5"/><line style="stroke: #A80036; stroke-width: 1.5;" x1="457" x2="537" y1="315.5" y2="315.5"/><!--class Backend.NetworkConfiguration--><rect fill="#FEFECE" filter="url(#f4lbj0a388cqi)" height="73.6094" id="Backend.NetworkConfiguration" style="stroke: #A80036; stroke-width: 1.5;" width="167" x="253.5" y="262.5"/><ellipse cx="268.5" cy="278.5" fill="#ADD1B2" rx="11" ry="11" style="stroke: #A80036; stroke-width: 1.0;"/><path d="M271.4688,284.1406 Q270.8906,284.4375 270.25,284.5859 Q269.6094,284.7344 268.9063,284.7344 Q266.4063,284.7344 265.0859,283.0859 Q263.7656,281.4375 263.7656,278.3125 Q263.7656,275.1875 265.0859,273.5313 Q266.4063,271.875 268.9063,271.875 Q269.6094,271.875 270.2578,272.0313 Q270.9063,272.1875 271.4688,272.4844 L271.4688,275.2031 Q270.8438,274.625 270.25,274.3516 Q269.6563,274.0781 269.0313,274.0781 Q267.6875,274.0781 267,275.1484 Q266.3125,276.2188 266.3125,278.3125 Q266.3125,280.4063 267,281.4766 Q267.6875,282.5469 269.0313,282.5469 Q269.6563,282.5469 270.25,282.2734 Q270.8438,282 271.4688,281.4219 L271.4688,284.1406 Z "/><text fill="#000000" font-family="sans-serif" font-size="12" lengthAdjust="spacingAndGlyphs" textLength="135" x="282.5" y="282.6543">NetworkConfiguration</text><line style="stroke: #A80036; stroke-width: 1.5;" x1="254.5" x2="419.5" y1="294.5" y2="294.5"/><rect fill="none" height="6" style="stroke: #C82930; stroke-width: 1.0;" width="6" x="261.5" y="303.4023"/><text fill="#000000" font-family="sans-serif" font-size="11" lengthAdjust="spacingAndGlyphs" textLength="45" x="273.5" y="308.7104">port: int</text><rect fill="none" height="6" style="stroke: #C82930; stroke-width: 1.0;" width="6" x="261.5" y="316.207"/><text fill="#000000" font-family="sans-serif" font-size="11" lengthAdjust="spacingAndGlyphs" textLength="122" x="273.5" y="321.5151">ipAddressOfPi: String</text><line style="stroke: #A80036; stroke-width: 1.5;" x1="254.5" x2="419.5" y1="328.1094" y2="328.1094"/><!--class Backend.ICommandResponseListener--><rect fill="#FEFECE" filter="url(#f4lbj0a388cqi)" height="60.8047" id="Backend.ICommandResponseListener" style="stroke: #A80036; stroke-width: 1.5;" width="355" x="670.5" y="485.5"/><ellipse cx="755.75" cy="501.5" fill="#B4A7E5" rx="11" ry="11" style="stroke: #A80036; stroke-width: 1.0;"/><path d="M751.6719,497.2656 L751.6719,495.1094 L759.0625,495.1094 L759.0625,497.2656 L756.5938,497.2656 L756.5938,505.3438 L759.0625,505.3438 L759.0625,507.5 L751.6719,507.5 L751.6719,505.3438 L754.1406,505.3438 L754.1406,497.2656 L751.6719,497.2656 Z "/><text fill="#000000" font-family="sans-serif" font-size="12" font-style="italic" lengthAdjust="spacingAndGlyphs" textLength="176" x="776.25" y="505.6543">ICommandResponseListener</text><line style="stroke: #A80036; stroke-width: 1.5;" x1="671.5" x2="1024.5" y1="517.5" y2="517.5"/><line style="stroke: #A80036; stroke-width: 1.5;" x1="671.5" x2="1024.5" y1="525.5" y2="525.5"/><text fill="#000000" font-family="sans-serif" font-size="11" lengthAdjust="spacingAndGlyphs" textLength="343" x="676.5" y="539.7104">receivePartOfResponse(response: String; finished: boolean)</text><!--class Backend.MeasurementState--><rect fill="#FEFECE" filter="url(#f4lbj0a388cqi)" height="86.4141" id="Backend.MeasurementState" style="stroke: #A80036; stroke-width: 1.5;" width="152" x="1901" y="473"/><ellipse cx="1916" cy="489" fill="#EB937F" rx="11" ry="11" style="stroke: #A80036; stroke-width: 1.0;"/><path d="M1920.1094,495 L1912.3906,495 L1912.3906,482.6094 L1920.1094,482.6094 L1920.1094,484.7656 L1914.8438,484.7656 L1914.8438,487.4375 L1919.6094,487.4375 L1919.6094,489.5938 L1914.8438,489.5938 L1914.8438,492.8438 L1920.1094,492.8438 L1920.1094,495 Z "/><text fill="#000000" font-family="sans-serif" font-size="12" lengthAdjust="spacingAndGlyphs" textLength="120" x="1930" y="493.1543">MeasurementState</text><line style="stroke: #A80036; stroke-width: 1.5;" x1="1902" x2="2052" y1="505" y2="505"/><text fill="#000000" font-family="sans-serif" font-size="11" lengthAdjust="spacingAndGlyphs" textLength="76" x="1907" y="519.2104">INITAL_STATE</text><text fill="#000000" font-family="sans-serif" font-size="11" lengthAdjust="spacingAndGlyphs" textLength="51" x="1907" y="532.0151">RUNNING</text><text fill="#000000" font-family="sans-serif" font-size="11" lengthAdjust="spacingAndGlyphs" textLength="45" x="1907" y="544.8198">PAUSED</text><line style="stroke: #A80036; stroke-width: 1.5;" x1="1902" x2="2052" y1="551.4141" y2="551.4141"/><path d="M1061,480.5 L1061,551.0313 A0,0 0 0 0 1061,551.0313 L1389,551.0313 A0,0 0 0 0 1389,551.0313 L1389,490.5 L1379,480.5 L1262.44,480.5 L1372.4,362.255 L1254.44,480.5 L1061,480.5 A0,0 0 0 0 1061,480.5 " fill="#FBFB77" filter="url(#f4lbj0a388cqi)" style="stroke: #A80036; stroke-width: 1.0;"/><path d="M1379,480.5 L1379,490.5 L1389,490.5 L1379,480.5 " fill="#FBFB77" style="stroke: #A80036; stroke-width: 1.0;"/><text fill="#000000" font-family="sans-serif" font-size="13" lengthAdjust="spacingAndGlyphs" textLength="303" x="1067" y="497.5669">To separate technical aspect of communication</text><text fill="#000000" font-family="sans-serif" font-size="13" lengthAdjust="spacingAndGlyphs" textLength="274" x="1067" y="512.6997">from application specific aspect, this Agent</text><text fill="#000000" font-family="sans-serif" font-size="13" lengthAdjust="spacingAndGlyphs" textLength="302" x="1067" y="527.8325">receives technical events and forwards them to</text><text fill="#000000" font-family="sans-serif" font-size="13" lengthAdjust="spacingAndGlyphs" textLength="257" x="1067" y="542.9653">its registered application specific clients.</text><!--class Cache.MStreamListener--><rect fill="#FEFECE" filter="url(#f4lbj0a388cqi)" height="48" id="Cache.MStreamListener" style="stroke: #A80036; stroke-width: 1.5;" width="137" x="1576.5" y="666"/><ellipse cx="1591.5" cy="682" fill="#ADD1B2" rx="11" ry="11" style="stroke: #A80036; stroke-width: 1.0;"/><path d="M1594.4688,687.6406 Q1593.8906,687.9375 1593.25,688.0859 Q1592.6094,688.2344 1591.9063,688.2344 Q1589.4063,688.2344 1588.0859,686.5859 Q1586.7656,684.9375 1586.7656,681.8125 Q1586.7656,678.6875 1588.0859,677.0313 Q1589.4063,675.375 1591.9063,675.375 Q1592.6094,675.375 1593.2578,675.5313 Q1593.9063,675.6875 1594.4688,675.9844 L1594.4688,678.7031 Q1593.8438,678.125 1593.25,677.8516 Q1592.6563,677.5781 1592.0313,677.5781 Q1590.6875,677.5781 1590,678.6484 Q1589.3125,679.7188 1589.3125,681.8125 Q1589.3125,683.9063 1590,684.9766 Q1590.6875,686.0469 1592.0313,686.0469 Q1592.6563,686.0469 1593.25,685.7734 Q1593.8438,685.5 1594.4688,684.9219 L1594.4688,687.6406 Z "/><text fill="#000000" font-family="sans-serif" font-size="12" lengthAdjust="spacingAndGlyphs" textLength="105" x="1605.5" y="686.1543">MStreamListener</text><line style="stroke: #A80036; stroke-width: 1.5;" x1="1577.5" x2="1712.5" y1="698" y2="698"/><line style="stroke: #A80036; stroke-width: 1.5;" x1="1577.5" x2="1712.5" y1="706" y2="706"/><!--link Backend.IAccessToSensorInfo to Backend.PickPointForAgentsBasedOnSsh--><path d="M2091.94,153.972 C2123.35,170.694 2155.95,192.071 2181,218 C2237.48,276.471 2220.76,312.157 2264,381 C2284.22,413.186 2310.2,447.238 2330.89,472.961 " fill="none" id="Backend.IAccessToSensorInfo-Backend.PickPointForAgentsBasedOnSsh" style="stroke: #A80036; stroke-width: 1.0;"/><polygon fill="#A80036" points="2087.32,151.539,2093.4213,159.2704,2091.7446,153.8677,2097.1472,152.191,2087.32,151.539" style="stroke: #A80036; stroke-width: 1.0;"/><!--link Backend.IAccessToMeasurementRun to Backend.PickPointForAgentsBasedOnSsh--><path d="M2050.36,351.464 C2121.94,388.548 2217.69,438.16 2284.9,472.981 " fill="none" id="Backend.IAccessToMeasurementRun-Backend.PickPointForAgentsBasedOnSsh" style="stroke: #A80036; stroke-width: 1.0;"/><polygon fill="#A80036" points="2045.68,349.039,2051.8305,356.7313,2050.1194,351.3394,2055.5112,349.6282,2045.68,349.039" style="stroke: #A80036; stroke-width: 1.0;"/><!--link Backend.InitDataForSsh to Backend.PickPointForAgentsBasedOnSsh--><path d="M2366,367.284 C2366,401.704 2366,442.641 2366,472.681 " fill="none" id="Backend.InitDataForSsh-Backend.PickPointForAgentsBasedOnSsh" style="stroke: #A80036; stroke-width: 1.0; stroke-dasharray: 7.0,7.0;"/><polygon fill="#A80036" points="2366,362.255,2362,371.255,2366,367.255,2370,371.255,2366,362.255" style="stroke: #A80036; stroke-width: 1.0;"/><!--link Backend.MeasurementRunAgentForSsh to Backend.IMStreamListener--><path d="M1493.32,362.255 C1529.34,398.528 1573.83,443.325 1605.28,475.001 " fill="none" id="Backend.MeasurementRunAgentForSsh-Backend.IMStreamListener" style="stroke: #A80036; stroke-width: 1.0;"/><polygon fill="#A80036" points="1609.05,478.797,1605.5405,469.5946,1605.5245,475.2515,1599.8677,475.2355,1609.05,478.797" style="stroke: #A80036; stroke-width: 1.0;"/><text fill="#000000" font-family="sans-serif" font-size="13" lengthAdjust="spacingAndGlyphs" textLength="7" x="1595.023" y="467.9478">*</text><!--link Backend.SensorInfoAgentForSsh to Backend.IAccessToSensorInfo--><path d="M1308.68,108.5 C1486.72,108.5 1664.75,108.5 1842.79,108.5 " fill="none" id="Backend.SensorInfoAgentForSsh-Backend.IAccessToSensorInfo" style="stroke: #A80036; stroke-width: 1.0; stroke-dasharray: 7.0,7.0;"/><polygon fill="none" points="1842.81,101.5,1862.81,108.5,1842.81,115.5,1842.81,101.5" style="stroke: #A80036; stroke-width: 1.0;"/><!--link Backend.MeasurementRunAgentForSsh to Backend.IAccessToMeasurementRun--><path d="M1645.03,299.5 C1670.1,299.5 1695.17,299.5 1720.25,299.5 " fill="none" id="Backend.MeasurementRunAgentForSsh-Backend.IAccessToMeasurementRun" style="stroke: #A80036; stroke-width: 1.0; stroke-dasharray: 7.0,7.0;"/><polygon fill="none" points="1720.36,292.5,1740.36,299.5,1720.36,306.5,1720.36,292.5" style="stroke: #A80036; stroke-width: 1.0;"/><!--link Backend.CommunicationWithPi to Backend.SshToPi--><path d="M651.532,388.657 C608.323,406.014 563.397,424.06 521.48,440.897 " fill="none" id="Backend.CommunicationWithPi-Backend.SshToPi" style="stroke: #A80036; stroke-width: 1.0;"/><polygon fill="none" points="649.091,382.094,670.259,381.135,654.309,395.085,649.091,382.094" style="stroke: #A80036; stroke-width: 1.0;"/><!--link Backend.WebSocketToPi to Backend.CommunicationWithPi--><path d="M627.966,132.675 C655.455,151.432 696.08,179.15 736.28,206.579 " fill="none" id="Backend.WebSocketToPi-Backend.CommunicationWithPi" style="stroke: #A80036; stroke-width: 1.0;"/><polygon fill="none" points="740.261,200.821,752.837,217.876,732.371,212.386,740.261,200.821" style="stroke: #A80036; stroke-width: 1.0;"/><!--link Backend.UsbToPi to Backend.CommunicationWithPi--><path d="M538.271,299.5 C543.025,299.5 547.779,299.5 552.533,299.5 " fill="none" id="Backend.UsbToPi-Backend.CommunicationWithPi" style="stroke: #A80036; stroke-width: 1.0;"/><polygon fill="none" points="552.714,292.5,572.714,299.5,552.714,306.5,552.714,292.5" style="stroke: #A80036; stroke-width: 1.0;"/><!--link Backend.NetworkConfiguration to Backend.SshToPi--><path d="M337,341.986 C337,369.916 337,407.537 337,440.564 " fill="none" id="Backend.NetworkConfiguration-Backend.SshToPi" style="stroke: #A80036; stroke-width: 1.0;"/><polygon fill="#A80036" points="337,336.887,333,345.887,337,341.887,341,345.887,337,336.887" style="stroke: #A80036; stroke-width: 1.0;"/><!--link Backend.WebSocketToPi to Backend.NetworkConfiguration--><path d="M559.461,132.574 C527.544,154.119 479.005,187.45 438,218 C420.595,230.967 401.912,245.638 385.406,258.869 " fill="none" id="Backend.WebSocketToPi-Backend.NetworkConfiguration" style="stroke: #A80036; stroke-width: 1.0;"/><polygon fill="#A80036" points="381.259,262.2,390.7807,259.6825,385.1572,259.0689,385.7709,253.4454,381.259,262.2" style="stroke: #A80036; stroke-width: 1.0;"/><!--link Backend.CommunicationWithPi to Backend.ICommandResponseListener--><path d="M862.337,381.288 C858.672,415.468 854.597,453.473 851.731,480.201 " fill="none" id="Backend.CommunicationWithPi-Backend.ICommandResponseListener" style="stroke: #A80036; stroke-width: 1.0;"/><polygon fill="#A80036" points="851.175,485.392,856.1138,476.871,851.7093,480.4206,848.1596,476.0161,851.175,485.392" style="stroke: #A80036; stroke-width: 1.0;"/><!--link Backend.MeasurementRunAgentForSsh to Backend.ICommandResponseListener--><path d="M1259.44,362.154 C1191.85,386.478 1113.7,414.818 1043,441 C1010.8,452.923 975.704,466.166 944.271,478.115 " fill="none" id="Backend.MeasurementRunAgentForSsh-Backend.ICommandResponseListener" style="stroke: #A80036; stroke-width: 1.0; stroke-dasharray: 7.0,7.0;"/><polygon fill="none" points="946.414,484.789,925.232,485.364,941.432,471.705,946.414,484.789" style="stroke: #A80036; stroke-width: 1.0;"/><!--link Backend.CommunicationWithPi to Backend.MeasurementRunAgentForSsh--><path d="M1174.09,299.5 C1189.01,299.5 1203.93,299.5 1218.85,299.5 " fill="none" id="Backend.CommunicationWithPi-Backend.MeasurementRunAgentForSsh" style="stroke: #A80036; stroke-width: 1.0;"/><polygon fill="#A80036" points="1169.03,299.5,1178.03,303.5,1174.03,299.5,1178.03,295.5,1169.03,299.5" style="stroke: #A80036; stroke-width: 1.0;"/><!--link Backend.SensorInfoAgentForSsh to Backend.CommunicationWithPi--><path d="M1063.3,158.172 C1039.61,175.458 1012.23,195.443 985.68,214.815 " fill="none" id="Backend.SensorInfoAgentForSsh-Backend.CommunicationWithPi" style="stroke: #A80036; stroke-width: 1.0;"/><polygon fill="#A80036" points="981.428,217.918,991.056,215.8438,985.4669,214.9706,986.3401,209.3816,981.428,217.918" style="stroke: #A80036; stroke-width: 1.0;"/><!--link Backend.MeasurementRunAgentForSsh to Backend.MeasurementState--><path d="M1645.04,358.884 C1739.96,386.519 1839.96,418.346 1883,441 C1897.99,448.889 1912.97,459.263 1926.43,469.738 " fill="none" id="Backend.MeasurementRunAgentForSsh-Backend.MeasurementState" style="stroke: #A80036; stroke-width: 1.0;"/><polygon fill="#A80036" points="1930.55,472.989,1925.9641,464.2729,1926.6254,469.891,1921.0073,470.5523,1930.55,472.989" style="stroke: #A80036; stroke-width: 1.0;"/><!--link Backend.IMStreamListener to Cache.MStreamListener--><path d="M1645,553.057 C1645,579.928 1645,616.754 1645,645.3 " fill="none" id="Backend.IMStreamListener-Cache.MStreamListener" style="stroke: #A80036; stroke-width: 1.0; stroke-dasharray: 7.0,7.0;"/><polygon fill="none" points="1652,645.641,1645,665.6411,1638,645.641,1652,645.641" style="stroke: #A80036; stroke-width: 1.0;"/><!--
@startuml
namespace Backend {

	PickPointForAgentsBasedOnSsh -up-> IAccessToSensorInfo
	PickPointForAgentsBasedOnSsh -up-> IAccessToMeasurementRun
	PickPointForAgentsBasedOnSsh .up.> InitDataForSsh

	MeasurementRunAgentForSsh - -> "*" IMStreamListener

	SensorInfoAgentForSsh .right.|> IAccessToSensorInfo
	MeasurementRunAgentForSsh .right.|> IAccessToMeasurementRun

	SshToPi -up-|> CommunicationWithPi
	WebSocketToPi  -right-|> CommunicationWithPi
	UsbToPi -right-|> CommunicationWithPi

	SshToPi -up-> NetworkConfiguration
	WebSocketToPi -down-> NetworkConfiguration

	CommunicationWithPi - -> ICommandResponseListener
	MeasurementRunAgentForSsh ..|> ICommandResponseListener

	MeasurementRunAgentForSsh -left-> CommunicationWithPi
	SensorInfoAgentForSsh -down-> CommunicationWithPi

	MeasurementRunAgentForSsh - -> MeasurementState


	IMStreamListener  ..|> Cache.MStreamListener


	class NetworkConfiguration {
	   -port: int
	   -ipAddressOfPi: String
	}

	abstract class CommunicationWithPi {
		-busy: boolean
		-pathToRemoteDir: String
		-pathToLocalDir: String
		+CommunicationWithPi(pathToRemoteDir: String, pathToLocalDir: String)
	    +{abstract}executeCompleteCommandWithTimeout(command: String, timeOut: int): String[]
	    +{abstract}copyFileFromPi(nameOfFile: String): boolean
	    +{abstract}copyFileToPi(nameOfFile: String): boolean
	    +{abstract}executeCommandContinuously(command: String, listeningAgent: ICommandResponseListener): void
	    +{abstract}disconnect(): void
	}
	

	interface ICommandResponseListener {
		receivePartOfResponse(response: String; finished: boolean)
	}

	

	

	class SshToPi {
		-username: String
		-password: String
		+SshAndScpTo(username: String, password: String)
		+executeCompleteCommandWithTimeout(command: String, timeOut: int): String[]
	    +copyFileFromPi(nameOfFile: String): boolean
	    +copyFileToPi(nameOfFile: String): boolean
	    +executeCommandContinuously(command: String, listeningAgent: ICommandResponseListener): void
	    +disconnect(): void
	}

	
	interface IMStreamListener {
		+ receiveMDataSet(channelId: String, timeStamp: long, value: double): void
		+ connectionTerminated(): void
	}



	interface IAccessToSensorInfo {
		+getIdsOfAvailableSensors(): String[]
		+getYamlFile(sensorId: String): boolean
		+setYamlFile(sensorId: String): boolean
	}



	interface IAccessToMeasurementRun{
		+start(sensorIDs: string[], dataListeners: IMStreamListener[]): boolean
		+pause(): boolean
		+continue(): boolean
		+stop(): boolean
	}

	enum MeasurementState {
	  INITAL_STATE
	  RUNNING
	  PAUSED
	}


		class MeasurementRunAgentForSsh {
			+MeasurementRunAgentForSsh(foundation: CommunicationWithPi)
			+start(sensorIDs: string[], dataListeners: IMStreamListener[}): boolean
			+pause(): boolean
			+continue(): boolean
			+stop(): boolean
			+receivePartOfResponse(response: String; finished: boolean)
		}

		class SensorInfoAgentForSsh {
			+SensorInfoAgentForSsh(foundation: CommunicationWithPi)
			+getIdsOfAvailableSensors(): String[]
			+getYamlFile(sensorId: String): boolean
			+setYamlFile(sensorId: String): boolean
		}



	class PickPointForAgentsBasedOnSsh {
		+{static}getPickPointForAgentsBasedOnSsh(initData: InitDataForSsh): PickPointForAgentsBasedOnSsh
		+getIAccessToMeasurementRun(): IAccessToSensorInfo
		+getIAccessToSensorInfo(): IAccessToSensorInfo
	}
	
	
	class InitDataForSsh {
	 	+ ipAddressOfPi: String, 
	 	+ port: int, 
	 	+ username: String, 
	 	+ password: String, 
	 	+ pathToRemoteDir: String, 
	 	+ pathToLocalDir: String
	}

	note bottom of MeasurementRunAgentForSsh
		To separate technical aspect of communication 
		from application specific aspect, this Agent
		receives technical events and forwards them to
		its registered application specific clients. 
	end note

}
@enduml

PlantUML version 1.2019.06(Fri May 24 19:10:25 CEST 2019)
(GPL source distribution)
Java Runtime: OpenJDK Runtime Environment
JVM: OpenJDK 64-Bit Server VM
Java Version: 1.8.0_212-8u212-b03-0ubuntu1.16.04.1-b03
Operating System: Linux
OS Version: 4.15.0-54-generic
Default Encoding: UTF-8
Language: de
Country: DE
--></g></svg>