<?xml version="1.0" encoding="UTF-8" standalone="no"?><svg xmlns="http://www.w3.org/2000/svg" xmlns:xlink="http://www.w3.org/1999/xlink" contentScriptType="application/ecmascript" contentStyleType="text/css" height="1243px" preserveAspectRatio="none" style="width:1504px;height:1243px;" version="1.1" viewBox="0 0 1504 1243" width="1504px" zoomAndPan="magnify"><defs><filter height="300%" id="fy7p1y5mr68bx" width="300%" x="-1" y="-1"><feGaussianBlur result="blurOut" stdDeviation="2.0"/><feColorMatrix in="blurOut" result="blurOut2" type="matrix" values="0 0 0 0 0 0 0 0 0 0 0 0 0 0 0 0 0 0 .4 0"/><feOffset dx="4.0" dy="4.0" in="blurOut2" result="blurOut3"/><feBlend in="SourceGraphic" in2="blurOut3" mode="normal"/></filter></defs><g><!--cluster edu.kit.freejdaq.backend--><polygon fill="#FFFFFF" filter="url(#fy7p1y5mr68bx)" points="22,24,225,24,232,46.2969,1482,46.2969,1482,1231,22,1231,22,24" style="stroke: #000000; stroke-width: 1.5;"/><line style="stroke: #000000; stroke-width: 1.5;" x1="22" x2="232" y1="46.2969" y2="46.2969"/><text fill="#000000" font-family="sans-serif" font-size="14" font-weight="bold" lengthAdjust="spacingAndGlyphs" textLength="197" x="26" y="38.9951">edu.kit.freejdaq.backend</text><!--class SshToPi--><rect fill="#FEFECE" filter="url(#fy7p1y5mr68bx)" height="150.4375" id="SshToPi" style="stroke: #A80036; stroke-width: 1.5;" width="597" x="868.5" y="193"/><ellipse cx="1138.25" cy="209" fill="#ADD1B2" rx="11" ry="11" style="stroke: #A80036; stroke-width: 1.0;"/><path d="M1141.2188,214.6406 Q1140.6406,214.9375 1140,215.0859 Q1139.3594,215.2344 1138.6563,215.2344 Q1136.1563,215.2344 1134.8359,213.5859 Q1133.5156,211.9375 1133.5156,208.8125 Q1133.5156,205.6875 1134.8359,204.0313 Q1136.1563,202.375 1138.6563,202.375 Q1139.3594,202.375 1140.0078,202.5313 Q1140.6563,202.6875 1141.2188,202.9844 L1141.2188,205.7031 Q1140.5938,205.125 1140,204.8516 Q1139.4063,204.5781 1138.7813,204.5781 Q1137.4375,204.5781 1136.75,205.6484 Q1136.0625,206.7188 1136.0625,208.8125 Q1136.0625,210.9063 1136.75,211.9766 Q1137.4375,213.0469 1138.7813,213.0469 Q1139.4063,213.0469 1140,212.7734 Q1140.5938,212.5 1141.2188,211.9219 L1141.2188,214.6406 Z "/><text fill="#000000" font-family="sans-serif" font-size="12" lengthAdjust="spacingAndGlyphs" textLength="49" x="1158.75" y="213.1543">SshToPi</text><line style="stroke: #A80036; stroke-width: 1.5;" x1="869.5" x2="1464.5" y1="225" y2="225"/><rect fill="none" height="6" style="stroke: #C82930; stroke-width: 1.0;" width="6" x="876.5" y="233.9023"/><text fill="#000000" font-family="sans-serif" font-size="11" lengthAdjust="spacingAndGlyphs" textLength="100" x="888.5" y="239.2104">username: String</text><rect fill="none" height="6" style="stroke: #C82930; stroke-width: 1.0;" width="6" x="876.5" y="246.707"/><text fill="#000000" font-family="sans-serif" font-size="11" lengthAdjust="spacingAndGlyphs" textLength="98" x="888.5" y="252.0151">password: String</text><line style="stroke: #A80036; stroke-width: 1.5;" x1="869.5" x2="1464.5" y1="258.6094" y2="258.6094"/><ellipse cx="879.5" cy="270.5117" fill="#84BE84" rx="3" ry="3" style="stroke: #038048; stroke-width: 1.0;"/><text fill="#000000" font-family="sans-serif" font-size="11" lengthAdjust="spacingAndGlyphs" textLength="292" x="888.5" y="272.8198">SshAndScpTo(username: String, password: String)</text><ellipse cx="879.5" cy="283.3164" fill="#84BE84" rx="3" ry="3" style="stroke: #038048; stroke-width: 1.0;"/><text fill="#000000" font-family="sans-serif" font-size="11" lengthAdjust="spacingAndGlyphs" textLength="456" x="888.5" y="285.6245">executeCompleteCommandWithTimeout(command: String, timeOut: int): String[]</text><ellipse cx="879.5" cy="296.1211" fill="#84BE84" rx="3" ry="3" style="stroke: #038048; stroke-width: 1.0;"/><text fill="#000000" font-family="sans-serif" font-size="11" lengthAdjust="spacingAndGlyphs" textLength="251" x="888.5" y="298.4292">copyFileFromPi(nameOfFile: String): boolean</text><ellipse cx="879.5" cy="308.9258" fill="#84BE84" rx="3" ry="3" style="stroke: #038048; stroke-width: 1.0;"/><text fill="#000000" font-family="sans-serif" font-size="11" lengthAdjust="spacingAndGlyphs" textLength="236" x="888.5" y="311.2339">copyFileToPi(nameOfFile: String): boolean</text><ellipse cx="879.5" cy="321.7305" fill="#84BE84" rx="3" ry="3" style="stroke: #038048; stroke-width: 1.0;"/><text fill="#000000" font-family="sans-serif" font-size="11" lengthAdjust="spacingAndGlyphs" textLength="571" x="888.5" y="324.0386">executeCommandContinuously(command: String, listeningAgent: ICommandResponseListener): void</text><ellipse cx="879.5" cy="334.5352" fill="#84BE84" rx="3" ry="3" style="stroke: #038048; stroke-width: 1.0;"/><text fill="#000000" font-family="sans-serif" font-size="11" lengthAdjust="spacingAndGlyphs" textLength="100" x="888.5" y="336.8433">disconnect(): void</text><!--class CommunicationWithPi--><rect fill="#FEFECE" filter="url(#fy7p1y5mr68bx)" height="163.2422" id="CommunicationWithPi" style="stroke: #A80036; stroke-width: 1.5;" width="596" x="816" y="403"/><ellipse cx="1042.75" cy="419" fill="#A9DCDF" rx="11" ry="11" style="stroke: #A80036; stroke-width: 1.0;"/><path d="M1042.8594,414.3438 L1041.7031,419.4219 L1044.0313,419.4219 L1042.8594,414.3438 Z M1041.375,412.1094 L1044.3594,412.1094 L1047.7188,424.5 L1045.2656,424.5 L1044.5,421.4375 L1041.2188,421.4375 L1040.4688,424.5 L1038.0313,424.5 L1041.375,412.1094 Z "/><text fill="#000000" font-family="sans-serif" font-size="12" font-style="italic" lengthAdjust="spacingAndGlyphs" textLength="134" x="1063.25" y="423.1543">CommunicationWithPi</text><line style="stroke: #A80036; stroke-width: 1.5;" x1="817" x2="1411" y1="435" y2="435"/><rect fill="none" height="6" style="stroke: #C82930; stroke-width: 1.0;" width="6" x="824" y="443.9023"/><text fill="#000000" font-family="sans-serif" font-size="11" lengthAdjust="spacingAndGlyphs" textLength="80" x="836" y="449.2104">busy: boolean</text><rect fill="none" height="6" style="stroke: #C82930; stroke-width: 1.0;" width="6" x="824" y="456.707"/><text fill="#000000" font-family="sans-serif" font-size="11" lengthAdjust="spacingAndGlyphs" textLength="140" x="836" y="462.0151">pathToRemoteDir: String</text><rect fill="none" height="6" style="stroke: #C82930; stroke-width: 1.0;" width="6" x="824" y="469.5117"/><text fill="#000000" font-family="sans-serif" font-size="11" lengthAdjust="spacingAndGlyphs" textLength="126" x="836" y="474.8198">pathToLocalDir: String</text><line style="stroke: #A80036; stroke-width: 1.5;" x1="817" x2="1411" y1="481.4141" y2="481.4141"/><ellipse cx="827" cy="493.3164" fill="#84BE84" rx="3" ry="3" style="stroke: #038048; stroke-width: 1.0;"/><text fill="#000000" font-family="sans-serif" font-size="11" lengthAdjust="spacingAndGlyphs" textLength="403" x="836" y="495.6245">CommunicationWithPi(pathToRemoteDir: String, pathToLocalDir: String)</text><ellipse cx="827" cy="506.1211" fill="#84BE84" rx="3" ry="3" style="stroke: #038048; stroke-width: 1.0;"/><text fill="#000000" font-family="sans-serif" font-size="11" font-style="italic" lengthAdjust="spacingAndGlyphs" textLength="457" x="836" y="508.4292">executeCompleteCommandWithTimeout(command: String, timeOut: int): String[]</text><ellipse cx="827" cy="518.9258" fill="#84BE84" rx="3" ry="3" style="stroke: #038048; stroke-width: 1.0;"/><text fill="#000000" font-family="sans-serif" font-size="11" font-style="italic" lengthAdjust="spacingAndGlyphs" textLength="251" x="836" y="521.2339">copyFileFromPi(nameOfFile: String): boolean</text><ellipse cx="827" cy="531.7305" fill="#84BE84" rx="3" ry="3" style="stroke: #038048; stroke-width: 1.0;"/><text fill="#000000" font-family="sans-serif" font-size="11" font-style="italic" lengthAdjust="spacingAndGlyphs" textLength="236" x="836" y="534.0386">copyFileToPi(nameOfFile: String): boolean</text><ellipse cx="827" cy="544.5352" fill="#84BE84" rx="3" ry="3" style="stroke: #038048; stroke-width: 1.0;"/><text fill="#000000" font-family="sans-serif" font-size="11" font-style="italic" lengthAdjust="spacingAndGlyphs" textLength="570" x="836" y="546.8433">executeCommandContinuously(command: String, listeningAgent: ICommandResponseListener): void</text><ellipse cx="827" cy="557.3398" fill="#84BE84" rx="3" ry="3" style="stroke: #038048; stroke-width: 1.0;"/><text fill="#000000" font-family="sans-serif" font-size="11" font-style="italic" lengthAdjust="spacingAndGlyphs" textLength="100" x="836" y="559.6479">disconnect(): void</text><!--class WebSocketToPi--><rect fill="#FEFECE" filter="url(#fy7p1y5mr68bx)" height="48" id="WebSocketToPi" style="stroke: #A80036; stroke-width: 1.5;" width="128" x="705" y="244"/><ellipse cx="720" cy="260" fill="#ADD1B2" rx="11" ry="11" style="stroke: #A80036; stroke-width: 1.0;"/><path d="M722.9688,265.6406 Q722.3906,265.9375 721.75,266.0859 Q721.1094,266.2344 720.4063,266.2344 Q717.9063,266.2344 716.5859,264.5859 Q715.2656,262.9375 715.2656,259.8125 Q715.2656,256.6875 716.5859,255.0313 Q717.9063,253.375 720.4063,253.375 Q721.1094,253.375 721.7578,253.5313 Q722.4063,253.6875 722.9688,253.9844 L722.9688,256.7031 Q722.3438,256.125 721.75,255.8516 Q721.1563,255.5781 720.5313,255.5781 Q719.1875,255.5781 718.5,256.6484 Q717.8125,257.7188 717.8125,259.8125 Q717.8125,261.9063 718.5,262.9766 Q719.1875,264.0469 720.5313,264.0469 Q721.1563,264.0469 721.75,263.7734 Q722.3438,263.5 722.9688,262.9219 L722.9688,265.6406 Z "/><text fill="#000000" font-family="sans-serif" font-size="12" lengthAdjust="spacingAndGlyphs" textLength="96" x="734" y="264.1543">WebSocketToPi</text><line style="stroke: #A80036; stroke-width: 1.5;" x1="706" x2="832" y1="276" y2="276"/><line style="stroke: #A80036; stroke-width: 1.5;" x1="706" x2="832" y1="284" y2="284"/><!--class UsbToPi--><rect fill="#FEFECE" filter="url(#fy7p1y5mr68bx)" height="48" id="UsbToPi" style="stroke: #A80036; stroke-width: 1.5;" width="82" x="588" y="244"/><ellipse cx="603" cy="260" fill="#ADD1B2" rx="11" ry="11" style="stroke: #A80036; stroke-width: 1.0;"/><path d="M605.9688,265.6406 Q605.3906,265.9375 604.75,266.0859 Q604.1094,266.2344 603.4063,266.2344 Q600.9063,266.2344 599.5859,264.5859 Q598.2656,262.9375 598.2656,259.8125 Q598.2656,256.6875 599.5859,255.0313 Q600.9063,253.375 603.4063,253.375 Q604.1094,253.375 604.7578,253.5313 Q605.4063,253.6875 605.9688,253.9844 L605.9688,256.7031 Q605.3438,256.125 604.75,255.8516 Q604.1563,255.5781 603.5313,255.5781 Q602.1875,255.5781 601.5,256.6484 Q600.8125,257.7188 600.8125,259.8125 Q600.8125,261.9063 601.5,262.9766 Q602.1875,264.0469 603.5313,264.0469 Q604.1563,264.0469 604.75,263.7734 Q605.3438,263.5 605.9688,262.9219 L605.9688,265.6406 Z "/><text fill="#000000" font-family="sans-serif" font-size="12" lengthAdjust="spacingAndGlyphs" textLength="50" x="617" y="264.1543">UsbToPi</text><line style="stroke: #A80036; stroke-width: 1.5;" x1="589" x2="669" y1="276" y2="276"/><line style="stroke: #A80036; stroke-width: 1.5;" x1="589" x2="669" y1="284" y2="284"/><!--class NetworkConfiguration--><rect fill="#FEFECE" filter="url(#fy7p1y5mr68bx)" height="73.6094" id="NetworkConfiguration" style="stroke: #A80036; stroke-width: 1.5;" width="167" x="884.5" y="59"/><ellipse cx="899.5" cy="75" fill="#ADD1B2" rx="11" ry="11" style="stroke: #A80036; stroke-width: 1.0;"/><path d="M902.4688,80.6406 Q901.8906,80.9375 901.25,81.0859 Q900.6094,81.2344 899.9063,81.2344 Q897.4063,81.2344 896.0859,79.5859 Q894.7656,77.9375 894.7656,74.8125 Q894.7656,71.6875 896.0859,70.0313 Q897.4063,68.375 899.9063,68.375 Q900.6094,68.375 901.2578,68.5313 Q901.9063,68.6875 902.4688,68.9844 L902.4688,71.7031 Q901.8438,71.125 901.25,70.8516 Q900.6563,70.5781 900.0313,70.5781 Q898.6875,70.5781 898,71.6484 Q897.3125,72.7188 897.3125,74.8125 Q897.3125,76.9063 898,77.9766 Q898.6875,79.0469 900.0313,79.0469 Q900.6563,79.0469 901.25,78.7734 Q901.8438,78.5 902.4688,77.9219 L902.4688,80.6406 Z "/><text fill="#000000" font-family="sans-serif" font-size="12" lengthAdjust="spacingAndGlyphs" textLength="135" x="913.5" y="79.1543">NetworkConfiguration</text><line style="stroke: #A80036; stroke-width: 1.5;" x1="885.5" x2="1050.5" y1="91" y2="91"/><rect fill="none" height="6" style="stroke: #C82930; stroke-width: 1.0;" width="6" x="892.5" y="99.9023"/><text fill="#000000" font-family="sans-serif" font-size="11" lengthAdjust="spacingAndGlyphs" textLength="45" x="904.5" y="105.2104">port: int</text><rect fill="none" height="6" style="stroke: #C82930; stroke-width: 1.0;" width="6" x="892.5" y="112.707"/><text fill="#000000" font-family="sans-serif" font-size="11" lengthAdjust="spacingAndGlyphs" textLength="122" x="904.5" y="118.0151">ipAddressOfPi: String</text><line style="stroke: #A80036; stroke-width: 1.5;" x1="885.5" x2="1050.5" y1="124.6094" y2="124.6094"/><!--class ICommandResponseListener--><rect fill="#FEFECE" filter="url(#fy7p1y5mr68bx)" height="60.8047" id="ICommandResponseListener" style="stroke: #A80036; stroke-width: 1.5;" width="355" x="565.5" y="645"/><ellipse cx="650.75" cy="661" fill="#B4A7E5" rx="11" ry="11" style="stroke: #A80036; stroke-width: 1.0;"/><path d="M646.6719,656.7656 L646.6719,654.6094 L654.0625,654.6094 L654.0625,656.7656 L651.5938,656.7656 L651.5938,664.8438 L654.0625,664.8438 L654.0625,667 L646.6719,667 L646.6719,664.8438 L649.1406,664.8438 L649.1406,656.7656 L646.6719,656.7656 Z "/><text fill="#000000" font-family="sans-serif" font-size="12" font-style="italic" lengthAdjust="spacingAndGlyphs" textLength="176" x="671.25" y="665.1543">ICommandResponseListener</text><line style="stroke: #A80036; stroke-width: 1.5;" x1="566.5" x2="919.5" y1="677" y2="677"/><line style="stroke: #A80036; stroke-width: 1.5;" x1="566.5" x2="919.5" y1="685" y2="685"/><text fill="#000000" font-family="sans-serif" font-size="11" lengthAdjust="spacingAndGlyphs" textLength="343" x="571.5" y="699.2104">receivePartOfResponse(response: String; finished: boolean)</text><!--class MeasurementRunAgentForSsh--><rect fill="#FEFECE" filter="url(#fy7p1y5mr68bx)" height="124.8281" id="MeasurementRunAgentForSsh" style="stroke: #A80036; stroke-width: 1.5;" width="464" x="317" y="422"/><ellipse cx="449.75" cy="438" fill="#ADD1B2" rx="11" ry="11" style="stroke: #A80036; stroke-width: 1.0;"/><path d="M452.7188,443.6406 Q452.1406,443.9375 451.5,444.0859 Q450.8594,444.2344 450.1563,444.2344 Q447.6563,444.2344 446.3359,442.5859 Q445.0156,440.9375 445.0156,437.8125 Q445.0156,434.6875 446.3359,433.0313 Q447.6563,431.375 450.1563,431.375 Q450.8594,431.375 451.5078,431.5313 Q452.1563,431.6875 452.7188,431.9844 L452.7188,434.7031 Q452.0938,434.125 451.5,433.8516 Q450.9063,433.5781 450.2813,433.5781 Q448.9375,433.5781 448.25,434.6484 Q447.5625,435.7188 447.5625,437.8125 Q447.5625,439.9063 448.25,440.9766 Q448.9375,442.0469 450.2813,442.0469 Q450.9063,442.0469 451.5,441.7734 Q452.0938,441.5 452.7188,440.9219 L452.7188,443.6406 Z "/><text fill="#000000" font-family="sans-serif" font-size="12" lengthAdjust="spacingAndGlyphs" textLength="190" x="470.25" y="442.1543">MeasurementRunAgentForSsh</text><line style="stroke: #A80036; stroke-width: 1.5;" x1="318" x2="780" y1="454" y2="454"/><line style="stroke: #A80036; stroke-width: 1.5;" x1="318" x2="780" y1="462" y2="462"/><ellipse cx="328" cy="473.9023" fill="#84BE84" rx="3" ry="3" style="stroke: #038048; stroke-width: 1.0;"/><text fill="#000000" font-family="sans-serif" font-size="11" lengthAdjust="spacingAndGlyphs" textLength="368" x="337" y="476.2104">MeasurementRunAgentForSsh(foundation: CommunicationWithPi)</text><ellipse cx="328" cy="486.707" fill="#84BE84" rx="3" ry="3" style="stroke: #038048; stroke-width: 1.0;"/><text fill="#000000" font-family="sans-serif" font-size="11" lengthAdjust="spacingAndGlyphs" textLength="438" x="337" y="489.0151">start(sensorIDs: string[], listeners: IMeasurementStreamListener[]): boolean</text><ellipse cx="328" cy="499.5117" fill="#84BE84" rx="3" ry="3" style="stroke: #038048; stroke-width: 1.0;"/><text fill="#000000" font-family="sans-serif" font-size="11" lengthAdjust="spacingAndGlyphs" textLength="96" x="337" y="501.8198">pause(): boolean</text><ellipse cx="328" cy="512.3164" fill="#84BE84" rx="3" ry="3" style="stroke: #038048; stroke-width: 1.0;"/><text fill="#000000" font-family="sans-serif" font-size="11" lengthAdjust="spacingAndGlyphs" textLength="109" x="337" y="514.6245">continue(): boolean</text><ellipse cx="328" cy="525.1211" fill="#84BE84" rx="3" ry="3" style="stroke: #038048; stroke-width: 1.0;"/><text fill="#000000" font-family="sans-serif" font-size="11" lengthAdjust="spacingAndGlyphs" textLength="86" x="337" y="527.4292">stop(): boolean</text><ellipse cx="328" cy="537.9258" fill="#84BE84" rx="3" ry="3" style="stroke: #038048; stroke-width: 1.0;"/><text fill="#000000" font-family="sans-serif" font-size="11" lengthAdjust="spacingAndGlyphs" textLength="343" x="337" y="540.2339">receivePartOfResponse(response: String; finished: boolean)</text><path d="M38,232.5 L38,303.0313 A0,0 0 0 0 38,303.0313 L254.137,303.0313 L449.505,421.996 L262.137,303.0313 L366,303.0313 A0,0 0 0 0 366,303.0313 L366,242.5 L356,232.5 L38,232.5 A0,0 0 0 0 38,232.5 " fill="#FBFB77" filter="url(#fy7p1y5mr68bx)" style="stroke: #A80036; stroke-width: 1.0;"/><path d="M356,232.5 L356,242.5 L366,242.5 L356,232.5 " fill="#FBFB77" style="stroke: #A80036; stroke-width: 1.0;"/><text fill="#000000" font-family="sans-serif" font-size="13" lengthAdjust="spacingAndGlyphs" textLength="303" x="44" y="249.5669">To separate technical aspect of communication</text><text fill="#000000" font-family="sans-serif" font-size="13" lengthAdjust="spacingAndGlyphs" textLength="274" x="44" y="264.6997">from application specific aspect, this Agent</text><text fill="#000000" font-family="sans-serif" font-size="13" lengthAdjust="spacingAndGlyphs" textLength="302" x="44" y="279.8325">receives technical events and forwards them to</text><text fill="#000000" font-family="sans-serif" font-size="13" lengthAdjust="spacingAndGlyphs" textLength="257" x="44" y="294.9653">its registered application specific clients.</text><!--class IMeasurementStreamListener--><rect fill="#FEFECE" filter="url(#fy7p1y5mr68bx)" height="73.6094" id="IMeasurementStreamListener" style="stroke: #A80036; stroke-width: 1.5;" width="243" x="38.5" y="447.5"/><ellipse cx="65.65" cy="463.5" fill="#B4A7E5" rx="11" ry="11" style="stroke: #A80036; stroke-width: 1.0;"/><path d="M61.5719,459.2656 L61.5719,457.1094 L68.9625,457.1094 L68.9625,459.2656 L66.4938,459.2656 L66.4938,467.3438 L68.9625,467.3438 L68.9625,469.5 L61.5719,469.5 L61.5719,467.3438 L64.0406,467.3438 L64.0406,459.2656 L61.5719,459.2656 Z "/><text fill="#000000" font-family="sans-serif" font-size="12" font-style="italic" lengthAdjust="spacingAndGlyphs" textLength="184" x="82.35" y="467.6543">IMeasurementStreamListener</text><line style="stroke: #A80036; stroke-width: 1.5;" x1="39.5" x2="280.5" y1="479.5" y2="479.5"/><line style="stroke: #A80036; stroke-width: 1.5;" x1="39.5" x2="280.5" y1="487.5" y2="487.5"/><rect fill="#F24D5C" height="6" style="stroke: #C82930; stroke-width: 1.0;" width="6" x="46.5" y="496.4023"/><text fill="#000000" font-family="sans-serif" font-size="11" lengthAdjust="spacingAndGlyphs" textLength="217" x="58.5" y="501.7104">receiveData(measuredValue: int): void</text><rect fill="#F24D5C" height="6" style="stroke: #C82930; stroke-width: 1.0;" width="6" x="46.5" y="509.207"/><text fill="#000000" font-family="sans-serif" font-size="11" lengthAdjust="spacingAndGlyphs" textLength="165" x="58.5" y="514.5151">connectionTerminated(): void</text><!--class SensorInfoAgentForSsh--><rect fill="#FEFECE" filter="url(#fy7p1y5mr68bx)" height="99.2188" id="SensorInfoAgentForSsh" style="stroke: #A80036; stroke-width: 1.5;" width="357" x="955.5" y="626"/><ellipse cx="1056.25" cy="642" fill="#ADD1B2" rx="11" ry="11" style="stroke: #A80036; stroke-width: 1.0;"/><path d="M1059.2188,647.6406 Q1058.6406,647.9375 1058,648.0859 Q1057.3594,648.2344 1056.6563,648.2344 Q1054.1563,648.2344 1052.8359,646.5859 Q1051.5156,644.9375 1051.5156,641.8125 Q1051.5156,638.6875 1052.8359,637.0313 Q1054.1563,635.375 1056.6563,635.375 Q1057.3594,635.375 1058.0078,635.5313 Q1058.6563,635.6875 1059.2188,635.9844 L1059.2188,638.7031 Q1058.5938,638.125 1058,637.8516 Q1057.4063,637.5781 1056.7813,637.5781 Q1055.4375,637.5781 1054.75,638.6484 Q1054.0625,639.7188 1054.0625,641.8125 Q1054.0625,643.9063 1054.75,644.9766 Q1055.4375,646.0469 1056.7813,646.0469 Q1057.4063,646.0469 1058,645.7734 Q1058.5938,645.5 1059.2188,644.9219 L1059.2188,647.6406 Z "/><text fill="#000000" font-family="sans-serif" font-size="12" lengthAdjust="spacingAndGlyphs" textLength="147" x="1076.75" y="646.1543">SensorInfoAgentForSsh</text><line style="stroke: #A80036; stroke-width: 1.5;" x1="956.5" x2="1311.5" y1="658" y2="658"/><line style="stroke: #A80036; stroke-width: 1.5;" x1="956.5" x2="1311.5" y1="666" y2="666"/><ellipse cx="966.5" cy="677.9023" fill="#84BE84" rx="3" ry="3" style="stroke: #038048; stroke-width: 1.0;"/><text fill="#000000" font-family="sans-serif" font-size="11" lengthAdjust="spacingAndGlyphs" textLength="331" x="975.5" y="680.2104">SensorInfoAgentForSsh(foundation: CommunicationWithPi)</text><ellipse cx="966.5" cy="690.707" fill="#84BE84" rx="3" ry="3" style="stroke: #038048; stroke-width: 1.0;"/><text fill="#000000" font-family="sans-serif" font-size="11" lengthAdjust="spacingAndGlyphs" textLength="204" x="975.5" y="693.0151">getIdsOfAvailableSensors(): String[]</text><ellipse cx="966.5" cy="703.5117" fill="#84BE84" rx="3" ry="3" style="stroke: #038048; stroke-width: 1.0;"/><text fill="#000000" font-family="sans-serif" font-size="11" lengthAdjust="spacingAndGlyphs" textLength="218" x="975.5" y="705.8198">getYamlFile(sensorId: String): boolean</text><ellipse cx="966.5" cy="716.3164" fill="#84BE84" rx="3" ry="3" style="stroke: #038048; stroke-width: 1.0;"/><text fill="#000000" font-family="sans-serif" font-size="11" lengthAdjust="spacingAndGlyphs" textLength="218" x="975.5" y="718.6245">setYamlFile(sensorId: String): boolean</text><!--class IAccessToSensorInfo--><rect fill="#FEFECE" filter="url(#fy7p1y5mr68bx)" height="86.4141" id="IAccessToSensorInfo" style="stroke: #A80036; stroke-width: 1.5;" width="244" x="958" y="791.5"/><ellipse cx="1011.75" cy="807.5" fill="#B4A7E5" rx="11" ry="11" style="stroke: #A80036; stroke-width: 1.0;"/><path d="M1007.6719,803.2656 L1007.6719,801.1094 L1015.0625,801.1094 L1015.0625,803.2656 L1012.5938,803.2656 L1012.5938,811.3438 L1015.0625,811.3438 L1015.0625,813.5 L1007.6719,813.5 L1007.6719,811.3438 L1010.1406,811.3438 L1010.1406,803.2656 L1007.6719,803.2656 Z "/><text fill="#000000" font-family="sans-serif" font-size="12" font-style="italic" lengthAdjust="spacingAndGlyphs" textLength="128" x="1032.25" y="811.6543">IAccessToSensorInfo</text><line style="stroke: #A80036; stroke-width: 1.5;" x1="959" x2="1201" y1="823.5" y2="823.5"/><line style="stroke: #A80036; stroke-width: 1.5;" x1="959" x2="1201" y1="831.5" y2="831.5"/><ellipse cx="969" cy="843.4023" fill="#84BE84" rx="3" ry="3" style="stroke: #038048; stroke-width: 1.0;"/><text fill="#000000" font-family="sans-serif" font-size="11" lengthAdjust="spacingAndGlyphs" textLength="204" x="978" y="845.7104">getIdsOfAvailableSensors(): String[]</text><ellipse cx="969" cy="856.207" fill="#84BE84" rx="3" ry="3" style="stroke: #038048; stroke-width: 1.0;"/><text fill="#000000" font-family="sans-serif" font-size="11" lengthAdjust="spacingAndGlyphs" textLength="218" x="978" y="858.5151">getYamlFile(sensorId: String): boolean</text><ellipse cx="969" cy="869.0117" fill="#84BE84" rx="3" ry="3" style="stroke: #038048; stroke-width: 1.0;"/><text fill="#000000" font-family="sans-serif" font-size="11" lengthAdjust="spacingAndGlyphs" textLength="218" x="978" y="871.3198">setYamlFile(sensorId: String): boolean</text><!--class IAccessToMeasurementRun--><rect fill="#FEFECE" filter="url(#fy7p1y5mr68bx)" height="99.2188" id="IAccessToMeasurementRun" style="stroke: #A80036; stroke-width: 1.5;" width="464" x="405" y="785"/><ellipse cx="547.75" cy="801" fill="#B4A7E5" rx="11" ry="11" style="stroke: #A80036; stroke-width: 1.0;"/><path d="M543.6719,796.7656 L543.6719,794.6094 L551.0625,794.6094 L551.0625,796.7656 L548.5938,796.7656 L548.5938,804.8438 L551.0625,804.8438 L551.0625,807 L543.6719,807 L543.6719,804.8438 L546.1406,804.8438 L546.1406,796.7656 L543.6719,796.7656 Z "/><text fill="#000000" font-family="sans-serif" font-size="12" font-style="italic" lengthAdjust="spacingAndGlyphs" textLength="170" x="568.25" y="805.1543">IAccessToMeasurementRun</text><line style="stroke: #A80036; stroke-width: 1.5;" x1="406" x2="868" y1="817" y2="817"/><line style="stroke: #A80036; stroke-width: 1.5;" x1="406" x2="868" y1="825" y2="825"/><ellipse cx="416" cy="836.9023" fill="#84BE84" rx="3" ry="3" style="stroke: #038048; stroke-width: 1.0;"/><text fill="#000000" font-family="sans-serif" font-size="11" lengthAdjust="spacingAndGlyphs" textLength="438" x="425" y="839.2104">start(sensorIDs: string[], listeners: IMeasurementStreamListener[]): boolean</text><ellipse cx="416" cy="849.707" fill="#84BE84" rx="3" ry="3" style="stroke: #038048; stroke-width: 1.0;"/><text fill="#000000" font-family="sans-serif" font-size="11" lengthAdjust="spacingAndGlyphs" textLength="96" x="425" y="852.0151">pause(): boolean</text><ellipse cx="416" cy="862.5117" fill="#84BE84" rx="3" ry="3" style="stroke: #038048; stroke-width: 1.0;"/><text fill="#000000" font-family="sans-serif" font-size="11" lengthAdjust="spacingAndGlyphs" textLength="109" x="425" y="864.8198">continue(): boolean</text><ellipse cx="416" cy="875.3164" fill="#84BE84" rx="3" ry="3" style="stroke: #038048; stroke-width: 1.0;"/><text fill="#000000" font-family="sans-serif" font-size="11" lengthAdjust="spacingAndGlyphs" textLength="86" x="425" y="877.6245">stop(): boolean</text><!--class MeasurementState--><rect fill="#FEFECE" filter="url(#fy7p1y5mr68bx)" height="86.4141" id="MeasurementState" style="stroke: #A80036; stroke-width: 1.5;" width="152" x="401" y="225"/><ellipse cx="416" cy="241" fill="#EB937F" rx="11" ry="11" style="stroke: #A80036; stroke-width: 1.0;"/><path d="M420.1094,247 L412.3906,247 L412.3906,234.6094 L420.1094,234.6094 L420.1094,236.7656 L414.8438,236.7656 L414.8438,239.4375 L419.6094,239.4375 L419.6094,241.5938 L414.8438,241.5938 L414.8438,244.8438 L420.1094,244.8438 L420.1094,247 Z "/><text fill="#000000" font-family="sans-serif" font-size="12" lengthAdjust="spacingAndGlyphs" textLength="120" x="430" y="245.1543">MeasurementState</text><line style="stroke: #A80036; stroke-width: 1.5;" x1="402" x2="552" y1="257" y2="257"/><text fill="#000000" font-family="sans-serif" font-size="11" lengthAdjust="spacingAndGlyphs" textLength="76" x="407" y="271.2104">INITAL_STATE</text><text fill="#000000" font-family="sans-serif" font-size="11" lengthAdjust="spacingAndGlyphs" textLength="51" x="407" y="284.0151">RUNNING</text><text fill="#000000" font-family="sans-serif" font-size="11" lengthAdjust="spacingAndGlyphs" textLength="45" x="407" y="296.8198">PAUSED</text><line style="stroke: #A80036; stroke-width: 1.5;" x1="402" x2="552" y1="303.4141" y2="303.4141"/><!--class PickupPointForAgentsBasedOnSsh--><rect fill="#FEFECE" filter="url(#fy7p1y5mr68bx)" height="86.4141" id="PickupPointForAgentsBasedOnSsh" style="stroke: #A80036; stroke-width: 1.5;" width="584" x="539" y="944"/><ellipse cx="718.75" cy="960" fill="#ADD1B2" rx="11" ry="11" style="stroke: #A80036; stroke-width: 1.0;"/><path d="M721.7188,965.6406 Q721.1406,965.9375 720.5,966.0859 Q719.8594,966.2344 719.1563,966.2344 Q716.6563,966.2344 715.3359,964.5859 Q714.0156,962.9375 714.0156,959.8125 Q714.0156,956.6875 715.3359,955.0313 Q716.6563,953.375 719.1563,953.375 Q719.8594,953.375 720.5078,953.5313 Q721.1563,953.6875 721.7188,953.9844 L721.7188,956.7031 Q721.0938,956.125 720.5,955.8516 Q719.9063,955.5781 719.2813,955.5781 Q717.9375,955.5781 717.25,956.6484 Q716.5625,957.7188 716.5625,959.8125 Q716.5625,961.9063 717.25,962.9766 Q717.9375,964.0469 719.2813,964.0469 Q719.9063,964.0469 720.5,963.7734 Q721.0938,963.5 721.7188,962.9219 L721.7188,965.6406 Z "/><text fill="#000000" font-family="sans-serif" font-size="12" lengthAdjust="spacingAndGlyphs" textLength="216" x="739.25" y="964.1543">PickupPointForAgentsBasedOnSsh</text><line style="stroke: #A80036; stroke-width: 1.5;" x1="540" x2="1122" y1="976" y2="976"/><line style="stroke: #A80036; stroke-width: 1.5;" x1="540" x2="1122" y1="984" y2="984"/><ellipse cx="550" cy="995.9023" fill="#84BE84" rx="3" ry="3" style="stroke: #038048; stroke-width: 1.0;"/><text fill="#000000" font-family="sans-serif" font-size="11" lengthAdjust="spacingAndGlyphs" text-decoration="underline" textLength="558" x="559" y="998.2104">getPickupPointForAgentsBasedOnSsh(initData: InitDataForSsh): PickupPointForAgentsBasedOnSsh</text><ellipse cx="550" cy="1008.707" fill="#84BE84" rx="3" ry="3" style="stroke: #038048; stroke-width: 1.0;"/><text fill="#000000" font-family="sans-serif" font-size="11" lengthAdjust="spacingAndGlyphs" textLength="309" x="559" y="1011.0151">getIAccessToMeasurementRun(): IAccessToSensorInfo</text><ellipse cx="550" cy="1021.5117" fill="#84BE84" rx="3" ry="3" style="stroke: #038048; stroke-width: 1.0;"/><text fill="#000000" font-family="sans-serif" font-size="11" lengthAdjust="spacingAndGlyphs" textLength="272" x="559" y="1023.8198">getIAccessToSensorInfo(): IAccessToSensorInfo</text><!--class InitDataForSsh--><rect fill="#FEFECE" filter="url(#fy7p1y5mr68bx)" height="124.8281" id="InitDataForSsh" style="stroke: #A80036; stroke-width: 1.5;" width="170" x="746" y="1090"/><ellipse cx="781.7" cy="1106" fill="#ADD1B2" rx="11" ry="11" style="stroke: #A80036; stroke-width: 1.0;"/><path d="M784.6688,1111.6406 Q784.0906,1111.9375 783.45,1112.0859 Q782.8094,1112.2344 782.1063,1112.2344 Q779.6063,1112.2344 778.2859,1110.5859 Q776.9656,1108.9375 776.9656,1105.8125 Q776.9656,1102.6875 778.2859,1101.0313 Q779.6063,1099.375 782.1063,1099.375 Q782.8094,1099.375 783.4578,1099.5313 Q784.1063,1099.6875 784.6688,1099.9844 L784.6688,1102.7031 Q784.0438,1102.125 783.45,1101.8516 Q782.8563,1101.5781 782.2313,1101.5781 Q780.8875,1101.5781 780.2,1102.6484 Q779.5125,1103.7188 779.5125,1105.8125 Q779.5125,1107.9063 780.2,1108.9766 Q780.8875,1110.0469 782.2313,1110.0469 Q782.8563,1110.0469 783.45,1109.7734 Q784.0438,1109.5 784.6688,1108.9219 L784.6688,1111.6406 Z "/><text fill="#000000" font-family="sans-serif" font-size="12" lengthAdjust="spacingAndGlyphs" textLength="92" x="800.3" y="1110.1543">InitDataForSsh</text><line style="stroke: #A80036; stroke-width: 1.5;" x1="747" x2="915" y1="1122" y2="1122"/><ellipse cx="757" cy="1133.9023" fill="none" rx="3" ry="3" style="stroke: #038048; stroke-width: 1.0;"/><text fill="#000000" font-family="sans-serif" font-size="11" lengthAdjust="spacingAndGlyphs" textLength="126" x="766" y="1136.2104">ipAddressOfPi: String,</text><ellipse cx="757" cy="1146.707" fill="none" rx="3" ry="3" style="stroke: #038048; stroke-width: 1.0;"/><text fill="#000000" font-family="sans-serif" font-size="11" lengthAdjust="spacingAndGlyphs" textLength="49" x="766" y="1149.0151">port: int,</text><ellipse cx="757" cy="1159.5117" fill="none" rx="3" ry="3" style="stroke: #038048; stroke-width: 1.0;"/><text fill="#000000" font-family="sans-serif" font-size="11" lengthAdjust="spacingAndGlyphs" textLength="104" x="766" y="1161.8198">username: String,</text><ellipse cx="757" cy="1172.3164" fill="none" rx="3" ry="3" style="stroke: #038048; stroke-width: 1.0;"/><text fill="#000000" font-family="sans-serif" font-size="11" lengthAdjust="spacingAndGlyphs" textLength="102" x="766" y="1174.6245">password: String,</text><ellipse cx="757" cy="1185.1211" fill="none" rx="3" ry="3" style="stroke: #038048; stroke-width: 1.0;"/><text fill="#000000" font-family="sans-serif" font-size="11" lengthAdjust="spacingAndGlyphs" textLength="144" x="766" y="1187.4292">pathToRemoteDir: String,</text><ellipse cx="757" cy="1197.9258" fill="none" rx="3" ry="3" style="stroke: #038048; stroke-width: 1.0;"/><text fill="#000000" font-family="sans-serif" font-size="11" lengthAdjust="spacingAndGlyphs" textLength="126" x="766" y="1200.2339">pathToLocalDir: String</text><line style="stroke: #A80036; stroke-width: 1.5;" x1="747" x2="915" y1="1206.8281" y2="1206.8281"/><!--entity ##37--><!--link SshToPi to CommunicationWithPi--><path d="M1148.69,343.119 C1145.49,356.055 1142.12,369.705 1138.78,383.206 " fill="none" id="SshToPi-CommunicationWithPi" style="stroke: #A80036; stroke-width: 1.0;"/><polygon fill="none" points="1145.54,385.045,1133.94,402.782,1131.95,381.687,1145.54,385.045" style="stroke: #A80036; stroke-width: 1.0;"/><!--link WebSocketToPi to CommunicationWithPi--><path d="M791.748,292.315 C807.531,307.767 829.503,327.898 851,343 C875.963,360.537 903.37,377.445 930.773,393.084 " fill="none" id="WebSocketToPi-CommunicationWithPi" style="stroke: #A80036; stroke-width: 1.0;"/><polygon fill="none" points="934.267,387.018,948.281,402.912,927.415,399.227,934.267,387.018" style="stroke: #A80036; stroke-width: 1.0;"/><!--link UsbToPi to CommunicationWithPi--><path d="M641.974,292.032 C652.257,308.373 668.027,329.685 687,343 C710.607,359.568 756.175,378.281 809.056,396.518 " fill="none" id="UsbToPi-CommunicationWithPi" style="stroke: #A80036; stroke-width: 1.0;"/><polygon fill="none" points="811.342,389.902,828.042,402.945,806.853,403.163,811.342,389.902" style="stroke: #A80036; stroke-width: 1.0;"/><!--link NetworkConfiguration to SshToPi--><path d="M1014.09,136.37 C1033.78,153.2 1057.45,173.41 1080.21,192.86 " fill="none" id="NetworkConfiguration-SshToPi" style="stroke: #A80036; stroke-width: 1.0;"/><polygon fill="#A80036" points="1010.2,133.05,1014.4494,141.9349,1014.0033,136.2957,1019.6426,135.8496,1010.2,133.05" style="stroke: #A80036; stroke-width: 1.0;"/><!--link NetworkConfiguration to WebSocketToPi--><path d="M918.97,136.37 C897.865,153.54 873.029,174.04 851,193 C831.669,209.64 810.292,228.96 794.211,243.69 " fill="none" id="NetworkConfiguration-WebSocketToPi" style="stroke: #A80036; stroke-width: 1.0;"/><polygon fill="#A80036" points="922.865,133.21,913.3565,135.7767,918.983,136.3612,918.3985,141.9878,922.865,133.21" style="stroke: #A80036; stroke-width: 1.0;"/><!--link CommunicationWithPi to ICommandResponseListener--><path d="M955.856,566.064 C902.91,593.037 846.924,621.558 805.665,642.576 " fill="none" id="CommunicationWithPi-ICommandResponseListener" style="stroke: #A80036; stroke-width: 1.0;"/><polygon fill="#A80036" points="800.961,644.973,810.796,644.4504,805.4159,642.7027,807.1635,637.3226,800.961,644.973" style="stroke: #A80036; stroke-width: 1.0;"/><text fill="#000000" font-family="sans-serif" font-size="13" lengthAdjust="spacingAndGlyphs" textLength="143" x="654.9993" y="633.7574">listeningProtocolAgent</text><!--link ICommandResponseListener to MeasurementRunAgentForSsh--><path d="M698.186,630.841 C672.678,605.99 640.314,574.461 612.254,547.124 " fill="none" id="ICommandResponseListener-MeasurementRunAgentForSsh" style="stroke: #A80036; stroke-width: 1.0; stroke-dasharray: 7.0,7.0;"/><polygon fill="none" points="703.264,626.015,712.705,644.985,693.494,636.043,703.264,626.015" style="stroke: #A80036; stroke-width: 1.0;"/><!--link MeasurementRunAgentForSsh to CommunicationWithPi--><path d="M781.014,484.5 C790.891,484.5 800.767,484.5 810.644,484.5 " fill="none" id="MeasurementRunAgentForSsh-CommunicationWithPi" style="stroke: #A80036; stroke-width: 1.0;"/><polygon fill="#A80036" points="815.809,484.5,806.809,480.5,810.809,484.5,806.809,488.5,815.809,484.5" style="stroke: #A80036; stroke-width: 1.0;"/><!--link CommunicationWithPi to SensorInfoAgentForSsh--><path d="M1123.09,571.443 C1125.07,590.078 1127.09,609.161 1128.84,625.761 " fill="none" id="CommunicationWithPi-SensorInfoAgentForSsh" style="stroke: #A80036; stroke-width: 1.0;"/><polygon fill="#A80036" points="1122.54,566.201,1119.5113,575.5726,1123.0672,571.1731,1127.4667,574.7291,1122.54,566.201" style="stroke: #A80036; stroke-width: 1.0;"/><!--link IMeasurementStreamListener to MeasurementRunAgentForSsh--><path d="M286.796,484.5 C296.804,484.5 306.812,484.5 316.82,484.5 " fill="none" id="IMeasurementStreamListener-MeasurementRunAgentForSsh" style="stroke: #A80036; stroke-width: 1.0;"/><polygon fill="#A80036" points="281.562,484.5,290.562,488.5,286.562,484.5,290.562,480.5,281.562,484.5" style="stroke: #A80036; stroke-width: 1.0;"/><text fill="#000000" font-family="sans-serif" font-size="13" lengthAdjust="spacingAndGlyphs" textLength="7" x="289.5738" y="481.1032">*</text><!--link SensorInfoAgentForSsh to IAccessToSensorInfo--><path d="M1117.21,725.315 C1112.09,740.189 1106.41,756.73 1101.05,772.313 " fill="none" id="SensorInfoAgentForSsh-IAccessToSensorInfo" style="stroke: #A80036; stroke-width: 1.0; stroke-dasharray: 7.0,7.0;"/><polygon fill="none" points="1107.62,774.706,1094.5,791.341,1094.39,770.152,1107.62,774.706" style="stroke: #A80036; stroke-width: 1.0;"/><!--link MeasurementRunAgentForSsh to IAccessToMeasurementRun--><path d="M537.449,547.229 C530.812,596.781 527.38,667.35 548,725 C553.571,740.575 562.447,755.52 572.483,769.074 " fill="none" id="MeasurementRunAgentForSsh-IAccessToMeasurementRun" style="stroke: #A80036; stroke-width: 1.0; stroke-dasharray: 7.0,7.0;"/><polygon fill="none" points="578.098,764.887,585.156,784.866,567.179,773.649,578.098,764.887" style="stroke: #A80036; stroke-width: 1.0;"/><!--link MeasurementState to MeasurementRunAgentForSsh--><path d="M492.786,316.028 C503.23,347.144 517.033,388.266 528.348,421.974 " fill="none" id="MeasurementState-MeasurementRunAgentForSsh" style="stroke: #A80036; stroke-width: 1.0;"/><polygon fill="#A80036" points="491.139,311.122,490.2089,320.9268,492.7291,315.8624,497.7936,318.3826,491.139,311.122" style="stroke: #A80036; stroke-width: 1.0;"/><!--link IAccessToSensorInfo to PickupPointForAgentsBasedOnSsh--><path d="M1005.857,880.313 C972.543,900.449 933.443,924.082 900.675,943.887 " fill="none" id="IAccessToSensorInfo-PickupPointForAgentsBasedOnSsh" style="stroke: #A80036; stroke-width: 1.0;"/><polygon fill="#A80036" points="1010.31,877.623,1000.5371,878.8436,1006.0278,880.2043,1004.6672,885.6951,1010.31,877.623" style="stroke: #A80036; stroke-width: 1.0;"/><!--link IAccessToMeasurementRun to PickupPointForAgentsBasedOnSsh--><path d="M703.816,887.334 C727.59,905.778 754.051,926.305 776.654,943.84 " fill="none" id="IAccessToMeasurementRun-PickupPointForAgentsBasedOnSsh" style="stroke: #A80036; stroke-width: 1.0;"/><polygon fill="#A80036" points="699.718,884.155,704.3768,892.8323,703.6684,887.22,709.2808,886.5116,699.718,884.155" style="stroke: #A80036; stroke-width: 1.0;"/><!--link PickupPointForAgentsBasedOnSsh to InitDataForSsh--><path d="M831,1030.105 C831,1046.711 831,1066.195 831,1084.634 " fill="none" id="PickupPointForAgentsBasedOnSsh-InitDataForSsh" style="stroke: #A80036; stroke-width: 1.0; stroke-dasharray: 7.0,7.0;"/><polygon fill="#A80036" points="831,1089.804,835,1080.804,831,1084.804,827,1080.804,831,1089.804" style="stroke: #A80036; stroke-width: 1.0;"/><!--
@startuml
package edu.kit.freejdaq.backend {
	SshToPi - -|> CommunicationWithPi
	WebSocketToPi  - -|> CommunicationWithPi
	UsbToPi - -|> CommunicationWithPi
	SshToPi -up-> NetworkConfiguration
	WebSocketToPi -up-> NetworkConfiguration

	class NetworkConfiguration {
	   -port: int
	   -ipAddressOfPi: String
	}

	abstract class CommunicationWithPi {
		-busy: boolean
		-pathToRemoteDir: String
		-pathToLocalDir: String
		+CommunicationWithPi(pathToRemoteDir: String, pathToLocalDir: String)
	    +{abstract}executeCompleteCommandWithTimeout(command: String, timeOut: int): String[]
	    +{abstract}copyFileFromPi(nameOfFile: String): boolean
	    +{abstract}copyFileToPi(nameOfFile: String): boolean
	    +{abstract}executeCommandContinuously(command: String, listeningAgent: ICommandResponseListener): void
	    +{abstract}disconnect(): void
	}
	CommunicationWithPi - -> "listeningProtocolAgent" ICommandResponseListener

	interface ICommandResponseListener {
		receivePartOfResponse(response: String; finished: boolean)
	}

	 MeasurementRunAgentForSsh .up.|> ICommandResponseListener

	note top of MeasurementRunAgentForSsh
		To separate technical aspect of communication 
		from application specific aspect, this Agent
		receives technical events and forwards them to
		its registered application specific clients. 
	end note

	class SshToPi {
		-username: String
		-password: String
		+SshAndScpTo(username: String, password: String)
		+executeCompleteCommandWithTimeout(command: String, timeOut: int): String[]
	    +copyFileFromPi(nameOfFile: String): boolean
	    +copyFileToPi(nameOfFile: String): boolean
	    +executeCommandContinuously(command: String, listeningAgent: ICommandResponseListener): void
	    +disconnect(): void
	}

	interface IMeasurementStreamListener {
		-receiveData(measuredValue: int): void
		-connectionTerminated(): void
	}

	MeasurementRunAgentForSsh -right-> CommunicationWithPi
	SensorInfoAgentForSsh -up-> CommunicationWithPi
	MeasurementRunAgentForSsh -left-> "*" IMeasurementStreamListener

	interface IAccessToSensorInfo {
		+getIdsOfAvailableSensors(): String[]
		+getYamlFile(sensorId: String): boolean
		+setYamlFile(sensorId: String): boolean
	}

	SensorInfoAgentForSsh ..|> IAccessToSensorInfo


	interface IAccessToMeasurementRun{
		+start(sensorIDs: string[], listeners: IMeasurementStreamListener[]): boolean
		+pause(): boolean
		+continue(): boolean
		+stop(): boolean
	}

	enum MeasurementState {
	  INITAL_STATE
	  RUNNING
	  PAUSED
	}

	MeasurementRunAgentForSsh .down.|> IAccessToMeasurementRun
	MeasurementRunAgentForSsh -up-> MeasurementState

	together {

		class MeasurementRunAgentForSsh {
			+MeasurementRunAgentForSsh(foundation: CommunicationWithPi)
			+start(sensorIDs: string[], listeners: IMeasurementStreamListener[]): boolean
			+pause(): boolean
			+continue(): boolean
			+stop(): boolean
			+receivePartOfResponse(response: String; finished: boolean)
		}

		class SensorInfoAgentForSsh {
			+SensorInfoAgentForSsh(foundation: CommunicationWithPi)
			+getIdsOfAvailableSensors(): String[]
			+getYamlFile(sensorId: String): boolean
			+setYamlFile(sensorId: String): boolean
		}
	}

	PickupPointForAgentsBasedOnSsh -up-> IAccessToSensorInfo
	PickupPointForAgentsBasedOnSsh -up-> IAccessToMeasurementRun
	class PickupPointForAgentsBasedOnSsh {
		+{static}getPickupPointForAgentsBasedOnSsh(initData: InitDataForSsh): PickupPointForAgentsBasedOnSsh
		+getIAccessToMeasurementRun(): IAccessToSensorInfo
		+getIAccessToSensorInfo(): IAccessToSensorInfo
	}
	
	PickupPointForAgentsBasedOnSsh ..> InitDataForSsh
	
	class InitDataForSsh {
	 	+ ipAddressOfPi: String, 
	 	+ port: int, 
	 	+ username: String, 
	 	+ password: String, 
	 	+ pathToRemoteDir: String, 
	 	+ pathToLocalDir: String
	}
}
@enduml

PlantUML version 1.2019.06(Fri May 24 19:10:25 CEST 2019)
(GPL source distribution)
Java Runtime: OpenJDK Runtime Environment
JVM: OpenJDK 64-Bit Server VM
Java Version: 1.8.0_212-8u212-b03-0ubuntu1.16.04.1-b03
Operating System: Linux
OS Version: 4.15.0-54-generic
Default Encoding: UTF-8
Language: de
Country: DE
--></g></svg>