<?xml version="1.0" encoding="UTF-8" standalone="no"?><svg xmlns="http://www.w3.org/2000/svg" xmlns:xlink="http://www.w3.org/1999/xlink" contentScriptType="application/ecmascript" contentStyleType="text/css" height="894px" preserveAspectRatio="none" style="width:2090px;height:894px;" version="1.1" viewBox="0 0 2090 894" width="2090px" zoomAndPan="magnify"><defs><filter height="300%" id="f4now2a0eakqk" width="300%" x="-1" y="-1"><feGaussianBlur result="blurOut" stdDeviation="2.0"/><feColorMatrix in="blurOut" result="blurOut2" type="matrix" values="0 0 0 0 0 0 0 0 0 0 0 0 0 0 0 0 0 0 .4 0"/><feOffset dx="4.0" dy="4.0" in="blurOut2" result="blurOut3"/><feBlend in="SourceGraphic" in2="blurOut3" mode="normal"/></filter></defs><g><!--cluster Cache--><polygon fill="#FFFFFF" filter="url(#f4now2a0eakqk)" points="22,24,77,24,84,46.2969,1767,46.2969,1767,882,22,882,22,24" style="stroke: #000000; stroke-width: 1.5;"/><line style="stroke: #000000; stroke-width: 1.5;" x1="22" x2="84" y1="46.2969" y2="46.2969"/><text fill="#000000" font-family="sans-serif" font-size="14" font-weight="bold" lengthAdjust="spacingAndGlyphs" textLength="49" x="26" y="38.9951">Cache</text><!--cluster Model--><polygon fill="#FFFFFF" filter="url(#f4now2a0eakqk)" points="1791,433,1844,433,1851,455.2969,2068,455.2969,2068,532,1791,532,1791,433" style="stroke: #000000; stroke-width: 1.5;"/><line style="stroke: #000000; stroke-width: 1.5;" x1="1791" x2="1851" y1="455.2969" y2="455.2969"/><text fill="#000000" font-family="sans-serif" font-size="14" font-weight="bold" lengthAdjust="spacingAndGlyphs" textLength="47" x="1795" y="447.9951">Model</text><!--class Cache.MStreamListener--><rect fill="#FEFECE" filter="url(#f4now2a0eakqk)" height="73.6094" id="Cache.MStreamListener" style="stroke: #A80036; stroke-width: 1.5;" width="442" x="75" y="296"/><ellipse cx="239.25" cy="312" fill="#ADD1B2" rx="11" ry="11" style="stroke: #A80036; stroke-width: 1.0;"/><path d="M242.2188,317.6406 Q241.6406,317.9375 241,318.0859 Q240.3594,318.2344 239.6563,318.2344 Q237.1563,318.2344 235.8359,316.5859 Q234.5156,314.9375 234.5156,311.8125 Q234.5156,308.6875 235.8359,307.0313 Q237.1563,305.375 239.6563,305.375 Q240.3594,305.375 241.0078,305.5313 Q241.6563,305.6875 242.2188,305.9844 L242.2188,308.7031 Q241.5938,308.125 241,307.8516 Q240.4063,307.5781 239.7813,307.5781 Q238.4375,307.5781 237.75,308.6484 Q237.0625,309.7188 237.0625,311.8125 Q237.0625,313.9063 237.75,314.9766 Q238.4375,316.0469 239.7813,316.0469 Q240.4063,316.0469 241,315.7734 Q241.5938,315.5 242.2188,314.9219 L242.2188,317.6406 Z "/><text fill="#000000" font-family="sans-serif" font-size="12" lengthAdjust="spacingAndGlyphs" textLength="105" x="259.75" y="316.1543">MStreamListener</text><line style="stroke: #A80036; stroke-width: 1.5;" x1="76" x2="516" y1="328" y2="328"/><line style="stroke: #A80036; stroke-width: 1.5;" x1="76" x2="516" y1="336" y2="336"/><ellipse cx="86" cy="347.9023" fill="#84BE84" rx="3" ry="3" style="stroke: #038048; stroke-width: 1.0;"/><text fill="#000000" font-family="sans-serif" font-size="11" lengthAdjust="spacingAndGlyphs" textLength="416" x="95" y="350.2104">receiveMDataSet(channelId: String, timeStamp: long, value: double): void</text><ellipse cx="86" cy="360.707" fill="#84BE84" rx="3" ry="3" style="stroke: #038048; stroke-width: 1.0;"/><text fill="#000000" font-family="sans-serif" font-size="11" lengthAdjust="spacingAndGlyphs" textLength="165" x="95" y="363.0151">connectionTerminated(): void</text><!--class Cache.MRunTiming--><rect fill="#FEFECE" filter="url(#f4now2a0eakqk)" height="158.4375" id="Cache.MRunTiming" style="stroke: #A80036; stroke-width: 1.5;" width="387" x="931.5" y="59"/><ellipse cx="1083.75" cy="75" fill="#ADD1B2" rx="11" ry="11" style="stroke: #A80036; stroke-width: 1.0;"/><path d="M1086.7188,80.6406 Q1086.1406,80.9375 1085.5,81.0859 Q1084.8594,81.2344 1084.1563,81.2344 Q1081.6563,81.2344 1080.3359,79.5859 Q1079.0156,77.9375 1079.0156,74.8125 Q1079.0156,71.6875 1080.3359,70.0313 Q1081.6563,68.375 1084.1563,68.375 Q1084.8594,68.375 1085.5078,68.5313 Q1086.1563,68.6875 1086.7188,68.9844 L1086.7188,71.7031 Q1086.0938,71.125 1085.5,70.8516 Q1084.9063,70.5781 1084.2813,70.5781 Q1082.9375,70.5781 1082.25,71.6484 Q1081.5625,72.7188 1081.5625,74.8125 Q1081.5625,76.9063 1082.25,77.9766 Q1082.9375,79.0469 1084.2813,79.0469 Q1084.9063,79.0469 1085.5,78.7734 Q1086.0938,78.5 1086.7188,77.9219 L1086.7188,80.6406 Z "/><text fill="#000000" font-family="sans-serif" font-size="12" lengthAdjust="spacingAndGlyphs" textLength="74" x="1104.25" y="79.1543">MRunTiming</text><line style="stroke: #A80036; stroke-width: 1.5;" x1="932.5" x2="1317.5" y1="91" y2="91"/><ellipse cx="942.5" cy="102.9023" fill="#84BE84" rx="3" ry="3" style="stroke: #038048; stroke-width: 1.0;"/><text fill="#000000" font-family="sans-serif" font-size="11" lengthAdjust="spacingAndGlyphs" textLength="361" x="951.5" y="105.2104">MRunTiming(initData: MRunInfo, listenerAtModel: MRunListener )</text><rect fill="#F24D5C" height="6" style="stroke: #C82930; stroke-width: 1.0;" width="6" x="939.5" y="112.707"/><text fill="#000000" font-family="sans-serif" font-size="11" lengthAdjust="spacingAndGlyphs" textLength="295" x="951.5" y="118.0151">addBufferForOneSensorInChannel(SensorId: String)</text><rect fill="#F24D5C" height="6" style="stroke: #C82930; stroke-width: 1.0;" width="6" x="939.5" y="125.5117"/><text fill="#000000" font-family="sans-serif" font-size="11" lengthAdjust="spacingAndGlyphs" textLength="257" x="951.5" y="130.8198">addAction(action: CheckAndNotifyAction): void</text><line style="stroke: #A80036; stroke-width: 1.0; stroke-dasharray: 1.0,2.0;" x1="932.5" x2="1317.5" y1="137.4141" y2="137.4141"/><ellipse cx="942.5" cy="149.3164" fill="#84BE84" rx="3" ry="3" style="stroke: #038048; stroke-width: 1.0;"/><text fill="#000000" font-family="sans-serif" font-size="11" lengthAdjust="spacingAndGlyphs" textLength="58" x="951.5" y="151.6245">run(): void</text><rect fill="#F24D5C" height="6" style="stroke: #C82930; stroke-width: 1.0;" width="6" x="939.5" y="159.1211"/><text fill="#000000" font-family="sans-serif" font-size="11" lengthAdjust="spacingAndGlyphs" textLength="128" x="951.5" y="164.4292">setCurrentTime(): void</text><rect fill="#F24D5C" height="6" style="stroke: #C82930; stroke-width: 1.0;" width="6" x="939.5" y="171.9258"/><text fill="#000000" font-family="sans-serif" font-size="11" lengthAdjust="spacingAndGlyphs" textLength="112" x="951.5" y="177.2339">checkActions(): void</text><line style="stroke: #A80036; stroke-width: 1.0; stroke-dasharray: 1.0,2.0;" x1="932.5" x2="1317.5" y1="183.8281" y2="183.8281"/><ellipse cx="942.5" cy="195.7305" fill="#84BE84" rx="3" ry="3" style="stroke: #038048; stroke-width: 1.0;"/><text fill="#000000" font-family="sans-serif" font-size="11" lengthAdjust="spacingAndGlyphs" textLength="152" x="951.5" y="198.0386">startRepeatedTimer(): void</text><ellipse cx="942.5" cy="208.5352" fill="#84BE84" rx="3" ry="3" style="stroke: #038048; stroke-width: 1.0;"/><text fill="#000000" font-family="sans-serif" font-size="11" lengthAdjust="spacingAndGlyphs" textLength="150" x="951.5" y="210.8433">stopRepeatedTimer(): void</text><!--class Cache.Timer--><rect fill="#FEFECE" filter="url(#f4now2a0eakqk)" height="86.4141" id="Cache.Timer" style="stroke: #A80036; stroke-width: 1.5;" width="286" x="1428" y="95"/><ellipse cx="1549.75" cy="111" fill="#ADD1B2" rx="11" ry="11" style="stroke: #A80036; stroke-width: 1.0;"/><path d="M1552.7188,116.6406 Q1552.1406,116.9375 1551.5,117.0859 Q1550.8594,117.2344 1550.1563,117.2344 Q1547.6563,117.2344 1546.3359,115.5859 Q1545.0156,113.9375 1545.0156,110.8125 Q1545.0156,107.6875 1546.3359,106.0313 Q1547.6563,104.375 1550.1563,104.375 Q1550.8594,104.375 1551.5078,104.5313 Q1552.1563,104.6875 1552.7188,104.9844 L1552.7188,107.7031 Q1552.0938,107.125 1551.5,106.8516 Q1550.9063,106.5781 1550.2813,106.5781 Q1548.9375,106.5781 1548.25,107.6484 Q1547.5625,108.7188 1547.5625,110.8125 Q1547.5625,112.9063 1548.25,113.9766 Q1548.9375,115.0469 1550.2813,115.0469 Q1550.9063,115.0469 1551.5,114.7734 Q1552.0938,114.5 1552.7188,113.9219 L1552.7188,116.6406 Z "/><text fill="#000000" font-family="sans-serif" font-size="12" lengthAdjust="spacingAndGlyphs" textLength="34" x="1570.25" y="115.1543">Timer</text><line style="stroke: #A80036; stroke-width: 1.5;" x1="1429" x2="1713" y1="127" y2="127"/><rect fill="none" height="6" style="stroke: #C82930; stroke-width: 1.0;" width="6" x="1436" y="135.9023"/><text fill="#000000" font-family="sans-serif" font-size="11" lengthAdjust="spacingAndGlyphs" textLength="68" x="1448" y="141.2104">period: long</text><line style="stroke: #A80036; stroke-width: 1.5;" x1="1429" x2="1713" y1="147.8047" y2="147.8047"/><ellipse cx="1439" cy="159.707" fill="#84BE84" rx="3" ry="3" style="stroke: #038048; stroke-width: 1.0;"/><text fill="#000000" font-family="sans-serif" font-size="11" lengthAdjust="spacingAndGlyphs" textLength="260" x="1448" y="162.0151">schedule(timerTask: TimerTask, period: long)</text><ellipse cx="1439" cy="172.5117" fill="#84BE84" rx="3" ry="3" style="stroke: #038048; stroke-width: 1.0;"/><text fill="#000000" font-family="sans-serif" font-size="11" lengthAdjust="spacingAndGlyphs" textLength="97" x="1448" y="174.8198">cancel(): boolean</text><!--class Cache.Cache--><rect fill="#FEFECE" filter="url(#f4now2a0eakqk)" height="99.2188" id="Cache.Cache" style="stroke: #A80036; stroke-width: 1.5;" width="442" x="38" y="595"/><ellipse cx="235.25" cy="611" fill="#ADD1B2" rx="11" ry="11" style="stroke: #A80036; stroke-width: 1.0;"/><path d="M238.2188,616.6406 Q237.6406,616.9375 237,617.0859 Q236.3594,617.2344 235.6563,617.2344 Q233.1563,617.2344 231.8359,615.5859 Q230.5156,613.9375 230.5156,610.8125 Q230.5156,607.6875 231.8359,606.0313 Q233.1563,604.375 235.6563,604.375 Q236.3594,604.375 237.0078,604.5313 Q237.6563,604.6875 238.2188,604.9844 L238.2188,607.7031 Q237.5938,607.125 237,606.8516 Q236.4063,606.5781 235.7813,606.5781 Q234.4375,606.5781 233.75,607.6484 Q233.0625,608.7188 233.0625,610.8125 Q233.0625,612.9063 233.75,613.9766 Q234.4375,615.0469 235.7813,615.0469 Q236.4063,615.0469 237,614.7734 Q237.5938,614.5 238.2188,613.9219 L238.2188,616.6406 Z "/><text fill="#000000" font-family="sans-serif" font-size="12" lengthAdjust="spacingAndGlyphs" textLength="39" x="255.75" y="615.1543">Cache</text><line style="stroke: #A80036; stroke-width: 1.5;" x1="39" x2="479" y1="627" y2="627"/><line style="stroke: #A80036; stroke-width: 1.5;" x1="39" x2="479" y1="635" y2="635"/><ellipse cx="49" cy="646.9023" fill="#84BE84" rx="3" ry="3" style="stroke: #038048; stroke-width: 1.0;"/><text fill="#000000" font-family="sans-serif" font-size="11" lengthAdjust="spacingAndGlyphs" textLength="295" x="58" y="649.2104">addBufferForOneSensorInChannel(SensorId: String)</text><ellipse cx="49" cy="659.707" fill="#84BE84" rx="3" ry="3" style="stroke: #038048; stroke-width: 1.0;"/><text fill="#000000" font-family="sans-serif" font-size="11" lengthAdjust="spacingAndGlyphs" textLength="416" x="58" y="662.0151">receiveMDataSet(channelId: String, timeStamp: long, value: double): void</text><ellipse cx="49" cy="672.5117" fill="#84BE84" rx="3" ry="3" style="stroke: #038048; stroke-width: 1.0;"/><text fill="#000000" font-family="sans-serif" font-size="11" lengthAdjust="spacingAndGlyphs" textLength="351" x="58" y="674.8198">isCompletePackageSetAvailable(from: long, to: long): boolean</text><ellipse cx="49" cy="685.3164" fill="#84BE84" rx="3" ry="3" style="stroke: #038048; stroke-width: 1.0;"/><text fill="#000000" font-family="sans-serif" font-size="11" lengthAdjust="spacingAndGlyphs" textLength="341" x="58" y="687.6245">pollCompletePackageSet(from: long, to: long):  IdValuePair[]</text><!--class Cache.BufferForOneSensorInChannel--><rect fill="#FEFECE" filter="url(#f4now2a0eakqk)" height="112.0234" id="Cache.BufferForOneSensorInChannel" style="stroke: #A80036; stroke-width: 1.5;" width="366" x="76" y="754"/><ellipse cx="160.75" cy="770" fill="#ADD1B2" rx="11" ry="11" style="stroke: #A80036; stroke-width: 1.0;"/><path d="M163.7188,775.6406 Q163.1406,775.9375 162.5,776.0859 Q161.8594,776.2344 161.1563,776.2344 Q158.6563,776.2344 157.3359,774.5859 Q156.0156,772.9375 156.0156,769.8125 Q156.0156,766.6875 157.3359,765.0313 Q158.6563,763.375 161.1563,763.375 Q161.8594,763.375 162.5078,763.5313 Q163.1563,763.6875 163.7188,763.9844 L163.7188,766.7031 Q163.0938,766.125 162.5,765.8516 Q161.9063,765.5781 161.2813,765.5781 Q159.9375,765.5781 159.25,766.6484 Q158.5625,767.7188 158.5625,769.8125 Q158.5625,771.9063 159.25,772.9766 Q159.9375,774.0469 161.2813,774.0469 Q161.9063,774.0469 162.5,773.7734 Q163.0938,773.5 163.7188,772.9219 L163.7188,775.6406 Z "/><text fill="#000000" font-family="sans-serif" font-size="12" lengthAdjust="spacingAndGlyphs" textLength="188" x="181.25" y="774.1543">BufferForOneSensorInChannel</text><line style="stroke: #A80036; stroke-width: 1.5;" x1="77" x2="441" y1="786" y2="786"/><rect fill="none" height="6" style="stroke: #C82930; stroke-width: 1.0;" width="6" x="84" y="794.9023"/><text fill="#000000" font-family="sans-serif" font-size="11" lengthAdjust="spacingAndGlyphs" textLength="148" x="96" y="800.2104">sensorInChannelId: String</text><rect fill="none" height="6" style="stroke: #C82930; stroke-width: 1.0;" width="6" x="84" y="807.707"/><text fill="#000000" font-family="sans-serif" font-size="11" lengthAdjust="spacingAndGlyphs" textLength="214" x="96" y="813.0151">buffer: Queue&lt;TimestampValuePair&gt;</text><line style="stroke: #A80036; stroke-width: 1.5;" x1="77" x2="441" y1="819.6094" y2="819.6094"/><ellipse cx="87" cy="831.5117" fill="#84BE84" rx="3" ry="3" style="stroke: #038048; stroke-width: 1.0;"/><text fill="#000000" font-family="sans-serif" font-size="11" lengthAdjust="spacingAndGlyphs" textLength="134" x="96" y="833.8198">getInChannelId(): String</text><ellipse cx="87" cy="844.3164" fill="#84BE84" rx="3" ry="3" style="stroke: #038048; stroke-width: 1.0;"/><text fill="#000000" font-family="sans-serif" font-size="11" lengthAdjust="spacingAndGlyphs" textLength="244" x="96" y="846.6245">addPacket(timeStamp: long, value: double)</text><ellipse cx="87" cy="857.1211" fill="#84BE84" rx="3" ry="3" style="stroke: #038048; stroke-width: 1.0;"/><text fill="#000000" font-family="sans-serif" font-size="11" lengthAdjust="spacingAndGlyphs" textLength="340" x="96" y="859.4292">getAllPacketsDuringTimespan(from: long, to: long): double[]</text><!--class Cache.TimestampValuePair--><rect fill="#FEFECE" filter="url(#f4now2a0eakqk)" height="112.0234" id="Cache.TimestampValuePair" style="stroke: #A80036; stroke-width: 1.5;" width="329" x="477.5" y="754"/><ellipse cx="574.25" cy="770" fill="#ADD1B2" rx="11" ry="11" style="stroke: #A80036; stroke-width: 1.0;"/><path d="M577.2188,775.6406 Q576.6406,775.9375 576,776.0859 Q575.3594,776.2344 574.6563,776.2344 Q572.1563,776.2344 570.8359,774.5859 Q569.5156,772.9375 569.5156,769.8125 Q569.5156,766.6875 570.8359,765.0313 Q572.1563,763.375 574.6563,763.375 Q575.3594,763.375 576.0078,763.5313 Q576.6563,763.6875 577.2188,763.9844 L577.2188,766.7031 Q576.5938,766.125 576,765.8516 Q575.4063,765.5781 574.7813,765.5781 Q573.4375,765.5781 572.75,766.6484 Q572.0625,767.7188 572.0625,769.8125 Q572.0625,771.9063 572.75,772.9766 Q573.4375,774.0469 574.7813,774.0469 Q575.4063,774.0469 576,773.7734 Q576.5938,773.5 577.2188,772.9219 L577.2188,775.6406 Z "/><text fill="#000000" font-family="sans-serif" font-size="12" lengthAdjust="spacingAndGlyphs" textLength="127" x="594.75" y="774.1543">TimestampValuePair</text><line style="stroke: #A80036; stroke-width: 1.5;" x1="478.5" x2="805.5" y1="786" y2="786"/><rect fill="none" height="6" style="stroke: #C82930; stroke-width: 1.0;" width="6" x="485.5" y="794.9023"/><text fill="#000000" font-family="sans-serif" font-size="11" lengthAdjust="spacingAndGlyphs" textLength="76" x="497.5" y="800.2104">value: double</text><rect fill="none" height="6" style="stroke: #C82930; stroke-width: 1.0;" width="6" x="485.5" y="807.707"/><text fill="#000000" font-family="sans-serif" font-size="11" lengthAdjust="spacingAndGlyphs" textLength="94" x="497.5" y="813.0151">timeStamp: long</text><line style="stroke: #A80036; stroke-width: 1.5;" x1="478.5" x2="805.5" y1="819.6094" y2="819.6094"/><ellipse cx="488.5" cy="831.5117" fill="#84BE84" rx="3" ry="3" style="stroke: #038048; stroke-width: 1.0;"/><text fill="#000000" font-family="sans-serif" font-size="11" lengthAdjust="spacingAndGlyphs" textLength="303" x="497.5" y="833.8198">TimestampValuePair(value: double, timeStamp: long)</text><ellipse cx="488.5" cy="844.3164" fill="#84BE84" rx="3" ry="3" style="stroke: #038048; stroke-width: 1.0;"/><text fill="#000000" font-family="sans-serif" font-size="11" lengthAdjust="spacingAndGlyphs" textLength="103" x="497.5" y="846.6245">getValue(): double</text><ellipse cx="488.5" cy="857.1211" fill="#84BE84" rx="3" ry="3" style="stroke: #038048; stroke-width: 1.0;"/><text fill="#000000" font-family="sans-serif" font-size="11" lengthAdjust="spacingAndGlyphs" textLength="126" x="497.5" y="859.4292">getTimeSpamp(): long</text><!--class Cache.ConnectionTerminatedAction--><rect fill="#FEFECE" filter="url(#f4now2a0eakqk)" height="86.4141" id="Cache.ConnectionTerminatedAction" style="stroke: #A80036; stroke-width: 1.5;" width="281" x="195.5" y="449"/><ellipse cx="241.25" cy="465" fill="#ADD1B2" rx="11" ry="11" style="stroke: #A80036; stroke-width: 1.0;"/><path d="M244.2188,470.6406 Q243.6406,470.9375 243,471.0859 Q242.3594,471.2344 241.6563,471.2344 Q239.1563,471.2344 237.8359,469.5859 Q236.5156,467.9375 236.5156,464.8125 Q236.5156,461.6875 237.8359,460.0313 Q239.1563,458.375 241.6563,458.375 Q242.3594,458.375 243.0078,458.5313 Q243.6563,458.6875 244.2188,458.9844 L244.2188,461.7031 Q243.5938,461.125 243,460.8516 Q242.4063,460.5781 241.7813,460.5781 Q240.4375,460.5781 239.75,461.6484 Q239.0625,462.7188 239.0625,464.8125 Q239.0625,466.9063 239.75,467.9766 Q240.4375,469.0469 241.7813,469.0469 Q242.4063,469.0469 243,468.7734 Q243.5938,468.5 244.2188,467.9219 L244.2188,470.6406 Z "/><text fill="#000000" font-family="sans-serif" font-size="12" lengthAdjust="spacingAndGlyphs" textLength="181" x="261.75" y="469.1543">ConnectionTerminatedAction</text><line style="stroke: #A80036; stroke-width: 1.5;" x1="196.5" x2="475.5" y1="481" y2="481"/><text fill="#000000" font-family="sans-serif" font-size="11" lengthAdjust="spacingAndGlyphs" textLength="4" x="201.5" y="495.2104">-</text><line style="stroke: #A80036; stroke-width: 1.5;" x1="196.5" x2="475.5" y1="501.8047" y2="501.8047"/><ellipse cx="206.5" cy="513.707" fill="#84BE84" rx="3" ry="3" style="stroke: #038048; stroke-width: 1.0;"/><text fill="#000000" font-family="sans-serif" font-size="11" lengthAdjust="spacingAndGlyphs" textLength="165" x="215.5" y="516.0151">connectionTerminated(): void</text><ellipse cx="206.5" cy="526.5117" fill="#84BE84" rx="3" ry="3" style="stroke: #038048; stroke-width: 1.0;"/><text fill="#000000" font-family="sans-serif" font-size="11" lengthAdjust="spacingAndGlyphs" textLength="255" x="215.5" y="528.8198">checkAndNotify(mRunForward: MRunForward)</text><!--class Cache.TimeoutAction--><rect fill="#FEFECE" filter="url(#f4now2a0eakqk)" height="73.6094" id="Cache.TimeoutAction" style="stroke: #A80036; stroke-width: 1.5;" width="281" x="511.5" y="455"/><ellipse cx="603.25" cy="471" fill="#ADD1B2" rx="11" ry="11" style="stroke: #A80036; stroke-width: 1.0;"/><path d="M606.2188,476.6406 Q605.6406,476.9375 605,477.0859 Q604.3594,477.2344 603.6563,477.2344 Q601.1563,477.2344 599.8359,475.5859 Q598.5156,473.9375 598.5156,470.8125 Q598.5156,467.6875 599.8359,466.0313 Q601.1563,464.375 603.6563,464.375 Q604.3594,464.375 605.0078,464.5313 Q605.6563,464.6875 606.2188,464.9844 L606.2188,467.7031 Q605.5938,467.125 605,466.8516 Q604.4063,466.5781 603.7813,466.5781 Q602.4375,466.5781 601.75,467.6484 Q601.0625,468.7188 601.0625,470.8125 Q601.0625,472.9063 601.75,473.9766 Q602.4375,475.0469 603.7813,475.0469 Q604.4063,475.0469 605,474.7734 Q605.5938,474.5 606.2188,473.9219 L606.2188,476.6406 Z "/><text fill="#000000" font-family="sans-serif" font-size="12" lengthAdjust="spacingAndGlyphs" textLength="89" x="623.75" y="475.1543">TimeoutAction</text><line style="stroke: #A80036; stroke-width: 1.5;" x1="512.5" x2="791.5" y1="487" y2="487"/><rect fill="none" height="6" style="stroke: #C82930; stroke-width: 1.0;" width="6" x="519.5" y="495.9023"/><text fill="#000000" font-family="sans-serif" font-size="11" lengthAdjust="spacingAndGlyphs" textLength="215" x="531.5" y="501.2104">lastCompleteDatasetTimestamp: long</text><line style="stroke: #A80036; stroke-width: 1.5;" x1="512.5" x2="791.5" y1="507.8047" y2="507.8047"/><ellipse cx="522.5" cy="519.707" fill="#84BE84" rx="3" ry="3" style="stroke: #038048; stroke-width: 1.0;"/><text fill="#000000" font-family="sans-serif" font-size="11" lengthAdjust="spacingAndGlyphs" textLength="255" x="531.5" y="522.0151">checkAndNotify(mRunForward: MRunForward)</text><!--class Cache.ErrorCodeAction--><rect fill="#FEFECE" filter="url(#f4now2a0eakqk)" height="60.8047" id="Cache.ErrorCodeAction" style="stroke: #A80036; stroke-width: 1.5;" width="281" x="827.5" y="461.5"/><ellipse cx="912.75" cy="477.5" fill="#ADD1B2" rx="11" ry="11" style="stroke: #A80036; stroke-width: 1.0;"/><path d="M915.7188,483.1406 Q915.1406,483.4375 914.5,483.5859 Q913.8594,483.7344 913.1563,483.7344 Q910.6563,483.7344 909.3359,482.0859 Q908.0156,480.4375 908.0156,477.3125 Q908.0156,474.1875 909.3359,472.5313 Q910.6563,470.875 913.1563,470.875 Q913.8594,470.875 914.5078,471.0313 Q915.1563,471.1875 915.7188,471.4844 L915.7188,474.2031 Q915.0938,473.625 914.5,473.3516 Q913.9063,473.0781 913.2813,473.0781 Q911.9375,473.0781 911.25,474.1484 Q910.5625,475.2188 910.5625,477.3125 Q910.5625,479.4063 911.25,480.4766 Q911.9375,481.5469 913.2813,481.5469 Q913.9063,481.5469 914.5,481.2734 Q915.0938,481 915.7188,480.4219 L915.7188,483.1406 Z "/><text fill="#000000" font-family="sans-serif" font-size="12" lengthAdjust="spacingAndGlyphs" textLength="102" x="933.25" y="481.6543">ErrorCodeAction</text><line style="stroke: #A80036; stroke-width: 1.5;" x1="828.5" x2="1107.5" y1="493.5" y2="493.5"/><line style="stroke: #A80036; stroke-width: 1.5;" x1="828.5" x2="1107.5" y1="501.5" y2="501.5"/><ellipse cx="838.5" cy="513.4023" fill="#84BE84" rx="3" ry="3" style="stroke: #038048; stroke-width: 1.0;"/><text fill="#000000" font-family="sans-serif" font-size="11" lengthAdjust="spacingAndGlyphs" textLength="255" x="847.5" y="515.7104">checkAndNotify(mRunForward: MRunForward)</text><!--class Cache.DataSetCompleteAction--><rect fill="#FEFECE" filter="url(#f4now2a0eakqk)" height="60.8047" id="Cache.DataSetCompleteAction" style="stroke: #A80036; stroke-width: 1.5;" width="281" x="1143.5" y="461.5"/><ellipse cx="1205.25" cy="477.5" fill="#ADD1B2" rx="11" ry="11" style="stroke: #A80036; stroke-width: 1.0;"/><path d="M1208.2188,483.1406 Q1207.6406,483.4375 1207,483.5859 Q1206.3594,483.7344 1205.6563,483.7344 Q1203.1563,483.7344 1201.8359,482.0859 Q1200.5156,480.4375 1200.5156,477.3125 Q1200.5156,474.1875 1201.8359,472.5313 Q1203.1563,470.875 1205.6563,470.875 Q1206.3594,470.875 1207.0078,471.0313 Q1207.6563,471.1875 1208.2188,471.4844 L1208.2188,474.2031 Q1207.5938,473.625 1207,473.3516 Q1206.4063,473.0781 1205.7813,473.0781 Q1204.4375,473.0781 1203.75,474.1484 Q1203.0625,475.2188 1203.0625,477.3125 Q1203.0625,479.4063 1203.75,480.4766 Q1204.4375,481.5469 1205.7813,481.5469 Q1206.4063,481.5469 1207,481.2734 Q1207.5938,481 1208.2188,480.4219 L1208.2188,483.1406 Z "/><text fill="#000000" font-family="sans-serif" font-size="12" lengthAdjust="spacingAndGlyphs" textLength="149" x="1225.75" y="481.6543">DataSetCompleteAction</text><line style="stroke: #A80036; stroke-width: 1.5;" x1="1144.5" x2="1423.5" y1="493.5" y2="493.5"/><line style="stroke: #A80036; stroke-width: 1.5;" x1="1144.5" x2="1423.5" y1="501.5" y2="501.5"/><ellipse cx="1154.5" cy="513.4023" fill="#84BE84" rx="3" ry="3" style="stroke: #038048; stroke-width: 1.0;"/><text fill="#000000" font-family="sans-serif" font-size="11" lengthAdjust="spacingAndGlyphs" textLength="255" x="1163.5" y="515.7104">checkAndNotify(mRunForward: MRunForward)</text><!--class Cache.CheckAndNotifyAction--><rect fill="#FEFECE" filter="url(#f4now2a0eakqk)" height="60.8047" id="Cache.CheckAndNotifyAction" style="stroke: #A80036; stroke-width: 1.5;" width="281" x="552.5" y="302.5"/><ellipse cx="620.25" cy="318.5" fill="#B4A7E5" rx="11" ry="11" style="stroke: #A80036; stroke-width: 1.0;"/><path d="M616.1719,314.2656 L616.1719,312.1094 L623.5625,312.1094 L623.5625,314.2656 L621.0938,314.2656 L621.0938,322.3438 L623.5625,322.3438 L623.5625,324.5 L616.1719,324.5 L616.1719,322.3438 L618.6406,322.3438 L618.6406,314.2656 L616.1719,314.2656 Z "/><text fill="#000000" font-family="sans-serif" font-size="12" font-style="italic" lengthAdjust="spacingAndGlyphs" textLength="137" x="640.75" y="322.6543">CheckAndNotifyAction</text><line style="stroke: #A80036; stroke-width: 1.5;" x1="553.5" x2="832.5" y1="334.5" y2="334.5"/><line style="stroke: #A80036; stroke-width: 1.5;" x1="553.5" x2="832.5" y1="342.5" y2="342.5"/><ellipse cx="563.5" cy="354.4023" fill="#84BE84" rx="3" ry="3" style="stroke: #038048; stroke-width: 1.0;"/><text fill="#000000" font-family="sans-serif" font-size="11" lengthAdjust="spacingAndGlyphs" textLength="255" x="572.5" y="356.7104">checkAndNotify(mRunForward: MRunForward)</text><!--class Cache.TimerTask--><rect fill="#FEFECE" filter="url(#f4now2a0eakqk)" height="60.8047" id="Cache.TimerTask" style="stroke: #A80036; stroke-width: 1.5;" width="94" x="1657" y="302.5"/><ellipse cx="1672" cy="318.5" fill="#B4A7E5" rx="11" ry="11" style="stroke: #A80036; stroke-width: 1.0;"/><path d="M1667.9219,314.2656 L1667.9219,312.1094 L1675.3125,312.1094 L1675.3125,314.2656 L1672.8438,314.2656 L1672.8438,322.3438 L1675.3125,322.3438 L1675.3125,324.5 L1667.9219,324.5 L1667.9219,322.3438 L1670.3906,322.3438 L1670.3906,314.2656 L1667.9219,314.2656 Z "/><text fill="#000000" font-family="sans-serif" font-size="12" font-style="italic" lengthAdjust="spacingAndGlyphs" textLength="62" x="1686" y="322.6543">TimerTask</text><line style="stroke: #A80036; stroke-width: 1.5;" x1="1658" x2="1750" y1="334.5" y2="334.5"/><line style="stroke: #A80036; stroke-width: 1.5;" x1="1658" x2="1750" y1="342.5" y2="342.5"/><ellipse cx="1668" cy="354.4023" fill="#84BE84" rx="3" ry="3" style="stroke: #038048; stroke-width: 1.0;"/><text fill="#000000" font-family="sans-serif" font-size="11" lengthAdjust="spacingAndGlyphs" textLength="58" x="1677" y="356.7104">run(): void</text><!--class Cache.IMRunListener--><rect fill="#FEFECE" filter="url(#f4now2a0eakqk)" height="112.0234" id="Cache.IMRunListener" style="stroke: #A80036; stroke-width: 1.5;" width="439" x="868.5" y="277"/><ellipse cx="1039.75" cy="293" fill="#B4A7E5" rx="11" ry="11" style="stroke: #A80036; stroke-width: 1.0;"/><path d="M1035.6719,288.7656 L1035.6719,286.6094 L1043.0625,286.6094 L1043.0625,288.7656 L1040.5938,288.7656 L1040.5938,296.8438 L1043.0625,296.8438 L1043.0625,299 L1035.6719,299 L1035.6719,296.8438 L1038.1406,296.8438 L1038.1406,288.7656 L1035.6719,288.7656 Z "/><text fill="#000000" font-family="sans-serif" font-size="12" font-style="italic" lengthAdjust="spacingAndGlyphs" textLength="88" x="1060.25" y="297.1543">IMRunListener</text><line style="stroke: #A80036; stroke-width: 1.5;" x1="869.5" x2="1306.5" y1="309" y2="309"/><line style="stroke: #A80036; stroke-width: 1.5;" x1="869.5" x2="1306.5" y1="317" y2="317"/><ellipse cx="879.5" cy="328.9023" fill="#84BE84" rx="3" ry="3" style="stroke: #038048; stroke-width: 1.0;"/><text fill="#000000" font-family="sans-serif" font-size="11" lengthAdjust="spacingAndGlyphs" textLength="104" x="888.5" y="331.2104">justWaiting():  void</text><ellipse cx="879.5" cy="341.707" fill="#84BE84" rx="3" ry="3" style="stroke: #038048; stroke-width: 1.0;"/><text fill="#000000" font-family="sans-serif" font-size="11" lengthAdjust="spacingAndGlyphs" textLength="301" x="888.5" y="344.0151">indicateError(inChannelId: String, errorCode: double)</text><ellipse cx="879.5" cy="354.5117" fill="#84BE84" rx="3" ry="3" style="stroke: #038048; stroke-width: 1.0;"/><text fill="#000000" font-family="sans-serif" font-size="11" lengthAdjust="spacingAndGlyphs" textLength="129" x="888.5" y="356.8198">indicateTimeout(): void</text><ellipse cx="879.5" cy="367.3164" fill="#84BE84" rx="3" ry="3" style="stroke: #038048; stroke-width: 1.0;"/><text fill="#000000" font-family="sans-serif" font-size="11" lengthAdjust="spacingAndGlyphs" textLength="211" x="888.5" y="369.6245">indicateConnectionTerminated(): void</text><ellipse cx="879.5" cy="380.1211" fill="#84BE84" rx="3" ry="3" style="stroke: #038048; stroke-width: 1.0;"/><text fill="#000000" font-family="sans-serif" font-size="11" lengthAdjust="spacingAndGlyphs" textLength="413" x="888.5" y="382.4292">dispatchCompletePacketSet(completePacketSet: EnhancedValuePacket[])</text><!--class Cache.IMRunInfo--><rect fill="#FEFECE" filter="url(#f4now2a0eakqk)" height="86.4141" id="Cache.IMRunInfo" style="stroke: #A80036; stroke-width: 1.5;" width="279" x="1342.5" y="290"/><ellipse cx="1446.75" cy="306" fill="#B4A7E5" rx="11" ry="11" style="stroke: #A80036; stroke-width: 1.0;"/><path d="M1442.6719,301.7656 L1442.6719,299.6094 L1450.0625,299.6094 L1450.0625,301.7656 L1447.5938,301.7656 L1447.5938,309.8438 L1450.0625,309.8438 L1450.0625,312 L1442.6719,312 L1442.6719,309.8438 L1445.1406,309.8438 L1445.1406,301.7656 L1442.6719,301.7656 Z "/><text fill="#000000" font-family="sans-serif" font-size="12" font-style="italic" lengthAdjust="spacingAndGlyphs" textLength="62" x="1467.25" y="310.1543">IMRunInfo</text><line style="stroke: #A80036; stroke-width: 1.5;" x1="1343.5" x2="1620.5" y1="322" y2="322"/><line style="stroke: #A80036; stroke-width: 1.5;" x1="1343.5" x2="1620.5" y1="330" y2="330"/><ellipse cx="1353.5" cy="341.9023" fill="#84BE84" rx="3" ry="3" style="stroke: #038048; stroke-width: 1.0;"/><text fill="#000000" font-family="sans-serif" font-size="11" lengthAdjust="spacingAndGlyphs" textLength="162" x="1362.5" y="344.2104">getAllInChannelIds(): String[]</text><ellipse cx="1353.5" cy="354.707" fill="#84BE84" rx="3" ry="3" style="stroke: #038048; stroke-width: 1.0;"/><text fill="#000000" font-family="sans-serif" font-size="11" lengthAdjust="spacingAndGlyphs" textLength="253" x="1362.5" y="357.0151">getErrorCodes(inChannelId: String): double[]</text><ellipse cx="1353.5" cy="367.5117" fill="#84BE84" rx="3" ry="3" style="stroke: #038048; stroke-width: 1.0;"/><text fill="#000000" font-family="sans-serif" font-size="11" lengthAdjust="spacingAndGlyphs" textLength="141" x="1362.5" y="369.8198">getTimeoutOption(): long</text><!--class Model.MRunReaction--><rect fill="#FEFECE" filter="url(#f4now2a0eakqk)" height="48" id="Model.MRunReaction" style="stroke: #A80036; stroke-width: 1.5;" width="121" x="1807.5" y="468"/><ellipse cx="1822.5" cy="484" fill="#ADD1B2" rx="11" ry="11" style="stroke: #A80036; stroke-width: 1.0;"/><path d="M1825.4688,489.6406 Q1824.8906,489.9375 1824.25,490.0859 Q1823.6094,490.2344 1822.9063,490.2344 Q1820.4063,490.2344 1819.0859,488.5859 Q1817.7656,486.9375 1817.7656,483.8125 Q1817.7656,480.6875 1819.0859,479.0313 Q1820.4063,477.375 1822.9063,477.375 Q1823.6094,477.375 1824.2578,477.5313 Q1824.9063,477.6875 1825.4688,477.9844 L1825.4688,480.7031 Q1824.8438,480.125 1824.25,479.8516 Q1823.6563,479.5781 1823.0313,479.5781 Q1821.6875,479.5781 1821,480.6484 Q1820.3125,481.7188 1820.3125,483.8125 Q1820.3125,485.9063 1821,486.9766 Q1821.6875,488.0469 1823.0313,488.0469 Q1823.6563,488.0469 1824.25,487.7734 Q1824.8438,487.5 1825.4688,486.9219 L1825.4688,489.6406 Z "/><text fill="#000000" font-family="sans-serif" font-size="12" lengthAdjust="spacingAndGlyphs" textLength="89" x="1836.5" y="488.1543">MRunReaction</text><line style="stroke: #A80036; stroke-width: 1.5;" x1="1808.5" x2="1927.5" y1="500" y2="500"/><line style="stroke: #A80036; stroke-width: 1.5;" x1="1808.5" x2="1927.5" y1="508" y2="508"/><!--class Model.MRunInfo--><rect fill="#FEFECE" filter="url(#f4now2a0eakqk)" height="48" id="Model.MRunInfo" style="stroke: #A80036; stroke-width: 1.5;" width="89" x="1963.5" y="468"/><ellipse cx="1978.5" cy="484" fill="#ADD1B2" rx="11" ry="11" style="stroke: #A80036; stroke-width: 1.0;"/><path d="M1981.4688,489.6406 Q1980.8906,489.9375 1980.25,490.0859 Q1979.6094,490.2344 1978.9063,490.2344 Q1976.4063,490.2344 1975.0859,488.5859 Q1973.7656,486.9375 1973.7656,483.8125 Q1973.7656,480.6875 1975.0859,479.0313 Q1976.4063,477.375 1978.9063,477.375 Q1979.6094,477.375 1980.2578,477.5313 Q1980.9063,477.6875 1981.4688,477.9844 L1981.4688,480.7031 Q1980.8438,480.125 1980.25,479.8516 Q1979.6563,479.5781 1979.0313,479.5781 Q1977.6875,479.5781 1977,480.6484 Q1976.3125,481.7188 1976.3125,483.8125 Q1976.3125,485.9063 1977,486.9766 Q1977.6875,488.0469 1979.0313,488.0469 Q1979.6563,488.0469 1980.25,487.7734 Q1980.8438,487.5 1981.4688,486.9219 L1981.4688,489.6406 Z "/><text fill="#000000" font-family="sans-serif" font-size="12" lengthAdjust="spacingAndGlyphs" textLength="57" x="1992.5" y="488.1543">MRunInfo</text><line style="stroke: #A80036; stroke-width: 1.5;" x1="1964.5" x2="2051.5" y1="500" y2="500"/><line style="stroke: #A80036; stroke-width: 1.5;" x1="1964.5" x2="2051.5" y1="508" y2="508"/><!--link Cache.MStreamListener to Cache.ConnectionTerminatedAction--><path d="M305.177,370.019 C310.754,391.909 317.938,420.107 323.967,443.771 " fill="none" id="Cache.MStreamListener-Cache.ConnectionTerminatedAction" style="stroke: #A80036; stroke-width: 1.0;"/><polygon fill="#A80036" points="325.235,448.749,326.8897,439.0401,324.0008,443.9037,319.1373,441.0148,325.235,448.749" style="stroke: #A80036; stroke-width: 1.0;"/><!--link Cache.MStreamListener to Cache.Cache--><path d="M228.177,370.089 C208.291,384.344 188.957,402.712 178,425 C155.45,470.868 161.34,491.68 178,540 C184.254,558.14 195.14,575.531 206.94,590.707 " fill="none" id="Cache.MStreamListener-Cache.Cache" style="stroke: #A80036; stroke-width: 1.0;"/><polygon fill="#A80036" points="210.289,594.927,207.8276,585.3907,207.1809,591.0104,201.5611,590.3637,210.289,594.927" style="stroke: #A80036; stroke-width: 1.0;"/><!--link Cache.CheckAndNotifyAction to Cache.ConnectionTerminatedAction--><path d="M607.456,371.62 C554.55,394.887 486.533,424.799 431.82,448.861 " fill="none" id="Cache.CheckAndNotifyAction-Cache.ConnectionTerminatedAction" style="stroke: #A80036; stroke-width: 1.0; stroke-dasharray: 7.0,7.0;"/><polygon fill="none" points="604.725,365.174,625.851,363.53,610.361,377.99,604.725,365.174" style="stroke: #A80036; stroke-width: 1.0;"/><!--link Cache.CheckAndNotifyAction to Cache.TimeoutAction--><path d="M680.181,383.087 C674.103,406.36 666.973,433.666 661.405,454.987 " fill="none" id="Cache.CheckAndNotifyAction-Cache.TimeoutAction" style="stroke: #A80036; stroke-width: 1.0; stroke-dasharray: 7.0,7.0;"/><polygon fill="none" points="673.462,381.113,685.288,363.53,687.008,384.65,673.462,381.113" style="stroke: #A80036; stroke-width: 1.0;"/><!--link Cache.CheckAndNotifyAction to Cache.ErrorCodeAction--><path d="M762.243,373.531 C810.014,400.804 872.513,436.486 916.04,461.335 " fill="none" id="Cache.CheckAndNotifyAction-Cache.ErrorCodeAction" style="stroke: #A80036; stroke-width: 1.0; stroke-dasharray: 7.0,7.0;"/><polygon fill="none" points="758.624,379.526,744.725,363.53,765.565,367.367,758.624,379.526" style="stroke: #A80036; stroke-width: 1.0;"/><!--link Cache.CheckAndNotifyAction to Cache.DataSetCompleteAction--><path d="M787.089,370.282 C807.901,377.312 830.01,384.028 851,389 C970.946,417.411 1006.97,392.962 1126,425 C1159.3,433.963 1194.86,448.354 1223.8,461.414 " fill="none" id="Cache.CheckAndNotifyAction-Cache.DataSetCompleteAction" style="stroke: #A80036; stroke-width: 1.0; stroke-dasharray: 7.0,7.0;"/><polygon fill="none" points="784.596,376.827,768.012,363.637,789.202,363.606,784.596,376.827" style="stroke: #A80036; stroke-width: 1.0;"/><!--link Cache.MRunTiming to Cache.Timer--><path d="M1318.82,138 C1353.4,138 1387.98,138 1422.57,138 " fill="none" id="Cache.MRunTiming-Cache.Timer" style="stroke: #A80036; stroke-width: 1.0;"/><polygon fill="#A80036" points="1427.67,138,1418.67,134,1422.67,138,1418.67,142,1427.67,138" style="stroke: #A80036; stroke-width: 1.0;"/><!--link Cache.MRunTiming to Cache.TimerTask--><path d="M1318.86,192.36 C1349.34,200.664 1380.52,209.103 1410,217 C1511.63,244.221 1545.64,228.484 1639,277 C1645.86,280.564 1652.63,284.967 1659.06,289.717 " fill="none" id="Cache.MRunTiming-Cache.TimerTask" style="stroke: #A80036; stroke-width: 1.0; stroke-dasharray: 7.0,7.0;"/><polygon fill="none" points="1663.52,284.325,1674.65,302.357,1654.7,295.2,1663.52,284.325" style="stroke: #A80036; stroke-width: 1.0;"/><!--link Cache.Timer to Cache.TimerTask--><path d="M1600.19,181.355 C1624.34,216.399 1658.19,265.529 1680.59,298.033 " fill="none" id="Cache.Timer-Cache.TimerTask" style="stroke: #A80036; stroke-width: 1.0;"/><polygon fill="#A80036" points="1683.54,302.308,1681.7237,292.6281,1680.7015,298.1918,1675.1378,297.1696,1683.54,302.308" style="stroke: #A80036; stroke-width: 1.0;"/><text fill="#000000" font-family="sans-serif" font-size="13" lengthAdjust="spacingAndGlyphs" textLength="8" x="1670.4951" y="291.5316">1</text><!--link Cache.MRunTiming to Cache.Cache--><path d="M931.362,150.358 C639.239,169.494 113.705,212.497 57,277 C-29.2608,375.124 105.3393,516.237 193.078,591.527 " fill="none" id="Cache.MRunTiming-Cache.Cache" style="stroke: #A80036; stroke-width: 1.0;"/><polygon fill="#A80036" points="196.959,594.84,192.7121,585.9539,193.1566,591.5932,187.5172,592.0377,196.959,594.84" style="stroke: #A80036; stroke-width: 1.0;"/><!--link Cache.Cache to Cache.BufferForOneSensorInChannel--><path d="M259,694.113 C259,711.321 259,730.888 259,748.934 " fill="none" id="Cache.Cache-Cache.BufferForOneSensorInChannel" style="stroke: #A80036; stroke-width: 1.0;"/><polygon fill="#A80036" points="259,753.981,263,744.981,259,748.981,255,744.981,259,753.981" style="stroke: #A80036; stroke-width: 1.0;"/><text fill="#000000" font-family="sans-serif" font-size="13" lengthAdjust="spacingAndGlyphs" textLength="7" x="251.5516" y="742.9165">*</text><!--link Cache.BufferForOneSensorInChannel to Cache.TimestampValuePair--><path d="M442.271,810 C452.237,810 462.203,810 472.169,810 " fill="none" id="Cache.BufferForOneSensorInChannel-Cache.TimestampValuePair" style="stroke: #A80036; stroke-width: 1.0; stroke-dasharray: 7.0,7.0;"/><polygon fill="#A80036" points="477.38,810,468.38,806,472.38,810,468.38,814,477.38,810" style="stroke: #A80036; stroke-width: 1.0;"/><!--link Cache.MRunTiming to Cache.CheckAndNotifyAction--><path d="M950.223,217.083 C885.042,246.203 814.66,277.647 764.023,300.27 " fill="none" id="Cache.MRunTiming-Cache.CheckAndNotifyAction" style="stroke: #A80036; stroke-width: 1.0;"/><polygon fill="#A80036" points="759.185,302.431,769.0338,302.413,763.7503,300.392,765.7714,295.1085,759.185,302.431" style="stroke: #A80036; stroke-width: 1.0;"/><text fill="#000000" font-family="sans-serif" font-size="13" lengthAdjust="spacingAndGlyphs" textLength="7" x="765.8973" y="291.2062">*</text><!--link Cache.DataSetCompleteAction to Cache.Cache--><path d="M1194.44,522.523 C1172.26,529.033 1148.42,535.362 1126,540 C910.833,584.507 661.379,611.795 485.442,627.094 " fill="none" id="Cache.DataSetCompleteAction-Cache.Cache" style="stroke: #A80036; stroke-width: 1.0;"/><polygon fill="#A80036" points="480.259,627.543,489.5706,630.7515,485.2404,627.1116,488.8803,622.7814,480.259,627.543" style="stroke: #A80036; stroke-width: 1.0;"/><text fill="#000000" font-family="sans-serif" font-size="13" lengthAdjust="spacingAndGlyphs" textLength="7" x="488.3363" y="623.7294">*</text><!--link Cache.MRunTiming to Cache.IMRunListener--><path d="M1110,217.222 C1106.54,235.309 1102.9,254.285 1099.6,271.481 " fill="none" id="Cache.MRunTiming-Cache.IMRunListener" style="stroke: #A80036; stroke-width: 1.0;"/><polygon fill="#A80036" points="1098.59,276.758,1104.2119,268.6713,1099.5307,271.8473,1096.3548,267.1661,1098.59,276.758" style="stroke: #A80036; stroke-width: 1.0;"/><text fill="#000000" font-family="sans-serif" font-size="13" lengthAdjust="spacingAndGlyphs" textLength="7" x="1092.4541" y="266.063">*</text><!--link Cache.MRunTiming to Cache.IMRunInfo--><path d="M1269.43,217.083 C1313.66,240.995 1360.79,266.474 1399.41,287.349 " fill="none" id="Cache.MRunTiming-Cache.IMRunInfo" style="stroke: #A80036; stroke-width: 1.0; stroke-dasharray: 7.0,7.0;"/><polygon fill="#A80036" points="1404.07,289.871,1398.0658,282.064,1399.6749,287.4871,1394.2517,289.0962,1404.07,289.871" style="stroke: #A80036; stroke-width: 1.0;"/><!--link Cache.IMRunListener to Model.MRunReaction--><path d="M1327.65,389.072 C1523.79,415.733 1586.55,363.184 1767,425 C1794.35,434.368 1821.56,452.815 1840.84,467.83 " fill="none" id="Cache.IMRunListener-Model.MRunReaction" style="stroke: #A80036; stroke-width: 1.0; stroke-dasharray: 7.0,7.0;"/><polygon fill="none" points="1326.38,395.96,1307.61,386.138,1328.41,382.108,1326.38,395.96" style="stroke: #A80036; stroke-width: 1.0;"/><!--link Cache.IMRunInfo to Model.MRunInfo--><path d="M1612.72,381.941 C1621.89,384.55 1631.04,386.94 1640,389 C1773.45,419.691 1823.72,363.365 1946,425 C1965.23,434.694 1981.64,452.914 1992.73,467.759 " fill="none" id="Cache.IMRunInfo-Model.MRunInfo" style="stroke: #A80036; stroke-width: 1.0; stroke-dasharray: 7.0,7.0;"/><polygon fill="none" points="1610.47,388.575,1593.32,376.125,1614.49,375.165,1610.47,388.575" style="stroke: #A80036; stroke-width: 1.0;"/><!--
@startuml
namespace Cache {

class MStreamListener {
	+ receiveMDataSet(channelId: String, timeStamp: long, value: double): void
	+ connectionTerminated(): void
}


class MRunTiming {
	+ MRunTiming(initData: MRunInfo, listenerAtModel: MRunListener )
	- addBufferForOneSensorInChannel(SensorId: String)
	- addAction(action: CheckAndNotifyAction): void
	..
	+ run(): void
	- setCurrentTime(): void
	- checkActions(): void
	..
	+ startRepeatedTimer(): void
	+ stopRepeatedTimer(): void
}

class Timer {
	-period: long
	+schedule(timerTask: TimerTask, period: long)
	+cancel(): boolean
}

class Cache{
	+ addBufferForOneSensorInChannel(SensorId: String)
	+ receiveMDataSet(channelId: String, timeStamp: long, value: double): void
	+ isCompletePackageSetAvailable(from: long, to: long): boolean
	+ pollCompletePackageSet(from: long, to: long):  IdValuePair[]
}

class BufferForOneSensorInChannel {
	-sensorInChannelId: String
	-buffer: Queue<TimestampValuePair>
	+getInChannelId(): String
	+addPacket(timeStamp: long, value: double)
	+getAllPacketsDuringTimespan(from: long, to: long): double[]
}

class TimestampValuePair	{
	-value: double
	-timeStamp: long
	+TimestampValuePair(value: double, timeStamp: long)
	+getValue(): double
	+getTimeSpamp(): long
}
	
class ConnectionTerminatedAction {
	-
	+ connectionTerminated(): void
	+ checkAndNotify(mRunForward: MRunForward)
}

class TimeoutAction {
	-lastCompleteDatasetTimestamp: long
	+checkAndNotify(mRunForward: MRunForward)
}

class ErrorCodeAction {
	+checkAndNotify(mRunForward: MRunForward)
}

class DataSetCompleteAction {
	+checkAndNotify(mRunForward: MRunForward)
}

MStreamListener - -> ConnectionTerminatedAction
MStreamListener - -> Cache
ConnectionTerminatedAction .up.|> CheckAndNotifyAction
TimeoutAction .up.|> CheckAndNotifyAction
ErrorCodeAction .up.|> CheckAndNotifyAction
DataSetCompleteAction .up.|> CheckAndNotifyAction

MRunTiming -right-> Timer
MRunTiming .right.|> TimerTask
Timer -down-> "1" TimerTask
MRunTiming - -> Cache
Cache - -> "*" BufferForOneSensorInChannel
BufferForOneSensorInChannel .right.> TimestampValuePair
MRunTiming - -> "*" CheckAndNotifyAction

DataSetCompleteAction - -> "*" Cache

MRunTiming - -> "*" IMRunListener
MRunTiming ..> IMRunInfo

interface CheckAndNotifyAction {
	+checkAndNotify(mRunForward: MRunForward)
}

interface IMRunListener {
	+justWaiting():  void
	+indicateError(inChannelId: String, errorCode: double)
	+indicateTimeout(): void
	+indicateConnectionTerminated(): void
	+dispatchCompletePacketSet(completePacketSet: EnhancedValuePacket[])
}

interface IMRunInfo {
	+getAllInChannelIds(): String[]
	+getErrorCodes(inChannelId: String): double[]
	+getTimeoutOption(): long
}

interface TimerTask {
	+run(): void
}

IMRunListener <|.. Model.MRunReaction
IMRunInfo <|.. Model.MRunInfo

}
@enduml

PlantUML version 1.2019.06(Fri May 24 19:10:25 CEST 2019)
(GPL source distribution)
Java Runtime: OpenJDK Runtime Environment
JVM: OpenJDK 64-Bit Server VM
Java Version: 1.8.0_212-8u212-b03-0ubuntu1.16.04.1-b03
Operating System: Linux
OS Version: 4.15.0-54-generic
Default Encoding: UTF-8
Language: de
Country: DE
--></g></svg>