<?xml version="1.0" encoding="UTF-8" standalone="no"?><svg xmlns="http://www.w3.org/2000/svg" xmlns:xlink="http://www.w3.org/1999/xlink" contentScriptType="application/ecmascript" contentStyleType="text/css" height="967px" preserveAspectRatio="none" style="width:2304px;height:967px;" version="1.1" viewBox="0 0 2304 967" width="2304px" zoomAndPan="magnify"><defs><filter height="300%" id="fudorzoj2q830" width="300%" x="-1" y="-1"><feGaussianBlur result="blurOut" stdDeviation="2.0"/><feColorMatrix in="blurOut" result="blurOut2" type="matrix" values="0 0 0 0 0 0 0 0 0 0 0 0 0 0 0 0 0 0 .4 0"/><feOffset dx="4.0" dy="4.0" in="blurOut2" result="blurOut3"/><feBlend in="SourceGraphic" in2="blurOut3" mode="normal"/></filter></defs><g><!--cluster Cache--><polygon fill="#FFFFFF" filter="url(#fudorzoj2q830)" points="22,24,77,24,84,46.2969,1906,46.2969,1906,955,22,955,22,24" style="stroke: #000000; stroke-width: 1.5;"/><line style="stroke: #000000; stroke-width: 1.5;" x1="22" x2="84" y1="46.2969" y2="46.2969"/><text fill="#000000" font-family="sans-serif" font-size="14" font-weight="bold" lengthAdjust="spacingAndGlyphs" textLength="49" x="26" y="38.9951">Cache</text><!--cluster Model--><polygon fill="#FFFFFF" filter="url(#fudorzoj2q830)" points="1930,327.5,1983,327.5,1990,349.7969,2084,349.7969,2084,426.5,1930,426.5,1930,327.5" style="stroke: #000000; stroke-width: 1.5;"/><line style="stroke: #000000; stroke-width: 1.5;" x1="1930" x2="1990" y1="349.7969" y2="349.7969"/><text fill="#000000" font-family="sans-serif" font-size="14" font-weight="bold" lengthAdjust="spacingAndGlyphs" textLength="47" x="1934" y="342.4951">Model</text><!--cluster Model.ChannelLogic--><polygon fill="#FFFFFF" filter="url(#fudorzoj2q830)" points="2108,327.5,2272,327.5,2279,349.7969,2282,349.7969,2282,426.5,2108,426.5,2108,327.5" style="stroke: #000000; stroke-width: 1.5;"/><line style="stroke: #000000; stroke-width: 1.5;" x1="2108" x2="2279" y1="349.7969" y2="349.7969"/><text fill="#000000" font-family="sans-serif" font-size="14" font-weight="bold" lengthAdjust="spacingAndGlyphs" textLength="158" x="2112" y="342.4951">Model.ChannelLogic</text><!--class Cache.MRunActivityManagement--><rect fill="#FEFECE" filter="url(#fudorzoj2q830)" height="217.6563" id="Cache.MRunActivityManagement" style="stroke: #A80036; stroke-width: 1.5;" width="461" x="359.5" y="59"/><ellipse cx="506.25" cy="75" fill="#ADD1B2" rx="11" ry="11" style="stroke: #A80036; stroke-width: 1.0;"/><path d="M509.2188,80.6406 Q508.6406,80.9375 508,81.0859 Q507.3594,81.2344 506.6563,81.2344 Q504.1563,81.2344 502.8359,79.5859 Q501.5156,77.9375 501.5156,74.8125 Q501.5156,71.6875 502.8359,70.0313 Q504.1563,68.375 506.6563,68.375 Q507.3594,68.375 508.0078,68.5313 Q508.6563,68.6875 509.2188,68.9844 L509.2188,71.7031 Q508.5938,71.125 508,70.8516 Q507.4063,70.5781 506.7813,70.5781 Q505.4375,70.5781 504.75,71.6484 Q504.0625,72.7188 504.0625,74.8125 Q504.0625,76.9063 504.75,77.9766 Q505.4375,79.0469 506.7813,79.0469 Q507.4063,79.0469 508,78.7734 Q508.5938,78.5 509.2188,77.9219 L509.2188,80.6406 Z "/><text fill="#000000" font-family="sans-serif" font-size="12" lengthAdjust="spacingAndGlyphs" textLength="159" x="526.75" y="79.1543">MRunActivityManagement</text><line style="stroke: #A80036; stroke-width: 1.5;" x1="360.5" x2="819.5" y1="91" y2="91"/><ellipse cx="370.5" cy="102.9023" fill="#84BE84" rx="3" ry="3" style="stroke: #038048; stroke-width: 1.0;"/><text fill="#000000" font-family="sans-serif" font-size="11" lengthAdjust="spacingAndGlyphs" textLength="435" x="379.5" y="105.2104">MRunActivityManagement(initData: MRunInfo, listenerAtModel: MRunForward )</text><rect fill="#F24D5C" height="6" style="stroke: #C82930; stroke-width: 1.0;" width="6" x="367.5" y="112.707"/><text fill="#000000" font-family="sans-serif" font-size="11" lengthAdjust="spacingAndGlyphs" textLength="295" x="379.5" y="118.0151">addBufferForOneSensorInChannel(SensorId: String)</text><rect fill="#F24D5C" height="6" style="stroke: #C82930; stroke-width: 1.0;" width="6" x="367.5" y="125.5117"/><text fill="#000000" font-family="sans-serif" font-size="11" lengthAdjust="spacingAndGlyphs" textLength="188" x="379.5" y="130.8198">addTrigger(trigger: Trigger): void</text><line style="stroke: #A80036; stroke-width: 1.0; stroke-dasharray: 1.0,2.0;" x1="360.5" x2="819.5" y1="137.4141" y2="137.4141"/><ellipse cx="370.5" cy="149.3164" fill="#84BE84" rx="3" ry="3" style="stroke: #038048; stroke-width: 1.0;"/><text fill="#000000" font-family="sans-serif" font-size="11" lengthAdjust="spacingAndGlyphs" textLength="58" x="379.5" y="151.6245">run(): void</text><rect fill="#F24D5C" height="6" style="stroke: #C82930; stroke-width: 1.0;" width="6" x="367.5" y="159.1211"/><text fill="#000000" font-family="sans-serif" font-size="11" lengthAdjust="spacingAndGlyphs" textLength="128" x="379.5" y="164.4292">setCurrentTime(): void</text><rect fill="#F24D5C" height="6" style="stroke: #C82930; stroke-width: 1.0;" width="6" x="367.5" y="171.9258"/><text fill="#000000" font-family="sans-serif" font-size="11" lengthAdjust="spacingAndGlyphs" textLength="119" x="379.5" y="177.2339">checkTriggers(): void</text><line style="stroke: #A80036; stroke-width: 1.0; stroke-dasharray: 1.0,2.0;" x1="360.5" x2="819.5" y1="183.8281" y2="183.8281"/><ellipse cx="370.5" cy="195.7305" fill="#84BE84" rx="3" ry="3" style="stroke: #038048; stroke-width: 1.0;"/><text fill="#000000" font-family="sans-serif" font-size="11" lengthAdjust="spacingAndGlyphs" textLength="152" x="379.5" y="198.0386">startRepeatedTimer(): void</text><ellipse cx="370.5" cy="208.5352" fill="#84BE84" rx="3" ry="3" style="stroke: #038048; stroke-width: 1.0;"/><text fill="#000000" font-family="sans-serif" font-size="11" lengthAdjust="spacingAndGlyphs" textLength="150" x="379.5" y="210.8433">stopRepeatedTimer(): void</text><line style="stroke: #A80036; stroke-width: 1.0; stroke-dasharray: 1.0,2.0;" x1="360.5" x2="819.5" y1="217.4375" y2="217.4375"/><ellipse cx="370.5" cy="229.3398" fill="#84BE84" rx="3" ry="3" style="stroke: #038048; stroke-width: 1.0;"/><text fill="#000000" font-family="sans-serif" font-size="11" lengthAdjust="spacingAndGlyphs" textLength="416" x="379.5" y="231.6479">receiveMDataSet(channelId: String, timeStamp: long, value: double): void</text><ellipse cx="370.5" cy="242.1445" fill="#84BE84" rx="3" ry="3" style="stroke: #038048; stroke-width: 1.0;"/><text fill="#000000" font-family="sans-serif" font-size="11" lengthAdjust="spacingAndGlyphs" textLength="165" x="379.5" y="244.4526">connectionTerminated(): void</text><text fill="#000000" font-family="sans-serif" font-size="11" lengthAdjust="spacingAndGlyphs" textLength="0" x="383.5" y="257.2573"/><text fill="#000000" font-family="sans-serif" font-size="11" lengthAdjust="spacingAndGlyphs" textLength="0" x="383.5" y="270.062"/><!--class Cache.Timer--><rect fill="#FEFECE" filter="url(#fudorzoj2q830)" height="86.4141" id="Cache.Timer" style="stroke: #A80036; stroke-width: 1.5;" width="286" x="38" y="125"/><ellipse cx="159.75" cy="141" fill="#ADD1B2" rx="11" ry="11" style="stroke: #A80036; stroke-width: 1.0;"/><path d="M162.7188,146.6406 Q162.1406,146.9375 161.5,147.0859 Q160.8594,147.2344 160.1563,147.2344 Q157.6563,147.2344 156.3359,145.5859 Q155.0156,143.9375 155.0156,140.8125 Q155.0156,137.6875 156.3359,136.0313 Q157.6563,134.375 160.1563,134.375 Q160.8594,134.375 161.5078,134.5313 Q162.1563,134.6875 162.7188,134.9844 L162.7188,137.7031 Q162.0938,137.125 161.5,136.8516 Q160.9063,136.5781 160.2813,136.5781 Q158.9375,136.5781 158.25,137.6484 Q157.5625,138.7188 157.5625,140.8125 Q157.5625,142.9063 158.25,143.9766 Q158.9375,145.0469 160.2813,145.0469 Q160.9063,145.0469 161.5,144.7734 Q162.0938,144.5 162.7188,143.9219 L162.7188,146.6406 Z "/><text fill="#000000" font-family="sans-serif" font-size="12" lengthAdjust="spacingAndGlyphs" textLength="34" x="180.25" y="145.1543">Timer</text><line style="stroke: #A80036; stroke-width: 1.5;" x1="39" x2="323" y1="157" y2="157"/><rect fill="none" height="6" style="stroke: #C82930; stroke-width: 1.0;" width="6" x="46" y="165.9023"/><text fill="#000000" font-family="sans-serif" font-size="11" lengthAdjust="spacingAndGlyphs" textLength="68" x="58" y="171.2104">period: long</text><line style="stroke: #A80036; stroke-width: 1.5;" x1="39" x2="323" y1="177.8047" y2="177.8047"/><ellipse cx="49" cy="189.707" fill="#84BE84" rx="3" ry="3" style="stroke: #038048; stroke-width: 1.0;"/><text fill="#000000" font-family="sans-serif" font-size="11" lengthAdjust="spacingAndGlyphs" textLength="260" x="58" y="192.0151">schedule(timerTask: TimerTask, period: long)</text><ellipse cx="49" cy="202.5117" fill="#84BE84" rx="3" ry="3" style="stroke: #038048; stroke-width: 1.0;"/><text fill="#000000" font-family="sans-serif" font-size="11" lengthAdjust="spacingAndGlyphs" textLength="75" x="58" y="204.8198">cancel(): void</text><!--class Cache.Cache--><rect fill="#FEFECE" filter="url(#fudorzoj2q830)" height="99.2188" id="Cache.Cache" style="stroke: #A80036; stroke-width: 1.5;" width="386" x="1238" y="337"/><ellipse cx="1407.25" cy="353" fill="#ADD1B2" rx="11" ry="11" style="stroke: #A80036; stroke-width: 1.0;"/><path d="M1410.2188,358.6406 Q1409.6406,358.9375 1409,359.0859 Q1408.3594,359.2344 1407.6563,359.2344 Q1405.1563,359.2344 1403.8359,357.5859 Q1402.5156,355.9375 1402.5156,352.8125 Q1402.5156,349.6875 1403.8359,348.0313 Q1405.1563,346.375 1407.6563,346.375 Q1408.3594,346.375 1409.0078,346.5313 Q1409.6563,346.6875 1410.2188,346.9844 L1410.2188,349.7031 Q1409.5938,349.125 1409,348.8516 Q1408.4063,348.5781 1407.7813,348.5781 Q1406.4375,348.5781 1405.75,349.6484 Q1405.0625,350.7188 1405.0625,352.8125 Q1405.0625,354.9063 1405.75,355.9766 Q1406.4375,357.0469 1407.7813,357.0469 Q1408.4063,357.0469 1409,356.7734 Q1409.5938,356.5 1410.2188,355.9219 L1410.2188,358.6406 Z "/><text fill="#000000" font-family="sans-serif" font-size="12" lengthAdjust="spacingAndGlyphs" textLength="39" x="1427.75" y="357.1543">Cache</text><line style="stroke: #A80036; stroke-width: 1.5;" x1="1239" x2="1623" y1="369" y2="369"/><line style="stroke: #A80036; stroke-width: 1.5;" x1="1239" x2="1623" y1="377" y2="377"/><ellipse cx="1249" cy="388.9023" fill="#84BE84" rx="3" ry="3" style="stroke: #038048; stroke-width: 1.0;"/><text fill="#000000" font-family="sans-serif" font-size="11" lengthAdjust="spacingAndGlyphs" textLength="295" x="1258" y="391.2104">addBufferForOneSensorInChannel(SensorId: String)</text><ellipse cx="1249" cy="401.707" fill="#84BE84" rx="3" ry="3" style="stroke: #038048; stroke-width: 1.0;"/><text fill="#000000" font-family="sans-serif" font-size="11" lengthAdjust="spacingAndGlyphs" textLength="360" x="1258" y="404.0151">addPacket(timeStamp: long, value: double, inChannelId: String)</text><ellipse cx="1249" cy="414.5117" fill="#84BE84" rx="3" ry="3" style="stroke: #038048; stroke-width: 1.0;"/><text fill="#000000" font-family="sans-serif" font-size="11" lengthAdjust="spacingAndGlyphs" textLength="351" x="1258" y="416.8198">isCompletePackageSetAvailable(from: long, to: long): boolean</text><ellipse cx="1249" cy="427.3164" fill="#84BE84" rx="3" ry="3" style="stroke: #038048; stroke-width: 1.0;"/><text fill="#000000" font-family="sans-serif" font-size="11" lengthAdjust="spacingAndGlyphs" textLength="341" x="1258" y="429.6245">pollCompletePackageSet(from: long, to: long):  IdValuePair[]</text><!--class Cache.BufferForOneSensorInChannel--><rect fill="#FEFECE" filter="url(#fudorzoj2q830)" height="150.4375" id="Cache.BufferForOneSensorInChannel" style="stroke: #A80036; stroke-width: 1.5;" width="384" x="681" y="617"/><ellipse cx="774.75" cy="633" fill="#ADD1B2" rx="11" ry="11" style="stroke: #A80036; stroke-width: 1.0;"/><path d="M777.7188,638.6406 Q777.1406,638.9375 776.5,639.0859 Q775.8594,639.2344 775.1563,639.2344 Q772.6563,639.2344 771.3359,637.5859 Q770.0156,635.9375 770.0156,632.8125 Q770.0156,629.6875 771.3359,628.0313 Q772.6563,626.375 775.1563,626.375 Q775.8594,626.375 776.5078,626.5313 Q777.1563,626.6875 777.7188,626.9844 L777.7188,629.7031 Q777.0938,629.125 776.5,628.8516 Q775.9063,628.5781 775.2813,628.5781 Q773.9375,628.5781 773.25,629.6484 Q772.5625,630.7188 772.5625,632.8125 Q772.5625,634.9063 773.25,635.9766 Q773.9375,637.0469 775.2813,637.0469 Q775.9063,637.0469 776.5,636.7734 Q777.0938,636.5 777.7188,635.9219 L777.7188,638.6406 Z "/><text fill="#000000" font-family="sans-serif" font-size="12" lengthAdjust="spacingAndGlyphs" textLength="188" x="795.25" y="637.1543">BufferForOneSensorInChannel</text><line style="stroke: #A80036; stroke-width: 1.5;" x1="682" x2="1064" y1="649" y2="649"/><rect fill="none" height="6" style="stroke: #C82930; stroke-width: 1.0;" width="6" x="689" y="657.9023"/><text fill="#000000" font-family="sans-serif" font-size="11" lengthAdjust="spacingAndGlyphs" textLength="148" x="701" y="663.2104">sensorInChannelId: Stirng</text><rect fill="none" height="6" style="stroke: #C82930; stroke-width: 1.0;" width="6" x="689" y="670.707"/><text fill="#000000" font-family="sans-serif" font-size="11" lengthAdjust="spacingAndGlyphs" textLength="204" x="701" y="676.0151">buffer: Queue&lt;SimpleValuePacket&gt;</text><text fill="#000000" font-family="sans-serif" font-size="11" lengthAdjust="spacingAndGlyphs" textLength="0" x="705" y="688.8198"/><text fill="#000000" font-family="sans-serif" font-size="11" lengthAdjust="spacingAndGlyphs" textLength="173" x="701" y="701.6245">BufferForOneSensorInChannel</text><line style="stroke: #A80036; stroke-width: 1.5;" x1="682" x2="1064" y1="708.2188" y2="708.2188"/><ellipse cx="692" cy="720.1211" fill="#84BE84" rx="3" ry="3" style="stroke: #038048; stroke-width: 1.0;"/><text fill="#000000" font-family="sans-serif" font-size="11" lengthAdjust="spacingAndGlyphs" textLength="134" x="701" y="722.4292">getInChannelId(): String</text><ellipse cx="692" cy="732.9258" fill="#84BE84" rx="3" ry="3" style="stroke: #038048; stroke-width: 1.0;"/><text fill="#000000" font-family="sans-serif" font-size="11" lengthAdjust="spacingAndGlyphs" textLength="244" x="701" y="735.2339">addPacket(timeStamp: long, value: double)</text><ellipse cx="692" cy="745.7305" fill="#84BE84" rx="3" ry="3" style="stroke: #038048; stroke-width: 1.0;"/><text fill="#000000" font-family="sans-serif" font-size="11" lengthAdjust="spacingAndGlyphs" textLength="340" x="701" y="748.0386">getAllPacketsDuringTimespan(from: long, to: long): double[]</text><ellipse cx="692" cy="758.5352" fill="#84BE84" rx="3" ry="3" style="stroke: #038048; stroke-width: 1.0;"/><text fill="#000000" font-family="sans-serif" font-size="11" lengthAdjust="spacingAndGlyphs" textLength="358" x="701" y="760.8433">checkAndNotifyMRunManagement(mRunForward: MRunForward)</text><!--class Cache.SimpleValuePacket--><rect fill="#FEFECE" filter="url(#fudorzoj2q830)" height="112.0234" id="Cache.SimpleValuePacket" style="stroke: #A80036; stroke-width: 1.5;" width="319" x="713.5" y="827"/><ellipse cx="809.25" cy="843" fill="#ADD1B2" rx="11" ry="11" style="stroke: #A80036; stroke-width: 1.0;"/><path d="M812.2188,848.6406 Q811.6406,848.9375 811,849.0859 Q810.3594,849.2344 809.6563,849.2344 Q807.1563,849.2344 805.8359,847.5859 Q804.5156,845.9375 804.5156,842.8125 Q804.5156,839.6875 805.8359,838.0313 Q807.1563,836.375 809.6563,836.375 Q810.3594,836.375 811.0078,836.5313 Q811.6563,836.6875 812.2188,836.9844 L812.2188,839.7031 Q811.5938,839.125 811,838.8516 Q810.4063,838.5781 809.7813,838.5781 Q808.4375,838.5781 807.75,839.6484 Q807.0625,840.7188 807.0625,842.8125 Q807.0625,844.9063 807.75,845.9766 Q808.4375,847.0469 809.7813,847.0469 Q810.4063,847.0469 811,846.7734 Q811.5938,846.5 812.2188,845.9219 L812.2188,848.6406 Z "/><text fill="#000000" font-family="sans-serif" font-size="12" lengthAdjust="spacingAndGlyphs" textLength="119" x="829.75" y="847.1543">SimpleValuePacket</text><line style="stroke: #A80036; stroke-width: 1.5;" x1="714.5" x2="1031.5" y1="859" y2="859"/><rect fill="none" height="6" style="stroke: #C82930; stroke-width: 1.0;" width="6" x="721.5" y="867.9023"/><text fill="#000000" font-family="sans-serif" font-size="11" lengthAdjust="spacingAndGlyphs" textLength="76" x="733.5" y="873.2104">value: double</text><rect fill="none" height="6" style="stroke: #C82930; stroke-width: 1.0;" width="6" x="721.5" y="880.707"/><text fill="#000000" font-family="sans-serif" font-size="11" lengthAdjust="spacingAndGlyphs" textLength="94" x="733.5" y="886.0151">timeStamp: long</text><line style="stroke: #A80036; stroke-width: 1.5;" x1="714.5" x2="1031.5" y1="892.6094" y2="892.6094"/><ellipse cx="724.5" cy="904.5117" fill="#84BE84" rx="3" ry="3" style="stroke: #038048; stroke-width: 1.0;"/><text fill="#000000" font-family="sans-serif" font-size="11" lengthAdjust="spacingAndGlyphs" textLength="293" x="733.5" y="906.8198">SimpleValuePacket(value: double, timeStamp: long)</text><ellipse cx="724.5" cy="917.3164" fill="#84BE84" rx="3" ry="3" style="stroke: #038048; stroke-width: 1.0;"/><text fill="#000000" font-family="sans-serif" font-size="11" lengthAdjust="spacingAndGlyphs" textLength="103" x="733.5" y="919.6245">getValue(): double</text><ellipse cx="724.5" cy="930.1211" fill="#84BE84" rx="3" ry="3" style="stroke: #038048; stroke-width: 1.0;"/><text fill="#000000" font-family="sans-serif" font-size="11" lengthAdjust="spacingAndGlyphs" textLength="126" x="733.5" y="932.4292">getTimeSpamp(): long</text><!--class Cache.ConnectionTerminatedTrigger--><rect fill="#FEFECE" filter="url(#fudorzoj2q830)" height="60.8047" id="Cache.ConnectionTerminatedTrigger" style="stroke: #A80036; stroke-width: 1.5;" width="384" x="1097" y="496"/><ellipse cx="1191.75" cy="512" fill="#ADD1B2" rx="11" ry="11" style="stroke: #A80036; stroke-width: 1.0;"/><path d="M1194.7188,517.6406 Q1194.1406,517.9375 1193.5,518.0859 Q1192.8594,518.2344 1192.1563,518.2344 Q1189.6563,518.2344 1188.3359,516.5859 Q1187.0156,514.9375 1187.0156,511.8125 Q1187.0156,508.6875 1188.3359,507.0313 Q1189.6563,505.375 1192.1563,505.375 Q1192.8594,505.375 1193.5078,505.5313 Q1194.1563,505.6875 1194.7188,505.9844 L1194.7188,508.7031 Q1194.0938,508.125 1193.5,507.8516 Q1192.9063,507.5781 1192.2813,507.5781 Q1190.9375,507.5781 1190.25,508.6484 Q1189.5625,509.7188 1189.5625,511.8125 Q1189.5625,513.9063 1190.25,514.9766 Q1190.9375,516.0469 1192.2813,516.0469 Q1192.9063,516.0469 1193.5,515.7734 Q1194.0938,515.5 1194.7188,514.9219 L1194.7188,517.6406 Z "/><text fill="#000000" font-family="sans-serif" font-size="12" lengthAdjust="spacingAndGlyphs" textLength="186" x="1212.25" y="516.1543">ConnectionTerminatedTrigger</text><line style="stroke: #A80036; stroke-width: 1.5;" x1="1098" x2="1480" y1="528" y2="528"/><line style="stroke: #A80036; stroke-width: 1.5;" x1="1098" x2="1480" y1="536" y2="536"/><ellipse cx="1108" cy="547.9023" fill="#84BE84" rx="3" ry="3" style="stroke: #038048; stroke-width: 1.0;"/><text fill="#000000" font-family="sans-serif" font-size="11" lengthAdjust="spacingAndGlyphs" textLength="358" x="1117" y="550.2104">checkAndNotifyMRunManagement(mRunForward: MRunForward)</text><!--class Cache.TimeoutTrigger--><rect fill="#FEFECE" filter="url(#fudorzoj2q830)" height="60.8047" id="Cache.TimeoutTrigger" style="stroke: #A80036; stroke-width: 1.5;" width="384" x="259" y="496"/><ellipse cx="399.75" cy="512" fill="#ADD1B2" rx="11" ry="11" style="stroke: #A80036; stroke-width: 1.0;"/><path d="M402.7188,517.6406 Q402.1406,517.9375 401.5,518.0859 Q400.8594,518.2344 400.1563,518.2344 Q397.6563,518.2344 396.3359,516.5859 Q395.0156,514.9375 395.0156,511.8125 Q395.0156,508.6875 396.3359,507.0313 Q397.6563,505.375 400.1563,505.375 Q400.8594,505.375 401.5078,505.5313 Q402.1563,505.6875 402.7188,505.9844 L402.7188,508.7031 Q402.0938,508.125 401.5,507.8516 Q400.9063,507.5781 400.2813,507.5781 Q398.9375,507.5781 398.25,508.6484 Q397.5625,509.7188 397.5625,511.8125 Q397.5625,513.9063 398.25,514.9766 Q398.9375,516.0469 400.2813,516.0469 Q400.9063,516.0469 401.5,515.7734 Q402.0938,515.5 402.7188,514.9219 L402.7188,517.6406 Z "/><text fill="#000000" font-family="sans-serif" font-size="12" lengthAdjust="spacingAndGlyphs" textLength="94" x="420.25" y="516.1543">TimeoutTrigger</text><line style="stroke: #A80036; stroke-width: 1.5;" x1="260" x2="642" y1="528" y2="528"/><line style="stroke: #A80036; stroke-width: 1.5;" x1="260" x2="642" y1="536" y2="536"/><ellipse cx="270" cy="547.9023" fill="#84BE84" rx="3" ry="3" style="stroke: #038048; stroke-width: 1.0;"/><text fill="#000000" font-family="sans-serif" font-size="11" lengthAdjust="spacingAndGlyphs" textLength="358" x="279" y="550.2104">checkAndNotifyMRunManagement(mRunForward: MRunForward)</text><!--class Cache.ErrorCodeTrigger--><rect fill="#FEFECE" filter="url(#fudorzoj2q830)" height="60.8047" id="Cache.ErrorCodeTrigger" style="stroke: #A80036; stroke-width: 1.5;" width="384" x="678" y="496"/><ellipse cx="812.25" cy="512" fill="#ADD1B2" rx="11" ry="11" style="stroke: #A80036; stroke-width: 1.0;"/><path d="M815.2188,517.6406 Q814.6406,517.9375 814,518.0859 Q813.3594,518.2344 812.6563,518.2344 Q810.1563,518.2344 808.8359,516.5859 Q807.5156,514.9375 807.5156,511.8125 Q807.5156,508.6875 808.8359,507.0313 Q810.1563,505.375 812.6563,505.375 Q813.3594,505.375 814.0078,505.5313 Q814.6563,505.6875 815.2188,505.9844 L815.2188,508.7031 Q814.5938,508.125 814,507.8516 Q813.4063,507.5781 812.7813,507.5781 Q811.4375,507.5781 810.75,508.6484 Q810.0625,509.7188 810.0625,511.8125 Q810.0625,513.9063 810.75,514.9766 Q811.4375,516.0469 812.7813,516.0469 Q813.4063,516.0469 814,515.7734 Q814.5938,515.5 815.2188,514.9219 L815.2188,517.6406 Z "/><text fill="#000000" font-family="sans-serif" font-size="12" lengthAdjust="spacingAndGlyphs" textLength="107" x="832.75" y="516.1543">ErrorCodeTrigger</text><line style="stroke: #A80036; stroke-width: 1.5;" x1="679" x2="1061" y1="528" y2="528"/><line style="stroke: #A80036; stroke-width: 1.5;" x1="679" x2="1061" y1="536" y2="536"/><ellipse cx="689" cy="547.9023" fill="#84BE84" rx="3" ry="3" style="stroke: #038048; stroke-width: 1.0;"/><text fill="#000000" font-family="sans-serif" font-size="11" lengthAdjust="spacingAndGlyphs" textLength="358" x="698" y="550.2104">checkAndNotifyMRunManagement(mRunForward: MRunForward)</text><!--class Cache.Trigger--><rect fill="#FEFECE" filter="url(#fudorzoj2q830)" height="60.8047" id="Cache.Trigger" style="stroke: #A80036; stroke-width: 1.5;" width="384" x="364" y="356"/><ellipse cx="529.75" cy="372" fill="#B4A7E5" rx="11" ry="11" style="stroke: #A80036; stroke-width: 1.0;"/><path d="M525.6719,367.7656 L525.6719,365.6094 L533.0625,365.6094 L533.0625,367.7656 L530.5938,367.7656 L530.5938,375.8438 L533.0625,375.8438 L533.0625,378 L525.6719,378 L525.6719,375.8438 L528.1406,375.8438 L528.1406,367.7656 L525.6719,367.7656 Z "/><text fill="#000000" font-family="sans-serif" font-size="12" font-style="italic" lengthAdjust="spacingAndGlyphs" textLength="44" x="550.25" y="376.1543">Trigger</text><line style="stroke: #A80036; stroke-width: 1.5;" x1="365" x2="747" y1="388" y2="388"/><line style="stroke: #A80036; stroke-width: 1.5;" x1="365" x2="747" y1="396" y2="396"/><ellipse cx="375" cy="407.9023" fill="#84BE84" rx="3" ry="3" style="stroke: #038048; stroke-width: 1.0;"/><text fill="#000000" font-family="sans-serif" font-size="11" lengthAdjust="spacingAndGlyphs" textLength="358" x="384" y="410.2104">checkAndNotifyMRunManagement(mRunForward: MRunForward)</text><!--class Cache.DataSetCompleteTrigger--><rect fill="#FEFECE" filter="url(#fudorzoj2q830)" height="48" id="Cache.DataSetCompleteTrigger" style="stroke: #A80036; stroke-width: 1.5;" width="186" x="38" y="502.5"/><ellipse cx="53" cy="518.5" fill="#ADD1B2" rx="11" ry="11" style="stroke: #A80036; stroke-width: 1.0;"/><path d="M55.9688,524.1406 Q55.3906,524.4375 54.75,524.5859 Q54.1094,524.7344 53.4063,524.7344 Q50.9063,524.7344 49.5859,523.0859 Q48.2656,521.4375 48.2656,518.3125 Q48.2656,515.1875 49.5859,513.5313 Q50.9063,511.875 53.4063,511.875 Q54.1094,511.875 54.7578,512.0313 Q55.4063,512.1875 55.9688,512.4844 L55.9688,515.2031 Q55.3438,514.625 54.75,514.3516 Q54.1563,514.0781 53.5313,514.0781 Q52.1875,514.0781 51.5,515.1484 Q50.8125,516.2188 50.8125,518.3125 Q50.8125,520.4063 51.5,521.4766 Q52.1875,522.5469 53.5313,522.5469 Q54.1563,522.5469 54.75,522.2734 Q55.3438,522 55.9688,521.4219 L55.9688,524.1406 Z "/><text fill="#000000" font-family="sans-serif" font-size="12" lengthAdjust="spacingAndGlyphs" textLength="154" x="67" y="522.6543">DataSetCompleteTrigger</text><line style="stroke: #A80036; stroke-width: 1.5;" x1="39" x2="223" y1="534.5" y2="534.5"/><line style="stroke: #A80036; stroke-width: 1.5;" x1="39" x2="223" y1="542.5" y2="542.5"/><!--class Cache.IMeasurementStreamListener--><rect fill="#FEFECE" filter="url(#fudorzoj2q830)" height="86.4141" id="Cache.IMeasurementStreamListener" style="stroke: #A80036; stroke-width: 1.5;" width="299" x="783.5" y="343.5"/><ellipse cx="836.75" cy="359.5" fill="#B4A7E5" rx="11" ry="11" style="stroke: #A80036; stroke-width: 1.0;"/><path d="M832.6719,355.2656 L832.6719,353.1094 L840.0625,353.1094 L840.0625,355.2656 L837.5938,355.2656 L837.5938,363.3438 L840.0625,363.3438 L840.0625,365.5 L832.6719,365.5 L832.6719,363.3438 L835.1406,363.3438 L835.1406,355.2656 L832.6719,355.2656 Z "/><text fill="#000000" font-family="sans-serif" font-size="12" font-style="italic" lengthAdjust="spacingAndGlyphs" textLength="184" x="857.25" y="363.6543">IMeasurementStreamListener</text><line style="stroke: #A80036; stroke-width: 1.5;" x1="784.5" x2="1081.5" y1="375.5" y2="375.5"/><line style="stroke: #A80036; stroke-width: 1.5;" x1="784.5" x2="1081.5" y1="383.5" y2="383.5"/><ellipse cx="794.5" cy="395.4023" fill="#84BE84" rx="3" ry="3" style="stroke: #038048; stroke-width: 1.0;"/><text fill="#000000" font-family="sans-serif" font-size="11" lengthAdjust="spacingAndGlyphs" textLength="273" x="803.5" y="397.7104">receiveDate(channelId: String, timeStamp: long,</text><text fill="#000000" font-family="sans-serif" font-size="11" lengthAdjust="spacingAndGlyphs" textLength="111" x="803.5" y="410.5151">value: double): void</text><ellipse cx="794.5" cy="421.0117" fill="#84BE84" rx="3" ry="3" style="stroke: #038048; stroke-width: 1.0;"/><text fill="#000000" font-family="sans-serif" font-size="11" lengthAdjust="spacingAndGlyphs" textLength="165" x="803.5" y="423.3198">connectionTerminated(): void</text><!--class Cache.TimerTask--><rect fill="#FEFECE" filter="url(#fudorzoj2q830)" height="60.8047" id="Cache.TimerTask" style="stroke: #A80036; stroke-width: 1.5;" width="94" x="168" y="356"/><ellipse cx="183" cy="372" fill="#B4A7E5" rx="11" ry="11" style="stroke: #A80036; stroke-width: 1.0;"/><path d="M178.9219,367.7656 L178.9219,365.6094 L186.3125,365.6094 L186.3125,367.7656 L183.8438,367.7656 L183.8438,375.8438 L186.3125,375.8438 L186.3125,378 L178.9219,378 L178.9219,375.8438 L181.3906,375.8438 L181.3906,367.7656 L178.9219,367.7656 Z "/><text fill="#000000" font-family="sans-serif" font-size="12" font-style="italic" lengthAdjust="spacingAndGlyphs" textLength="62" x="197" y="376.1543">TimerTask</text><line style="stroke: #A80036; stroke-width: 1.5;" x1="169" x2="261" y1="388" y2="388"/><line style="stroke: #A80036; stroke-width: 1.5;" x1="169" x2="261" y1="396" y2="396"/><ellipse cx="179" cy="407.9023" fill="#84BE84" rx="3" ry="3" style="stroke: #038048; stroke-width: 1.0;"/><text fill="#000000" font-family="sans-serif" font-size="11" lengthAdjust="spacingAndGlyphs" textLength="58" x="188" y="410.2104">run(): void</text><!--class Cache.MRunForward--><rect fill="#FEFECE" filter="url(#fudorzoj2q830)" height="112.0234" id="Cache.MRunForward" style="stroke: #A80036; stroke-width: 1.5;" width="439" x="1169.5" y="112"/><ellipse cx="1342.25" cy="128" fill="#B4A7E5" rx="11" ry="11" style="stroke: #A80036; stroke-width: 1.0;"/><path d="M1338.1719,123.7656 L1338.1719,121.6094 L1345.5625,121.6094 L1345.5625,123.7656 L1343.0938,123.7656 L1343.0938,131.8438 L1345.5625,131.8438 L1345.5625,134 L1338.1719,134 L1338.1719,131.8438 L1340.6406,131.8438 L1340.6406,123.7656 L1338.1719,123.7656 Z "/><text fill="#000000" font-family="sans-serif" font-size="12" font-style="italic" lengthAdjust="spacingAndGlyphs" textLength="85" x="1362.75" y="132.1543">MRunForward</text><line style="stroke: #A80036; stroke-width: 1.5;" x1="1170.5" x2="1607.5" y1="144" y2="144"/><line style="stroke: #A80036; stroke-width: 1.5;" x1="1170.5" x2="1607.5" y1="152" y2="152"/><ellipse cx="1180.5" cy="163.9023" fill="#84BE84" rx="3" ry="3" style="stroke: #038048; stroke-width: 1.0;"/><text fill="#000000" font-family="sans-serif" font-size="11" lengthAdjust="spacingAndGlyphs" textLength="104" x="1189.5" y="166.2104">justWaiting():  void</text><ellipse cx="1180.5" cy="176.707" fill="#84BE84" rx="3" ry="3" style="stroke: #038048; stroke-width: 1.0;"/><text fill="#000000" font-family="sans-serif" font-size="11" lengthAdjust="spacingAndGlyphs" textLength="301" x="1189.5" y="179.0151">indicateError(inChannelId: String, errorCode: double)</text><ellipse cx="1180.5" cy="189.5117" fill="#84BE84" rx="3" ry="3" style="stroke: #038048; stroke-width: 1.0;"/><text fill="#000000" font-family="sans-serif" font-size="11" lengthAdjust="spacingAndGlyphs" textLength="129" x="1189.5" y="191.8198">indicateTimeout(): void</text><ellipse cx="1180.5" cy="202.3164" fill="#84BE84" rx="3" ry="3" style="stroke: #038048; stroke-width: 1.0;"/><text fill="#000000" font-family="sans-serif" font-size="11" lengthAdjust="spacingAndGlyphs" textLength="211" x="1189.5" y="204.6245">indicateConnectionTerminated(): void</text><ellipse cx="1180.5" cy="215.1211" fill="#84BE84" rx="3" ry="3" style="stroke: #038048; stroke-width: 1.0;"/><text fill="#000000" font-family="sans-serif" font-size="11" lengthAdjust="spacingAndGlyphs" textLength="413" x="1189.5" y="217.4292">dispatchCompletePacketSet(completePacketSet: EnhancedValuePacket[])</text><!--class Cache.MRunInfo--><rect fill="#FEFECE" filter="url(#fudorzoj2q830)" height="86.4141" id="Cache.MRunInfo" style="stroke: #A80036; stroke-width: 1.5;" width="279" x="855.5" y="125"/><ellipse cx="961.75" cy="141" fill="#B4A7E5" rx="11" ry="11" style="stroke: #A80036; stroke-width: 1.0;"/><path d="M957.6719,136.7656 L957.6719,134.6094 L965.0625,134.6094 L965.0625,136.7656 L962.5938,136.7656 L962.5938,144.8438 L965.0625,144.8438 L965.0625,147 L957.6719,147 L957.6719,144.8438 L960.1406,144.8438 L960.1406,136.7656 L957.6719,136.7656 Z "/><text fill="#000000" font-family="sans-serif" font-size="12" font-style="italic" lengthAdjust="spacingAndGlyphs" textLength="58" x="982.25" y="145.1543">MRunInfo</text><line style="stroke: #A80036; stroke-width: 1.5;" x1="856.5" x2="1133.5" y1="157" y2="157"/><line style="stroke: #A80036; stroke-width: 1.5;" x1="856.5" x2="1133.5" y1="165" y2="165"/><ellipse cx="866.5" cy="176.9023" fill="#84BE84" rx="3" ry="3" style="stroke: #038048; stroke-width: 1.0;"/><text fill="#000000" font-family="sans-serif" font-size="11" lengthAdjust="spacingAndGlyphs" textLength="162" x="875.5" y="179.2104">getAllInChannelIds(): String[]</text><ellipse cx="866.5" cy="189.707" fill="#84BE84" rx="3" ry="3" style="stroke: #038048; stroke-width: 1.0;"/><text fill="#000000" font-family="sans-serif" font-size="11" lengthAdjust="spacingAndGlyphs" textLength="253" x="875.5" y="192.0151">getErrorCodes(inChannelId: String): double[]</text><ellipse cx="866.5" cy="202.5117" fill="#84BE84" rx="3" ry="3" style="stroke: #038048; stroke-width: 1.0;"/><text fill="#000000" font-family="sans-serif" font-size="11" lengthAdjust="spacingAndGlyphs" textLength="141" x="875.5" y="204.8198">getTimeoutOption(): long</text><!--class Cache.IMRunListener--><rect fill="#FEFECE" filter="url(#fudorzoj2q830)" height="48" id="Cache.IMRunListener" style="stroke: #A80036; stroke-width: 1.5;" width="119" x="1643.5" y="144"/><ellipse cx="1658.5" cy="160" fill="#ADD1B2" rx="11" ry="11" style="stroke: #A80036; stroke-width: 1.0;"/><path d="M1661.4688,165.6406 Q1660.8906,165.9375 1660.25,166.0859 Q1659.6094,166.2344 1658.9063,166.2344 Q1656.4063,166.2344 1655.0859,164.5859 Q1653.7656,162.9375 1653.7656,159.8125 Q1653.7656,156.6875 1655.0859,155.0313 Q1656.4063,153.375 1658.9063,153.375 Q1659.6094,153.375 1660.2578,153.5313 Q1660.9063,153.6875 1661.4688,153.9844 L1661.4688,156.7031 Q1660.8438,156.125 1660.25,155.8516 Q1659.6563,155.5781 1659.0313,155.5781 Q1657.6875,155.5781 1657,156.6484 Q1656.3125,157.7188 1656.3125,159.8125 Q1656.3125,161.9063 1657,162.9766 Q1657.6875,164.0469 1659.0313,164.0469 Q1659.6563,164.0469 1660.25,163.7734 Q1660.8438,163.5 1661.4688,162.9219 L1661.4688,165.6406 Z "/><text fill="#000000" font-family="sans-serif" font-size="12" lengthAdjust="spacingAndGlyphs" textLength="87" x="1672.5" y="164.1543">IMRunListener</text><line style="stroke: #A80036; stroke-width: 1.5;" x1="1644.5" x2="1761.5" y1="176" y2="176"/><line style="stroke: #A80036; stroke-width: 1.5;" x1="1644.5" x2="1761.5" y1="184" y2="184"/><!--class Cache.IMRunInfo--><rect fill="#FEFECE" filter="url(#fudorzoj2q830)" height="48" id="Cache.IMRunInfo" style="stroke: #A80036; stroke-width: 1.5;" width="92" x="1798" y="144"/><ellipse cx="1813" cy="160" fill="#ADD1B2" rx="11" ry="11" style="stroke: #A80036; stroke-width: 1.0;"/><path d="M1815.9688,165.6406 Q1815.3906,165.9375 1814.75,166.0859 Q1814.1094,166.2344 1813.4063,166.2344 Q1810.9063,166.2344 1809.5859,164.5859 Q1808.2656,162.9375 1808.2656,159.8125 Q1808.2656,156.6875 1809.5859,155.0313 Q1810.9063,153.375 1813.4063,153.375 Q1814.1094,153.375 1814.7578,153.5313 Q1815.4063,153.6875 1815.9688,153.9844 L1815.9688,156.7031 Q1815.3438,156.125 1814.75,155.8516 Q1814.1563,155.5781 1813.5313,155.5781 Q1812.1875,155.5781 1811.5,156.6484 Q1810.8125,157.7188 1810.8125,159.8125 Q1810.8125,161.9063 1811.5,162.9766 Q1812.1875,164.0469 1813.5313,164.0469 Q1814.1563,164.0469 1814.75,163.7734 Q1815.3438,163.5 1815.9688,162.9219 L1815.9688,165.6406 Z "/><text fill="#000000" font-family="sans-serif" font-size="12" lengthAdjust="spacingAndGlyphs" textLength="60" x="1827" y="164.1543">IMRunInfo</text><line style="stroke: #A80036; stroke-width: 1.5;" x1="1799" x2="1889" y1="176" y2="176"/><line style="stroke: #A80036; stroke-width: 1.5;" x1="1799" x2="1889" y1="184" y2="184"/><!--class Model.MRunReaction--><rect fill="#FEFECE" filter="url(#fudorzoj2q830)" height="48" id="Model.MRunReaction" style="stroke: #A80036; stroke-width: 1.5;" width="121" x="1946.5" y="362.5"/><ellipse cx="1961.5" cy="378.5" fill="#ADD1B2" rx="11" ry="11" style="stroke: #A80036; stroke-width: 1.0;"/><path d="M1964.4688,384.1406 Q1963.8906,384.4375 1963.25,384.5859 Q1962.6094,384.7344 1961.9063,384.7344 Q1959.4063,384.7344 1958.0859,383.0859 Q1956.7656,381.4375 1956.7656,378.3125 Q1956.7656,375.1875 1958.0859,373.5313 Q1959.4063,371.875 1961.9063,371.875 Q1962.6094,371.875 1963.2578,372.0313 Q1963.9063,372.1875 1964.4688,372.4844 L1964.4688,375.2031 Q1963.8438,374.625 1963.25,374.3516 Q1962.6563,374.0781 1962.0313,374.0781 Q1960.6875,374.0781 1960,375.1484 Q1959.3125,376.2188 1959.3125,378.3125 Q1959.3125,380.4063 1960,381.4766 Q1960.6875,382.5469 1962.0313,382.5469 Q1962.6563,382.5469 1963.25,382.2734 Q1963.8438,382 1964.4688,381.4219 L1964.4688,384.1406 Z "/><text fill="#000000" font-family="sans-serif" font-size="12" lengthAdjust="spacingAndGlyphs" textLength="89" x="1975.5" y="382.6543">MRunReaction</text><line style="stroke: #A80036; stroke-width: 1.5;" x1="1947.5" x2="2066.5" y1="394.5" y2="394.5"/><line style="stroke: #A80036; stroke-width: 1.5;" x1="1947.5" x2="2066.5" y1="402.5" y2="402.5"/><!--class Model.ChannelLogic.MRunInfo--><rect fill="#FEFECE" filter="url(#fudorzoj2q830)" height="48" id="Model.ChannelLogic.MRunInfo" style="stroke: #A80036; stroke-width: 1.5;" width="89" x="2123.5" y="362.5"/><ellipse cx="2138.5" cy="378.5" fill="#ADD1B2" rx="11" ry="11" style="stroke: #A80036; stroke-width: 1.0;"/><path d="M2141.4688,384.1406 Q2140.8906,384.4375 2140.25,384.5859 Q2139.6094,384.7344 2138.9063,384.7344 Q2136.4063,384.7344 2135.0859,383.0859 Q2133.7656,381.4375 2133.7656,378.3125 Q2133.7656,375.1875 2135.0859,373.5313 Q2136.4063,371.875 2138.9063,371.875 Q2139.6094,371.875 2140.2578,372.0313 Q2140.9063,372.1875 2141.4688,372.4844 L2141.4688,375.2031 Q2140.8438,374.625 2140.25,374.3516 Q2139.6563,374.0781 2139.0313,374.0781 Q2137.6875,374.0781 2137,375.1484 Q2136.3125,376.2188 2136.3125,378.3125 Q2136.3125,380.4063 2137,381.4766 Q2137.6875,382.5469 2139.0313,382.5469 Q2139.6563,382.5469 2140.25,382.2734 Q2140.8438,382 2141.4688,381.4219 L2141.4688,384.1406 Z "/><text fill="#000000" font-family="sans-serif" font-size="12" lengthAdjust="spacingAndGlyphs" textLength="57" x="2152.5" y="382.6543">MRunInfo</text><line style="stroke: #A80036; stroke-width: 1.5;" x1="2124.5" x2="2211.5" y1="394.5" y2="394.5"/><line style="stroke: #A80036; stroke-width: 1.5;" x1="2124.5" x2="2211.5" y1="402.5" y2="402.5"/><!--link Cache.Trigger to Cache.ConnectionTerminatedTrigger--><path d="M698.159,421.496 C720.805,426.575 744.01,431.583 766,436 C876.635,458.223 1001.144,479.671 1100.92,495.998 " fill="none" id="Cache.Trigger-Cache.ConnectionTerminatedTrigger" style="stroke: #A80036; stroke-width: 1.0; stroke-dasharray: 7.0,7.0;"/><polygon fill="none" points="696.404,428.276,678.447,417.027,699.5,414.622,696.404,428.276" style="stroke: #A80036; stroke-width: 1.0;"/><!--link Cache.Trigger to Cache.TimeoutTrigger--><path d="M521.244,433.179 C505.52,453.845 487.39,477.673 473.488,495.944 " fill="none" id="Cache.Trigger-Cache.TimeoutTrigger" style="stroke: #A80036; stroke-width: 1.0; stroke-dasharray: 7.0,7.0;"/><polygon fill="none" points="515.794,428.782,533.475,417.104,526.935,437.26,515.794,428.782" style="stroke: #A80036; stroke-width: 1.0;"/><!--link Cache.Trigger to Cache.ErrorCodeTrigger--><path d="M641.76,425.191 C692.442,447.465 755.695,475.264 802.751,495.944 " fill="none" id="Cache.Trigger-Cache.ErrorCodeTrigger" style="stroke: #A80036; stroke-width: 1.0; stroke-dasharray: 7.0,7.0;"/><polygon fill="none" points="638.854,431.56,623.361,417.104,644.487,418.743,638.854,431.56" style="stroke: #A80036; stroke-width: 1.0;"/><!--link Cache.Trigger to Cache.DataSetCompleteTrigger--><path d="M445.589,423.351 C368.746,448.302 268.542,480.839 202.102,502.413 " fill="none" id="Cache.Trigger-Cache.DataSetCompleteTrigger" style="stroke: #A80036; stroke-width: 1.0; stroke-dasharray: 7.0,7.0;"/><polygon fill="none" points="443.903,416.539,465.088,417.02,448.227,429.854,443.903,416.539" style="stroke: #A80036; stroke-width: 1.0;"/><!--link Cache.MRunActivityManagement to Cache.IMeasurementStreamListener--><path d="M761.249,277.091 C791.916,296.448 822.594,315.812 849.36,332.707 " fill="none" id="Cache.MRunActivityManagement-Cache.IMeasurementStreamListener" style="stroke: #A80036; stroke-width: 1.0; stroke-dasharray: 7.0,7.0;"/><polygon fill="none" points="853.168,326.833,866.345,343.427,845.695,338.672,853.168,326.833" style="stroke: #A80036; stroke-width: 1.0;"/><!--link Cache.MRunActivityManagement to Cache.TimerTask--><path d="M402.775,277.091 C358.497,302.655 314.198,328.23 279.756,348.114 " fill="none" id="Cache.MRunActivityManagement-Cache.TimerTask" style="stroke: #A80036; stroke-width: 1.0; stroke-dasharray: 7.0,7.0;"/><polygon fill="none" points="283.019,354.313,262.198,358.251,276.019,342.189,283.019,354.313" style="stroke: #A80036; stroke-width: 1.0;"/><!--link Cache.Timer to Cache.TimerTask--><path d="M187.596,211 C193.99,251.719 203.576,312.758 209.551,350.801 " fill="none" id="Cache.Timer-Cache.TimerTask" style="stroke: #A80036; stroke-width: 1.0;"/><polygon fill="#A80036" points="210.333,355.782,212.8858,346.2697,209.556,350.8427,204.983,347.513,210.333,355.782" style="stroke: #A80036; stroke-width: 1.0;"/><text fill="#000000" font-family="sans-serif" font-size="13" lengthAdjust="spacingAndGlyphs" textLength="8" x="200.5454" y="345.0003">1</text><!--link Cache.MRunActivityManagement to Cache.Cache--><path d="M820.656,271.651 C826.468,273.525 832.255,275.312 838,277 C951.183,310.254 983.914,298.518 1100,319.5 C1143.03,327.277 1189.1,336.129 1232.78,344.767 " fill="none" id="Cache.MRunActivityManagement-Cache.Cache" style="stroke: #A80036; stroke-width: 1.0;"/><polygon fill="#A80036" points="1237.82,345.765,1229.7687,340.0925,1232.9153,344.7935,1228.2143,347.94,1237.82,345.765" style="stroke: #A80036; stroke-width: 1.0;"/><!--link Cache.Cache to Cache.BufferForOneSensorInChannel--><path d="M1474.7,436.094 C1501.86,472.362 1526.64,521.564 1498,557 C1444.77,622.847 1232.94,657.805 1070.49,675.303 " fill="none" id="Cache.Cache-Cache.BufferForOneSensorInChannel" style="stroke: #A80036; stroke-width: 1.0;"/><polygon fill="#A80036" points="1065.22,675.867,1074.601,678.8664,1070.1905,675.3242,1073.7326,670.9137,1065.22,675.867" style="stroke: #A80036; stroke-width: 1.0;"/><text fill="#000000" font-family="sans-serif" font-size="13" lengthAdjust="spacingAndGlyphs" textLength="7" x="1072.8653" y="672.0048">*</text><!--link Cache.BufferForOneSensorInChannel to Cache.SimpleValuePacket--><path d="M873,767.155 C873,785.15 873,804.178 873,821.458 " fill="none" id="Cache.BufferForOneSensorInChannel-Cache.SimpleValuePacket" style="stroke: #A80036; stroke-width: 1.0; stroke-dasharray: 7.0,7.0;"/><polygon fill="#A80036" points="873,826.762,877,817.762,873,821.762,869,817.762,873,826.762" style="stroke: #A80036; stroke-width: 1.0;"/><!--link Cache.MRunActivityManagement to Cache.Trigger--><path d="M573,277.25 C568.807,303.952 564.613,330.655 561.44,350.858 " fill="none" id="Cache.MRunActivityManagement-Cache.Trigger" style="stroke: #A80036; stroke-width: 1.0;"/><polygon fill="#A80036" points="560.656,355.851,566.0037,347.5805,561.4316,350.9115,558.1006,346.3394,560.656,355.851" style="stroke: #A80036; stroke-width: 1.0;"/><text fill="#000000" font-family="sans-serif" font-size="13" lengthAdjust="spacingAndGlyphs" textLength="7" x="553.8944" y="345.0835">*</text><!--link Cache.DataSetCompleteTrigger to Cache.BufferForOneSensorInChannel--><path d="M214.964,550.509 C223.739,552.767 232.54,554.97 241,557 C385.957,591.779 550.748,626.564 675.706,651.974 " fill="none" id="Cache.DataSetCompleteTrigger-Cache.BufferForOneSensorInChannel" style="stroke: #A80036; stroke-width: 1.0;"/><polygon fill="#A80036" points="680.879,653.025,672.8558,647.3129,675.9791,652.0293,671.2627,655.1527,680.879,653.025" style="stroke: #A80036; stroke-width: 1.0;"/><text fill="#000000" font-family="sans-serif" font-size="13" lengthAdjust="spacingAndGlyphs" textLength="7" x="666.2376" y="648.2705">*</text><!--link Cache.IMRunListener to Model.MRunReaction--><path d="M1723.71,209.761 C1737.04,232.383 1756.31,259.419 1780,277 C1827.46,312.217 1852.84,293.684 1906,319.5 C1930.68,331.486 1956.55,348.488 1975.93,362.233 " fill="none" id="Cache.IMRunListener-Model.MRunReaction" style="stroke: #A80036; stroke-width: 1.0; stroke-dasharray: 7.0,7.0;"/><polygon fill="none" points="1717.49,212.989,1713.94,192.1,1729.74,206.211,1717.49,212.989" style="stroke: #A80036; stroke-width: 1.0;"/><!--link Cache.IMRunInfo to Model.ChannelLogic.MRunInfo--><path d="M1900.84,202.319 C1950.18,231.782 2023.05,276.626 2084,319.5 C2103.26,333.052 2124.09,349.401 2140.18,362.437 " fill="none" id="Cache.IMRunInfo-Model.ChannelLogic.MRunInfo" style="stroke: #A80036; stroke-width: 1.0; stroke-dasharray: 7.0,7.0;"/><polygon fill="none" points="1897.1,208.238,1883.48,192.004,1904.25,196.201,1897.1,208.238" style="stroke: #A80036; stroke-width: 1.0;"/><!--
@startuml
namespace Cache {
class MRunActivityManagement {
	+ MRunActivityManagement(initData: MRunInfo, listenerAtModel: MRunForward )
	- addBufferForOneSensorInChannel(SensorId: String)
	- addTrigger(trigger: Trigger): void
	..
	+ run(): void
	- setCurrentTime(): void
	- checkTriggers(): void
	..
	+ startRepeatedTimer(): void
	+ stopRepeatedTimer(): void
	..
	+ receiveMDataSet(channelId: String, timeStamp: long, value: double): void
	+ connectionTerminated(): void


}

class Timer {
	-period: long
	+schedule(timerTask: TimerTask, period: long)
	+cancel(): void
}

class Cache{
	+ addBufferForOneSensorInChannel(SensorId: String)
	+ addPacket(timeStamp: long, value: double, inChannelId: String)
	+ isCompletePackageSetAvailable(from: long, to: long): boolean
	+ pollCompletePackageSet(from: long, to: long):  IdValuePair[]
}

class BufferForOneSensorInChannel {
	-sensorInChannelId: Stirng
	-buffer: Queue<SimpleValuePacket>

	+getInChannelId(): String
	+addPacket(timeStamp: long, value: double)
	+getAllPacketsDuringTimespan(from: long, to: long): double[]
}

class SimpleValuePacket	{
	-value: double
	-timeStamp: long
	+SimpleValuePacket(value: double, timeStamp: long)
	+getValue(): double
	+getTimeSpamp(): long
}
	
class ConnectionTerminatedTrigger {
	+checkAndNotifyMRunManagement(mRunForward: MRunForward)
}

class TimeoutTrigger {
	+checkAndNotifyMRunManagement(mRunForward: MRunForward)
}

class ErrorCodeTrigger {
	+checkAndNotifyMRunManagement(mRunForward: MRunForward)
}

class BufferForOneSensorInChannel {
	BufferForOneSensorInChannel
	+checkAndNotifyMRunManagement(mRunForward: MRunForward)
}

ConnectionTerminatedTrigger .up.|> Trigger
TimeoutTrigger .up.|> Trigger
ErrorCodeTrigger .up.|> Trigger
DataSetCompleteTrigger .up.|> Trigger

MRunActivityManagement ..|> IMeasurementStreamListener
MRunActivityManagement ..|> TimerTask
Timer - -> "1" TimerTask
MRunActivityManagement - -> Cache
Cache - -> "*" BufferForOneSensorInChannel
BufferForOneSensorInChannel ..> SimpleValuePacket
MRunActivityManagement - -> "*" Trigger

DataSetCompleteTrigger - -> "*" BufferForOneSensorInChannel

interface Trigger {
	+checkAndNotifyMRunManagement(mRunForward: MRunForward)
}

interface MRunForward {
	+justWaiting():  void
	+indicateError(inChannelId: String, errorCode: double)
	+indicateTimeout(): void
	+indicateConnectionTerminated(): void
	+dispatchCompletePacketSet(completePacketSet: EnhancedValuePacket[])
}

interface MRunInfo {
	+getAllInChannelIds(): String[]
	+getErrorCodes(inChannelId: String): double[]
	+getTimeoutOption(): long
}

interface IMeasurementStreamListener {
	+ receiveDate(channelId: String, timeStamp: long, 
	    value: double): void
	+connectionTerminated(): void
}

interface TimerTask {
	+run(): void
}

IMRunListener <|.. Model.MRunReaction
IMRunInfo <|.. Model.ChannelLogic.MRunInfo
}
@enduml

PlantUML version 1.2019.06(Fri May 24 19:10:25 CEST 2019)
(GPL source distribution)
Java Runtime: OpenJDK Runtime Environment
JVM: OpenJDK 64-Bit Server VM
Java Version: 1.8.0_212-8u212-b03-0ubuntu1.16.04.1-b03
Operating System: Linux
OS Version: 4.15.0-54-generic
Default Encoding: UTF-8
Language: de
Country: DE
--></g></svg>