<?xml version="1.0" encoding="UTF-8" standalone="no"?><svg xmlns="http://www.w3.org/2000/svg" xmlns:xlink="http://www.w3.org/1999/xlink" contentScriptType="application/ecmascript" contentStyleType="text/css" height="581px" preserveAspectRatio="none" style="width:2410px;height:581px;" version="1.1" viewBox="0 0 2410 581" width="2410px" zoomAndPan="magnify"><defs><filter height="300%" id="fj1hyqerddlk7" width="300%" x="-1" y="-1"><feGaussianBlur result="blurOut" stdDeviation="2.0"/><feColorMatrix in="blurOut" result="blurOut2" type="matrix" values="0 0 0 0 0 0 0 0 0 0 0 0 0 0 0 0 0 0 .4 0"/><feOffset dx="4.0" dy="4.0" in="blurOut2" result="blurOut3"/><feBlend in="SourceGraphic" in2="blurOut3" mode="normal"/></filter></defs><g><!--class ModelActivityManagement--><rect fill="#FEFECE" filter="url(#fj1hyqerddlk7)" height="217.6563" id="ModelActivityManagement" style="stroke: #A80036; stroke-width: 1.5;" width="464" x="731" y="8"/><ellipse cx="877.75" cy="24" fill="#ADD1B2" rx="11" ry="11" style="stroke: #A80036; stroke-width: 1.0;"/><path d="M880.7188,29.6406 Q880.1406,29.9375 879.5,30.0859 Q878.8594,30.2344 878.1563,30.2344 Q875.6563,30.2344 874.3359,28.5859 Q873.0156,26.9375 873.0156,23.8125 Q873.0156,20.6875 874.3359,19.0313 Q875.6563,17.375 878.1563,17.375 Q878.8594,17.375 879.5078,17.5313 Q880.1563,17.6875 880.7188,17.9844 L880.7188,20.7031 Q880.0938,20.125 879.5,19.8516 Q878.9063,19.5781 878.2813,19.5781 Q876.9375,19.5781 876.25,20.6484 Q875.5625,21.7188 875.5625,23.8125 Q875.5625,25.9063 876.25,26.9766 Q876.9375,28.0469 878.2813,28.0469 Q878.9063,28.0469 879.5,27.7734 Q880.0938,27.5 880.7188,26.9219 L880.7188,29.6406 Z "/><text fill="#000000" font-family="sans-serif" font-size="12" lengthAdjust="spacingAndGlyphs" textLength="162" x="898.25" y="28.1543">ModelActivityManagement</text><line style="stroke: #A80036; stroke-width: 1.5;" x1="732" x2="1194" y1="40" y2="40"/><ellipse cx="742" cy="51.9023" fill="#84BE84" rx="3" ry="3" style="stroke: #038048; stroke-width: 1.0;"/><text fill="#000000" font-family="sans-serif" font-size="11" lengthAdjust="spacingAndGlyphs" textLength="438" x="751" y="54.2104">ModelActivityManagement(initData: MRunInfo, listenerAtModel: MRunForward )</text><rect fill="#F24D5C" height="6" style="stroke: #C82930; stroke-width: 1.0;" width="6" x="739" y="61.707"/><text fill="#000000" font-family="sans-serif" font-size="11" lengthAdjust="spacingAndGlyphs" textLength="295" x="751" y="67.0151">addBufferForOneSensorInChannel(SensorId: String)</text><rect fill="#F24D5C" height="6" style="stroke: #C82930; stroke-width: 1.0;" width="6" x="739" y="74.5117"/><text fill="#000000" font-family="sans-serif" font-size="11" lengthAdjust="spacingAndGlyphs" textLength="188" x="751" y="79.8198">addTrigger(trigger: Trigger): void</text><line style="stroke: #A80036; stroke-width: 1.0; stroke-dasharray: 1.0,2.0;" x1="732" x2="1194" y1="86.4141" y2="86.4141"/><ellipse cx="742" cy="98.3164" fill="#84BE84" rx="3" ry="3" style="stroke: #038048; stroke-width: 1.0;"/><text fill="#000000" font-family="sans-serif" font-size="11" lengthAdjust="spacingAndGlyphs" textLength="58" x="751" y="100.6245">run(): void</text><rect fill="#F24D5C" height="6" style="stroke: #C82930; stroke-width: 1.0;" width="6" x="739" y="108.1211"/><text fill="#000000" font-family="sans-serif" font-size="11" lengthAdjust="spacingAndGlyphs" textLength="128" x="751" y="113.4292">setCurrentTime(): void</text><rect fill="#F24D5C" height="6" style="stroke: #C82930; stroke-width: 1.0;" width="6" x="739" y="120.9258"/><text fill="#000000" font-family="sans-serif" font-size="11" lengthAdjust="spacingAndGlyphs" textLength="119" x="751" y="126.2339">checkTriggers(): void</text><line style="stroke: #A80036; stroke-width: 1.0; stroke-dasharray: 1.0,2.0;" x1="732" x2="1194" y1="132.8281" y2="132.8281"/><ellipse cx="742" cy="144.7305" fill="#84BE84" rx="3" ry="3" style="stroke: #038048; stroke-width: 1.0;"/><text fill="#000000" font-family="sans-serif" font-size="11" lengthAdjust="spacingAndGlyphs" textLength="152" x="751" y="147.0386">startRepeatedTimer(): void</text><ellipse cx="742" cy="157.5352" fill="#84BE84" rx="3" ry="3" style="stroke: #038048; stroke-width: 1.0;"/><text fill="#000000" font-family="sans-serif" font-size="11" lengthAdjust="spacingAndGlyphs" textLength="150" x="751" y="159.8433">stopRepeatedTimer(): void</text><line style="stroke: #A80036; stroke-width: 1.0; stroke-dasharray: 1.0,2.0;" x1="732" x2="1194" y1="166.4375" y2="166.4375"/><ellipse cx="742" cy="178.3398" fill="#84BE84" rx="3" ry="3" style="stroke: #038048; stroke-width: 1.0;"/><text fill="#000000" font-family="sans-serif" font-size="11" lengthAdjust="spacingAndGlyphs" textLength="416" x="751" y="180.6479">receiveMDataSet(channelId: String, timeStamp: long, value: double): void</text><ellipse cx="742" cy="191.1445" fill="#84BE84" rx="3" ry="3" style="stroke: #038048; stroke-width: 1.0;"/><text fill="#000000" font-family="sans-serif" font-size="11" lengthAdjust="spacingAndGlyphs" textLength="165" x="751" y="193.4526">connectionTerminated(): void</text><text fill="#000000" font-family="sans-serif" font-size="11" lengthAdjust="spacingAndGlyphs" textLength="0" x="755" y="206.2573"/><text fill="#000000" font-family="sans-serif" font-size="11" lengthAdjust="spacingAndGlyphs" textLength="0" x="755" y="219.062"/><!--class Timer--><rect fill="#FEFECE" filter="url(#fj1hyqerddlk7)" height="86.4141" id="Timer" style="stroke: #A80036; stroke-width: 1.5;" width="286" x="1325" y="74"/><ellipse cx="1446.75" cy="90" fill="#ADD1B2" rx="11" ry="11" style="stroke: #A80036; stroke-width: 1.0;"/><path d="M1449.7188,95.6406 Q1449.1406,95.9375 1448.5,96.0859 Q1447.8594,96.2344 1447.1563,96.2344 Q1444.6563,96.2344 1443.3359,94.5859 Q1442.0156,92.9375 1442.0156,89.8125 Q1442.0156,86.6875 1443.3359,85.0313 Q1444.6563,83.375 1447.1563,83.375 Q1447.8594,83.375 1448.5078,83.5313 Q1449.1563,83.6875 1449.7188,83.9844 L1449.7188,86.7031 Q1449.0938,86.125 1448.5,85.8516 Q1447.9063,85.5781 1447.2813,85.5781 Q1445.9375,85.5781 1445.25,86.6484 Q1444.5625,87.7188 1444.5625,89.8125 Q1444.5625,91.9063 1445.25,92.9766 Q1445.9375,94.0469 1447.2813,94.0469 Q1447.9063,94.0469 1448.5,93.7734 Q1449.0938,93.5 1449.7188,92.9219 L1449.7188,95.6406 Z "/><text fill="#000000" font-family="sans-serif" font-size="12" lengthAdjust="spacingAndGlyphs" textLength="34" x="1467.25" y="94.1543">Timer</text><line style="stroke: #A80036; stroke-width: 1.5;" x1="1326" x2="1610" y1="106" y2="106"/><rect fill="none" height="6" style="stroke: #C82930; stroke-width: 1.0;" width="6" x="1333" y="114.9023"/><text fill="#000000" font-family="sans-serif" font-size="11" lengthAdjust="spacingAndGlyphs" textLength="68" x="1345" y="120.2104">period: long</text><line style="stroke: #A80036; stroke-width: 1.5;" x1="1326" x2="1610" y1="126.8047" y2="126.8047"/><ellipse cx="1336" cy="138.707" fill="#84BE84" rx="3" ry="3" style="stroke: #038048; stroke-width: 1.0;"/><text fill="#000000" font-family="sans-serif" font-size="11" lengthAdjust="spacingAndGlyphs" textLength="260" x="1345" y="141.0151">schedule(timerTask: TimerTask, period: long)</text><ellipse cx="1336" cy="151.5117" fill="#84BE84" rx="3" ry="3" style="stroke: #038048; stroke-width: 1.0;"/><text fill="#000000" font-family="sans-serif" font-size="11" lengthAdjust="spacingAndGlyphs" textLength="75" x="1345" y="153.8198">cancel(): void</text><!--class BufferForOneSensorInChannel--><rect fill="#FEFECE" filter="url(#fj1hyqerddlk7)" height="112.0234" id="BufferForOneSensorInChannel" style="stroke: #A80036; stroke-width: 1.5;" width="366" x="685" y="286"/><ellipse cx="769.75" cy="302" fill="#ADD1B2" rx="11" ry="11" style="stroke: #A80036; stroke-width: 1.0;"/><path d="M772.7188,307.6406 Q772.1406,307.9375 771.5,308.0859 Q770.8594,308.2344 770.1563,308.2344 Q767.6563,308.2344 766.3359,306.5859 Q765.0156,304.9375 765.0156,301.8125 Q765.0156,298.6875 766.3359,297.0313 Q767.6563,295.375 770.1563,295.375 Q770.8594,295.375 771.5078,295.5313 Q772.1563,295.6875 772.7188,295.9844 L772.7188,298.7031 Q772.0938,298.125 771.5,297.8516 Q770.9063,297.5781 770.2813,297.5781 Q768.9375,297.5781 768.25,298.6484 Q767.5625,299.7188 767.5625,301.8125 Q767.5625,303.9063 768.25,304.9766 Q768.9375,306.0469 770.2813,306.0469 Q770.9063,306.0469 771.5,305.7734 Q772.0938,305.5 772.7188,304.9219 L772.7188,307.6406 Z "/><text fill="#000000" font-family="sans-serif" font-size="12" lengthAdjust="spacingAndGlyphs" textLength="188" x="790.25" y="306.1543">BufferForOneSensorInChannel</text><line style="stroke: #A80036; stroke-width: 1.5;" x1="686" x2="1050" y1="318" y2="318"/><rect fill="none" height="6" style="stroke: #C82930; stroke-width: 1.0;" width="6" x="693" y="326.9023"/><text fill="#000000" font-family="sans-serif" font-size="11" lengthAdjust="spacingAndGlyphs" textLength="148" x="705" y="332.2104">sensorInChannelId: Stirng</text><rect fill="none" height="6" style="stroke: #C82930; stroke-width: 1.0;" width="6" x="693" y="339.707"/><text fill="#000000" font-family="sans-serif" font-size="11" lengthAdjust="spacingAndGlyphs" textLength="204" x="705" y="345.0151">buffer: Queue&lt;SimpleValuePacket&gt;</text><line style="stroke: #A80036; stroke-width: 1.5;" x1="686" x2="1050" y1="351.6094" y2="351.6094"/><ellipse cx="696" cy="363.5117" fill="#84BE84" rx="3" ry="3" style="stroke: #038048; stroke-width: 1.0;"/><text fill="#000000" font-family="sans-serif" font-size="11" lengthAdjust="spacingAndGlyphs" textLength="134" x="705" y="365.8198">getInChannelId(): String</text><ellipse cx="696" cy="376.3164" fill="#84BE84" rx="3" ry="3" style="stroke: #038048; stroke-width: 1.0;"/><text fill="#000000" font-family="sans-serif" font-size="11" lengthAdjust="spacingAndGlyphs" textLength="244" x="705" y="378.6245">addPacket(timeStamp: long, value: double)</text><ellipse cx="696" cy="389.1211" fill="#84BE84" rx="3" ry="3" style="stroke: #038048; stroke-width: 1.0;"/><text fill="#000000" font-family="sans-serif" font-size="11" lengthAdjust="spacingAndGlyphs" textLength="340" x="705" y="391.4292">getAllPacketsDuringTimespan(from: long, to: long): double[]</text><!--class SimpleValuePacket--><rect fill="#FEFECE" filter="url(#fj1hyqerddlk7)" height="112.0234" id="SimpleValuePacket" style="stroke: #A80036; stroke-width: 1.5;" width="319" x="728.5" y="458"/><ellipse cx="824.25" cy="474" fill="#ADD1B2" rx="11" ry="11" style="stroke: #A80036; stroke-width: 1.0;"/><path d="M827.2188,479.6406 Q826.6406,479.9375 826,480.0859 Q825.3594,480.2344 824.6563,480.2344 Q822.1563,480.2344 820.8359,478.5859 Q819.5156,476.9375 819.5156,473.8125 Q819.5156,470.6875 820.8359,469.0313 Q822.1563,467.375 824.6563,467.375 Q825.3594,467.375 826.0078,467.5313 Q826.6563,467.6875 827.2188,467.9844 L827.2188,470.7031 Q826.5938,470.125 826,469.8516 Q825.4063,469.5781 824.7813,469.5781 Q823.4375,469.5781 822.75,470.6484 Q822.0625,471.7188 822.0625,473.8125 Q822.0625,475.9063 822.75,476.9766 Q823.4375,478.0469 824.7813,478.0469 Q825.4063,478.0469 826,477.7734 Q826.5938,477.5 827.2188,476.9219 L827.2188,479.6406 Z "/><text fill="#000000" font-family="sans-serif" font-size="12" lengthAdjust="spacingAndGlyphs" textLength="119" x="844.75" y="478.1543">SimpleValuePacket</text><line style="stroke: #A80036; stroke-width: 1.5;" x1="729.5" x2="1046.5" y1="490" y2="490"/><rect fill="none" height="6" style="stroke: #C82930; stroke-width: 1.0;" width="6" x="736.5" y="498.9023"/><text fill="#000000" font-family="sans-serif" font-size="11" lengthAdjust="spacingAndGlyphs" textLength="76" x="748.5" y="504.2104">value: double</text><rect fill="none" height="6" style="stroke: #C82930; stroke-width: 1.0;" width="6" x="736.5" y="511.707"/><text fill="#000000" font-family="sans-serif" font-size="11" lengthAdjust="spacingAndGlyphs" textLength="94" x="748.5" y="517.0151">timeStamp: long</text><line style="stroke: #A80036; stroke-width: 1.5;" x1="729.5" x2="1046.5" y1="523.6094" y2="523.6094"/><ellipse cx="739.5" cy="535.5117" fill="#84BE84" rx="3" ry="3" style="stroke: #038048; stroke-width: 1.0;"/><text fill="#000000" font-family="sans-serif" font-size="11" lengthAdjust="spacingAndGlyphs" textLength="293" x="748.5" y="537.8198">SimpleValuePacket(value: double, timeStamp: long)</text><ellipse cx="739.5" cy="548.3164" fill="#84BE84" rx="3" ry="3" style="stroke: #038048; stroke-width: 1.0;"/><text fill="#000000" font-family="sans-serif" font-size="11" lengthAdjust="spacingAndGlyphs" textLength="103" x="748.5" y="550.6245">getValue(): double</text><ellipse cx="739.5" cy="561.1211" fill="#84BE84" rx="3" ry="3" style="stroke: #038048; stroke-width: 1.0;"/><text fill="#000000" font-family="sans-serif" font-size="11" lengthAdjust="spacingAndGlyphs" textLength="126" x="748.5" y="563.4292">getTimeSpamp(): long</text><!--class ConnectionTerminated--><rect fill="#FEFECE" filter="url(#fj1hyqerddlk7)" height="48" id="ConnectionTerminated" style="stroke: #A80036; stroke-width: 1.5;" width="174" x="6" y="490"/><ellipse cx="21" cy="506" fill="#ADD1B2" rx="11" ry="11" style="stroke: #A80036; stroke-width: 1.0;"/><path d="M23.9688,511.6406 Q23.3906,511.9375 22.75,512.0859 Q22.1094,512.2344 21.4063,512.2344 Q18.9063,512.2344 17.5859,510.5859 Q16.2656,508.9375 16.2656,505.8125 Q16.2656,502.6875 17.5859,501.0313 Q18.9063,499.375 21.4063,499.375 Q22.1094,499.375 22.7578,499.5313 Q23.4063,499.6875 23.9688,499.9844 L23.9688,502.7031 Q23.3438,502.125 22.75,501.8516 Q22.1563,501.5781 21.5313,501.5781 Q20.1875,501.5781 19.5,502.6484 Q18.8125,503.7188 18.8125,505.8125 Q18.8125,507.9063 19.5,508.9766 Q20.1875,510.0469 21.5313,510.0469 Q22.1563,510.0469 22.75,509.7734 Q23.3438,509.5 23.9688,508.9219 L23.9688,511.6406 Z "/><text fill="#000000" font-family="sans-serif" font-size="12" lengthAdjust="spacingAndGlyphs" textLength="142" x="35" y="510.1543">ConnectionTerminated</text><line style="stroke: #A80036; stroke-width: 1.5;" x1="7" x2="179" y1="522" y2="522"/><line style="stroke: #A80036; stroke-width: 1.5;" x1="7" x2="179" y1="530" y2="530"/><!--class Trigger--><rect fill="#FEFECE" filter="url(#fj1hyqerddlk7)" height="60.8047" id="Trigger" style="stroke: #A80036; stroke-width: 1.5;" width="370" x="261" y="311.5"/><ellipse cx="419.75" cy="327.5" fill="#B4A7E5" rx="11" ry="11" style="stroke: #A80036; stroke-width: 1.0;"/><path d="M415.6719,323.2656 L415.6719,321.1094 L423.0625,321.1094 L423.0625,323.2656 L420.5938,323.2656 L420.5938,331.3438 L423.0625,331.3438 L423.0625,333.5 L415.6719,333.5 L415.6719,331.3438 L418.1406,331.3438 L418.1406,323.2656 L415.6719,323.2656 Z "/><text fill="#000000" font-family="sans-serif" font-size="12" font-style="italic" lengthAdjust="spacingAndGlyphs" textLength="44" x="440.25" y="331.6543">Trigger</text><line style="stroke: #A80036; stroke-width: 1.5;" x1="262" x2="630" y1="343.5" y2="343.5"/><line style="stroke: #A80036; stroke-width: 1.5;" x1="262" x2="630" y1="351.5" y2="351.5"/><text fill="#000000" font-family="sans-serif" font-size="11" lengthAdjust="spacingAndGlyphs" textLength="358" x="267" y="365.7104">checkAndNotifyMRunManagement(mRunForward: MRunForward)</text><!--class TimeoutTrigger--><rect fill="#FEFECE" filter="url(#fj1hyqerddlk7)" height="48" id="TimeoutTrigger" style="stroke: #A80036; stroke-width: 1.5;" width="126" x="215" y="490"/><ellipse cx="230" cy="506" fill="#ADD1B2" rx="11" ry="11" style="stroke: #A80036; stroke-width: 1.0;"/><path d="M232.9688,511.6406 Q232.3906,511.9375 231.75,512.0859 Q231.1094,512.2344 230.4063,512.2344 Q227.9063,512.2344 226.5859,510.5859 Q225.2656,508.9375 225.2656,505.8125 Q225.2656,502.6875 226.5859,501.0313 Q227.9063,499.375 230.4063,499.375 Q231.1094,499.375 231.7578,499.5313 Q232.4063,499.6875 232.9688,499.9844 L232.9688,502.7031 Q232.3438,502.125 231.75,501.8516 Q231.1563,501.5781 230.5313,501.5781 Q229.1875,501.5781 228.5,502.6484 Q227.8125,503.7188 227.8125,505.8125 Q227.8125,507.9063 228.5,508.9766 Q229.1875,510.0469 230.5313,510.0469 Q231.1563,510.0469 231.75,509.7734 Q232.3438,509.5 232.9688,508.9219 L232.9688,511.6406 Z "/><text fill="#000000" font-family="sans-serif" font-size="12" lengthAdjust="spacingAndGlyphs" textLength="94" x="244" y="510.1543">TimeoutTrigger</text><line style="stroke: #A80036; stroke-width: 1.5;" x1="216" x2="340" y1="522" y2="522"/><line style="stroke: #A80036; stroke-width: 1.5;" x1="216" x2="340" y1="530" y2="530"/><!--class ErrorCodeTrigger--><rect fill="#FEFECE" filter="url(#fj1hyqerddlk7)" height="48" id="ErrorCodeTrigger" style="stroke: #A80036; stroke-width: 1.5;" width="139" x="376.5" y="490"/><ellipse cx="391.5" cy="506" fill="#ADD1B2" rx="11" ry="11" style="stroke: #A80036; stroke-width: 1.0;"/><path d="M394.4688,511.6406 Q393.8906,511.9375 393.25,512.0859 Q392.6094,512.2344 391.9063,512.2344 Q389.4063,512.2344 388.0859,510.5859 Q386.7656,508.9375 386.7656,505.8125 Q386.7656,502.6875 388.0859,501.0313 Q389.4063,499.375 391.9063,499.375 Q392.6094,499.375 393.2578,499.5313 Q393.9063,499.6875 394.4688,499.9844 L394.4688,502.7031 Q393.8438,502.125 393.25,501.8516 Q392.6563,501.5781 392.0313,501.5781 Q390.6875,501.5781 390,502.6484 Q389.3125,503.7188 389.3125,505.8125 Q389.3125,507.9063 390,508.9766 Q390.6875,510.0469 392.0313,510.0469 Q392.6563,510.0469 393.25,509.7734 Q393.8438,509.5 394.4688,508.9219 L394.4688,511.6406 Z "/><text fill="#000000" font-family="sans-serif" font-size="12" lengthAdjust="spacingAndGlyphs" textLength="107" x="405.5" y="510.1543">ErrorCodeTrigger</text><line style="stroke: #A80036; stroke-width: 1.5;" x1="377.5" x2="514.5" y1="522" y2="522"/><line style="stroke: #A80036; stroke-width: 1.5;" x1="377.5" x2="514.5" y1="530" y2="530"/><!--class DataSetComplete--><rect fill="#FEFECE" filter="url(#fj1hyqerddlk7)" height="48" id="DataSetComplete" style="stroke: #A80036; stroke-width: 1.5;" width="142" x="551" y="490"/><ellipse cx="566" cy="506" fill="#ADD1B2" rx="11" ry="11" style="stroke: #A80036; stroke-width: 1.0;"/><path d="M568.9688,511.6406 Q568.3906,511.9375 567.75,512.0859 Q567.1094,512.2344 566.4063,512.2344 Q563.9063,512.2344 562.5859,510.5859 Q561.2656,508.9375 561.2656,505.8125 Q561.2656,502.6875 562.5859,501.0313 Q563.9063,499.375 566.4063,499.375 Q567.1094,499.375 567.7578,499.5313 Q568.4063,499.6875 568.9688,499.9844 L568.9688,502.7031 Q568.3438,502.125 567.75,501.8516 Q567.1563,501.5781 566.5313,501.5781 Q565.1875,501.5781 564.5,502.6484 Q563.8125,503.7188 563.8125,505.8125 Q563.8125,507.9063 564.5,508.9766 Q565.1875,510.0469 566.5313,510.0469 Q567.1563,510.0469 567.75,509.7734 Q568.3438,509.5 568.9688,508.9219 L568.9688,511.6406 Z "/><text fill="#000000" font-family="sans-serif" font-size="12" lengthAdjust="spacingAndGlyphs" textLength="110" x="580" y="510.1543">DataSetComplete</text><line style="stroke: #A80036; stroke-width: 1.5;" x1="552" x2="692" y1="522" y2="522"/><line style="stroke: #A80036; stroke-width: 1.5;" x1="552" x2="692" y1="530" y2="530"/><!--class IMeasurementStreamListener--><rect fill="#FEFECE" filter="url(#fj1hyqerddlk7)" height="86.4141" id="IMeasurementStreamListener" style="stroke: #A80036; stroke-width: 1.5;" width="299" x="1086.5" y="299"/><ellipse cx="1139.75" cy="315" fill="#B4A7E5" rx="11" ry="11" style="stroke: #A80036; stroke-width: 1.0;"/><path d="M1135.6719,310.7656 L1135.6719,308.6094 L1143.0625,308.6094 L1143.0625,310.7656 L1140.5938,310.7656 L1140.5938,318.8438 L1143.0625,318.8438 L1143.0625,321 L1135.6719,321 L1135.6719,318.8438 L1138.1406,318.8438 L1138.1406,310.7656 L1135.6719,310.7656 Z "/><text fill="#000000" font-family="sans-serif" font-size="12" font-style="italic" lengthAdjust="spacingAndGlyphs" textLength="184" x="1160.25" y="319.1543">IMeasurementStreamListener</text><line style="stroke: #A80036; stroke-width: 1.5;" x1="1087.5" x2="1384.5" y1="331" y2="331"/><line style="stroke: #A80036; stroke-width: 1.5;" x1="1087.5" x2="1384.5" y1="339" y2="339"/><ellipse cx="1097.5" cy="350.9023" fill="#84BE84" rx="3" ry="3" style="stroke: #038048; stroke-width: 1.0;"/><text fill="#000000" font-family="sans-serif" font-size="11" lengthAdjust="spacingAndGlyphs" textLength="273" x="1106.5" y="353.2104">receiveDate(channelId: String, timeStamp: long,</text><text fill="#000000" font-family="sans-serif" font-size="11" lengthAdjust="spacingAndGlyphs" textLength="111" x="1106.5" y="366.0151">value: double): void</text><ellipse cx="1097.5" cy="376.5117" fill="#84BE84" rx="3" ry="3" style="stroke: #038048; stroke-width: 1.0;"/><text fill="#000000" font-family="sans-serif" font-size="11" lengthAdjust="spacingAndGlyphs" textLength="165" x="1106.5" y="378.8198">connectionTerminated(): void</text><!--class TimerTask--><rect fill="#FEFECE" filter="url(#fj1hyqerddlk7)" height="60.8047" id="TimerTask" style="stroke: #A80036; stroke-width: 1.5;" width="94" x="1421" y="311.5"/><ellipse cx="1436" cy="327.5" fill="#B4A7E5" rx="11" ry="11" style="stroke: #A80036; stroke-width: 1.0;"/><path d="M1431.9219,323.2656 L1431.9219,321.1094 L1439.3125,321.1094 L1439.3125,323.2656 L1436.8438,323.2656 L1436.8438,331.3438 L1439.3125,331.3438 L1439.3125,333.5 L1431.9219,333.5 L1431.9219,331.3438 L1434.3906,331.3438 L1434.3906,323.2656 L1431.9219,323.2656 Z "/><text fill="#000000" font-family="sans-serif" font-size="12" font-style="italic" lengthAdjust="spacingAndGlyphs" textLength="62" x="1450" y="331.6543">TimerTask</text><line style="stroke: #A80036; stroke-width: 1.5;" x1="1422" x2="1514" y1="343.5" y2="343.5"/><line style="stroke: #A80036; stroke-width: 1.5;" x1="1422" x2="1514" y1="351.5" y2="351.5"/><ellipse cx="1432" cy="363.4023" fill="#84BE84" rx="3" ry="3" style="stroke: #038048; stroke-width: 1.0;"/><text fill="#000000" font-family="sans-serif" font-size="11" lengthAdjust="spacingAndGlyphs" textLength="58" x="1441" y="365.7104">run(): void</text><!--class MRunForward--><rect fill="#FEFECE" filter="url(#fj1hyqerddlk7)" height="112.0234" id="MRunForward" style="stroke: #A80036; stroke-width: 1.5;" width="439" x="1646.5" y="61"/><ellipse cx="1819.25" cy="77" fill="#B4A7E5" rx="11" ry="11" style="stroke: #A80036; stroke-width: 1.0;"/><path d="M1815.1719,72.7656 L1815.1719,70.6094 L1822.5625,70.6094 L1822.5625,72.7656 L1820.0938,72.7656 L1820.0938,80.8438 L1822.5625,80.8438 L1822.5625,83 L1815.1719,83 L1815.1719,80.8438 L1817.6406,80.8438 L1817.6406,72.7656 L1815.1719,72.7656 Z "/><text fill="#000000" font-family="sans-serif" font-size="12" font-style="italic" lengthAdjust="spacingAndGlyphs" textLength="85" x="1839.75" y="81.1543">MRunForward</text><line style="stroke: #A80036; stroke-width: 1.5;" x1="1647.5" x2="2084.5" y1="93" y2="93"/><line style="stroke: #A80036; stroke-width: 1.5;" x1="1647.5" x2="2084.5" y1="101" y2="101"/><ellipse cx="1657.5" cy="112.9023" fill="#84BE84" rx="3" ry="3" style="stroke: #038048; stroke-width: 1.0;"/><text fill="#000000" font-family="sans-serif" font-size="11" lengthAdjust="spacingAndGlyphs" textLength="104" x="1666.5" y="115.2104">justWaiting():  void</text><ellipse cx="1657.5" cy="125.707" fill="#84BE84" rx="3" ry="3" style="stroke: #038048; stroke-width: 1.0;"/><text fill="#000000" font-family="sans-serif" font-size="11" lengthAdjust="spacingAndGlyphs" textLength="301" x="1666.5" y="128.0151">indicateError(inChannelId: String, errorCode: double)</text><ellipse cx="1657.5" cy="138.5117" fill="#84BE84" rx="3" ry="3" style="stroke: #038048; stroke-width: 1.0;"/><text fill="#000000" font-family="sans-serif" font-size="11" lengthAdjust="spacingAndGlyphs" textLength="129" x="1666.5" y="140.8198">indicateTimeout(): void</text><ellipse cx="1657.5" cy="151.3164" fill="#84BE84" rx="3" ry="3" style="stroke: #038048; stroke-width: 1.0;"/><text fill="#000000" font-family="sans-serif" font-size="11" lengthAdjust="spacingAndGlyphs" textLength="211" x="1666.5" y="153.6245">indicateConnectionTerminated(): void</text><ellipse cx="1657.5" cy="164.1211" fill="#84BE84" rx="3" ry="3" style="stroke: #038048; stroke-width: 1.0;"/><text fill="#000000" font-family="sans-serif" font-size="11" lengthAdjust="spacingAndGlyphs" textLength="413" x="1666.5" y="166.4292">dispatchCompletePacketSet(completePacketSet: EnhancedValuePacket[])</text><!--class MRunInfo--><rect fill="#FEFECE" filter="url(#fj1hyqerddlk7)" height="86.4141" id="MRunInfo" style="stroke: #A80036; stroke-width: 1.5;" width="279" x="2120.5" y="74"/><ellipse cx="2226.75" cy="90" fill="#B4A7E5" rx="11" ry="11" style="stroke: #A80036; stroke-width: 1.0;"/><path d="M2222.6719,85.7656 L2222.6719,83.6094 L2230.0625,83.6094 L2230.0625,85.7656 L2227.5938,85.7656 L2227.5938,93.8438 L2230.0625,93.8438 L2230.0625,96 L2222.6719,96 L2222.6719,93.8438 L2225.1406,93.8438 L2225.1406,85.7656 L2222.6719,85.7656 Z "/><text fill="#000000" font-family="sans-serif" font-size="12" font-style="italic" lengthAdjust="spacingAndGlyphs" textLength="58" x="2247.25" y="94.1543">MRunInfo</text><line style="stroke: #A80036; stroke-width: 1.5;" x1="2121.5" x2="2398.5" y1="106" y2="106"/><line style="stroke: #A80036; stroke-width: 1.5;" x1="2121.5" x2="2398.5" y1="114" y2="114"/><ellipse cx="2131.5" cy="125.9023" fill="#84BE84" rx="3" ry="3" style="stroke: #038048; stroke-width: 1.0;"/><text fill="#000000" font-family="sans-serif" font-size="11" lengthAdjust="spacingAndGlyphs" textLength="162" x="2140.5" y="128.2104">getAllInChannelIds(): String[]</text><ellipse cx="2131.5" cy="138.707" fill="#84BE84" rx="3" ry="3" style="stroke: #038048; stroke-width: 1.0;"/><text fill="#000000" font-family="sans-serif" font-size="11" lengthAdjust="spacingAndGlyphs" textLength="253" x="2140.5" y="141.0151">getErrorCodes(inChannelId: String): double[]</text><ellipse cx="2131.5" cy="151.5117" fill="#84BE84" rx="3" ry="3" style="stroke: #038048; stroke-width: 1.0;"/><text fill="#000000" font-family="sans-serif" font-size="11" lengthAdjust="spacingAndGlyphs" textLength="141" x="2140.5" y="153.8198">getTimeoutOption(): long</text><!--link Trigger to ConnectionTerminated--><path d="M360.966,380.905 C312.596,402.807 251.064,431.244 197,458 C176.589,468.101 154.229,479.8371 135.49,489.8672 " fill="none" id="Trigger-ConnectionTerminated" style="stroke: #A80036; stroke-width: 1.0; stroke-dasharray: 7.0,7.0;"/><polygon fill="none" points="358.375,374.394,379.484,372.547,364.134,387.155,358.375,374.394" style="stroke: #A80036; stroke-width: 1.0;"/><!--link Trigger to TimeoutTrigger--><path d="M402.633,386.883 C370.076,419.827 326.792,463.628 300.739,489.9902 " fill="none" id="Trigger-TimeoutTrigger" style="stroke: #A80036; stroke-width: 1.0; stroke-dasharray: 7.0,7.0;"/><polygon fill="none" points="397.699,381.917,416.737,372.612,407.657,391.758,397.699,381.917" style="stroke: #A80036; stroke-width: 1.0;"/><!--link Trigger to ErrorCodeTrigger--><path d="M446,392.776 C446,424.897 446,465.171 446,489.9902 " fill="none" id="Trigger-ErrorCodeTrigger" style="stroke: #A80036; stroke-width: 1.0; stroke-dasharray: 7.0,7.0;"/><polygon fill="none" points="439,392.612,446,372.612,453,392.612,439,392.612" style="stroke: #A80036; stroke-width: 1.0;"/><!--link Trigger to DataSetComplete--><path d="M491.432,386.883 C525.539,419.827 570.885,463.628 598.178,489.9902 " fill="none" id="Trigger-DataSetComplete" style="stroke: #A80036; stroke-width: 1.0; stroke-dasharray: 7.0,7.0;"/><polygon fill="none" points="486.179,391.541,476.657,372.612,495.905,381.472,486.179,391.541" style="stroke: #A80036; stroke-width: 1.0;"/><!--link ModelActivityManagement to IMeasurementStreamListener--><path d="M1095.5,226.234 C1120.97,247.04 1146.63,267.998 1168.92,286.207 " fill="none" id="ModelActivityManagement-IMeasurementStreamListener" style="stroke: #A80036; stroke-width: 1.0; stroke-dasharray: 7.0,7.0;"/><polygon fill="none" points="1173.45,280.864,1184.51,298.938,1164.59,291.707,1173.45,280.864" style="stroke: #A80036; stroke-width: 1.0;"/><!--link ModelActivityManagement to TimerTask--><path d="M1195.04,189.931 C1264.2,215.728 1338.67,248.004 1403,286 C1409.26,289.699 1415.52,294.008 1421.54,298.555 " fill="none" id="ModelActivityManagement-TimerTask" style="stroke: #A80036; stroke-width: 1.0; stroke-dasharray: 7.0,7.0;"/><polygon fill="none" points="1426.11,293.251,1437.23,311.29,1417.29,304.12,1426.11,293.251" style="stroke: #A80036; stroke-width: 1.0;"/><!--link Timer to TimerTask--><path d="M1468,160.207 C1468,202.502 1468,266.837 1468,306.271 " fill="none" id="Timer-TimerTask" style="stroke: #A80036; stroke-width: 1.0;"/><polygon fill="#A80036" points="1468,311.428,1472,302.428,1468,306.428,1464,302.428,1468,311.428" style="stroke: #A80036; stroke-width: 1.0;"/><text fill="#000000" font-family="sans-serif" font-size="13" lengthAdjust="spacingAndGlyphs" textLength="8" x="1459.125" y="300.2025">1</text><!--link ModelActivityManagement to BufferForOneSensorInChannel--><path d="M916.891,226.234 C908.854,245.101 900.763,264.092 893.541,281.045 " fill="none" id="ModelActivityManagement-BufferForOneSensorInChannel" style="stroke: #A80036; stroke-width: 1.0;"/><polygon fill="#A80036" points="891.528,285.771,898.7358,279.0592,893.4879,281.1711,891.376,275.9233,891.528,285.771" style="stroke: #A80036; stroke-width: 1.0;"/><text fill="#000000" font-family="sans-serif" font-size="13" lengthAdjust="spacingAndGlyphs" textLength="7" x="886.9689" y="275.0776">*</text><!--link BufferForOneSensorInChannel to SimpleValuePacket--><path d="M874.493,398.194 C876.547,415.652 878.827,435.031 880.92,452.82 " fill="none" id="BufferForOneSensorInChannel-SimpleValuePacket" style="stroke: #A80036; stroke-width: 1.0; stroke-dasharray: 7.0,7.0;"/><polygon fill="#A80036" points="881.505,457.792,884.4259,448.3862,880.9207,452.8263,876.4807,449.3211,881.505,457.792" style="stroke: #A80036; stroke-width: 1.0;"/><!--link ModelActivityManagement to Trigger--><path d="M730.965,218.085 C654.463,251.083 574.837,285.428 519.267,309.397 " fill="none" id="ModelActivityManagement-Trigger" style="stroke: #A80036; stroke-width: 1.0;"/><polygon fill="#A80036" points="514.638,311.394,524.4863,311.5031,519.2293,309.4141,521.3184,304.1571,514.638,311.394" style="stroke: #A80036; stroke-width: 1.0;"/><text fill="#000000" font-family="sans-serif" font-size="13" lengthAdjust="spacingAndGlyphs" textLength="7" x="521.0727" y="300.6354">*</text><!--
@startuml

class ModelActivityManagement {
	+ ModelActivityManagement(initData: MRunInfo, listenerAtModel: MRunForward )
	- addBufferForOneSensorInChannel(SensorId: String)
	- addTrigger(trigger: Trigger): void
	..
	+ run(): void
	- setCurrentTime(): void
	- checkTriggers(): void
	..
	+ startRepeatedTimer(): void
	+ stopRepeatedTimer(): void
	..
	+ receiveMDataSet(channelId: String, timeStamp: long, value: double): void
	+ connectionTerminated(): void


}

class Timer {
	-period: long
	+schedule(timerTask: TimerTask, period: long)
	+cancel(): void
}

class BufferForOneSensorInChannel {
	-sensorInChannelId: Stirng
	-buffer: Queue<SimpleValuePacket>

	+getInChannelId(): String
	+addPacket(timeStamp: long, value: double)
	+getAllPacketsDuringTimespan(from: long, to: long): double[]
}

class SimpleValuePacket	{
	-value: double
	-timeStamp: long
	+SimpleValuePacket(value: double, timeStamp: long)
	+getValue(): double
	+getTimeSpamp(): long
}
	
ConnectionTerminated .up.|> Trigger
TimeoutTrigger .up.|> Trigger
ErrorCodeTrigger .up.|> Trigger
DataSetComplete .up.|> Trigger

ModelActivityManagement ..|> IMeasurementStreamListener
ModelActivityManagement ..|> TimerTask
Timer - -> "1" TimerTask
ModelActivityManagement - -> "*" BufferForOneSensorInChannel
BufferForOneSensorInChannel ..> SimpleValuePacket
ModelActivityManagement - -> "*" Trigger

interface Trigger {
	checkAndNotifyMRunManagement(mRunForward: MRunForward)
}

interface MRunForward {
	+justWaiting():  void
	+indicateError(inChannelId: String, errorCode: double)
	+indicateTimeout(): void
	+indicateConnectionTerminated(): void
	+dispatchCompletePacketSet(completePacketSet: EnhancedValuePacket[])
}

interface MRunInfo {
	+getAllInChannelIds(): String[]
	+getErrorCodes(inChannelId: String): double[]
	+getTimeoutOption(): long
}

interface IMeasurementStreamListener {
	+ receiveDate(channelId: String, timeStamp: long, 
	    value: double): void
	+connectionTerminated(): void
}

interface TimerTask {
	+run(): void
}

@enduml

PlantUML version 1.2019.06(Fri May 24 19:10:25 CEST 2019)
(GPL source distribution)
Java Runtime: OpenJDK Runtime Environment
JVM: OpenJDK 64-Bit Server VM
Java Version: 1.8.0_212-8u212-b03-0ubuntu1.16.04.1-b03
Operating System: Linux
OS Version: 4.15.0-54-generic
Default Encoding: UTF-8
Language: de
Country: DE
--></g></svg>