<?xml version="1.0" encoding="UTF-8" standalone="no"?><svg xmlns="http://www.w3.org/2000/svg" xmlns:xlink="http://www.w3.org/1999/xlink" contentScriptType="application/ecmascript" contentStyleType="text/css" height="64.76px" preserveAspectRatio="none" style="width:158px;height:64px;" version="1.1" viewBox="0 0 158 64" width="158.72px" zoomAndPan="magnify"><defs><filter height="300%" id="f1buf8b520cgfc" width="300%" x="-1" y="-1"><feGaussianBlur result="blurOut" stdDeviation="0.08"/><feColorMatrix in="blurOut" result="blurOut2" type="matrix" values="0 0 0 0 0 0 0 0 0 0 0 0 0 0 0 0 0 0 .4 0"/><feOffset dx="0.16" dy="0.16" in="blurOut2" result="blurOut3"/><feBlend in="SourceGraphic" in2="blurOut3" mode="normal"/></filter></defs><g><!--cluster Cache--><polygon fill="#FFFFFF" filter="url(#f1buf8b520cgfc)" points="0.88,0.96,3.72,0.96,4,2.3069,141.8,2.3069,141.8,64.28,0.88,64.28,0.88,0.96" style="stroke: #000000; stroke-width: 0.06;"/><line style="stroke: #000000; stroke-width: 0.06;" x1="0.88" x2="4" y1="2.3069" y2="2.3069"/><text fill="#000000" font-family="sans-serif" font-size="0.88" font-weight="bold" lengthAdjust="spacingAndGlyphs" textLength="2.6" x="1.04" y="1.9535">Cache</text><!--cluster Model--><polygon fill="#FFFFFF" filter="url(#f1buf8b520cgfc)" points="142.76,45.12,145.4,45.12,145.68,46.4669,157.84,46.4669,157.84,49.76,142.76,49.76,142.76,45.12" style="stroke: #000000; stroke-width: 0.06;"/><line style="stroke: #000000; stroke-width: 0.06;" x1="142.76" x2="145.68" y1="46.4669" y2="46.4669"/><text fill="#000000" font-family="sans-serif" font-size="0.88" font-weight="bold" lengthAdjust="spacingAndGlyphs" textLength="2.4" x="142.92" y="46.1135">Model</text><!--class Cache.MStreamListener--><rect fill="#FEFECE" filter="url(#f1buf8b520cgfc)" height="6.5744" id="Cache.MStreamListener" style="stroke: #A80036; stroke-width: 0.06;" width="29.08" x="68.1" y="33.02"/><ellipse cx="79.15" cy="33.7734" fill="#ADD1B2" rx="0.52" ry="0.52" style="stroke: #A80036; stroke-width: 0.04;"/><path d="M79.2525,33.5447 Q79.2606,33.5341 79.2703,33.5284 Q79.28,33.5228 79.2906,33.5228 Q79.31,33.5228 79.3225,33.5359 Q79.335,33.5491 79.335,33.5809 L79.335,33.6559 Q79.335,33.6878 79.3225,33.7013 Q79.31,33.7147 79.2906,33.7147 Q79.2731,33.7147 79.2625,33.7047 Q79.2519,33.6947 79.2469,33.6678 Q79.2438,33.6497 79.2344,33.6397 Q79.2169,33.6203 79.1853,33.6088 Q79.1538,33.5972 79.1219,33.5972 Q79.0825,33.5972 79.0494,33.6144 Q79.0163,33.6316 78.9909,33.6703 Q78.9656,33.7091 78.9656,33.7622 L78.9656,33.8197 Q78.9656,33.8834 79.0119,33.9259 Q79.0581,33.9684 79.14,33.9684 Q79.1888,33.9684 79.2231,33.9547 Q79.2425,33.9472 79.265,33.9247 Q79.2788,33.9109 79.2866,33.9066 Q79.2944,33.9022 79.3044,33.9022 Q79.3219,33.9022 79.3353,33.9156 Q79.3488,33.9291 79.3488,33.9472 Q79.3488,33.9653 79.3306,33.9859 Q79.3044,34.0159 79.2631,34.0328 Q79.2075,34.0566 79.1406,34.0566 Q79.0625,34.0566 78.9994,34.0241 Q78.9488,33.9984 78.9131,33.9428 Q78.8775,33.8872 78.8775,33.8216 L78.8775,33.7616 Q78.8775,33.6928 78.9094,33.6334 Q78.9413,33.5741 78.9981,33.5416 Q79.055,33.5091 79.1188,33.5091 Q79.1569,33.5091 79.19,33.5181 Q79.2231,33.5272 79.2525,33.5447 Z "/><text fill="#000000" font-family="sans-serif" font-size="0.88" lengthAdjust="spacingAndGlyphs" textLength="6.6" x="80.09" y="34.1335">MStreamListener</text><line style="stroke: #A80036; stroke-width: 0.06;" x1="68.14" x2="97.14" y1="34.5269" y2="34.5269"/><line style="stroke: #A80036; stroke-width: 0.06;" x1="68.14" x2="97.14" y1="34.8469" y2="34.8469"/><ellipse cx="68.54" cy="35.6203" fill="#84BE84" rx="0.12" ry="0.12" style="stroke: #038048; stroke-width: 0.04;"/><text fill="#000000" font-family="sans-serif" font-size="0.88" lengthAdjust="spacingAndGlyphs" textLength="12.4" x="68.98" y="35.9204">MStreamListener(cache: Cache)</text><ellipse cx="68.54" cy="36.7272" fill="#84BE84" rx="0.12" ry="0.12" style="stroke: #038048; stroke-width: 0.04;"/><text fill="#000000" font-family="sans-serif" font-size="0.88" lengthAdjust="spacingAndGlyphs" textLength="26.6" x="68.98" y="37.0273">addConnectinTerminatedAction(action: ConnectionTerminatedAction)</text><ellipse cx="68.54" cy="37.8341" fill="#84BE84" rx="0.12" ry="0.12" style="stroke: #038048; stroke-width: 0.04;"/><text fill="#000000" font-family="sans-serif" font-size="0.88" lengthAdjust="spacingAndGlyphs" textLength="27.96" x="68.98" y="38.1341">receiveMDataSet(channelId: String, timeStamp: long, value: double): void</text><ellipse cx="68.54" cy="38.9409" fill="#84BE84" rx="0.12" ry="0.12" style="stroke: #038048; stroke-width: 0.04;"/><text fill="#000000" font-family="sans-serif" font-size="0.88" lengthAdjust="spacingAndGlyphs" textLength="17.52" x="68.98" y="39.241">connectionTerminated(channelId: String): void</text><!--class Cache.MRunTiming--><rect fill="#FEFECE" filter="url(#f1buf8b520cgfc)" height="18.2831" id="Cache.MRunTiming" style="stroke: #A80036; stroke-width: 0.06;" width="25.4" x="61.94" y="10.68"/><ellipse cx="72.01" cy="11.4334" fill="#ADD1B2" rx="0.52" ry="0.52" style="stroke: #A80036; stroke-width: 0.04;"/><path d="M72.1125,11.2047 Q72.1206,11.1941 72.1303,11.1884 Q72.14,11.1828 72.1506,11.1828 Q72.17,11.1828 72.1825,11.1959 Q72.195,11.2091 72.195,11.2409 L72.195,11.3159 Q72.195,11.3478 72.1825,11.3613 Q72.17,11.3747 72.1506,11.3747 Q72.1331,11.3747 72.1225,11.3647 Q72.1119,11.3547 72.1069,11.3278 Q72.1038,11.3097 72.0944,11.2997 Q72.0769,11.2803 72.0453,11.2688 Q72.0138,11.2572 71.9819,11.2572 Q71.9425,11.2572 71.9094,11.2744 Q71.8763,11.2916 71.8509,11.3303 Q71.8256,11.3691 71.8256,11.4222 L71.8256,11.4797 Q71.8256,11.5434 71.8719,11.5859 Q71.9181,11.6284 72,11.6284 Q72.0488,11.6284 72.0831,11.6147 Q72.1025,11.6072 72.125,11.5847 Q72.1388,11.5709 72.1466,11.5666 Q72.1544,11.5622 72.1644,11.5622 Q72.1819,11.5622 72.1953,11.5756 Q72.2088,11.5891 72.2088,11.6072 Q72.2088,11.6253 72.1906,11.6459 Q72.1644,11.6759 72.1231,11.6928 Q72.0675,11.7166 72.0006,11.7166 Q71.9225,11.7166 71.8594,11.6841 Q71.8088,11.6584 71.7731,11.6028 Q71.7375,11.5472 71.7375,11.4816 L71.7375,11.4216 Q71.7375,11.3528 71.7694,11.2934 Q71.8013,11.2341 71.8581,11.2016 Q71.915,11.1691 71.9788,11.1691 Q72.0169,11.1691 72.05,11.1781 Q72.0831,11.1872 72.1125,11.2047 Z "/><text fill="#000000" font-family="sans-serif" font-size="0.88" lengthAdjust="spacingAndGlyphs" textLength="4.88" x="72.95" y="11.7935">MRunTiming</text><line style="stroke: #A80036; stroke-width: 0.06;" x1="61.98" x2="87.3" y1="12.1869" y2="12.1869"/><rect fill="none" height="0.24" style="stroke: #C82930; stroke-width: 0.04;" width="0.24" x="62.26" y="12.8403"/><text fill="#000000" font-family="sans-serif" font-size="0.88" lengthAdjust="spacingAndGlyphs" textLength="9.12" x="62.82" y="13.2604">replayTimePointer: long</text><rect fill="none" height="0.24" style="stroke: #C82930; stroke-width: 0.04;" width="0.24" x="62.26" y="13.9472"/><text fill="#000000" font-family="sans-serif" font-size="0.88" lengthAdjust="spacingAndGlyphs" textLength="6.6" x="62.82" y="14.3673">endFlag: boolean</text><line style="stroke: #A80036; stroke-width: 0.04;" x1="61.98" x2="87.3" y1="14.7206" y2="14.7206"/><ellipse cx="62.38" cy="15.4941" fill="#84BE84" rx="0.12" ry="0.12" style="stroke: #038048; stroke-width: 0.04;"/><text fill="#000000" font-family="sans-serif" font-size="0.88" lengthAdjust="spacingAndGlyphs" textLength="12.6" x="62.82" y="15.7941">MRunTiming(initData: MRunInfo)</text><rect fill="#F24D5C" height="0.24" style="stroke: #C82930; stroke-width: 0.04;" width="0.24" x="62.26" y="16.4809"/><text fill="#000000" font-family="sans-serif" font-size="0.88" lengthAdjust="spacingAndGlyphs" textLength="8.4" x="62.82" y="16.901">createCache(): Cache</text><rect fill="#F24D5C" height="0.24" style="stroke: #C82930; stroke-width: 0.04;" width="0.24" x="62.26" y="17.5878"/><text fill="#000000" font-family="sans-serif" font-size="0.88" lengthAdjust="spacingAndGlyphs" textLength="20" x="62.82" y="18.0079">addBufferForOneSensorInChannel(SensorId: String)</text><rect fill="#F24D5C" height="0.24" style="stroke: #C82930; stroke-width: 0.04;" width="0.24" x="62.26" y="18.6947"/><text fill="#000000" font-family="sans-serif" font-size="0.88" lengthAdjust="spacingAndGlyphs" textLength="24.28" x="62.82" y="19.1148">addCheckAndNotifyAction(action: CheckAndNotifyAction): void</text><ellipse cx="62.38" cy="19.9216" fill="#84BE84" rx="0.12" ry="0.12" style="stroke: #038048; stroke-width: 0.04;"/><text fill="#000000" font-family="sans-serif" font-size="0.88" lengthAdjust="spacingAndGlyphs" textLength="15.44" x="62.82" y="20.2216">getMStreamListener(): MStreamListener</text><line style="stroke: #A80036; stroke-width: 0.04; stroke-dasharray: 1.0,2.0;" x1="61.98" x2="87.3" y1="20.575" y2="20.575"/><ellipse cx="62.38" cy="21.3484" fill="#84BE84" rx="0.12" ry="0.12" style="stroke: #038048; stroke-width: 0.04;"/><text fill="#000000" font-family="sans-serif" font-size="0.88" lengthAdjust="spacingAndGlyphs" textLength="16.08" x="62.82" y="21.6485">addMRunListener(listener: IMRunListener)</text><ellipse cx="62.38" cy="22.4553" fill="#84BE84" rx="0.12" ry="0.12" style="stroke: #038048; stroke-width: 0.04;"/><text fill="#000000" font-family="sans-serif" font-size="0.88" lengthAdjust="spacingAndGlyphs" textLength="17.56" x="62.82" y="22.7554">removeMRunListener(listener: IMRunListener)</text><ellipse cx="62.38" cy="23.5622" fill="#84BE84" rx="0.12" ry="0.12" style="stroke: #038048; stroke-width: 0.04;"/><text fill="#000000" font-family="sans-serif" font-size="0.88" lengthAdjust="spacingAndGlyphs" textLength="10.36" x="62.82" y="23.8623">startRepeatedTimer(): void</text><ellipse cx="62.38" cy="24.6691" fill="#84BE84" rx="0.12" ry="0.12" style="stroke: #038048; stroke-width: 0.04;"/><text fill="#000000" font-family="sans-serif" font-size="0.88" lengthAdjust="spacingAndGlyphs" textLength="10.36" x="62.82" y="24.9691">stopRepeatedTimer(): void</text><line style="stroke: #A80036; stroke-width: 0.04; stroke-dasharray: 1.0,2.0;" x1="61.98" x2="87.3" y1="25.3225" y2="25.3225"/><ellipse cx="62.38" cy="26.0959" fill="#84BE84" rx="0.12" ry="0.12" style="stroke: #038048; stroke-width: 0.04;"/><text fill="#000000" font-family="sans-serif" font-size="0.88" lengthAdjust="spacingAndGlyphs" textLength="3.84" x="62.82" y="26.396">run(): void</text><rect fill="#F24D5C" height="0.24" style="stroke: #C82930; stroke-width: 0.04;" width="0.24" x="62.26" y="27.0828"/><text fill="#000000" font-family="sans-serif" font-size="0.88" lengthAdjust="spacingAndGlyphs" textLength="8.6" x="62.82" y="27.5029">setCurrentTime(): void</text><rect fill="#F24D5C" height="0.24" style="stroke: #C82930; stroke-width: 0.04;" width="0.24" x="62.26" y="28.1897"/><text fill="#000000" font-family="sans-serif" font-size="0.88" lengthAdjust="spacingAndGlyphs" textLength="7.76" x="62.82" y="28.6098">checkActions(): void</text><!--class Cache.Timer--><rect fill="#FEFECE" filter="url(#f1buf8b520cgfc)" height="5.4675" id="Cache.Timer" style="stroke: #A80036; stroke-width: 0.06;" width="18.44" x="43.98" y="2.8"/><ellipse cx="51.89" cy="3.5534" fill="#ADD1B2" rx="0.52" ry="0.52" style="stroke: #A80036; stroke-width: 0.04;"/><path d="M51.9925,3.3247 Q52.0006,3.3141 52.0103,3.3084 Q52.02,3.3028 52.0306,3.3028 Q52.05,3.3028 52.0625,3.3159 Q52.075,3.3291 52.075,3.3609 L52.075,3.4359 Q52.075,3.4678 52.0625,3.4813 Q52.05,3.4947 52.0306,3.4947 Q52.0131,3.4947 52.0025,3.4847 Q51.9919,3.4747 51.9869,3.4478 Q51.9838,3.4297 51.9744,3.4197 Q51.9569,3.4003 51.9253,3.3888 Q51.8938,3.3772 51.8619,3.3772 Q51.8225,3.3772 51.7894,3.3944 Q51.7563,3.4116 51.7309,3.4503 Q51.7056,3.4891 51.7056,3.5422 L51.7056,3.5997 Q51.7056,3.6634 51.7519,3.7059 Q51.7981,3.7484 51.88,3.7484 Q51.9288,3.7484 51.9631,3.7347 Q51.9825,3.7272 52.005,3.7047 Q52.0188,3.6909 52.0266,3.6866 Q52.0344,3.6822 52.0444,3.6822 Q52.0619,3.6822 52.0753,3.6956 Q52.0888,3.7091 52.0888,3.7272 Q52.0888,3.7453 52.0706,3.7659 Q52.0444,3.7959 52.0031,3.8128 Q51.9475,3.8366 51.8806,3.8366 Q51.8025,3.8366 51.7394,3.8041 Q51.6888,3.7784 51.6531,3.7228 Q51.6175,3.6672 51.6175,3.6016 L51.6175,3.5416 Q51.6175,3.4728 51.6494,3.4134 Q51.6813,3.3541 51.7381,3.3216 Q51.795,3.2891 51.8588,3.2891 Q51.8969,3.2891 51.93,3.2981 Q51.9631,3.3072 51.9925,3.3247 Z "/><text fill="#000000" font-family="sans-serif" font-size="0.88" lengthAdjust="spacingAndGlyphs" textLength="2.24" x="52.83" y="3.9135">Timer</text><line style="stroke: #A80036; stroke-width: 0.06;" x1="44.02" x2="62.38" y1="4.3069" y2="4.3069"/><rect fill="none" height="0.24" style="stroke: #C82930; stroke-width: 0.04;" width="0.24" x="44.3" y="4.9603"/><text fill="#000000" font-family="sans-serif" font-size="0.88" lengthAdjust="spacingAndGlyphs" textLength="4.52" x="44.86" y="5.3804">period: long</text><line style="stroke: #A80036; stroke-width: 0.06;" x1="44.02" x2="62.38" y1="5.7338" y2="5.7338"/><ellipse cx="44.42" cy="6.5072" fill="#84BE84" rx="0.12" ry="0.12" style="stroke: #038048; stroke-width: 0.04;"/><text fill="#000000" font-family="sans-serif" font-size="0.88" lengthAdjust="spacingAndGlyphs" textLength="17.32" x="44.86" y="6.8073">schedule(timerTask: TimerTask, period: long)</text><ellipse cx="44.42" cy="7.6141" fill="#84BE84" rx="0.12" ry="0.12" style="stroke: #038048; stroke-width: 0.04;"/><text fill="#000000" font-family="sans-serif" font-size="0.88" lengthAdjust="spacingAndGlyphs" textLength="6.56" x="44.86" y="7.9141">cancel(): boolean</text><!--class Cache.Cache--><rect fill="#FEFECE" filter="url(#f1buf8b520cgfc)" height="8.7881" id="Cache.Cache" style="stroke: #A80036; stroke-width: 0.06;" width="29.88" x="77.82" y="43.64"/><ellipse cx="91.33" cy="44.3934" fill="#ADD1B2" rx="0.52" ry="0.52" style="stroke: #A80036; stroke-width: 0.04;"/><path d="M91.4325,44.1647 Q91.4406,44.1541 91.4503,44.1484 Q91.46,44.1428 91.4706,44.1428 Q91.49,44.1428 91.5025,44.1559 Q91.515,44.1691 91.515,44.2009 L91.515,44.2759 Q91.515,44.3078 91.5025,44.3213 Q91.49,44.3347 91.4706,44.3347 Q91.4531,44.3347 91.4425,44.3247 Q91.4319,44.3147 91.4269,44.2878 Q91.4238,44.2697 91.4144,44.2597 Q91.3969,44.2403 91.3653,44.2288 Q91.3338,44.2172 91.3019,44.2172 Q91.2625,44.2172 91.2294,44.2344 Q91.1963,44.2516 91.1709,44.2903 Q91.1456,44.3291 91.1456,44.3822 L91.1456,44.4397 Q91.1456,44.5034 91.1919,44.5459 Q91.2381,44.5884 91.32,44.5884 Q91.3688,44.5884 91.4031,44.5747 Q91.4225,44.5672 91.445,44.5447 Q91.4588,44.5309 91.4666,44.5266 Q91.4744,44.5222 91.4844,44.5222 Q91.5019,44.5222 91.5153,44.5356 Q91.5288,44.5491 91.5288,44.5672 Q91.5288,44.5853 91.5106,44.6059 Q91.4844,44.6359 91.4431,44.6528 Q91.3875,44.6766 91.3206,44.6766 Q91.2425,44.6766 91.1794,44.6441 Q91.1288,44.6184 91.0931,44.5628 Q91.0575,44.5072 91.0575,44.4416 L91.0575,44.3816 Q91.0575,44.3128 91.0894,44.2534 Q91.1213,44.1941 91.1781,44.1616 Q91.235,44.1291 91.2988,44.1291 Q91.3369,44.1291 91.37,44.1381 Q91.4031,44.1472 91.4325,44.1647 Z "/><text fill="#000000" font-family="sans-serif" font-size="0.88" lengthAdjust="spacingAndGlyphs" textLength="2.48" x="92.27" y="44.7535">Cache</text><line style="stroke: #A80036; stroke-width: 0.06;" x1="77.86" x2="107.66" y1="45.1469" y2="45.1469"/><line style="stroke: #A80036; stroke-width: 0.06;" x1="77.86" x2="107.66" y1="45.4669" y2="45.4669"/><ellipse cx="78.26" cy="46.2403" fill="#84BE84" rx="0.12" ry="0.12" style="stroke: #038048; stroke-width: 0.04;"/><text fill="#000000" font-family="sans-serif" font-size="0.88" lengthAdjust="spacingAndGlyphs" textLength="20" x="78.7" y="46.5404">addBufferForOneSensorInChannel(SensorId: String)</text><ellipse cx="78.26" cy="47.3472" fill="#84BE84" rx="0.12" ry="0.12" style="stroke: #038048; stroke-width: 0.04;"/><text fill="#000000" font-family="sans-serif" font-size="0.88" lengthAdjust="spacingAndGlyphs" textLength="26.12" x="78.7" y="47.6473">receiveMSet(channelId: String, timeStamp: long, value: double): void</text><ellipse cx="78.26" cy="48.4541" fill="#84BE84" rx="0.12" ry="0.12" style="stroke: #038048; stroke-width: 0.04;"/><text fill="#000000" font-family="sans-serif" font-size="0.88" lengthAdjust="spacingAndGlyphs" textLength="23.72" x="78.7" y="48.7541">isDataForAllInChannelsAvailable(from: long, to: long): boolean</text><ellipse cx="78.26" cy="49.5609" fill="#84BE84" rx="0.12" ry="0.12" style="stroke: #038048; stroke-width: 0.04;"/><text fill="#000000" font-family="sans-serif" font-size="0.88" lengthAdjust="spacingAndGlyphs" textLength="20.64" x="78.7" y="49.861">pollDataForAllInChannels(from: long, to: long):  MSet[]</text><ellipse cx="78.26" cy="50.6678" fill="#84BE84" rx="0.12" ry="0.12" style="stroke: #038048; stroke-width: 0.04;"/><text fill="#000000" font-family="sans-serif" font-size="0.88" lengthAdjust="spacingAndGlyphs" textLength="28.76" x="78.7" y="50.9679">getErrorsOfOneChannel(codesToCheck: ErrorCodesForInChannel): MSet[]</text><ellipse cx="78.26" cy="51.7747" fill="#84BE84" rx="0.12" ry="0.12" style="stroke: #038048; stroke-width: 0.04;"/><text fill="#000000" font-family="sans-serif" font-size="0.88" lengthAdjust="spacingAndGlyphs" textLength="17.52" x="78.7" y="52.0748">removeDataBeforeTimepointer(to: long): void</text><!--class Cache.BufferForOneSensorInChannel--><rect fill="#FEFECE" filter="url(#f1buf8b520cgfc)" height="7.6813" id="Cache.BufferForOneSensorInChannel" style="stroke: #A80036; stroke-width: 0.06;" width="29.36" x="84.56" y="55.4"/><ellipse cx="93.15" cy="56.1534" fill="#ADD1B2" rx="0.52" ry="0.52" style="stroke: #A80036; stroke-width: 0.04;"/><path d="M93.2525,55.9247 Q93.2606,55.9141 93.2703,55.9084 Q93.28,55.9028 93.2906,55.9028 Q93.31,55.9028 93.3225,55.9159 Q93.335,55.9291 93.335,55.9609 L93.335,56.0359 Q93.335,56.0678 93.3225,56.0813 Q93.31,56.0947 93.2906,56.0947 Q93.2731,56.0947 93.2625,56.0847 Q93.2519,56.0747 93.2469,56.0478 Q93.2438,56.0297 93.2344,56.0197 Q93.2169,56.0003 93.1853,55.9888 Q93.1538,55.9772 93.1219,55.9772 Q93.0825,55.9772 93.0494,55.9944 Q93.0163,56.0116 92.9909,56.0503 Q92.9656,56.0891 92.9656,56.1422 L92.9656,56.1997 Q92.9656,56.2634 93.0119,56.3059 Q93.0581,56.3484 93.14,56.3484 Q93.1888,56.3484 93.2231,56.3347 Q93.2425,56.3272 93.265,56.3047 Q93.2788,56.2909 93.2866,56.2866 Q93.2944,56.2822 93.3044,56.2822 Q93.3219,56.2822 93.3353,56.2956 Q93.3488,56.3091 93.3488,56.3272 Q93.3488,56.3453 93.3306,56.3659 Q93.3044,56.3959 93.2631,56.4128 Q93.2075,56.4366 93.1406,56.4366 Q93.0625,56.4366 92.9994,56.4041 Q92.9488,56.3784 92.9131,56.3228 Q92.8775,56.2672 92.8775,56.2016 L92.8775,56.1416 Q92.8775,56.0728 92.9094,56.0134 Q92.9413,55.9541 92.9981,55.9216 Q93.055,55.8891 93.1188,55.8891 Q93.1569,55.8891 93.19,55.8981 Q93.2231,55.9072 93.2525,55.9247 Z "/><text fill="#000000" font-family="sans-serif" font-size="0.88" lengthAdjust="spacingAndGlyphs" textLength="11.8" x="94.09" y="56.5135">BufferForOneSensorInChannel</text><line style="stroke: #A80036; stroke-width: 0.06;" x1="84.6" x2="113.88" y1="56.9069" y2="56.9069"/><rect fill="none" height="0.24" style="stroke: #C82930; stroke-width: 0.04;" width="0.24" x="84.88" y="57.5603"/><text fill="#000000" font-family="sans-serif" font-size="0.88" lengthAdjust="spacingAndGlyphs" textLength="9.8" x="85.44" y="57.9804">sensorInChannelId: String</text><rect fill="none" height="0.24" style="stroke: #C82930; stroke-width: 0.04;" width="0.24" x="84.88" y="58.6672"/><text fill="#000000" font-family="sans-serif" font-size="0.88" lengthAdjust="spacingAndGlyphs" textLength="14.32" x="85.44" y="59.0873">buffer: Queue&lt;TimestampValuePair&gt;</text><line style="stroke: #A80036; stroke-width: 0.06;" x1="84.6" x2="113.88" y1="59.4406" y2="59.4406"/><ellipse cx="85" cy="60.2141" fill="#84BE84" rx="0.12" ry="0.12" style="stroke: #038048; stroke-width: 0.04;"/><text fill="#000000" font-family="sans-serif" font-size="0.88" lengthAdjust="spacingAndGlyphs" textLength="8.96" x="85.44" y="60.5141">getInChannelId(): String</text><ellipse cx="85" cy="61.3209" fill="#84BE84" rx="0.12" ry="0.12" style="stroke: #038048; stroke-width: 0.04;"/><text fill="#000000" font-family="sans-serif" font-size="0.88" lengthAdjust="spacingAndGlyphs" textLength="15.68" x="85.44" y="61.621">addPacket(packet: TimestampValuePair)</text><ellipse cx="85" cy="62.4278" fill="#84BE84" rx="0.12" ry="0.12" style="stroke: #038048; stroke-width: 0.04;"/><text fill="#000000" font-family="sans-serif" font-size="0.88" lengthAdjust="spacingAndGlyphs" textLength="28.24" x="85.44" y="62.7279">getAllPacketsDuringTimespan(from: long, to: long): TimestampValuePair[]</text><!--class Cache.TimestampValuePair--><rect fill="#FEFECE" filter="url(#f1buf8b520cgfc)" height="7.6813" id="Cache.TimestampValuePair" style="stroke: #A80036; stroke-width: 0.06;" width="21.48" x="61.66" y="55.4"/><ellipse cx="68.19" cy="56.1534" fill="#ADD1B2" rx="0.52" ry="0.52" style="stroke: #A80036; stroke-width: 0.04;"/><path d="M68.2925,55.9247 Q68.3006,55.9141 68.3103,55.9084 Q68.32,55.9028 68.3306,55.9028 Q68.35,55.9028 68.3625,55.9159 Q68.375,55.9291 68.375,55.9609 L68.375,56.0359 Q68.375,56.0678 68.3625,56.0813 Q68.35,56.0947 68.3306,56.0947 Q68.3131,56.0947 68.3025,56.0847 Q68.2919,56.0747 68.2869,56.0478 Q68.2838,56.0297 68.2744,56.0197 Q68.2569,56.0003 68.2253,55.9888 Q68.1938,55.9772 68.1619,55.9772 Q68.1225,55.9772 68.0894,55.9944 Q68.0563,56.0116 68.0309,56.0503 Q68.0056,56.0891 68.0056,56.1422 L68.0056,56.1997 Q68.0056,56.2634 68.0519,56.3059 Q68.0981,56.3484 68.18,56.3484 Q68.2288,56.3484 68.2631,56.3347 Q68.2825,56.3272 68.305,56.3047 Q68.3188,56.2909 68.3266,56.2866 Q68.3344,56.2822 68.3444,56.2822 Q68.3619,56.2822 68.3753,56.2956 Q68.3888,56.3091 68.3888,56.3272 Q68.3888,56.3453 68.3706,56.3659 Q68.3444,56.3959 68.3031,56.4128 Q68.2475,56.4366 68.1806,56.4366 Q68.1025,56.4366 68.0394,56.4041 Q67.9888,56.3784 67.9531,56.3228 Q67.9175,56.2672 67.9175,56.2016 L67.9175,56.1416 Q67.9175,56.0728 67.9494,56.0134 Q67.9813,55.9541 68.0381,55.9216 Q68.095,55.8891 68.1588,55.8891 Q68.1969,55.8891 68.23,55.8981 Q68.2631,55.9072 68.2925,55.9247 Z "/><text fill="#000000" font-family="sans-serif" font-size="0.88" lengthAdjust="spacingAndGlyphs" textLength="8.04" x="69.13" y="56.5135">TimestampValuePair</text><line style="stroke: #A80036; stroke-width: 0.06;" x1="61.7" x2="83.1" y1="56.9069" y2="56.9069"/><rect fill="none" height="0.24" style="stroke: #C82930; stroke-width: 0.04;" width="0.24" x="61.98" y="57.5603"/><text fill="#000000" font-family="sans-serif" font-size="0.88" lengthAdjust="spacingAndGlyphs" textLength="5.04" x="62.54" y="57.9804">value: double</text><rect fill="none" height="0.24" style="stroke: #C82930; stroke-width: 0.04;" width="0.24" x="61.98" y="58.6672"/><text fill="#000000" font-family="sans-serif" font-size="0.88" lengthAdjust="spacingAndGlyphs" textLength="6.24" x="62.54" y="59.0873">timeStamp: long</text><line style="stroke: #A80036; stroke-width: 0.06;" x1="61.7" x2="83.1" y1="59.4406" y2="59.4406"/><ellipse cx="62.1" cy="60.2141" fill="#84BE84" rx="0.12" ry="0.12" style="stroke: #038048; stroke-width: 0.04;"/><text fill="#000000" font-family="sans-serif" font-size="0.88" lengthAdjust="spacingAndGlyphs" textLength="20.36" x="62.54" y="60.5141">TimestampValuePair(value: double, timeStamp: long)</text><ellipse cx="62.1" cy="61.3209" fill="#84BE84" rx="0.12" ry="0.12" style="stroke: #038048; stroke-width: 0.04;"/><text fill="#000000" font-family="sans-serif" font-size="0.88" lengthAdjust="spacingAndGlyphs" textLength="6.96" x="62.54" y="61.621">getValue(): double</text><ellipse cx="62.1" cy="62.4278" fill="#84BE84" rx="0.12" ry="0.12" style="stroke: #038048; stroke-width: 0.04;"/><text fill="#000000" font-family="sans-serif" font-size="0.88" lengthAdjust="spacingAndGlyphs" textLength="8.56" x="62.54" y="62.7279">getTimeSpamp(): long</text><!--class Cache.ConnectionTerminatedAction--><rect fill="#FEFECE" filter="url(#f1buf8b520cgfc)" height="5.4675" id="Cache.ConnectionTerminatedAction" style="stroke: #A80036; stroke-width: 0.06;" width="22.96" x="109.12" y="45.3"/><ellipse cx="114.83" cy="46.0534" fill="#ADD1B2" rx="0.52" ry="0.52" style="stroke: #A80036; stroke-width: 0.04;"/><path d="M114.9325,45.8247 Q114.9406,45.8141 114.9503,45.8084 Q114.96,45.8028 114.9706,45.8028 Q114.99,45.8028 115.0025,45.8159 Q115.015,45.8291 115.015,45.8609 L115.015,45.9359 Q115.015,45.9678 115.0025,45.9813 Q114.99,45.9947 114.9706,45.9947 Q114.9531,45.9947 114.9425,45.9847 Q114.9319,45.9747 114.9269,45.9478 Q114.9238,45.9297 114.9144,45.9197 Q114.8969,45.9003 114.8653,45.8888 Q114.8338,45.8772 114.8019,45.8772 Q114.7625,45.8772 114.7294,45.8944 Q114.6963,45.9116 114.6709,45.9503 Q114.6456,45.9891 114.6456,46.0422 L114.6456,46.0997 Q114.6456,46.1634 114.6919,46.2059 Q114.7381,46.2484 114.82,46.2484 Q114.8688,46.2484 114.9031,46.2347 Q114.9225,46.2272 114.945,46.2047 Q114.9588,46.1909 114.9666,46.1866 Q114.9744,46.1822 114.9844,46.1822 Q115.0019,46.1822 115.0153,46.1956 Q115.0288,46.2091 115.0288,46.2272 Q115.0288,46.2453 115.0106,46.2659 Q114.9844,46.2959 114.9431,46.3128 Q114.8875,46.3366 114.8206,46.3366 Q114.7425,46.3366 114.6794,46.3041 Q114.6288,46.2784 114.5931,46.2228 Q114.5575,46.1672 114.5575,46.1016 L114.5575,46.0416 Q114.5575,45.9728 114.5894,45.9134 Q114.6213,45.8541 114.6781,45.8216 Q114.735,45.7891 114.7988,45.7891 Q114.8369,45.7891 114.87,45.7981 Q114.9031,45.8072 114.9325,45.8247 Z "/><text fill="#000000" font-family="sans-serif" font-size="0.88" lengthAdjust="spacingAndGlyphs" textLength="11.16" x="115.77" y="46.4135">ConnectionTerminatedAction</text><line style="stroke: #A80036; stroke-width: 0.06;" x1="109.16" x2="132.04" y1="46.8069" y2="46.8069"/><line style="stroke: #A80036; stroke-width: 0.06;" x1="109.16" x2="132.04" y1="47.1269" y2="47.1269"/><ellipse cx="109.56" cy="47.9003" fill="#84BE84" rx="0.12" ry="0.12" style="stroke: #038048; stroke-width: 0.04;"/><text fill="#000000" font-family="sans-serif" font-size="0.88" lengthAdjust="spacingAndGlyphs" textLength="19.64" x="110" y="48.2004">ConnectionTerminatedAction(allSensorIds: String[])</text><ellipse cx="109.56" cy="49.0072" fill="#84BE84" rx="0.12" ry="0.12" style="stroke: #038048; stroke-width: 0.04;"/><text fill="#000000" font-family="sans-serif" font-size="0.88" lengthAdjust="spacingAndGlyphs" textLength="21.24" x="110" y="49.3073">raiseConnectionTerminatedFlag(channelId: String): void</text><ellipse cx="109.56" cy="50.1141" fill="#84BE84" rx="0.12" ry="0.12" style="stroke: #038048; stroke-width: 0.04;"/><text fill="#000000" font-family="sans-serif" font-size="0.88" lengthAdjust="spacingAndGlyphs" textLength="21.84" x="110" y="50.4141">checkAndNotify(meansForAction: MeansForAction): long</text><!--class Cache.TimeoutAction--><rect fill="#FEFECE" filter="url(#f1buf8b520cgfc)" height="6.5744" id="Cache.TimeoutAction" style="stroke: #A80036; stroke-width: 0.06;" width="26.16" x="1.52" y="44.76"/><ellipse cx="11.61" cy="45.5134" fill="#ADD1B2" rx="0.52" ry="0.52" style="stroke: #A80036; stroke-width: 0.04;"/><path d="M11.7125,45.2847 Q11.7206,45.2741 11.7303,45.2684 Q11.74,45.2628 11.7506,45.2628 Q11.77,45.2628 11.7825,45.2759 Q11.795,45.2891 11.795,45.3209 L11.795,45.3959 Q11.795,45.4278 11.7825,45.4413 Q11.77,45.4547 11.7506,45.4547 Q11.7331,45.4547 11.7225,45.4447 Q11.7119,45.4347 11.7069,45.4078 Q11.7038,45.3897 11.6944,45.3797 Q11.6769,45.3603 11.6453,45.3488 Q11.6138,45.3372 11.5819,45.3372 Q11.5425,45.3372 11.5094,45.3544 Q11.4763,45.3716 11.4509,45.4103 Q11.4256,45.4491 11.4256,45.5022 L11.4256,45.5597 Q11.4256,45.6234 11.4719,45.6659 Q11.5181,45.7084 11.6,45.7084 Q11.6488,45.7084 11.6831,45.6947 Q11.7025,45.6872 11.725,45.6647 Q11.7388,45.6509 11.7466,45.6466 Q11.7544,45.6422 11.7644,45.6422 Q11.7819,45.6422 11.7953,45.6556 Q11.8088,45.6691 11.8088,45.6872 Q11.8088,45.7053 11.7906,45.7259 Q11.7644,45.7559 11.7231,45.7728 Q11.6675,45.7966 11.6006,45.7966 Q11.5225,45.7966 11.4594,45.7641 Q11.4088,45.7384 11.3731,45.6828 Q11.3375,45.6272 11.3375,45.5616 L11.3375,45.5016 Q11.3375,45.4328 11.3694,45.3734 Q11.4013,45.3141 11.4581,45.2816 Q11.515,45.2491 11.5788,45.2491 Q11.6169,45.2491 11.65,45.2581 Q11.6831,45.2672 11.7125,45.2847 Z "/><text fill="#000000" font-family="sans-serif" font-size="0.88" lengthAdjust="spacingAndGlyphs" textLength="5.6" x="12.55" y="45.8735">TimeoutAction</text><line style="stroke: #A80036; stroke-width: 0.06;" x1="1.56" x2="27.64" y1="46.2669" y2="46.2669"/><rect fill="none" height="0.24" style="stroke: #C82930; stroke-width: 0.04;" width="0.24" x="1.84" y="46.9203"/><text fill="#000000" font-family="sans-serif" font-size="0.88" lengthAdjust="spacingAndGlyphs" textLength="4.52" x="2.4" y="47.3404">period: long</text><rect fill="none" height="0.24" style="stroke: #C82930; stroke-width: 0.04;" width="0.24" x="1.84" y="48.0272"/><text fill="#000000" font-family="sans-serif" font-size="0.88" lengthAdjust="spacingAndGlyphs" textLength="14.84" x="2.4" y="48.4473">numberOfToleratedLatencyPeriods: int</text><line style="stroke: #A80036; stroke-width: 0.06;" x1="1.56" x2="27.64" y1="48.8006" y2="48.8006"/><ellipse cx="1.96" cy="49.5741" fill="#84BE84" rx="0.12" ry="0.12" style="stroke: #038048; stroke-width: 0.04;"/><text fill="#000000" font-family="sans-serif" font-size="0.88" lengthAdjust="spacingAndGlyphs" textLength="25.04" x="2.4" y="49.8741">TimeoutAction(period: long, numberToleratedLatencyPeriods: int)</text><ellipse cx="1.96" cy="50.6809" fill="#84BE84" rx="0.12" ry="0.12" style="stroke: #038048; stroke-width: 0.04;"/><text fill="#000000" font-family="sans-serif" font-size="0.88" lengthAdjust="spacingAndGlyphs" textLength="21.84" x="2.4" y="50.981">checkAndNotify(meansForAction: MeansForAction): long</text><!--class Cache.ErrorCodeAction--><rect fill="#FEFECE" filter="url(#f1buf8b520cgfc)" height="5.4675" id="Cache.ErrorCodeAction" style="stroke: #A80036; stroke-width: 0.06;" width="22.96" x="53.44" y="45.3"/><ellipse cx="61.47" cy="46.0534" fill="#ADD1B2" rx="0.52" ry="0.52" style="stroke: #A80036; stroke-width: 0.04;"/><path d="M61.5725,45.8247 Q61.5806,45.8141 61.5903,45.8084 Q61.6,45.8028 61.6106,45.8028 Q61.63,45.8028 61.6425,45.8159 Q61.655,45.8291 61.655,45.8609 L61.655,45.9359 Q61.655,45.9678 61.6425,45.9813 Q61.63,45.9947 61.6106,45.9947 Q61.5931,45.9947 61.5825,45.9847 Q61.5719,45.9747 61.5669,45.9478 Q61.5638,45.9297 61.5544,45.9197 Q61.5369,45.9003 61.5053,45.8888 Q61.4738,45.8772 61.4419,45.8772 Q61.4025,45.8772 61.3694,45.8944 Q61.3363,45.9116 61.3109,45.9503 Q61.2856,45.9891 61.2856,46.0422 L61.2856,46.0997 Q61.2856,46.1634 61.3319,46.2059 Q61.3781,46.2484 61.46,46.2484 Q61.5088,46.2484 61.5431,46.2347 Q61.5625,46.2272 61.585,46.2047 Q61.5988,46.1909 61.6066,46.1866 Q61.6144,46.1822 61.6244,46.1822 Q61.6419,46.1822 61.6553,46.1956 Q61.6688,46.2091 61.6688,46.2272 Q61.6688,46.2453 61.6506,46.2659 Q61.6244,46.2959 61.5831,46.3128 Q61.5275,46.3366 61.4606,46.3366 Q61.3825,46.3366 61.3194,46.3041 Q61.2688,46.2784 61.2331,46.2228 Q61.1975,46.1672 61.1975,46.1016 L61.1975,46.0416 Q61.1975,45.9728 61.2294,45.9134 Q61.2613,45.8541 61.3181,45.8216 Q61.375,45.7891 61.4388,45.7891 Q61.4769,45.7891 61.51,45.7981 Q61.5431,45.8072 61.5725,45.8247 Z "/><text fill="#000000" font-family="sans-serif" font-size="0.88" lengthAdjust="spacingAndGlyphs" textLength="6.52" x="62.41" y="46.4135">ErrorCodeAction</text><line style="stroke: #A80036; stroke-width: 0.06;" x1="53.48" x2="76.36" y1="46.8069" y2="46.8069"/><line style="stroke: #A80036; stroke-width: 0.06;" x1="53.48" x2="76.36" y1="47.1269" y2="47.1269"/><ellipse cx="53.88" cy="47.9003" fill="#84BE84" rx="0.12" ry="0.12" style="stroke: #038048; stroke-width: 0.04;"/><text fill="#000000" font-family="sans-serif" font-size="0.88" lengthAdjust="spacingAndGlyphs" textLength="7.08" x="54.32" y="48.2004">ErrorCodeAction()</text><ellipse cx="53.88" cy="49.0072" fill="#84BE84" rx="0.12" ry="0.12" style="stroke: #038048; stroke-width: 0.04;"/><text fill="#000000" font-family="sans-serif" font-size="0.88" lengthAdjust="spacingAndGlyphs" textLength="20.72" x="54.32" y="49.3073">addCodes(sensorInChannelId: String, codes: double[])</text><ellipse cx="53.88" cy="50.1141" fill="#84BE84" rx="0.12" ry="0.12" style="stroke: #038048; stroke-width: 0.04;"/><text fill="#000000" font-family="sans-serif" font-size="0.88" lengthAdjust="spacingAndGlyphs" textLength="21.84" x="54.32" y="50.4141">checkAndNotify(meansForAction: MeansForAction): long</text><!--class Cache.DataSetCompleteAction--><rect fill="#FEFECE" filter="url(#f1buf8b520cgfc)" height="5.4675" id="Cache.DataSetCompleteAction" style="stroke: #A80036; stroke-width: 0.06;" width="22.96" x="29.08" y="45.3"/><ellipse cx="35.71" cy="46.0534" fill="#ADD1B2" rx="0.52" ry="0.52" style="stroke: #A80036; stroke-width: 0.04;"/><path d="M35.8125,45.8247 Q35.8206,45.8141 35.8303,45.8084 Q35.84,45.8028 35.8506,45.8028 Q35.87,45.8028 35.8825,45.8159 Q35.895,45.8291 35.895,45.8609 L35.895,45.9359 Q35.895,45.9678 35.8825,45.9813 Q35.87,45.9947 35.8506,45.9947 Q35.8331,45.9947 35.8225,45.9847 Q35.8119,45.9747 35.8069,45.9478 Q35.8038,45.9297 35.7944,45.9197 Q35.7769,45.9003 35.7453,45.8888 Q35.7138,45.8772 35.6819,45.8772 Q35.6425,45.8772 35.6094,45.8944 Q35.5763,45.9116 35.5509,45.9503 Q35.5256,45.9891 35.5256,46.0422 L35.5256,46.0997 Q35.5256,46.1634 35.5719,46.2059 Q35.6181,46.2484 35.7,46.2484 Q35.7488,46.2484 35.7831,46.2347 Q35.8025,46.2272 35.825,46.2047 Q35.8388,46.1909 35.8466,46.1866 Q35.8544,46.1822 35.8644,46.1822 Q35.8819,46.1822 35.8953,46.1956 Q35.9088,46.2091 35.9088,46.2272 Q35.9088,46.2453 35.8906,46.2659 Q35.8644,46.2959 35.8231,46.3128 Q35.7675,46.3366 35.7006,46.3366 Q35.6225,46.3366 35.5594,46.3041 Q35.5088,46.2784 35.4731,46.2228 Q35.4375,46.1672 35.4375,46.1016 L35.4375,46.0416 Q35.4375,45.9728 35.4694,45.9134 Q35.5013,45.8541 35.5581,45.8216 Q35.615,45.7891 35.6788,45.7891 Q35.7169,45.7891 35.75,45.7981 Q35.7831,45.8072 35.8125,45.8247 Z "/><text fill="#000000" font-family="sans-serif" font-size="0.88" lengthAdjust="spacingAndGlyphs" textLength="9.32" x="36.65" y="46.4135">DataSetCompleteAction</text><line style="stroke: #A80036; stroke-width: 0.06;" x1="29.12" x2="52" y1="46.8069" y2="46.8069"/><rect fill="none" height="0.24" style="stroke: #C82930; stroke-width: 0.04;" width="0.24" x="29.4" y="47.4603"/><text fill="#000000" font-family="sans-serif" font-size="0.88" lengthAdjust="spacingAndGlyphs" textLength="4.52" x="29.96" y="47.8804">period: long</text><line style="stroke: #A80036; stroke-width: 0.06;" x1="29.12" x2="52" y1="48.2338" y2="48.2338"/><text fill="#000000" font-family="sans-serif" font-size="0.88" lengthAdjust="spacingAndGlyphs" textLength="14.4" x="29.96" y="49.3073">DataSetCompleteAction(period: long)</text><ellipse cx="29.52" cy="50.1141" fill="#84BE84" rx="0.12" ry="0.12" style="stroke: #038048; stroke-width: 0.04;"/><text fill="#000000" font-family="sans-serif" font-size="0.88" lengthAdjust="spacingAndGlyphs" textLength="21.84" x="29.96" y="50.4141">checkAndNotify(meansForAction: MeansForAction): long</text><!--class Cache.MSet--><rect fill="#FEFECE" filter="url(#f1buf8b520cgfc)" height="9.895" id="Cache.MSet" style="stroke: #A80036; stroke-width: 0.06;" width="25.8" x="39.38" y="31.36"/><ellipse cx="51.05" cy="32.1134" fill="#ADD1B2" rx="0.52" ry="0.52" style="stroke: #A80036; stroke-width: 0.04;"/><path d="M51.1525,31.8847 Q51.1606,31.8741 51.1703,31.8684 Q51.18,31.8628 51.1906,31.8628 Q51.21,31.8628 51.2225,31.8759 Q51.235,31.8891 51.235,31.9209 L51.235,31.9959 Q51.235,32.0278 51.2225,32.0413 Q51.21,32.0547 51.1906,32.0547 Q51.1731,32.0547 51.1625,32.0447 Q51.1519,32.0347 51.1469,32.0078 Q51.1438,31.9897 51.1344,31.9797 Q51.1169,31.9603 51.0853,31.9488 Q51.0538,31.9372 51.0219,31.9372 Q50.9825,31.9372 50.9494,31.9544 Q50.9163,31.9716 50.8909,32.0103 Q50.8656,32.0491 50.8656,32.1022 L50.8656,32.1597 Q50.8656,32.2234 50.9119,32.2659 Q50.9581,32.3084 51.04,32.3084 Q51.0888,32.3084 51.1231,32.2947 Q51.1425,32.2872 51.165,32.2647 Q51.1788,32.2509 51.1866,32.2466 Q51.1944,32.2422 51.2044,32.2422 Q51.2219,32.2422 51.2353,32.2556 Q51.2488,32.2691 51.2488,32.2872 Q51.2488,32.3053 51.2306,32.3259 Q51.2044,32.3559 51.1631,32.3728 Q51.1075,32.3966 51.0406,32.3966 Q50.9625,32.3966 50.8994,32.3641 Q50.8488,32.3384 50.8131,32.2828 Q50.7775,32.2272 50.7775,32.1616 L50.7775,32.1016 Q50.7775,32.0328 50.8094,31.9734 Q50.8413,31.9141 50.8981,31.8816 Q50.955,31.8491 51.0188,31.8491 Q51.0569,31.8491 51.09,31.8581 Q51.1231,31.8672 51.1525,31.8847 Z "/><text fill="#000000" font-family="sans-serif" font-size="0.88" lengthAdjust="spacingAndGlyphs" textLength="2.08" x="51.99" y="32.4735">MSet</text><line style="stroke: #A80036; stroke-width: 0.06;" x1="39.42" x2="65.14" y1="32.8669" y2="32.8669"/><rect fill="none" height="0.24" style="stroke: #C82930; stroke-width: 0.04;" width="0.24" x="39.7" y="33.5203"/><text fill="#000000" font-family="sans-serif" font-size="0.88" lengthAdjust="spacingAndGlyphs" textLength="9.8" x="40.26" y="33.9404">sensorInChannelId: String</text><rect fill="none" height="0.24" style="stroke: #C82930; stroke-width: 0.04;" width="0.24" x="39.7" y="34.6272"/><text fill="#000000" font-family="sans-serif" font-size="0.88" lengthAdjust="spacingAndGlyphs" textLength="5.04" x="40.26" y="35.0473">value: double</text><rect fill="none" height="0.24" style="stroke: #C82930; stroke-width: 0.04;" width="0.24" x="39.7" y="35.7341"/><text fill="#000000" font-family="sans-serif" font-size="0.88" lengthAdjust="spacingAndGlyphs" textLength="6.24" x="40.26" y="36.1541">timeStamp: long</text><line style="stroke: #A80036; stroke-width: 0.06;" x1="39.42" x2="65.14" y1="36.5075" y2="36.5075"/><ellipse cx="39.82" cy="37.2809" fill="#84BE84" rx="0.12" ry="0.12" style="stroke: #038048; stroke-width: 0.04;"/><text fill="#000000" font-family="sans-serif" font-size="0.88" lengthAdjust="spacingAndGlyphs" textLength="24.68" x="40.26" y="37.581">MSet(sensorInChannelId: String, value: double, timeStamp: long)</text><ellipse cx="39.82" cy="38.3878" fill="#84BE84" rx="0.12" ry="0.12" style="stroke: #038048; stroke-width: 0.04;"/><text fill="#000000" font-family="sans-serif" font-size="0.88" lengthAdjust="spacingAndGlyphs" textLength="11.72" x="40.26" y="38.6879">getSensorInChannelId(): String</text><ellipse cx="39.82" cy="39.4947" fill="#84BE84" rx="0.12" ry="0.12" style="stroke: #038048; stroke-width: 0.04;"/><text fill="#000000" font-family="sans-serif" font-size="0.88" lengthAdjust="spacingAndGlyphs" textLength="6.96" x="40.26" y="39.7948">getValue(): double</text><ellipse cx="39.82" cy="40.6016" fill="#84BE84" rx="0.12" ry="0.12" style="stroke: #038048; stroke-width: 0.04;"/><text fill="#000000" font-family="sans-serif" font-size="0.88" lengthAdjust="spacingAndGlyphs" textLength="8.56" x="40.26" y="40.9016">getTimeSpamp(): long</text><!--class Cache.ErrorCodesForInChannel--><rect fill="#FEFECE" filter="url(#f1buf8b520cgfc)" height="4.3606" id="Cache.ErrorCodesForInChannel" style="stroke: #A80036; stroke-width: 0.06;" width="11.04" x="49.2" y="57.06"/><ellipse cx="49.88" cy="57.8134" fill="#ADD1B2" rx="0.52" ry="0.52" style="stroke: #A80036; stroke-width: 0.04;"/><path d="M49.9825,57.5847 Q49.9906,57.5741 50.0003,57.5684 Q50.01,57.5628 50.0206,57.5628 Q50.04,57.5628 50.0525,57.5759 Q50.065,57.5891 50.065,57.6209 L50.065,57.6959 Q50.065,57.7278 50.0525,57.7413 Q50.04,57.7547 50.0206,57.7547 Q50.0031,57.7547 49.9925,57.7447 Q49.9819,57.7347 49.9769,57.7078 Q49.9738,57.6897 49.9644,57.6797 Q49.9469,57.6603 49.9153,57.6488 Q49.8838,57.6372 49.8519,57.6372 Q49.8125,57.6372 49.7794,57.6544 Q49.7463,57.6716 49.7209,57.7103 Q49.6956,57.7491 49.6956,57.8022 L49.6956,57.8597 Q49.6956,57.9234 49.7419,57.9659 Q49.7881,58.0084 49.87,58.0084 Q49.9188,58.0084 49.9531,57.9947 Q49.9725,57.9872 49.995,57.9647 Q50.0088,57.9509 50.0166,57.9466 Q50.0244,57.9422 50.0344,57.9422 Q50.0519,57.9422 50.0653,57.9556 Q50.0788,57.9691 50.0788,57.9872 Q50.0788,58.0053 50.0606,58.0259 Q50.0344,58.0559 49.9931,58.0728 Q49.9375,58.0966 49.8706,58.0966 Q49.7925,58.0966 49.7294,58.0641 Q49.6788,58.0384 49.6431,57.9828 Q49.6075,57.9272 49.6075,57.8616 L49.6075,57.8016 Q49.6075,57.7328 49.6394,57.6734 Q49.6713,57.6141 49.7281,57.5816 Q49.785,57.5491 49.8488,57.5491 Q49.8869,57.5491 49.92,57.5581 Q49.9531,57.5672 49.9825,57.5847 Z "/><text fill="#000000" font-family="sans-serif" font-size="0.88" lengthAdjust="spacingAndGlyphs" textLength="9.6" x="50.52" y="58.1735">ErrorCodesForInChannel</text><line style="stroke: #A80036; stroke-width: 0.06;" x1="49.24" x2="60.2" y1="58.5669" y2="58.5669"/><text fill="#000000" font-family="sans-serif" font-size="0.88" lengthAdjust="spacingAndGlyphs" textLength="9.8" x="49.44" y="59.6404">sensorInChannelId: String</text><text fill="#000000" font-family="sans-serif" font-size="0.88" lengthAdjust="spacingAndGlyphs" textLength="7.92" x="49.44" y="60.7473">errorCodes: double[]</text><line style="stroke: #A80036; stroke-width: 0.06;" x1="49.24" x2="60.2" y1="61.1006" y2="61.1006"/><!--class Cache.MeansForAction--><rect fill="#FEFECE" filter="url(#f1buf8b520cgfc)" height="7.6813" id="Cache.MeansForAction" style="stroke: #A80036; stroke-width: 0.06;" width="24.56" x="35.96" y="15.98"/><ellipse cx="44.87" cy="16.7334" fill="#ADD1B2" rx="0.52" ry="0.52" style="stroke: #A80036; stroke-width: 0.04;"/><path d="M44.9725,16.5047 Q44.9806,16.4941 44.9903,16.4884 Q45,16.4828 45.0106,16.4828 Q45.03,16.4828 45.0425,16.4959 Q45.055,16.5091 45.055,16.5409 L45.055,16.6159 Q45.055,16.6478 45.0425,16.6613 Q45.03,16.6747 45.0106,16.6747 Q44.9931,16.6747 44.9825,16.6647 Q44.9719,16.6547 44.9669,16.6278 Q44.9638,16.6097 44.9544,16.5997 Q44.9369,16.5803 44.9053,16.5688 Q44.8738,16.5572 44.8419,16.5572 Q44.8025,16.5572 44.7694,16.5744 Q44.7363,16.5916 44.7109,16.6303 Q44.6856,16.6691 44.6856,16.7222 L44.6856,16.7797 Q44.6856,16.8434 44.7319,16.8859 Q44.7781,16.9284 44.86,16.9284 Q44.9088,16.9284 44.9431,16.9147 Q44.9625,16.9072 44.985,16.8847 Q44.9988,16.8709 45.0066,16.8666 Q45.0144,16.8622 45.0244,16.8622 Q45.0419,16.8622 45.0553,16.8756 Q45.0688,16.8891 45.0688,16.9072 Q45.0688,16.9253 45.0506,16.9459 Q45.0244,16.9759 44.9831,16.9928 Q44.9275,17.0166 44.8606,17.0166 Q44.7825,17.0166 44.7194,16.9841 Q44.6688,16.9584 44.6331,16.9028 Q44.5975,16.8472 44.5975,16.7816 L44.5975,16.7216 Q44.5975,16.6528 44.6294,16.5934 Q44.6613,16.5341 44.7181,16.5016 Q44.775,16.4691 44.8388,16.4691 Q44.8769,16.4691 44.91,16.4781 Q44.9431,16.4872 44.9725,16.5047 Z "/><text fill="#000000" font-family="sans-serif" font-size="0.88" lengthAdjust="spacingAndGlyphs" textLength="6.36" x="45.81" y="17.0935">MeansForAction</text><line style="stroke: #A80036; stroke-width: 0.06;" x1="36" x2="60.48" y1="17.4869" y2="17.4869"/><text fill="#000000" font-family="sans-serif" font-size="0.88" lengthAdjust="spacingAndGlyphs" textLength="9.24" x="36.2" y="18.5604">replayTimepointer: long,</text><text fill="#000000" font-family="sans-serif" font-size="0.88" lengthAdjust="spacingAndGlyphs" textLength="5.48" x="36.2" y="19.6673">cache: Cache,</text><text fill="#000000" font-family="sans-serif" font-size="0.88" lengthAdjust="spacingAndGlyphs" textLength="11.44" x="36.2" y="20.7741">mRunForward: IMRunListener</text><line style="stroke: #A80036; stroke-width: 0.06;" x1="36" x2="60.48" y1="21.1275" y2="21.1275"/><text fill="#000000" font-family="sans-serif" font-size="0.88" lengthAdjust="spacingAndGlyphs" textLength="24.08" x="36.2" y="22.201">MeansForAction(cache: Cache, mRunForward: IMRunListener)</text><text fill="#000000" font-family="sans-serif" font-size="0.88" lengthAdjust="spacingAndGlyphs" textLength="18" x="36.2" y="23.3079">setReplayTimepointer(replayTimepointer: long)</text><!--class Cache.ChannelConnectionStatus--><rect fill="#FEFECE" filter="url(#f1buf8b520cgfc)" height="8.7881" id="Cache.ChannelConnectionStatus" style="stroke: #A80036; stroke-width: 0.06;" width="20.72" x="115.32" y="54.84"/><ellipse cx="120.55" cy="55.5934" fill="#ADD1B2" rx="0.52" ry="0.52" style="stroke: #A80036; stroke-width: 0.04;"/><path d="M120.6525,55.3647 Q120.6606,55.3541 120.6703,55.3484 Q120.68,55.3428 120.6906,55.3428 Q120.71,55.3428 120.7225,55.3559 Q120.735,55.3691 120.735,55.4009 L120.735,55.4759 Q120.735,55.5078 120.7225,55.5213 Q120.71,55.5347 120.6906,55.5347 Q120.6731,55.5347 120.6625,55.5247 Q120.6519,55.5147 120.6469,55.4878 Q120.6438,55.4697 120.6344,55.4597 Q120.6169,55.4403 120.5853,55.4288 Q120.5538,55.4172 120.5219,55.4172 Q120.4825,55.4172 120.4494,55.4344 Q120.4163,55.4516 120.3909,55.4903 Q120.3656,55.5291 120.3656,55.5822 L120.3656,55.6397 Q120.3656,55.7034 120.4119,55.7459 Q120.4581,55.7884 120.54,55.7884 Q120.5888,55.7884 120.6231,55.7747 Q120.6425,55.7672 120.665,55.7447 Q120.6788,55.7309 120.6866,55.7266 Q120.6944,55.7222 120.7044,55.7222 Q120.7219,55.7222 120.7353,55.7356 Q120.7488,55.7491 120.7488,55.7672 Q120.7488,55.7853 120.7306,55.8059 Q120.7044,55.8359 120.6631,55.8528 Q120.6075,55.8766 120.5406,55.8766 Q120.4625,55.8766 120.3994,55.8441 Q120.3488,55.8184 120.3131,55.7628 Q120.2775,55.7072 120.2775,55.6416 L120.2775,55.5816 Q120.2775,55.5128 120.3094,55.4534 Q120.3413,55.3941 120.3981,55.3616 Q120.455,55.3291 120.5188,55.3291 Q120.5569,55.3291 120.59,55.3381 Q120.6231,55.3472 120.6525,55.3647 Z "/><text fill="#000000" font-family="sans-serif" font-size="0.88" lengthAdjust="spacingAndGlyphs" textLength="9.88" x="121.49" y="55.9535">ChannelConnectionStatus</text><line style="stroke: #A80036; stroke-width: 0.06;" x1="115.36" x2="136" y1="56.3469" y2="56.3469"/><text fill="#000000" font-family="sans-serif" font-size="0.88" lengthAdjust="spacingAndGlyphs" textLength="9.8" x="115.56" y="57.4204">sensorInChannelId: String</text><text fill="#000000" font-family="sans-serif" font-size="0.88" lengthAdjust="spacingAndGlyphs" textLength="7.52" x="115.56" y="58.5273">connected: boolean</text><line style="stroke: #A80036; stroke-width: 0.06;" x1="115.36" x2="136" y1="58.8806" y2="58.8806"/><text fill="#000000" font-family="sans-serif" font-size="0.88" lengthAdjust="spacingAndGlyphs" textLength="20.24" x="115.56" y="59.9541">ChannelConnectionStatus(sensorInChannelId: String)</text><text fill="#000000" font-family="sans-serif" font-size="0.88" lengthAdjust="spacingAndGlyphs" textLength="11.56" x="115.56" y="61.061">getsensorInChannelId(): String</text><text fill="#000000" font-family="sans-serif" font-size="0.88" lengthAdjust="spacingAndGlyphs" textLength="13.4" x="115.56" y="62.1679">setConnected(connected: boolean)</text><text fill="#000000" font-family="sans-serif" font-size="0.88" lengthAdjust="spacingAndGlyphs" textLength="8.92" x="115.56" y="63.2748">isConnected(): boolean</text><!--class Cache.CheckAndNotifyAction--><rect fill="#FEFECE" filter="url(#f1buf8b520cgfc)" height="3.2538" id="Cache.CheckAndNotifyAction" style="stroke: #A80036; stroke-width: 0.06;" width="36.44" x="1.54" y="34.68"/><ellipse cx="15.21" cy="35.4334" fill="#B4A7E5" rx="0.52" ry="0.52" style="stroke: #A80036; stroke-width: 0.04;"/><path d="M15.2781,35.2609 L15.2781,35.6053 L15.3669,35.6053 Q15.3988,35.6053 15.4122,35.6175 Q15.4256,35.6297 15.4256,35.6497 Q15.4256,35.6691 15.4122,35.6813 Q15.3988,35.6934 15.3669,35.6934 L15.1013,35.6934 Q15.0694,35.6934 15.0559,35.6813 Q15.0425,35.6691 15.0425,35.6491 Q15.0425,35.6297 15.0559,35.6175 Q15.0694,35.6053 15.1013,35.6053 L15.19,35.6053 L15.19,35.2609 L15.1013,35.2609 Q15.0694,35.2609 15.0559,35.2484 Q15.0425,35.2359 15.0425,35.2166 Q15.0425,35.1966 15.0559,35.1844 Q15.0694,35.1722 15.1013,35.1722 L15.3669,35.1728 Q15.3988,35.1728 15.4122,35.1847 Q15.4256,35.1966 15.4256,35.2166 Q15.4256,35.2359 15.4122,35.2484 Q15.3988,35.2609 15.3669,35.2609 L15.2781,35.2609 Z "/><text fill="#000000" font-family="sans-serif" font-size="0.88" font-style="italic" lengthAdjust="spacingAndGlyphs" textLength="8.72" x="16.15" y="35.7935">CheckAndNotifyAction</text><line style="stroke: #A80036; stroke-width: 0.06;" x1="1.58" x2="37.94" y1="36.1869" y2="36.1869"/><line style="stroke: #A80036; stroke-width: 0.06;" x1="1.58" x2="37.94" y1="36.5069" y2="36.5069"/><ellipse cx="1.98" cy="37.2803" fill="#84BE84" rx="0.12" ry="0.12" style="stroke: #038048; stroke-width: 0.04;"/><text fill="#000000" font-family="sans-serif" font-size="0.88" lengthAdjust="spacingAndGlyphs" textLength="35.32" x="2.42" y="37.5804">checkAndNotify(replayTimepointer: long, cache: Cache, mRunForward: IMRunListener): long</text><!--class Cache.TimerTask--><rect fill="#FEFECE" filter="url(#f1buf8b520cgfc)" height="3.2538" id="Cache.TimerTask" style="stroke: #A80036; stroke-width: 0.06;" width="5.56" x="28.98" y="18.2"/><ellipse cx="29.66" cy="18.9534" fill="#B4A7E5" rx="0.52" ry="0.52" style="stroke: #A80036; stroke-width: 0.04;"/><path d="M29.7281,18.7809 L29.7281,19.1253 L29.8169,19.1253 Q29.8488,19.1253 29.8622,19.1375 Q29.8756,19.1497 29.8756,19.1697 Q29.8756,19.1891 29.8622,19.2013 Q29.8488,19.2134 29.8169,19.2134 L29.5513,19.2134 Q29.5194,19.2134 29.5059,19.2013 Q29.4925,19.1891 29.4925,19.1691 Q29.4925,19.1497 29.5059,19.1375 Q29.5194,19.1253 29.5513,19.1253 L29.64,19.1253 L29.64,18.7809 L29.5513,18.7809 Q29.5194,18.7809 29.5059,18.7684 Q29.4925,18.7559 29.4925,18.7366 Q29.4925,18.7166 29.5059,18.7044 Q29.5194,18.6922 29.5513,18.6922 L29.8169,18.6928 Q29.8488,18.6928 29.8622,18.7047 Q29.8756,18.7166 29.8756,18.7366 Q29.8756,18.7559 29.8622,18.7684 Q29.8488,18.7809 29.8169,18.7809 L29.7281,18.7809 Z "/><text fill="#000000" font-family="sans-serif" font-size="0.88" font-style="italic" lengthAdjust="spacingAndGlyphs" textLength="4.12" x="30.3" y="19.3135">TimerTask</text><line style="stroke: #A80036; stroke-width: 0.06;" x1="29.02" x2="34.5" y1="19.7069" y2="19.7069"/><line style="stroke: #A80036; stroke-width: 0.06;" x1="29.02" x2="34.5" y1="20.0269" y2="20.0269"/><ellipse cx="29.42" cy="20.8003" fill="#84BE84" rx="0.12" ry="0.12" style="stroke: #038048; stroke-width: 0.04;"/><text fill="#000000" font-family="sans-serif" font-size="0.88" lengthAdjust="spacingAndGlyphs" textLength="3.84" x="29.86" y="21.1004">run(): void</text><!--class Cache.IMRunListener--><rect fill="#FEFECE" filter="url(#f1buf8b520cgfc)" height="7.6813" id="Cache.IMRunListener" style="stroke: #A80036; stroke-width: 0.06;" width="23.08" x="98.58" y="32.46"/><ellipse cx="107.11" cy="33.2134" fill="#B4A7E5" rx="0.52" ry="0.52" style="stroke: #A80036; stroke-width: 0.04;"/><path d="M107.1781,33.0409 L107.1781,33.3853 L107.2669,33.3853 Q107.2988,33.3853 107.3122,33.3975 Q107.3256,33.4097 107.3256,33.4297 Q107.3256,33.4491 107.3122,33.4613 Q107.2988,33.4734 107.2669,33.4734 L107.0013,33.4734 Q106.9694,33.4734 106.9559,33.4613 Q106.9425,33.4491 106.9425,33.4291 Q106.9425,33.4097 106.9559,33.3975 Q106.9694,33.3853 107.0013,33.3853 L107.09,33.3853 L107.09,33.0409 L107.0013,33.0409 Q106.9694,33.0409 106.9559,33.0284 Q106.9425,33.0159 106.9425,32.9966 Q106.9425,32.9766 106.9559,32.9644 Q106.9694,32.9522 107.0013,32.9522 L107.2669,32.9528 Q107.2988,32.9528 107.3122,32.9647 Q107.3256,32.9766 107.3256,32.9966 Q107.3256,33.0159 107.3122,33.0284 Q107.2988,33.0409 107.2669,33.0409 L107.1781,33.0409 Z "/><text fill="#000000" font-family="sans-serif" font-size="0.88" font-style="italic" lengthAdjust="spacingAndGlyphs" textLength="5.64" x="108.05" y="33.5735">IMRunListener</text><line style="stroke: #A80036; stroke-width: 0.06;" x1="98.62" x2="121.62" y1="33.9669" y2="33.9669"/><line style="stroke: #A80036; stroke-width: 0.06;" x1="98.62" x2="121.62" y1="34.2869" y2="34.2869"/><ellipse cx="99.02" cy="35.0603" fill="#84BE84" rx="0.12" ry="0.12" style="stroke: #038048; stroke-width: 0.04;"/><text fill="#000000" font-family="sans-serif" font-size="0.88" lengthAdjust="spacingAndGlyphs" textLength="7.08" x="99.46" y="35.3604">justWaiting():  void</text><ellipse cx="99.02" cy="36.1672" fill="#84BE84" rx="0.12" ry="0.12" style="stroke: #038048; stroke-width: 0.04;"/><text fill="#000000" font-family="sans-serif" font-size="0.88" lengthAdjust="spacingAndGlyphs" textLength="20.12" x="99.46" y="36.4673">indicateError(inChannelId: String, errorCode: double)</text><ellipse cx="99.02" cy="37.2741" fill="#84BE84" rx="0.12" ry="0.12" style="stroke: #038048; stroke-width: 0.04;"/><text fill="#000000" font-family="sans-serif" font-size="0.88" lengthAdjust="spacingAndGlyphs" textLength="8.8" x="99.46" y="37.5741">indicateTimeout(): void</text><ellipse cx="99.02" cy="38.3809" fill="#84BE84" rx="0.12" ry="0.12" style="stroke: #038048; stroke-width: 0.04;"/><text fill="#000000" font-family="sans-serif" font-size="0.88" lengthAdjust="spacingAndGlyphs" textLength="14.36" x="99.46" y="38.681">indicateConnectionTerminated(): void</text><ellipse cx="99.02" cy="39.4878" fill="#84BE84" rx="0.12" ry="0.12" style="stroke: #038048; stroke-width: 0.04;"/><text fill="#000000" font-family="sans-serif" font-size="0.88" lengthAdjust="spacingAndGlyphs" textLength="21.96" x="99.46" y="39.7879">dispatchCompletePacketSet(completePacketSet: MSet[])</text><!--class Cache.IMRunInfo--><rect fill="#FEFECE" filter="url(#f1buf8b520cgfc)" height="6.5744" id="Cache.IMRunInfo" style="stroke: #A80036; stroke-width: 0.06;" width="18.08" x="123.08" y="33.02"/><ellipse cx="129.93" cy="33.7734" fill="#B4A7E5" rx="0.52" ry="0.52" style="stroke: #A80036; stroke-width: 0.04;"/><path d="M129.9981,33.6009 L129.9981,33.9453 L130.0869,33.9453 Q130.1188,33.9453 130.1322,33.9575 Q130.1456,33.9697 130.1456,33.9897 Q130.1456,34.0091 130.1322,34.0213 Q130.1188,34.0334 130.0869,34.0334 L129.8213,34.0334 Q129.7894,34.0334 129.7759,34.0213 Q129.7625,34.0091 129.7625,33.9891 Q129.7625,33.9697 129.7759,33.9575 Q129.7894,33.9453 129.8213,33.9453 L129.91,33.9453 L129.91,33.6009 L129.8213,33.6009 Q129.7894,33.6009 129.7759,33.5884 Q129.7625,33.5759 129.7625,33.5566 Q129.7625,33.5366 129.7759,33.5244 Q129.7894,33.5122 129.8213,33.5122 L130.0869,33.5128 Q130.1188,33.5128 130.1322,33.5247 Q130.1456,33.5366 130.1456,33.5566 Q130.1456,33.5759 130.1322,33.5884 Q130.1188,33.6009 130.0869,33.6009 L129.9981,33.6009 Z "/><text fill="#000000" font-family="sans-serif" font-size="0.88" font-style="italic" lengthAdjust="spacingAndGlyphs" textLength="4" x="130.87" y="34.1335">IMRunInfo</text><line style="stroke: #A80036; stroke-width: 0.06;" x1="123.12" x2="141.12" y1="34.5269" y2="34.5269"/><line style="stroke: #A80036; stroke-width: 0.06;" x1="123.12" x2="141.12" y1="34.8469" y2="34.8469"/><ellipse cx="123.52" cy="35.6203" fill="#84BE84" rx="0.12" ry="0.12" style="stroke: #038048; stroke-width: 0.04;"/><text fill="#000000" font-family="sans-serif" font-size="0.88" lengthAdjust="spacingAndGlyphs" textLength="10.8" x="123.96" y="35.9204">getAllInChannelIds(): String[]</text><ellipse cx="123.52" cy="36.7272" fill="#84BE84" rx="0.12" ry="0.12" style="stroke: #038048; stroke-width: 0.04;"/><text fill="#000000" font-family="sans-serif" font-size="0.88" lengthAdjust="spacingAndGlyphs" textLength="16.96" x="123.96" y="37.0273">getErrorCodes(inChannelId: String): double[]</text><ellipse cx="123.52" cy="37.8341" fill="#84BE84" rx="0.12" ry="0.12" style="stroke: #038048; stroke-width: 0.04;"/><text fill="#000000" font-family="sans-serif" font-size="0.88" lengthAdjust="spacingAndGlyphs" textLength="6.4" x="123.96" y="38.1341">getPeriod(): long</text><ellipse cx="123.52" cy="38.9409" fill="#84BE84" rx="0.12" ry="0.12" style="stroke: #038048; stroke-width: 0.04;"/><text fill="#000000" font-family="sans-serif" font-size="0.88" lengthAdjust="spacingAndGlyphs" textLength="9.56" x="123.96" y="39.241">getTimeoutOption(): long</text><!--class Model.MRunReaction--><rect fill="#FEFECE" filter="url(#f1buf8b520cgfc)" height="2.1469" id="Model.MRunReaction" style="stroke: #A80036; stroke-width: 0.06;" width="7.16" x="143.42" y="46.96"/><ellipse cx="144.1" cy="47.7134" fill="#ADD1B2" rx="0.52" ry="0.52" style="stroke: #A80036; stroke-width: 0.04;"/><path d="M144.2025,47.4847 Q144.2106,47.4741 144.2203,47.4684 Q144.23,47.4628 144.2406,47.4628 Q144.26,47.4628 144.2725,47.4759 Q144.285,47.4891 144.285,47.5209 L144.285,47.5959 Q144.285,47.6278 144.2725,47.6413 Q144.26,47.6547 144.2406,47.6547 Q144.2231,47.6547 144.2125,47.6447 Q144.2019,47.6347 144.1969,47.6078 Q144.1938,47.5897 144.1844,47.5797 Q144.1669,47.5603 144.1353,47.5488 Q144.1038,47.5372 144.0719,47.5372 Q144.0325,47.5372 143.9994,47.5544 Q143.9663,47.5716 143.9409,47.6103 Q143.9156,47.6491 143.9156,47.7022 L143.9156,47.7597 Q143.9156,47.8234 143.9619,47.8659 Q144.0081,47.9084 144.09,47.9084 Q144.1388,47.9084 144.1731,47.8947 Q144.1925,47.8872 144.215,47.8647 Q144.2288,47.8509 144.2366,47.8466 Q144.2444,47.8422 144.2544,47.8422 Q144.2719,47.8422 144.2853,47.8556 Q144.2988,47.8691 144.2988,47.8872 Q144.2988,47.9053 144.2806,47.9259 Q144.2544,47.9559 144.2131,47.9728 Q144.1575,47.9966 144.0906,47.9966 Q144.0125,47.9966 143.9494,47.9641 Q143.8988,47.9384 143.8631,47.8828 Q143.8275,47.8272 143.8275,47.7616 L143.8275,47.7016 Q143.8275,47.6328 143.8594,47.5734 Q143.8913,47.5141 143.9481,47.4816 Q144.005,47.4491 144.0688,47.4491 Q144.1069,47.4491 144.14,47.4581 Q144.1731,47.4672 144.2025,47.4847 Z "/><text fill="#000000" font-family="sans-serif" font-size="0.88" lengthAdjust="spacingAndGlyphs" textLength="5.72" x="144.74" y="48.0735">MRunReaction</text><line style="stroke: #A80036; stroke-width: 0.06;" x1="143.46" x2="150.54" y1="48.4669" y2="48.4669"/><line style="stroke: #A80036; stroke-width: 0.06;" x1="143.46" x2="150.54" y1="48.7869" y2="48.7869"/><!--class Model.MRunInfo--><rect fill="#FEFECE" filter="url(#f1buf8b520cgfc)" height="2.1469" id="Model.MRunInfo" style="stroke: #A80036; stroke-width: 0.06;" width="5.2" x="152" y="46.96"/><ellipse cx="152.68" cy="47.7134" fill="#ADD1B2" rx="0.52" ry="0.52" style="stroke: #A80036; stroke-width: 0.04;"/><path d="M152.7825,47.4847 Q152.7906,47.4741 152.8003,47.4684 Q152.81,47.4628 152.8206,47.4628 Q152.84,47.4628 152.8525,47.4759 Q152.865,47.4891 152.865,47.5209 L152.865,47.5959 Q152.865,47.6278 152.8525,47.6413 Q152.84,47.6547 152.8206,47.6547 Q152.8031,47.6547 152.7925,47.6447 Q152.7819,47.6347 152.7769,47.6078 Q152.7738,47.5897 152.7644,47.5797 Q152.7469,47.5603 152.7153,47.5488 Q152.6838,47.5372 152.6519,47.5372 Q152.6125,47.5372 152.5794,47.5544 Q152.5463,47.5716 152.5209,47.6103 Q152.4956,47.6491 152.4956,47.7022 L152.4956,47.7597 Q152.4956,47.8234 152.5419,47.8659 Q152.5881,47.9084 152.67,47.9084 Q152.7188,47.9084 152.7531,47.8947 Q152.7725,47.8872 152.795,47.8647 Q152.8088,47.8509 152.8166,47.8466 Q152.8244,47.8422 152.8344,47.8422 Q152.8519,47.8422 152.8653,47.8556 Q152.8788,47.8691 152.8788,47.8872 Q152.8788,47.9053 152.8606,47.9259 Q152.8344,47.9559 152.7931,47.9728 Q152.7375,47.9966 152.6706,47.9966 Q152.5925,47.9966 152.5294,47.9641 Q152.4788,47.9384 152.4431,47.8828 Q152.4075,47.8272 152.4075,47.7616 L152.4075,47.7016 Q152.4075,47.6328 152.4394,47.5734 Q152.4713,47.5141 152.5281,47.4816 Q152.585,47.4491 152.6488,47.4491 Q152.6869,47.4491 152.72,47.4581 Q152.7531,47.4672 152.7825,47.4847 Z "/><text fill="#000000" font-family="sans-serif" font-size="0.88" lengthAdjust="spacingAndGlyphs" textLength="3.76" x="153.32" y="48.0735">MRunInfo</text><line style="stroke: #A80036; stroke-width: 0.06;" x1="152.04" x2="157.16" y1="48.4669" y2="48.4669"/><line style="stroke: #A80036; stroke-width: 0.06;" x1="152.04" x2="157.16" y1="48.7869" y2="48.7869"/><!--link Cache.MRunTiming to Cache.MeansForAction--><path d="M61.9308,19.82 C61.5316,19.82 61.1324,19.82 60.7336,19.82 " fill="none" id="Cache.MRunTiming-Cache.MeansForAction" style="stroke: #A80036; stroke-width: 0.04; stroke-dasharray: 7.0,7.0;"/><polygon fill="#A80036" points="60.5248,19.82,60.8848,19.98,60.7248,19.82,60.8848,19.66,60.5248,19.82" style="stroke: #A80036; stroke-width: 0.04;"/><!--link Cache.MeansForAction to Cache.CheckAndNotifyAction--><path d="M43.0648,23.7864 C40.734,25.4742 37.9104,27.4108 35.24,28.96 C31.3976,31.1891 26.7638,33.3043 23.5732,34.6784 " fill="none" id="Cache.MeansForAction-Cache.CheckAndNotifyAction" style="stroke: #A80036; stroke-width: 0.04; stroke-dasharray: 7.0,7.0;"/><polygon fill="#A80036" points="43.2316,23.6652,42.8462,23.7468,43.0696,23.7825,43.0339,24.006,43.2316,23.6652" style="stroke: #A80036; stroke-width: 0.04;"/><!--link Cache.MStreamListener to Cache.ConnectionTerminatedAction--><path d="M92.2868,39.5809 C94.1348,40.1622 96.0608,40.741 97.88,41.24 C102.5048,42.5085 103.796,42.2974 108.4,43.64 C109.9976,44.106 111.6912,44.6668 113.2912,45.2287 " fill="none" id="Cache.MStreamListener-Cache.ConnectionTerminatedAction" style="stroke: #A80036; stroke-width: 0.04;"/><polygon fill="#A80036" points="113.486,45.2972,113.1994,45.027,113.2973,45.231,113.0933,45.3289,113.486,45.2972" style="stroke: #A80036; stroke-width: 0.04;"/><text fill="#000000" font-family="sans-serif" font-size="0.88" lengthAdjust="spacingAndGlyphs" textLength="0.36" x="112.3738" y="44.7943">*</text><!--link Cache.MStreamListener to Cache.Cache--><path d="M85.4588,39.588 C86.5044,40.7924 87.7096,42.181 88.8356,43.4785 " fill="none" id="Cache.MStreamListener-Cache.Cache" style="stroke: #A80036; stroke-width: 0.04;"/><polygon fill="#A80036" points="88.9724,43.6362,88.857,43.2596,88.8412,43.4853,88.6155,43.4695,88.9724,43.6362" style="stroke: #A80036; stroke-width: 0.04;"/><!--link Cache.CheckAndNotifyAction to Cache.ConnectionTerminatedAction--><path d="M25.4338,38.157 C29.1576,39.2628 34.1577,40.5846 38.68,41.24 C69.3644,45.6866 77.946,37.8203 108.4,43.64 C110.3276,44.0084 112.3584,44.6321 114.198,45.2943 " fill="none" id="Cache.CheckAndNotifyAction-Cache.ConnectionTerminatedAction" style="stroke: #A80036; stroke-width: 0.04; stroke-dasharray: 7.0,7.0;"/><polygon fill="none" points="25.345,38.4227,24.6591,37.9247,25.5058,37.8863,25.345,38.4227" style="stroke: #A80036; stroke-width: 0.04;"/><!--link Cache.CheckAndNotifyAction to Cache.TimeoutAction--><path d="M18.7318,38.6635 C17.9597,40.4081 16.8926,42.8194 16.0362,44.7545 " fill="none" id="Cache.CheckAndNotifyAction-Cache.TimeoutAction" style="stroke: #A80036; stroke-width: 0.04; stroke-dasharray: 7.0,7.0;"/><polygon fill="none" points="18.4789,38.5429,19.0587,37.9246,18.991,38.7695,18.4789,38.5429" style="stroke: #A80036; stroke-width: 0.04;"/><!--link Cache.CheckAndNotifyAction to Cache.ErrorCodeAction--><path d="M26.1355,38.1339 C29.7895,39.1261 34.4721,40.3371 38.68,41.24 C44.8696,42.5681 46.5964,42.0354 52.72,43.64 C54.4608,44.0961 56.3048,44.6929 58.0176,45.298 " fill="none" id="Cache.CheckAndNotifyAction-Cache.ErrorCodeAction" style="stroke: #A80036; stroke-width: 0.04; stroke-dasharray: 7.0,7.0;"/><polygon fill="none" points="26.0583,38.4031,25.3601,37.9224,26.2056,37.8628,26.0583,38.4031" style="stroke: #A80036; stroke-width: 0.04;"/><!--link Cache.CheckAndNotifyAction to Cache.DataSetCompleteAction--><path d="M23.2892,38.3184 C26.7138,40.2382 31.9374,43.1664 35.7432,45.2998 " fill="none" id="Cache.CheckAndNotifyAction-Cache.DataSetCompleteAction" style="stroke: #A80036; stroke-width: 0.04; stroke-dasharray: 7.0,7.0;"/><polygon fill="none" points="23.1478,38.5601,22.5868,37.9246,23.4216,38.0716,23.1478,38.5601" style="stroke: #A80036; stroke-width: 0.04;"/><!--link Cache.Timer to Cache.MRunTiming--><path d="M57.6604,8.3928 C58.8172,9.1308 60.0584,9.93 61.2,10.68 C61.4412,10.8388 61.6848,10.9992 61.9304,11.1612 " fill="none" id="Cache.Timer-Cache.MRunTiming" style="stroke: #A80036; stroke-width: 0.04;"/><polygon fill="#A80036" points="57.4904,8.2844,57.708,8.6128,57.6591,8.3919,57.88,8.3429,57.4904,8.2844" style="stroke: #A80036; stroke-width: 0.04;"/><!--link Cache.TimerTask to Cache.MRunTiming--><path d="M31.9235,17.3952 C32.2432,14.8692 33.1832,11.0636 35.94,9.48 C38.3063,8.1208 57.906,8.6328 60.5,9.48 C61.4648,9.7952 62.4184,10.204 63.3472,10.6764 " fill="none" id="Cache.TimerTask-Cache.MRunTiming" style="stroke: #A80036; stroke-width: 0.04; stroke-dasharray: 7.0,7.0;"/><polygon fill="none" points="32.2012,17.4324,31.8372,18.1976,31.6444,17.3724,32.2012,17.4324" style="stroke: #A80036; stroke-width: 0.04;"/><!--link Cache.Timer to Cache.TimerTask--><path d="M43.9728,6.5184 C40.8864,7.238 37.6282,8.4944 35.24,10.68 C33.1409,12.6008 32.2978,15.9268 31.9665,17.9816 " fill="none" id="Cache.Timer-Cache.TimerTask" style="stroke: #A80036; stroke-width: 0.04;"/><polygon fill="#A80036" points="31.9341,18.1888,32.1477,17.8578,31.965,17.9912,31.8316,17.8084,31.9341,18.1888" style="stroke: #A80036; stroke-width: 0.04;"/><text fill="#000000" font-family="sans-serif" font-size="0.88" lengthAdjust="spacingAndGlyphs" textLength="0.48" x="31.444" y="17.6909">1</text><!--link Cache.MRunTiming to Cache.MStreamListener--><path d="M79.0844,28.9712 C79.7536,30.3429 80.406,31.6801 80.9652,32.8268 " fill="none" id="Cache.MRunTiming-Cache.MStreamListener" style="stroke: #A80036; stroke-width: 0.04; stroke-dasharray: 7.0,7.0;"/><polygon fill="#A80036" points="81.0544,33.0092,81.0405,32.6154,80.9668,32.8294,80.7529,32.7556,81.0544,33.0092" style="stroke: #A80036; stroke-width: 0.04;"/><!--link Cache.MSet to Cache.Cache--><path d="M65.3972,40.9828 C65.6936,41.071 65.9884,41.1568 66.28,41.24 C71.0088,42.5879 72.3096,42.4476 77.08,43.64 C77.3232,43.7008 77.5684,43.7626 77.8152,43.8254 " fill="none" id="Cache.MSet-Cache.Cache" style="stroke: #A80036; stroke-width: 0.04; stroke-dasharray: 7.0,7.0;"/><polygon fill="#A80036" points="65.1916,40.9214,65.4909,41.1776,65.3833,40.9785,65.5823,40.8709,65.1916,40.9214" style="stroke: #A80036; stroke-width: 0.04;"/><!--link Cache.Cache to Cache.BufferForOneSensorInChannel--><path d="M95.3024,52.443 C95.8344,53.3557 96.3924,54.3136 96.916,55.2118 " fill="none" id="Cache.Cache-Cache.BufferForOneSensorInChannel" style="stroke: #A80036; stroke-width: 0.04;"/><polygon fill="#A80036" points="97.02,55.3906,96.9773,54.999,96.9195,55.2177,96.7007,55.1599,97.02,55.3906" style="stroke: #A80036; stroke-width: 0.04;"/><text fill="#000000" font-family="sans-serif" font-size="0.88" lengthAdjust="spacingAndGlyphs" textLength="0.36" x="96.4763" y="54.8891">*</text><!--link Cache.Cache to Cache.ErrorCodesForInChannel--><path d="M77.8104,52.2812 C77.5656,52.3356 77.322,52.3886 77.08,52.44 C69.9948,53.9464 67.69,52.1611 60.96,54.84 C59.6956,55.3434 58.4384,56.1474 57.3876,56.9287 " fill="none" id="Cache.Cache-Cache.ErrorCodesForInChannel" style="stroke: #A80036; stroke-width: 0.04; stroke-dasharray: 7.0,7.0;"/><polygon fill="#A80036" points="57.2208,57.0538,57.6048,56.9658,57.3808,56.9338,57.4128,56.7098,57.2208,57.0538" style="stroke: #A80036; stroke-width: 0.04;"/><!--link Cache.TimestampValuePair to Cache.BufferForOneSensorInChannel--><path d="M83.354,59.24 C83.7512,59.24 84.148,59.24 84.5452,59.24 " fill="none" id="Cache.TimestampValuePair-Cache.BufferForOneSensorInChannel" style="stroke: #A80036; stroke-width: 0.04; stroke-dasharray: 7.0,7.0;"/><polygon fill="#A80036" points="83.1464,59.24,83.5064,59.4,83.3464,59.24,83.5064,59.08,83.1464,59.24" style="stroke: #A80036; stroke-width: 0.04;"/><!--link Cache.MRunTiming to Cache.CheckAndNotifyAction--><path d="M61.9336,28.6756 C61.6896,28.7755 61.4448,28.8704 61.2,28.96 C51.7472,32.4178 48.5832,29.56 38.68,31.36 C34.0843,32.1953 28.9602,33.5492 25.2048,34.6224 " fill="none" id="Cache.MRunTiming-Cache.CheckAndNotifyAction" style="stroke: #A80036; stroke-width: 0.04;"/><polygon fill="#A80036" points="25.0046,34.6797,25.3947,34.7343,25.1969,34.6246,25.3066,34.4267,25.0046,34.6797" style="stroke: #A80036; stroke-width: 0.04;"/><text fill="#000000" font-family="sans-serif" font-size="0.88" lengthAdjust="spacingAndGlyphs" textLength="0.36" x="25.4518" y="34.1699">*</text><!--link Cache.MRunTiming to Cache.Cache--><path d="M68.296,28.9669 C67.9392,29.7526 67.6324,30.5553 67.4,31.36 C66.7912,33.4695 66.0472,39.5108 67.4,41.24 C70.1312,44.731 72.7932,42.5128 77.08,43.64 C77.258,43.6868 77.4372,43.7341 77.6176,43.7818 " fill="none" id="Cache.MRunTiming-Cache.Cache" style="stroke: #A80036; stroke-width: 0.04;"/><polygon fill="#A80036" points="77.8132,43.8336,77.5064,43.5865,77.6199,43.7822,77.4242,43.8957,77.8132,43.8336" style="stroke: #A80036; stroke-width: 0.04;"/><!--link Cache.ErrorCodeAction to Cache.ErrorCodesForInChannel--><path d="M62.438,50.786 C60.7172,52.662 58.4508,55.1325 56.82,56.9106 " fill="none" id="Cache.ErrorCodeAction-Cache.ErrorCodesForInChannel" style="stroke: #A80036; stroke-width: 0.04;"/><polygon fill="#A80036" points="56.684,57.0589,57.0452,56.9017,56.8192,56.9115,56.8094,56.6855,56.684,57.0589" style="stroke: #A80036; stroke-width: 0.04;"/><text fill="#000000" font-family="sans-serif" font-size="0.88" lengthAdjust="spacingAndGlyphs" textLength="0.36" x="56.5526" y="56.5455">*</text><!--link Cache.MRunTiming to Cache.IMRunListener--><path d="M87.3488,25.7344 C92.1196,27.9397 97.4196,30.3896 101.7052,32.3705 " fill="none" id="Cache.MRunTiming-Cache.IMRunListener" style="stroke: #A80036; stroke-width: 0.04;"/><polygon fill="#A80036" points="101.8956,32.4585,101.6361,32.1621,101.7141,32.3745,101.5017,32.4526,101.8956,32.4585" style="stroke: #A80036; stroke-width: 0.04;"/><text fill="#000000" font-family="sans-serif" font-size="0.88" lengthAdjust="spacingAndGlyphs" textLength="0.36" x="100.8659" y="31.9439">*</text><!--link Cache.MRunTiming to Cache.IMRunInfo--><path d="M87.3436,22.098 C97.0948,24.0116 110.8012,27.1291 122.36,31.36 C123.5684,31.8023 124.822,32.3545 126.012,32.9272 " fill="none" id="Cache.MRunTiming-Cache.IMRunInfo" style="stroke: #A80036; stroke-width: 0.04; stroke-dasharray: 7.0,7.0;"/><polygon fill="#A80036" points="126.2024,33.0193,125.9477,32.7188,126.0223,32.9324,125.8086,33.007,126.2024,33.0193" style="stroke: #A80036; stroke-width: 0.04;"/><!--link Cache.ConnectionTerminatedAction to Cache.ChannelConnectionStatus--><path d="M121.8364,50.786 C122.3652,51.9441 122.998,53.3288 123.5956,54.6374 " fill="none" id="Cache.ConnectionTerminatedAction-Cache.ChannelConnectionStatus" style="stroke: #A80036; stroke-width: 0.04;"/><polygon fill="#A80036" points="123.6836,54.8299,123.6793,54.4359,123.6004,54.648,123.3883,54.5691,123.6836,54.8299" style="stroke: #A80036; stroke-width: 0.04;"/><text fill="#000000" font-family="sans-serif" font-size="0.88" lengthAdjust="spacingAndGlyphs" textLength="0.36" x="123.1774" y="54.3321">*</text><!--link Cache.IMRunListener to Model.MRunReaction--><path d="M119.594,40.4079 C120.5184,40.7212 121.4504,41.006 122.36,41.24 C130.7912,43.4091 133.8168,40.1675 141.8,43.64 C143.5392,44.3966 145.1476,45.926 146.1016,46.9569 " fill="none" id="Cache.IMRunListener-Model.MRunReaction" style="stroke: #A80036; stroke-width: 0.04; stroke-dasharray: 7.0,7.0;"/><polygon fill="none" points="119.5008,40.672,118.8372,40.1447,119.6848,40.1431,119.5008,40.672" style="stroke: #A80036; stroke-width: 0.04;"/><!--link Cache.IMRunInfo to Model.MRunInfo--><path d="M141.9256,38.9022 C145.104,40.0281 148.5188,41.5754 151.28,43.64 C152.4764,44.5344 153.454,45.9716 154.0312,46.9495 " fill="none" id="Cache.IMRunInfo-Model.MRunInfo" style="stroke: #A80036; stroke-width: 0.04; stroke-dasharray: 7.0,7.0;"/><polygon fill="none" points="141.8308,39.1656,141.1664,38.6394,142.014,38.6364,141.8308,39.1656" style="stroke: #A80036; stroke-width: 0.04;"/><!--
@startuml
scale 0.04
skinparam defaultFontSize 22

namespace Cache {

class MStreamListener {
	+ MStreamListener(cache: Cache)
	+ addConnectinTerminatedAction(action: ConnectionTerminatedAction)
	+ receiveMDataSet(channelId: String, timeStamp: long, value: double): void
	+ connectionTerminated(channelId: String): void
}


class MRunTiming {
	- replayTimePointer: long
	- endFlag: boolean
	- -
	+ MRunTiming(initData: MRunInfo)
	- createCache(): Cache
	- addBufferForOneSensorInChannel(SensorId: String)
	- addCheckAndNotifyAction(action: CheckAndNotifyAction): void
	+ getMStreamListener(): MStreamListener
	..
	+ addMRunListener(listener: IMRunListener)
	+ removeMRunListener(listener: IMRunListener)
	+ startRepeatedTimer(): void
	+ stopRepeatedTimer(): void
	..
	+ run(): void
	- setCurrentTime(): void
	- checkActions(): void
}

class Timer {
	-period: long
	+schedule(timerTask: TimerTask, period: long)
	+cancel(): boolean
}

class Cache{
	+ addBufferForOneSensorInChannel(SensorId: String)
	+ receiveMSet(channelId: String, timeStamp: long, value: double): void
	+ isDataForAllInChannelsAvailable(from: long, to: long): boolean
	+ pollDataForAllInChannels(from: long, to: long):  MSet[]
	+ getErrorsOfOneChannel(codesToCheck: ErrorCodesForInChannel): MSet[]
	+ removeDataBeforeTimepointer(to: long): void
}

class BufferForOneSensorInChannel {
	-sensorInChannelId: String
	-buffer: Queue<TimestampValuePair>
	+getInChannelId(): String
	+addPacket(packet: TimestampValuePair)
	+getAllPacketsDuringTimespan(from: long, to: long): TimestampValuePair[]
}

class TimestampValuePair	{
	-value: double
	-timeStamp: long
	+TimestampValuePair(value: double, timeStamp: long)
	+getValue(): double
	+getTimeSpamp(): long
}
	
class ConnectionTerminatedAction {
	+ ConnectionTerminatedAction(allSensorIds: String[])
	+ raiseConnectionTerminatedFlag(channelId: String): void
	+ checkAndNotify(meansForAction: MeansForAction): long
}

class TimeoutAction {
	- period: long
	- numberOfToleratedLatencyPeriods: int
	+ TimeoutAction(period: long, numberToleratedLatencyPeriods: int)
	+ checkAndNotify(meansForAction: MeansForAction): long
}

class ErrorCodeAction {
	+ErrorCodeAction()
	+addCodes(sensorInChannelId: String, codes: double[])
	+checkAndNotify(meansForAction: MeansForAction): long
}

class DataSetCompleteAction {
	-period: long
	DataSetCompleteAction(period: long)
	+checkAndNotify(meansForAction: MeansForAction): long
}

class MSet {
	-sensorInChannelId: String
	-value: double
	-timeStamp: long
	+MSet(sensorInChannelId: String, value: double, timeStamp: long)
	+getSensorInChannelId(): String
	+getValue(): double
	+getTimeSpamp(): long
}
	
class ErrorCodesForInChannel {
	sensorInChannelId: String
	errorCodes: double[]
}

class MeansForAction {
	replayTimepointer: long, 
	cache: Cache, 
	mRunForward: IMRunListener
	MeansForAction(cache: Cache, mRunForward: IMRunListener)
	setReplayTimepointer(replayTimepointer: long)
}

class ChannelConnectionStatus {	
	sensorInChannelId: String
	connected: boolean
	ChannelConnectionStatus(sensorInChannelId: String)
	getsensorInChannelId(): String
	setConnected(connected: boolean)
	isConnected(): boolean
}

MRunTiming .right.> MeansForAction
CheckAndNotifyAction .up.> MeansForAction
 

MStreamListener - -> "*" ConnectionTerminatedAction
MStreamListener - -> Cache
ConnectionTerminatedAction .up.|> CheckAndNotifyAction
TimeoutAction .up.|> CheckAndNotifyAction
ErrorCodeAction .up.|> CheckAndNotifyAction
DataSetCompleteAction .up.|> CheckAndNotifyAction

MRunTiming -left-> Timer
MRunTiming .left.|> TimerTask
Timer -down-> "1" TimerTask
MRunTiming ..> MStreamListener
Cache .up.> MSet
Cache -down-> "*" BufferForOneSensorInChannel
Cache ..> ErrorCodesForInChannel     

BufferForOneSensorInChannel .left.> TimestampValuePair
MRunTiming - -> "*" CheckAndNotifyAction

MRunTiming -down-> Cache

ErrorCodeAction - -> "*" ErrorCodesForInChannel

MRunTiming - -> "*" IMRunListener
MRunTiming ..> IMRunInfo
ConnectionTerminatedAction - -> "*" ChannelConnectionStatus

interface CheckAndNotifyAction {
	+checkAndNotify(replayTimepointer: long, cache: Cache, mRunForward: IMRunListener): long
}

interface IMRunListener {
	+justWaiting():  void
	+indicateError(inChannelId: String, errorCode: double)
	+indicateTimeout(): void
	+indicateConnectionTerminated(): void
	+dispatchCompletePacketSet(completePacketSet: MSet[])
}

interface IMRunInfo {
	+getAllInChannelIds(): String[]
	+getErrorCodes(inChannelId: String): double[]
	+getPeriod(): long
	+getTimeoutOption(): long
}

interface TimerTask {
	+run(): void
}

IMRunListener <|.. Model.MRunReaction
IMRunInfo <|.. Model.MRunInfo


}
@enduml

PlantUML version 1.2019.06(Fri May 24 19:10:25 CEST 2019)
(GPL source distribution)
Java Runtime: Java(TM) SE Runtime Environment
JVM: Java HotSpot(TM) 64-Bit Server VM
Java Version: 10.0.1+10
Operating System: Windows 10
OS Version: 10.0
Default Encoding: Cp1252
Language: de
Country: DE
--></g></svg>