<?xml version="1.0" encoding="UTF-8" standalone="no"?><svg xmlns="http://www.w3.org/2000/svg" xmlns:xlink="http://www.w3.org/1999/xlink" contentScriptType="application/ecmascript" contentStyleType="text/css" height="61px" preserveAspectRatio="none" style="width:32px;height:61px;" version="1.1" viewBox="0 0 32 61" width="32.04px" zoomAndPan="magnify"><defs><filter height="300%" id="fk5wbsq4e4n13" width="300%" x="-1" y="-1"><feGaussianBlur result="blurOut" stdDeviation="0.08"/><feColorMatrix in="blurOut" result="blurOut2" type="matrix" values="0 0 0 0 0 0 0 0 0 0 0 0 0 0 0 0 0 0 .4 0"/><feOffset dx="0.16" dy="0.16" in="blurOut2" result="blurOut3"/><feBlend in="SourceGraphic" in2="blurOut3" mode="normal"/></filter></defs><g><!--cluster Initialization--><polygon fill="#FFFFFF" filter="url(#fk5wbsq4e4n13)" points="15.64,0.96,20.6,0.96,20.88,2.3069,27.48,2.3069,27.48,6.68,15.64,6.68,15.64,0.96" style="stroke: #000000; stroke-width: 0.06;"/><line style="stroke: #000000; stroke-width: 0.06;" x1="15.64" x2="20.88" y1="2.3069" y2="2.3069"/><text fill="#000000" font-family="sans-serif" font-size="0.88" font-weight="bold" lengthAdjust="spacingAndGlyphs" textLength="4.72" x="15.8" y="1.9535">Initialization</text><!--cluster Backend--><polygon fill="#FFFFFF" filter="url(#fk5wbsq4e4n13)" points="0.88,49.92,4.72,49.92,5,51.2669,16.32,51.2669,16.32,54.56,0.88,54.56,0.88,49.92" style="stroke: #000000; stroke-width: 0.06;"/><line style="stroke: #000000; stroke-width: 0.06;" x1="0.88" x2="5" y1="51.2669" y2="51.2669"/><text fill="#000000" font-family="sans-serif" font-size="0.88" font-weight="bold" lengthAdjust="spacingAndGlyphs" textLength="3.6" x="1.04" y="50.9135">Backend</text><!--cluster Model--><polygon fill="#FFFFFF" filter="url(#fk5wbsq4e4n13)" points="17.28,49.92,19.92,49.92,20.2,51.2669,25.84,51.2669,25.84,54.56,17.28,54.56,17.28,49.92" style="stroke: #000000; stroke-width: 0.06;"/><line style="stroke: #000000; stroke-width: 0.06;" x1="17.28" x2="20.2" y1="51.2669" y2="51.2669"/><text fill="#000000" font-family="sans-serif" font-size="0.88" font-weight="bold" lengthAdjust="spacingAndGlyphs" textLength="2.4" x="17.44" y="50.9135">Model</text><!--cluster GUI--><polygon fill="#FFFFFF" filter="url(#fk5wbsq4e4n13)" points="23.48,55.88,25.24,55.88,25.52,57.2269,31.16,57.2269,31.16,60.52,23.48,60.52,23.48,55.88" style="stroke: #000000; stroke-width: 0.06;"/><line style="stroke: #000000; stroke-width: 0.06;" x1="23.48" x2="25.52" y1="57.2269" y2="57.2269"/><text fill="#000000" font-family="sans-serif" font-size="0.88" font-weight="bold" lengthAdjust="spacingAndGlyphs" textLength="1.52" x="23.64" y="56.8735">GUI</text><!--class Initialization.Main--><rect fill="#FEFECE" filter="url(#fk5wbsq4e4n13)" height="3.2538" id="Initialization.Main" style="stroke: #A80036; stroke-width: 0.06;" width="10.52" x="16.3" y="2.8"/><ellipse cx="20.43" cy="3.5534" fill="#ADD1B2" rx="0.52" ry="0.52" style="stroke: #A80036; stroke-width: 0.04;"/><path d="M20.5325,3.3247 Q20.5406,3.3141 20.5503,3.3084 Q20.56,3.3028 20.5706,3.3028 Q20.59,3.3028 20.6025,3.3159 Q20.615,3.3291 20.615,3.3609 L20.615,3.4359 Q20.615,3.4678 20.6025,3.4813 Q20.59,3.4947 20.5706,3.4947 Q20.5531,3.4947 20.5425,3.4847 Q20.5319,3.4747 20.5269,3.4478 Q20.5238,3.4297 20.5144,3.4197 Q20.4969,3.4003 20.4653,3.3888 Q20.4338,3.3772 20.4019,3.3772 Q20.3625,3.3772 20.3294,3.3944 Q20.2963,3.4116 20.2709,3.4503 Q20.2456,3.4891 20.2456,3.5422 L20.2456,3.5997 Q20.2456,3.6634 20.2919,3.7059 Q20.3381,3.7484 20.42,3.7484 Q20.4688,3.7484 20.5031,3.7347 Q20.5225,3.7272 20.545,3.7047 Q20.5588,3.6909 20.5666,3.6866 Q20.5744,3.6822 20.5844,3.6822 Q20.6019,3.6822 20.6153,3.6956 Q20.6288,3.7091 20.6288,3.7272 Q20.6288,3.7453 20.6106,3.7659 Q20.5844,3.7959 20.5431,3.8128 Q20.4875,3.8366 20.4206,3.8366 Q20.3425,3.8366 20.2794,3.8041 Q20.2288,3.7784 20.1931,3.7228 Q20.1575,3.6672 20.1575,3.6016 L20.1575,3.5416 Q20.1575,3.4728 20.1894,3.4134 Q20.2213,3.3541 20.2781,3.3216 Q20.335,3.2891 20.3988,3.2891 Q20.4369,3.2891 20.47,3.2981 Q20.5031,3.3072 20.5325,3.3247 Z "/><text fill="#000000" font-family="sans-serif" font-size="0.88" lengthAdjust="spacingAndGlyphs" textLength="1.88" x="21.37" y="3.9135">Main</text><line style="stroke: #A80036; stroke-width: 0.06;" x1="16.34" x2="26.78" y1="4.3069" y2="4.3069"/><line style="stroke: #A80036; stroke-width: 0.06;" x1="16.34" x2="26.78" y1="4.6269" y2="4.6269"/><ellipse cx="16.74" cy="5.4003" fill="#84BE84" rx="0.12" ry="0.12" style="stroke: #038048; stroke-width: 0.04;"/><text fill="#000000" font-family="sans-serif" font-size="0.88" lengthAdjust="spacingAndGlyphs" textLength="9.4" x="17.18" y="5.7004">main(args: String[]): void</text><!--class Backend.PickPointForAgentsBasedOnSsh--><rect fill="#FEFECE" filter="url(#fk5wbsq4e4n13)" height="2.1469" id="Backend.PickPointForAgentsBasedOnSsh" style="stroke: #A80036; stroke-width: 0.06;" width="14.16" x="1.52" y="51.76"/><ellipse cx="2.2" cy="52.5134" fill="#ADD1B2" rx="0.52" ry="0.52" style="stroke: #A80036; stroke-width: 0.04;"/><path d="M2.3025,52.2847 Q2.3106,52.2741 2.3203,52.2684 Q2.33,52.2628 2.3406,52.2628 Q2.36,52.2628 2.3725,52.2759 Q2.385,52.2891 2.385,52.3209 L2.385,52.3959 Q2.385,52.4278 2.3725,52.4413 Q2.36,52.4547 2.3406,52.4547 Q2.3231,52.4547 2.3125,52.4447 Q2.3019,52.4347 2.2969,52.4078 Q2.2938,52.3897 2.2844,52.3797 Q2.2669,52.3603 2.2353,52.3488 Q2.2038,52.3372 2.1719,52.3372 Q2.1325,52.3372 2.0994,52.3544 Q2.0663,52.3716 2.0409,52.4103 Q2.0156,52.4491 2.0156,52.5022 L2.0156,52.5597 Q2.0156,52.6234 2.0619,52.6659 Q2.1081,52.7084 2.19,52.7084 Q2.2388,52.7084 2.2731,52.6947 Q2.2925,52.6872 2.315,52.6647 Q2.3288,52.6509 2.3366,52.6466 Q2.3444,52.6422 2.3544,52.6422 Q2.3719,52.6422 2.3853,52.6556 Q2.3988,52.6691 2.3988,52.6872 Q2.3988,52.7053 2.3806,52.7259 Q2.3544,52.7559 2.3131,52.7728 Q2.2575,52.7966 2.1906,52.7966 Q2.1125,52.7966 2.0494,52.7641 Q1.9988,52.7384 1.9631,52.6828 Q1.9275,52.6272 1.9275,52.5616 L1.9275,52.5016 Q1.9275,52.4328 1.9594,52.3734 Q1.9913,52.3141 2.0481,52.2816 Q2.105,52.2491 2.1688,52.2491 Q2.2069,52.2491 2.24,52.2581 Q2.2731,52.2672 2.3025,52.2847 Z "/><text fill="#000000" font-family="sans-serif" font-size="0.88" lengthAdjust="spacingAndGlyphs" textLength="12.72" x="2.84" y="52.8735">PickPointForAgentsBasedOnSsh</text><line style="stroke: #A80036; stroke-width: 0.06;" x1="1.56" x2="15.64" y1="53.2669" y2="53.2669"/><line style="stroke: #A80036; stroke-width: 0.06;" x1="1.56" x2="15.64" y1="53.5869" y2="53.5869"/><!--class Model.ModelManager--><rect fill="#FEFECE" filter="url(#fk5wbsq4e4n13)" height="2.1469" id="Model.ModelManager" style="stroke: #A80036; stroke-width: 0.06;" width="7.24" x="17.94" y="51.76"/><ellipse cx="18.62" cy="52.5134" fill="#ADD1B2" rx="0.52" ry="0.52" style="stroke: #A80036; stroke-width: 0.04;"/><path d="M18.7225,52.2847 Q18.7306,52.2741 18.7403,52.2684 Q18.75,52.2628 18.7606,52.2628 Q18.78,52.2628 18.7925,52.2759 Q18.805,52.2891 18.805,52.3209 L18.805,52.3959 Q18.805,52.4278 18.7925,52.4413 Q18.78,52.4547 18.7606,52.4547 Q18.7431,52.4547 18.7325,52.4447 Q18.7219,52.4347 18.7169,52.4078 Q18.7138,52.3897 18.7044,52.3797 Q18.6869,52.3603 18.6553,52.3488 Q18.6238,52.3372 18.5919,52.3372 Q18.5525,52.3372 18.5194,52.3544 Q18.4863,52.3716 18.4609,52.4103 Q18.4356,52.4491 18.4356,52.5022 L18.4356,52.5597 Q18.4356,52.6234 18.4819,52.6659 Q18.5281,52.7084 18.61,52.7084 Q18.6588,52.7084 18.6931,52.6947 Q18.7125,52.6872 18.735,52.6647 Q18.7488,52.6509 18.7566,52.6466 Q18.7644,52.6422 18.7744,52.6422 Q18.7919,52.6422 18.8053,52.6556 Q18.8188,52.6691 18.8188,52.6872 Q18.8188,52.7053 18.8006,52.7259 Q18.7744,52.7559 18.7331,52.7728 Q18.6775,52.7966 18.6106,52.7966 Q18.5325,52.7966 18.4694,52.7641 Q18.4188,52.7384 18.3831,52.6828 Q18.3475,52.6272 18.3475,52.5616 L18.3475,52.5016 Q18.3475,52.4328 18.3794,52.3734 Q18.4113,52.3141 18.4681,52.2816 Q18.525,52.2491 18.5888,52.2491 Q18.6269,52.2491 18.66,52.2581 Q18.6931,52.2672 18.7225,52.2847 Z "/><text fill="#000000" font-family="sans-serif" font-size="0.88" lengthAdjust="spacingAndGlyphs" textLength="5.8" x="19.26" y="52.8735">ModelManager</text><line style="stroke: #A80036; stroke-width: 0.06;" x1="17.98" x2="25.14" y1="53.2669" y2="53.2669"/><line style="stroke: #A80036; stroke-width: 0.06;" x1="17.98" x2="25.14" y1="53.5869" y2="53.5869"/><!--class GUI.MainWindow--><rect fill="#FEFECE" filter="url(#fk5wbsq4e4n13)" height="2.1469" id="GUI.MainWindow" style="stroke: #A80036; stroke-width: 0.06;" width="6.4" x="24.12" y="57.72"/><ellipse cx="24.8" cy="58.4734" fill="#ADD1B2" rx="0.52" ry="0.52" style="stroke: #A80036; stroke-width: 0.04;"/><path d="M24.9025,58.2447 Q24.9106,58.2341 24.9203,58.2284 Q24.93,58.2228 24.9406,58.2228 Q24.96,58.2228 24.9725,58.2359 Q24.985,58.2491 24.985,58.2809 L24.985,58.3559 Q24.985,58.3878 24.9725,58.4013 Q24.96,58.4147 24.9406,58.4147 Q24.9231,58.4147 24.9125,58.4047 Q24.9019,58.3947 24.8969,58.3678 Q24.8938,58.3497 24.8844,58.3397 Q24.8669,58.3203 24.8353,58.3088 Q24.8038,58.2972 24.7719,58.2972 Q24.7325,58.2972 24.6994,58.3144 Q24.6663,58.3316 24.6409,58.3703 Q24.6156,58.4091 24.6156,58.4622 L24.6156,58.5197 Q24.6156,58.5834 24.6619,58.6259 Q24.7081,58.6684 24.79,58.6684 Q24.8388,58.6684 24.8731,58.6547 Q24.8925,58.6472 24.915,58.6247 Q24.9288,58.6109 24.9366,58.6066 Q24.9444,58.6022 24.9544,58.6022 Q24.9719,58.6022 24.9853,58.6156 Q24.9988,58.6291 24.9988,58.6472 Q24.9988,58.6653 24.9806,58.6859 Q24.9544,58.7159 24.9131,58.7328 Q24.8575,58.7566 24.7906,58.7566 Q24.7125,58.7566 24.6494,58.7241 Q24.5988,58.6984 24.5631,58.6428 Q24.5275,58.5872 24.5275,58.5216 L24.5275,58.4616 Q24.5275,58.3928 24.5594,58.3334 Q24.5913,58.2741 24.6481,58.2416 Q24.705,58.2091 24.7688,58.2091 Q24.8069,58.2091 24.84,58.2181 Q24.8731,58.2272 24.9025,58.2447 Z "/><text fill="#000000" font-family="sans-serif" font-size="0.88" lengthAdjust="spacingAndGlyphs" textLength="4.96" x="25.44" y="58.8335">MainWindow</text><line style="stroke: #A80036; stroke-width: 0.06;" x1="24.16" x2="30.48" y1="59.2269" y2="59.2269"/><line style="stroke: #A80036; stroke-width: 0.06;" x1="24.16" x2="30.48" y1="59.5469" y2="59.5469"/><!--link Initialization.Main to Backend.PickPointForAgentsBasedOnSsh--><path d="M16.298,4.9944 C14.2565,5.5208 12.4,6.552 12.4,8.56 C12.4,8.56 12.4,8.56 12.4,48.04 C12.4,49.4954 11.3016,50.7618 10.2858,51.6216 " fill="none" id="Initialization.Main-Backend.PickPointForAgentsBasedOnSsh" style="stroke: #A80036; stroke-width: 0.04;"/><polygon fill="#A80036" points="10.1237,51.7561,10.503,51.6495,10.2777,51.6285,10.2987,51.4032,10.1237,51.7561" style="stroke: #A80036; stroke-width: 0.04;"/><text fill="#000000" font-family="sans-serif" font-size="0.88" lengthAdjust="spacingAndGlyphs" textLength="2.84" x="12.44" y="28.1135">creates</text><polygon fill="#000000" points="13.5,28.5869,13.78,29.1469,14.06,28.5869,13.5,28.5869" style="stroke: #000000; stroke-width: 0.04;"/><!--link Initialization.Main to Model.ModelManager--><path d="M21.56,6.0568 C21.56,6.8152 21.56,7.7344 21.56,8.56 C21.56,8.56 21.56,8.56 21.56,48.04 C21.56,49.2232 21.56,50.5717 21.56,51.5306 " fill="none" id="Initialization.Main-Model.ModelManager" style="stroke: #A80036; stroke-width: 0.04;"/><polygon fill="#A80036" points="21.56,51.7413,21.72,51.3813,21.56,51.5413,21.4,51.3813,21.56,51.7413" style="stroke: #A80036; stroke-width: 0.04;"/><text fill="#000000" font-family="sans-serif" font-size="0.88" lengthAdjust="spacingAndGlyphs" textLength="2.84" x="21.6" y="28.1135">creates</text><polygon fill="#000000" points="22.66,28.5869,22.94,29.1469,23.22,28.5869,22.66,28.5869" style="stroke: #000000; stroke-width: 0.04;"/><!--link Initialization.Main to GUI.MainWindow--><path d="M25.746,6.044 C26.6394,6.658 27.32,7.48 27.32,8.56 C27.32,8.56 27.32,8.56 27.32,52.88 C27.32,54.4753 27.32,56.314 27.32,57.5045 " fill="none" id="Initialization.Main-GUI.MainWindow" style="stroke: #A80036; stroke-width: 0.04;"/><polygon fill="#A80036" points="27.32,57.7191,27.48,57.3591,27.32,57.5191,27.16,57.3591,27.32,57.7191" style="stroke: #A80036; stroke-width: 0.04;"/><text fill="#000000" font-family="sans-serif" font-size="0.88" lengthAdjust="spacingAndGlyphs" textLength="2.84" x="27.36" y="30.4735">creates</text><polygon fill="#000000" points="28.42,30.9469,28.7,31.5069,28.98,30.9469,28.42,30.9469" style="stroke: #000000; stroke-width: 0.04;"/><!--
@startuml
scale 0.04
skinparam defaultFontSize 22

namespace Initialization {
	class Main {
		+main(args: String[]): void
	}
	Main - - - - - - - - - - - - - - - - - -> Backend.PickPointForAgentsBasedOnSsh: creates >
	Main - - - - - - - - - - - - - - - - - -> Model.ModelManager: creates >
	Main - - - - - - - - - - - - - - - - - - -> GUI.MainWindow: creates >
}

@enduml

PlantUML version 1.2019.06(Fri May 24 19:10:25 CEST 2019)
(GPL source distribution)
Java Runtime: Java(TM) SE Runtime Environment
JVM: Java HotSpot(TM) 64-Bit Server VM
Java Version: 10.0.1+10
Operating System: Windows 10
OS Version: 10.0
Default Encoding: Cp1252
Language: de
Country: DE
--></g></svg>